<?xml version="1.0" standalone="no"?>
<!DOCTYPE svg PUBLIC "-//W3C//DTD SVG 1.1//EN" "http://www.w3.org/Graphics/SVG/1.1/DTD/svg11.dtd" >
<svg>
<metadata>
Created by FontForge 20120731 at Wed Nov  5 22:39:40 2014
 By Orthosie Webhosting
2010 Martin Majoor, Latin character set extension by Inka Menne published by FSI FontShop International GmbH
</metadata>
<defs>
<font id="CkotbmkojeuljxgmtqpyowwwfgoRegular" horiz-adv-x="500" >
  <font-face 
    font-family="CkotbmkojeuljxgmtqpyowwwfgoRegular"
    font-weight="700"
    font-stretch="normal"
    units-per-em="1000"
    panose-1="2 1 8 4 5 1 1 2 1 2"
    ascent="734"
    descent="-266"
    x-height="453"
    cap-height="660"
    bbox="-498 -264 1349 899"
    underline-thickness="50"
    underline-position="-60"
    unicode-range="U+0020-FB04"
  />
<missing-glyph horiz-adv-x="581" 
d="M22 660h537v-660h-537v660zM477 82v496h-373v-496h373z" />
    <glyph glyph-name="uniFB00" unicode="ff" horiz-adv-x="620" 
d="M582 0h-259v42h59v350h-177v-350h59v-42h-235v42h59v350h-69v30l69 23v59q0 45 16.5 83t46 65.5t70.5 42.5t90 15q41 0 73.5 -7.5t61.5 -24.5q38 33 74 47t85 14q20 0 36.5 -2t33.5 -7t35.5 -13t42.5 -21l-65 -82q-16 15 -27.5 25t-22.5 17.5t-24 15t-33 17.5
q-29 -5 -45 -12.5t-24.5 -26t-10.5 -52.5t-2 -92v-63h103v-51h-103v-350h83v-42zM382 443v111q0 11 1 18t2.5 11.5t4.5 10.5q-17 14 -29.5 24t-23.5 18t-23 15t-27 15q-26 -7 -42 -17.5t-25 -30.5t-12 -52t-3 -82v-41h177z" />
    <glyph glyph-name="fi" unicode="fi" horiz-adv-x="577" 
d="M323 0v42h59v350h-177v-350h58v-42h-235v42h59v350h-68v31l71 21v80q1 62 20.5 101.5t64.5 68.5q31 20 71 31q34 9 70 9q47 0 86.5 -12.5t88.5 -42.5l-70 -86q-30 26 -48 41t-30.5 24.5t-24 15.5t-27.5 14q-47 -9 -65.5 -34.5t-18.5 -80.5v-130h183l70 18h40v-419h60v-42
h-237z" />
    <glyph glyph-name="fl" unicode="fl" horiz-adv-x="577" 
d="M325 0v42h60v350h-179v-350h58v-42h-235v42h60v350h-71v30l71 24v81q0 45 17 83.5t48 66.5t73 43.5t92 15.5q26 0 45 -3.5t51 -15.5l48 20h39v-695h59v-42h-236zM385 620q-14 13 -24.5 21.5t-20.5 16t-22.5 14.5t-30.5 17q-27 -8 -43 -18t-24.5 -28.5t-11 -49t-2.5 -81.5
v-69h179v177z" />
    <glyph glyph-name="uniFB03" unicode="ffi" horiz-adv-x="871" 
d="M854 0h-237v42h59v350h-176v-350h58v-42h-234v42h58v350h-176v-350h59v-42h-235v42h59v348h-68v30l68 24v62q0 60 19.5 98t65.5 68q63 40 139 40q41 0 77 -8.5t62 -24.5q39 32 75.5 46t84.5 14q23 0 43 -3t40.5 -10t42 -18.5t47.5 -28.5l-70 -86q-22 19 -37.5 32.5
t-29 23.5t-28 19t-34.5 21q-27 -6 -44 -16.5t-26 -30.5t-12.5 -52.5t-3.5 -83.5v-63h187l69 18h37v-419h61v-42zM382 443v82q0 23 2 36.5t8 30.5q-24 27 -47 44t-56 31q-28 -8 -44.5 -17.5t-25 -28.5t-11 -51.5t-2.5 -86.5v-40h176z" />
    <glyph glyph-name="uniFB04" unicode="ffl" horiz-adv-x="866" 
d="M849 0h-234v42h59v350h-176v-350h59v-42h-235v42h59v350h-177v-350h59v-42h-235v42h59v350h-68v31l72 23v57q0 97 61.5 152t169.5 55q41 0 68.5 -7t55.5 -24q37 32 73 46t82 14q14 0 25.5 -1t22.5 -3t23.5 -5.5t29.5 -9.5l49 17h40v-695h59zM674 443v183q-13 11 -22.5 19
t-19 14.5t-21.5 13.5t-29 16q-27 -7 -43.5 -16.5t-25.5 -29t-12 -52t-3 -84.5v-64h176zM381 443v83q0 22 1.5 34.5t6.5 33.5q-17 16 -30 27t-24.5 19t-23 14t-24.5 12q-26 -7 -42 -17.5t-25 -30t-12.5 -51.5t-3.5 -81v-43h177z" />
    <glyph glyph-name=".notdef" horiz-adv-x="581" 
d="M22 660h537v-660h-537v660zM477 82v496h-373v-496h373z" />
    <glyph glyph-name=".null" horiz-adv-x="0" 
 />
    <glyph glyph-name="nonmarkingreturn" horiz-adv-x="250" 
 />
    <glyph glyph-name="space" unicode=" " horiz-adv-x="250" 
 />
    <glyph glyph-name="exclam" unicode="!" horiz-adv-x="264" 
d="M165 192h-61l-38 545h133zM189 46q0 -23 -17 -40t-40 -17t-40 17t-17 40t17 40t40 17t40 -17t17 -40z" />
    <glyph glyph-name="quotedbl" unicode="&#x22;" horiz-adv-x="409" 
d="M81 432v226h84v-226h-84zM242 432v226h83v-226h-83z" />
    <glyph glyph-name="numbersign" unicode="#" horiz-adv-x="550" 
d="M533 393h-104l-21 -114h105l-14 -74h-106l-40 -205h-79l40 205h-127l-40 -205h-78l41 205h-107l14 74h108l22 114h-108l14 73h109l38 192h76l-37 -192h126l37 192h79l-37 -192h103zM224 393l-21 -114h125l23 114h-127z" />
    <glyph glyph-name="dollar" unicode="$" 
d="M481 177q0 -39 -15.5 -72t-43 -58t-66.5 -39.5t-86 -17.5v-58h-46v55q-45 3 -75 6.5t-52.5 9.5t-42.5 16t-45 26l64 102q16 -20 28 -33.5t23.5 -24t26 -20t35.5 -22.5l38 3v228q-12 8 -21 13.5t-16 10.5q-41 26 -65 42.5t-38.5 28.5t-23.5 22.5t-18 25.5q-21 33 -21 79
q0 36 14.5 66.5t41 53t64 37t83.5 17.5v58h46v-57q40 -2 66 -4.5t45.5 -7.5t36.5 -12.5t39 -20.5l-67 -95q-14 18 -24.5 29.5t-20.5 20.5t-22.5 17t-31.5 18l-21 -3v-214l51 -32q34 -21 58 -38t40.5 -31.5t27 -28.5t18.5 -29q16 -32 16 -67zM347 144q0 35 -17.5 60t-59.5 49
v-198q43 16 60 35.5t17 53.5zM224 613q-35 -6 -53.5 -28t-18.5 -57q0 -14 3 -25.5t11 -22.5t22 -22.5t36 -26.5v182z" />
    <glyph glyph-name="percent" unicode="%" horiz-adv-x="850" 
d="M384 495q0 -36 -13.5 -68t-37.5 -56t-56 -37.5t-68 -13.5t-68 13.5t-55.5 37.5t-37.5 56t-14 68t14 68t37.5 56t55.5 38t68 14t68 -14t56 -38t37.5 -56t13.5 -68zM816 162q0 -36 -14 -68t-37.5 -55.5t-55.5 -37.5t-68 -14t-68 14t-56 37.5t-37.5 55.5t-13.5 68t13.5 68
t37.5 56t56 37.5t68 13.5t68 -13.5t55.5 -37.5t37.5 -56t14 -68zM180 -46h-78l559 733h95zM739 162q0 41 -28.5 69.5t-69.5 28.5q-42 0 -70 -28.5t-28 -69.5t28 -69.5t70 -28.5q41 0 69.5 28.5t28.5 69.5zM307 495q0 41 -28 69.5t-70 28.5q-41 0 -69.5 -28.5t-28.5 -69.5
t28.5 -69.5t69.5 -28.5q42 0 70 28.5t28 69.5z" />
    <glyph glyph-name="ampersand" unicode="&#x26;" horiz-adv-x="703" 
d="M703 100q-24 -36 -41.5 -58t-33 -34.5t-32.5 -16.5t-40 -4q-45 0 -77 16.5t-66 56.5q-26 -21 -47 -35.5t-41.5 -22.5t-41.5 -11.5t-48 -3.5q-49 0 -89.5 13.5t-69 38.5t-44.5 59t-16 76q0 122 162 214l-35 51q-15 21 -25 38t-16 32t-8.5 29t-2.5 30q0 39 15 70.5t42.5 54
t66.5 34.5t86 12q38 0 69.5 -10t54.5 -27.5t36 -42t13 -53.5q0 -33 -18 -62t-57 -59l-52 -40l-31 41q32 23 45 48t13 61q0 42 -21.5 66.5t-57.5 24.5q-38 0 -61.5 -25t-23.5 -67q0 -28 10 -53.5t36 -60.5l199 -275q11 16 18.5 27.5t13.5 24t13 28t16 38.5h-84v42h226v-42
h-79q-9 -29 -18.5 -51t-20 -42t-23.5 -39.5t-30 -41.5q29 -38 52 -55.5t44 -17.5q8 0 15 2.5t15 9.5t18.5 19t24.5 32zM211 339q-67 -61 -67 -147q0 -61 31 -99t82 -38q33 0 61.5 12.5t57.5 41.5z" />
    <glyph glyph-name="quotesingle" unicode="'" horiz-adv-x="248" 
d="M81 432v226h83v-226h-83z" />
    <glyph glyph-name="parenleft" unicode="(" horiz-adv-x="309" 
d="M214 -256q-13 18 -22.5 32t-18 29t-16.5 32.5t-19 42.5q-36 85 -52.5 161t-16.5 161t16.5 161t52.5 161q11 25 19 43t16.5 32.5t18 28.5t22.5 32h77q-23 -44 -42 -99.5t-32.5 -116t-21 -122.5t-7.5 -120t7.5 -120t21 -122.5t32.5 -116t42 -99.5h-77z" />
    <glyph glyph-name="parenright" unicode=")" horiz-adv-x="309" 
d="M239 202q0 -85 -16 -161t-53 -161q-11 -25 -19 -42.5t-16 -32.5t-17.5 -29t-22.5 -32h-77q22 44 41 99.5t32.5 116t21 122.5t7.5 120t-7.5 120t-21 122.5t-32 116t-41.5 99.5h77q13 -18 22.5 -32t17.5 -28.5t16 -32.5t19 -43q37 -85 53 -161t16 -161z" />
    <glyph glyph-name="asterisk" unicode="*" 
d="M163 247l-88 64l133 125l32 -24zM338 248l-78 165l32 24l133 -125zM271 506h-40l-34 179h108zM298 456l-12 38l160 87l33 -102zM202 457l-181 23l33 102l160 -88z" />
    <glyph glyph-name="plus" unicode="+" horiz-adv-x="550" 
d="M316 196v-196h-82v196h-196v82h196v196h82v-196h196v-82h-196z" />
    <glyph glyph-name="comma" unicode="," horiz-adv-x="250" 
d="M195 34q0 -83 -108 -174l-41 39q35 29 50 50t15 43q0 21 -12 34t-40 21q13 32 28 44.5t41 12.5q32 0 49.5 -19t17.5 -51z" />
    <glyph glyph-name="hyphen" unicode="-" horiz-adv-x="275" 
d="M32 173v112h208v-112h-208z" />
    <glyph glyph-name="period" unicode="." horiz-adv-x="250" 
d="M192 56q0 -28 -19.5 -47.5t-47.5 -19.5t-47.5 19.5t-19.5 47.5t19.5 47.5t47.5 19.5t47.5 -19.5t19.5 -47.5z" />
    <glyph glyph-name="slash" unicode="/" horiz-adv-x="409" 
d="M117 -243h-76l252 903h75z" />
    <glyph glyph-name="zero" unicode="0" 
d="M467 327q0 -71 -16 -133t-45.5 -108t-69.5 -72.5t-88 -26.5q-47 0 -86.5 26.5t-68.5 72.5t-45.5 108t-16.5 132q0 71 16 133.5t45 109t69 73.5t87 27q48 0 88 -27t69.5 -73.5t45.5 -108.5t16 -133zM336 325q0 64 -5.5 118.5t-16 93.5t-27 61t-37.5 22q-22 0 -38.5 -21.5
t-27.5 -60.5t-16.5 -92.5t-5.5 -117.5t5.5 -117.5t17 -92.5t28 -60.5t37.5 -21.5t37 21.5t27 60t16.5 91.5t5.5 116z" />
    <glyph glyph-name="one" unicode="1" 
d="M85 0v42h107v518l-127 -54l-14 64l258 101v-629h108v-42h-332z" />
    <glyph glyph-name="two" unicode="2" 
d="M46 0v49l163 206q39 50 63 109t24 117q0 18 -2 38t-9 36.5t-21.5 27.5t-38.5 11q-32 0 -63.5 -15.5t-73.5 -52.5l-42 51q28 26 53 43t49.5 27t50 14t55.5 4q77 0 123.5 -47.5t46.5 -139.5q0 -45 -26.5 -100.5t-81.5 -119.5l-149 -174h249v63h58v-147h-428z" />
    <glyph glyph-name="three" unicode="3" 
d="M444 198q0 -35 -15.5 -72t-45.5 -68.5t-73.5 -51.5t-99.5 -20q-63 0 -103.5 14t-69.5 30l25 68q44 -26 79 -36.5t61 -10.5q25 0 47 10.5t38.5 28.5t25.5 41.5t9 49.5q0 60 -31 97.5t-82 37.5h-74v43q30 16 56.5 31.5t46 34t31 42t11.5 55.5q0 18 -7 32.5t-17.5 25
t-23.5 16t-25 5.5q-35 0 -60 -10t-56 -31l-34 47q23 17 42 28.5t39.5 18t45.5 9.5t60 3q51 0 83.5 -14.5t50.5 -35.5t24.5 -45t6.5 -42q0 -23 -9.5 -46.5t-27 -44t-42 -37t-55.5 -25.5q38 -2 59 -10t45 -27q65 -53 65 -141z" />
    <glyph glyph-name="four" unicode="4" 
d="M374 166v-166h-107v166h-244v47l315 454h36v-427h112v-74h-112zM267 477l-159 -236h159v236z" />
    <glyph glyph-name="five" unicode="5" 
d="M441 217q0 -59 -24.5 -102t-60 -71t-75.5 -41.5t-71 -13.5h-13q-11 0 -27 1t-34.5 5t-39 12t-40.5 22l29 58q31 -23 57.5 -28.5t53.5 -5.5q19 0 39.5 7.5t37 24t27 42.5t10.5 64q0 61 -20 94.5t-66 55.5q-26 12 -56 14t-78 2v303h260v39h56v-133h-239v-146
q140 0 207 -51.5t67 -151.5z" />
    <glyph glyph-name="six" unicode="6" 
d="M471 203q0 -36 -10.5 -74.5t-35.5 -70t-65.5 -51.5t-101.5 -20q-50 0 -89.5 21t-67.5 59.5t-42.5 91.5t-14.5 118v9q1 66 19 125t50.5 107t79.5 83t107 53q43 13 78.5 13.5t70.5 1.5v-49h-4q-32 -2 -59.5 -6t-56.5 -16q-14 -6 -30 -17t-31.5 -24.5t-29 -28.5t-21.5 -30
q-9 -16 -17 -35.5t-14 -45.5t-10 -59.5t-4 -76.5q0 -54 7 -97.5t19 -74.5t28.5 -48t35.5 -17q44 0 62.5 38.5t18.5 110.5q0 21 -3.5 45.5t-12 45t-23 34.5t-36.5 14h-42l6 49q13 3 21 5t14.5 3t13 1.5t16.5 0.5q50 0 83.5 -19.5t53.5 -48t28.5 -61.5t8.5 -59z" />
    <glyph glyph-name="seven" unicode="7" 
d="M303 246q-9 -19 -21.5 -44t-29.5 -57t-32 -56.5t-26 -42.5q-15 -26 -51 -75l-92 56q17 15 29 26.5t23 24t22.5 27.5t28.5 37q11 15 22.5 33t22 37t20 37t16.5 32l133 285h-265v-84h-56v208h56v-29h377v-38z" />
    <glyph glyph-name="eight" unicode="8" 
d="M455 167q0 -38 -15 -70.5t-43 -56.5t-69 -37.5t-92 -13.5q-48 0 -84 15t-59.5 39t-35.5 53.5t-12 57.5q0 42 18.5 80.5t52.5 64.5l63 50l-62 52q-33 28 -45 59.5t-12 64.5q0 66 50 106t137 40q83 0 130 -39.5t47 -104.5q0 -17 -3.5 -30.5t-11.5 -27t-22 -28t-35 -32.5
l-38 -33l78 -64q34 -28 48.5 -67.5t14.5 -77.5zM342 144q0 44 -15 72t-43 50l-58 46l-46 -41q-23 -20 -35 -48.5t-12 -68.5q0 -51 29.5 -79t74.5 -28q27 0 47 9.5t32.5 23.5t19 31.5t6.5 32.5zM337 532q0 42 -24.5 62.5t-66.5 20.5q-76 0 -76 -77q0 -25 6 -42.5t31 -37.5
l61 -48l24 25q45 46 45 97z" />
    <glyph glyph-name="nine" unicode="9" 
d="M466 371q-1 -66 -19 -125t-50.5 -107t-79.5 -83t-107 -53q-43 -13 -78.5 -13.5t-70.5 -1.5v49h4q32 2 59.5 6t56.5 16q13 6 29.5 17t32 24.5t29 28.5t21.5 30q17 31 31 81t14 136q0 54 -7 97.5t-19 74.5t-28.5 48t-35.5 17q-44 0 -62.5 -38.5t-18.5 -110.5
q0 -21 3.5 -45.5t12 -45t23 -34.5t36.5 -14h42l-6 -49q-13 -3 -21 -5t-14.5 -3t-13 -1.5t-16.5 -0.5q-50 0 -83.5 19.5t-53.5 48t-28.5 61.5t-8.5 59q0 36 10.5 74.5t35 70t65.5 51.5t102 20q50 0 89.5 -21t67.5 -59.5t42.5 -92t14.5 -117.5v-9z" />
    <glyph glyph-name="colon" unicode=":" horiz-adv-x="250" 
d="M192 56q0 -28 -20 -47.5t-48 -19.5t-47.5 19.5t-19.5 47.5t19.5 47.5t47.5 19.5t48 -19.5t20 -47.5zM191 398q0 -28 -19.5 -47.5t-47.5 -19.5t-47.5 19.5t-19.5 47.5t19.5 47.5t47.5 19.5t47.5 -19.5t19.5 -47.5z" />
    <glyph glyph-name="semicolon" unicode=";" horiz-adv-x="250" 
d="M190 34q0 -83 -108 -174l-41 39q35 29 49.5 50t14.5 43q0 21 -11.5 34t-39.5 21q12 32 27.5 44.5t41.5 12.5q31 0 49 -19t18 -51zM195 398q0 -28 -19.5 -47.5t-47.5 -19.5t-47.5 19.5t-19.5 47.5t19.5 47.5t47.5 19.5t47.5 -19.5t19.5 -47.5z" />
    <glyph glyph-name="less" unicode="&#x3c;" horiz-adv-x="550" 
d="M39 210v54l472 210v-80l-355 -157l355 -157v-80z" />
    <glyph glyph-name="equal" unicode="=" horiz-adv-x="550" 
d="M25 272v82h500v-82h-500zM25 109v82h500v-82h-500z" />
    <glyph glyph-name="greater" unicode="&#x3e;" horiz-adv-x="550" 
d="M39 0v80l355 157l-355 157v80l472 -210v-54z" />
    <glyph glyph-name="question" unicode="?" horiz-adv-x="409" 
d="M366 442q0 -72 -37 -115.5t-100 -43.5h-47l-18 -91h-43v191h166q2 12 2.5 18t0.5 14q0 48 -22.5 88t-61.5 62q-15 8 -26.5 13.5t-25 10t-31.5 9t-46 10.5l44 128q25 -6 43 -12t33 -13.5t28.5 -17t29.5 -22.5q52 -44 81.5 -104.5t29.5 -124.5zM198 48q0 -25 -17 -42
t-40 -17q-24 0 -40.5 17t-16.5 40q0 24 16.5 41t39.5 17q24 0 41 -16.5t17 -39.5z" />
    <glyph glyph-name="at" unicode="@" horiz-adv-x="1000" 
d="M903 268q0 -42 -5 -75.5t-16.5 -60.5t-29 -49.5t-42.5 -42.5q-64 -49 -152 -49q-56 0 -81.5 22.5t-25.5 73.5q0 13 2 27.5t5 27.5l11 43q-17 -28 -31.5 -48.5t-28.5 -37t-28.5 -30.5t-31.5 -27q-25 -19 -53 -31.5t-48 -12.5q-13 0 -24 11t-19 30.5t-12.5 46.5t-4.5 59
q0 71 18.5 132t50.5 106t75.5 70.5t94.5 25.5q13 0 22.5 -1t19 -3.5t19 -7.5t22.5 -13l30 25h39l-57 -355q-2 -14 -3 -24.5t-1 -17.5q0 -20 16 -31t44 -11q22 0 44 6.5t41.5 18t36 27.5t26.5 35q30 54 30 145q0 67 -19.5 116.5t-63.5 98.5q-25 28 -51.5 48t-56.5 32.5
t-64 18t-75 5.5q-86 0 -155.5 -26t-119 -73.5t-76.5 -115t-27 -150.5q0 -95 28.5 -159.5t93.5 -115.5q24 -19 47.5 -32t49.5 -21t56 -11.5t66 -3.5q27 0 48 1.5t39.5 5.5t37 11t39.5 17l20 -44q-23 -11 -44 -18.5t-42 -12t-43.5 -6.5t-49.5 -2q-42 0 -77.5 4.5t-66 15
t-59 27t-56.5 39.5q-71 57 -103.5 129t-32.5 168q0 93 31 170t87 133t133.5 87t170.5 31q91 0 158.5 -27t124.5 -87q52 -55 75.5 -115.5t23.5 -141.5zM598 391q-20 26 -37 36.5t-39 10.5q-30 0 -58 -22.5t-49.5 -60t-34.5 -86.5t-13 -102q0 -84 40 -84q20 0 50.5 27.5
t62.5 74.5q16 23 28 45t21 46.5t16 52.5t13 62z" />
    <glyph glyph-name="A" unicode="A" horiz-adv-x="672" 
d="M427 0v42h70l-62 162h-243l-65 -162h80v-42h-207v42h62l258 639h61l248 -639h42v-42h-244zM317 515l-101 -250h196z" />
    <glyph glyph-name="B" unicode="B" horiz-adv-x="635" 
d="M594 174q0 -83 -53.5 -128.5t-150.5 -45.5h-340v42h76v576h-76v42h321q92 0 141 -41t49 -118q0 -73 -44 -112q-42 -37 -119 -41q92 -5 143 -48q53 -45 53 -126zM461 181q0 61 -36.5 97.5t-96.5 36.5h-73v-261h69q137 0 137 127zM428 490q0 53 -28 84t-76 31h-69v-235h71
q22 0 40.5 9.5t32 25.5t21.5 38t8 47z" />
    <glyph glyph-name="C" unicode="C" horiz-adv-x="667" 
d="M617 29q-32 -12 -58.5 -20t-51.5 -13t-50.5 -7t-53.5 -2q-79 0 -145.5 25.5t-114.5 70.5t-74.5 107.5t-26.5 137.5q0 74 26.5 137t73.5 109t111.5 72t139.5 26q49 0 86.5 -7.5t81.5 -26.5v42h55v-179h-55v64q-21 15 -38.5 25t-34 15.5t-33 8t-36.5 2.5q-52 0 -95.5 -20.5
t-74.5 -58t-48.5 -89.5t-17.5 -114q0 -61 19 -113.5t52 -91.5t77.5 -61t96.5 -22q38 0 68 9t65 31v76h56v-133z" />
    <glyph glyph-name="D" unicode="D" horiz-adv-x="740" 
d="M698 331q0 -69 -27 -131.5t-78 -112.5q-48 -45 -103 -66t-129 -21h-311v42h76v576h-76v42h312q71 0 132.5 -25.5t106.5 -69.5t71 -104.5t26 -129.5zM557 331q0 55 -17.5 104.5t-47 87t-69 59.5t-83.5 22h-85v-549h81q47 0 87.5 21t70 58t46.5 87.5t17 109.5z" />
    <glyph glyph-name="E" unicode="E" horiz-adv-x="581" 
d="M50 0v42h76v576h-76v42h412v28h54v-159h-53v72h-208v-236h160v69h54v-198h-54v70h-160v-247h217v74h54v-133h-476z" />
    <glyph glyph-name="F" unicode="F" horiz-adv-x="571" 
d="M463 529v72h-208v-236h160v69h54v-198h-54v70h-160v-264h67v-42h-272v42h76v576h-76v42h412v28h54v-159h-53z" />
    <glyph glyph-name="G" unicode="G" horiz-adv-x="745" 
d="M644 227v-202q-37 -10 -67.5 -17.5t-58 -12t-52.5 -6.5t-51 -2q-82 0 -150.5 25.5t-118 71t-77 109t-27.5 138.5q0 54 16.5 105t45.5 93.5t70 74t90 47.5q33 11 70 16.5t78 5.5q23 0 42 -1.5t38 -5t39 -9t44 -14.5v37h55v-178h-55v76q-38 20 -72 29t-78 9q-51 0 -95 -22
t-77 -60.5t-51.5 -90.5t-18.5 -112q0 -58 20.5 -109.5t55 -90.5t81 -61.5t98.5 -22.5q21 0 36 3t41 11v166h-86v42h290v-42h-75z" />
    <glyph glyph-name="H" unicode="H" horiz-adv-x="835" 
d="M505 0v42h75v263h-325v-263h75v-42h-280v42h76v576h-76v42h280v-42h-75v-254h325v254h-75v42h280v-42h-76v-576h76v-42h-280z" />
    <glyph glyph-name="I" unicode="I" horiz-adv-x="372" 
d="M46 0v42h76v576h-76v42h280v-42h-75v-576h75v-42h-280z" />
    <glyph glyph-name="J" unicode="J" horiz-adv-x="364" 
d="M242 618v-636q-18 -38 -33 -64.5t-33 -49t-42.5 -45.5t-61.5 -54l-42 44q45 43 64 89.5t19 114.5v601h-75v42h280v-42h-76z" />
    <glyph glyph-name="K" unicode="K" horiz-adv-x="653" 
d="M50 0v42h76v575l-76 1v42h280v-42h-75v-576h75v-42h-280zM504 0l-240 326l217 292h-87v42h240v-42h-77l-179 -239l247 -337h48v-42h-169z" />
    <glyph glyph-name="L" unicode="L" horiz-adv-x="531" 
d="M50 0v42h76v576h-76v42h280v-42h-75v-559h213v74h54v-133h-472z" />
    <glyph glyph-name="M" unicode="M" horiz-adv-x="901" 
d="M562 0v42h84v432l-220 -484l-241 475v-423h84v-42h-231v42h84v576h-84v42h177l237 -465l209 465h198v-42h-84v-576h84v-42h-297z" />
    <glyph glyph-name="N" unicode="N" horiz-adv-x="737" 
d="M619 618v-629h-70l-348 490v-437h79v-42h-226v42h83v525l-32 51h-72v42h199l324 -461v419h-79v42h226v-42h-84z" />
    <glyph glyph-name="O" unicode="O" horiz-adv-x="743" 
d="M703 330q0 -72 -26 -134.5t-70.5 -109t-105 -73t-129.5 -26.5t-129 26.5t-105 73t-70.5 109t-25.5 134.5t25.5 134t70.5 108.5t105 73t129 26.5t129.5 -26.5t105 -73t70.5 -108.5t26 -134zM562 330q0 57 -15.5 108.5t-41.5 90.5t-60.5 62.5t-72.5 23.5t-72 -23.5
t-60 -62.5t-41.5 -90.5t-15.5 -108.5t15.5 -109t41.5 -91t60 -62.5t72 -23.5t72.5 23.5t60.5 62.5t41.5 91t15.5 109z" />
    <glyph glyph-name="P" unicode="P" horiz-adv-x="600" 
d="M558 470q0 -41 -17 -77t-46 -63t-67.5 -43t-82.5 -16q-13 0 -23.5 1t-30.5 5v49q10 -2 15 -2.5t12 -0.5q51 0 78.5 35.5t27.5 102.5q0 143 -109 143h-60v-562h85v-42h-290v42h76v576h-76v42h303q46 0 84 -13.5t65 -38.5t41.5 -60t14.5 -78z" />
    <glyph glyph-name="Q" unicode="Q" horiz-adv-x="759" 
d="M592 -236q-78 38 -145 97t-130 131q-40 10 -66.5 18.5t-46.5 19.5t-36.5 26t-37.5 39q-42 49 -65 110t-23 124q0 72 25.5 134.5t70.5 109t105.5 73t129.5 26.5q68 0 128 -26.5t104.5 -73t70.5 -109t26 -133.5q0 -56 -17.5 -108.5t-48.5 -96.5t-72.5 -76t-89.5 -45
q53 -57 97.5 -87.5t73.5 -30.5q11 0 25 7t40 27l31 -47zM561 330q0 55 -15.5 106.5t-41.5 91.5t-59.5 63.5t-69.5 23.5q-39 0 -73.5 -23t-61 -62t-42 -91t-15.5 -109q0 -56 15.5 -108t41.5 -91.5t60 -63t71 -23.5q38 0 72.5 23.5t60.5 62.5t41.5 91t15.5 109z" />
    <glyph glyph-name="R" unicode="R" horiz-adv-x="654" 
d="M535 0q-22 0 -36 2t-24.5 8t-20 17.5t-22.5 31.5l-150 235h-27v-252h75v-42h-280v42h76v576h-76v42h295q65 0 104 -11t66 -38q49 -49 49 -129q0 -134 -140 -177l142 -218q17 -26 28.5 -35t26.5 -9h41v-43h-127zM430 478q0 60 -29 93t-83 33h-63v-260h59q52 0 84 37t32 97
z" />
    <glyph glyph-name="S" unicode="S" horiz-adv-x="562" 
d="M488 181q0 -43 -15 -78.5t-41.5 -61t-63 -40t-80.5 -14.5t-77.5 9.5t-68.5 29.5v-35h-55v180h55v-74q34 -27 62.5 -38t65.5 -11q47 0 77 25t30 64q0 17 -6 32t-20 31t-37.5 33.5t-58.5 40.5q-37 23 -59 37.5t-36 25t-22.5 19.5t-18.5 20q-19 22 -28.5 51t-9.5 62
q0 41 14.5 75t41 58t64 37t83.5 13q29 0 54 -5t54 -17v30h54v-171h-54v69q-32 20 -55 28.5t-51 8.5q-39 0 -65.5 -24.5t-26.5 -59.5q0 -15 5 -28t18.5 -27t36.5 -31t59 -40q35 -23 56.5 -36.5t29.5 -19.5q36 -25 61 -65q28 -46 28 -103z" />
    <glyph glyph-name="T" unicode="T" horiz-adv-x="600" 
d="M537 518v83h-172v-559h96v-42h-322v42h97v559h-173v-83h-55v170h55v-28h474v28h55v-170h-55z" />
    <glyph glyph-name="U" unicode="U" horiz-adv-x="780" 
d="M662 618v-376q0 -85 -30 -139.5t-94 -84.5q-68 -31 -145 -31q-61 0 -110 16t-84 45.5t-54 71.5t-19 94v404h-76v42h280v-42h-75v-373q0 -38 3.5 -66t12 -48.5t21.5 -35t32 -24.5q38 -19 83 -19q91 0 140.5 50.5t49.5 142.5v372h-83v43h232v-42h-84z" />
    <glyph glyph-name="V" unicode="V" horiz-adv-x="661" 
d="M611 618l-248 -635h-64l-248 635h-59v42h272v-42h-85l179 -459l180 459h-72v42h203v-42h-58z" />
    <glyph glyph-name="W" unicode="W" horiz-adv-x="942" 
d="M900 618l-248 -635h-64l-113 287l-112 -287h-64l-248 635h-59v42h243v-42h-56l179 -459l81 204l-100 255h-56v42h386v-42h-71l-69 -178l115 -288l182 466h-72v42h196v-42h-50zM459 618l39 -100l40 100h-79z" />
    <glyph glyph-name="X" unicode="X" horiz-adv-x="660" 
d="M379 0v42h65l-134 213l-159 -213h92v-42h-251v42h76l202 273l-191 303h-77v42h288v-42h-66l125 -198l147 198h-88v42h251v-42h-79l-193 -259l202 -317h79v-42h-289z" />
    <glyph glyph-name="Y" unicode="Y" horiz-adv-x="612" 
d="M549 618l-167 -274v-302h76v-42h-280v42h75v276l-198 300h-63v42h280v-42h-74l142 -219l133 219h-85v42h233v-42h-72z" />
    <glyph glyph-name="Z" unicode="Z" horiz-adv-x="668" 
d="M59 0v30l372 571h-318v-80h-54v167h54v-28h476v-31l-369 -570h335v103h54v-162h-550z" />
    <glyph glyph-name="bracketleft" unicode="[" horiz-adv-x="250" 
d="M52 -243v903h178v-62h-85v-779h85v-62h-178z" />
    <glyph glyph-name="backslash" unicode="\" horiz-adv-x="409" 
d="M293 -243l-252 903h76l251 -903h-75z" />
    <glyph glyph-name="bracketright" unicode="]" horiz-adv-x="250" 
d="M20 -243v54h85v795h-85v54h178v-903h-178z" />
    <glyph glyph-name="asciicircum" unicode="^" horiz-adv-x="522" 
d="M399 271l-137 285h-6l-139 -285h-81l208 417h33l208 -417h-86z" />
    <glyph glyph-name="underscore" unicode="_" 
d="M0 -82v82h500v-82h-500z" />
    <glyph glyph-name="grave" unicode="`" horiz-adv-x="570" 
d="M254 513l-159 161h110l119 -161h-70z" />
    <glyph glyph-name="a" unicode="a" horiz-adv-x="457" 
d="M370 -2q-22 -7 -47 -7q-53 0 -60 55q-25 -32 -52 -45.5t-68 -13.5q-58 0 -92 31t-34 85q0 45 25 75t72 41l146 33v106q0 38 -11 53.5t-38 15.5q-12 0 -22 -2.5t-28 -10.5v-50l-114 -28q-5 9 -6.5 14.5t-1.5 13.5q0 46 47.5 73.5t125.5 27.5q81 0 123 -28t42 -82v-303h60
v-33zM260 201l-129 -30v-57q0 -29 14 -47t37 -18q18 0 35.5 9.5t42.5 32.5v110z" />
    <glyph glyph-name="b" unicode="b" horiz-adv-x="526" 
d="M501 252q0 -53 -16.5 -102.5t-45.5 -83.5q-35 -42 -85 -60.5t-122 -18.5q-18 0 -33.5 1t-33 3t-40 6.5t-53.5 10.5v658h-70v32l143 39h44v-691q15 -8 24.5 -11t20.5 -3q30 0 55.5 15.5t44 42.5t29.5 64t11 80q0 81 -29 129t-77 48h-42v40q29 9 45.5 11.5t37.5 2.5
q43 0 78.5 -15.5t60.5 -43t39 -67t14 -87.5z" />
    <glyph glyph-name="c" unicode="c" horiz-adv-x="430" 
d="M418 40q-56 -29 -95.5 -41t-79.5 -12q-49 0 -89.5 17.5t-70 48t-46 73t-16.5 93.5q0 52 18 97t50.5 78t76 52t94.5 19q52 0 87 -10.5t71 -35.5l-63 -63q-14 13 -23.5 21.5t-19 15t-21 13t-28.5 15.5q-117 -50 -117 -184q0 -38 11.5 -72.5t31 -61.5t45 -43t52.5 -16
q24 0 46 8.5t60 31.5z" />
    <glyph glyph-name="d" unicode="d" horiz-adv-x="532" 
d="M379 -10h-44v58q-18 -18 -32 -30t-28 -18.5t-29 -9.5t-34 -3q-42 0 -77 17t-60.5 48t-39.5 72.5t-14 91.5q0 53 18.5 98.5t50.5 79t76.5 52.5t95.5 19q21 0 35 -2.5t38 -10.5v214h-70v32l144 39h44v-676h70v-33zM335 343q0 40 -13 58t-41 18t-52.5 -14.5t-42.5 -40
t-28 -60t-10 -74.5q0 -36 8 -67.5t22.5 -55.5t33.5 -37.5t41 -13.5q38 0 82 44v243z" />
    <glyph glyph-name="e" unicode="e" horiz-adv-x="461" 
d="M447 54q-37 -21 -63.5 -34t-48.5 -20.5t-43.5 -10t-47.5 -2.5q-50 0 -91.5 17t-70.5 48t-45 75t-16 97q0 54 16.5 98.5t46.5 76t72 49t94 17.5q43 0 79 -13t61 -37t39 -57.5t14 -74.5v-38h-299q0 -94 39 -147.5t107 -53.5q14 0 26 2t26 8t33.5 16.5t48.5 27.5zM319 320
q0 45 -19.5 73.5t-50.5 28.5q-40 0 -68.5 -34.5t-35.5 -91.5h174v24z" />
    <glyph glyph-name="f" unicode="f" horiz-adv-x="326" 
d="M392 617q-16 15 -27.5 24.5t-22.5 17.5t-24 16t-32 19q-27 -8 -43.5 -17t-24.5 -28t-10.5 -52t-2.5 -88v-66h103v-51h-103v-350h83v-42h-259v42h59v350h-70v32l70 22v82q0 60 19 98.5t66 71.5q30 21 63 31t75 10q45 0 78.5 -8.5t70.5 -29.5z" />
    <glyph glyph-name="g" unicode="g" horiz-adv-x="507" 
d="M419 384q17 -20 23.5 -39.5t6.5 -48.5q0 -81 -53 -128t-147 -47q-21 0 -35 1.5t-39 6.5q-24 -24 -34 -38.5t-10 -25.5q0 -18 25 -18h250q94 0 94 -93q0 -45 -20 -83t-54.5 -66.5t-82.5 -44.5t-103 -16q-75 0 -127.5 23.5t-95.5 77.5q9 16 15 28t13 21.5t15 19.5t20 24
l31 35q-33 8 -53 18t-43 32q17 24 29.5 40.5t24 30t24.5 25.5t31 28q-86 53 -86 142q0 40 13.5 73t39 55.5t61.5 35t80 12.5q73 0 132 -30h68l71 17v-68h-84zM397 -83q0 23 -11 32.5t-38 9.5h-181q-16 -26 -21.5 -41.5t-5.5 -32.5q0 -42 32 -68.5t83 -26.5q29 0 55 10
t45.5 27t30.5 40.5t11 49.5zM328 294q0 60 -22.5 94t-61.5 34t-61.5 -34t-22.5 -94t22.5 -94t61.5 -34t61.5 34t22.5 94z" />
    <glyph glyph-name="h" unicode="h" horiz-adv-x="568" 
d="M313 0v42h59v279q0 45 -12 62t-43 17q-15 0 -26.5 -2.5t-24 -10t-29 -22t-41.5 -37.5v-286h59v-42h-235v42h59v624h-71v32l144 39h44v-356q24 25 44 41t38.5 25.5t37.5 13.5t43 4q63 0 96.5 -32t33.5 -93v-298h59v-42h-235z" />
    <glyph glyph-name="i" unicode="i" horiz-adv-x="282" 
d="M29 0v42h59v350h-66v32l144 39h39v-421h59v-42h-235zM213 635q0 -30 -21 -50.5t-50 -20.5t-50 20.5t-21 50.5q0 29 21 50t50 21t50 -21t21 -50z" />
    <glyph glyph-name="j" unicode="j" horiz-adv-x="275" 
d="M211 -54q-17 -32 -28.5 -53t-25.5 -41t-35 -44.5t-55 -63.5l-37 32q21 27 33.5 46.5t19.5 39.5t9 44.5t2 60.5v425h-66v32l144 39h39v-517zM220 635q0 -30 -21 -50.5t-50 -20.5q-30 0 -50.5 20.5t-20.5 50.5q0 29 20.5 50t50.5 21q29 0 50 -21t21 -50z" />
    <glyph glyph-name="k" unicode="k" horiz-adv-x="508" 
d="M20 0v42h59v629h-71v27l144 39h44v-695h59v-42h-235zM348 0l-150 228l156 183h-60v42h199v-42h-55l-126 -142l153 -227h42v-42h-159z" />
    <glyph glyph-name="l" unicode="l" horiz-adv-x="267" 
d="M16 0v42h59v624h-67v32l144 39h40v-695h59v-42h-235z" />
    <glyph glyph-name="m" unicode="m" horiz-adv-x="883" 
d="M628 0v42h58v279q0 42 -12 60t-41 18q-15 0 -28.5 -4t-28 -13t-31 -24.5t-38.5 -39.5v-276h54v-42h-226v42h54v278q0 42 -13.5 60.5t-43.5 18.5q-31 0 -57.5 -16t-64.5 -58v-283h58v-42h-235v42h59v350h-70v32l144 39h44v-79q23 23 42.5 38.5t38.5 25t38 13.5t41 4
q57 0 88 -22.5t44 -73.5q43 53 81 74.5t88 21.5q60 0 96.5 -34t36.5 -90v-299h58v-42h-234z" />
    <glyph glyph-name="n" unicode="n" horiz-adv-x="581" 
d="M326 0v42h59v279q0 45 -11.5 62t-42.5 17q-15 0 -26.5 -2.5t-24.5 -10t-29.5 -22t-40.5 -37.5v-286h58v-42h-235v42h59v350h-70v32l144 39h44v-82q24 25 43.5 41t38 25.5t37.5 13.5t43 4q64 0 97 -32t33 -93v-298h59v-42h-235z" />
    <glyph glyph-name="o" unicode="o" horiz-adv-x="505" 
d="M484 226q0 -52 -17.5 -95.5t-48.5 -75.5t-73.5 -50t-92.5 -18t-92.5 18t-73.5 50t-48 75.5t-17 95.5t17 96t48 75.5t73.5 49.5t92.5 18t92.5 -18t73.5 -49.5t48.5 -75.5t17.5 -96zM356 226q0 42 -7.5 77t-21.5 60t-33 39t-42 14t-42 -14t-33 -39t-21.5 -60t-7.5 -77
t7.5 -76.5t21.5 -59.5t33 -39t42 -14t42 14t33 39t21.5 59.5t7.5 76.5z" />
    <glyph glyph-name="p" unicode="p" horiz-adv-x="538" 
d="M513 245q0 -57 -17.5 -104.5t-50 -81.5t-77 -53t-98.5 -19q-20 0 -32 2t-32 9v-199h66v-42h-242v42h59v598h-71v28l144 38h44v-44q29 25 57.5 35t68.5 10q41 0 74.5 -15.5t57 -44t36.5 -69t13 -90.5zM385 234q0 75 -28 121.5t-74 46.5q-18 0 -34.5 -7t-42.5 -27v-254
q0 -27 2 -43.5t7.5 -25.5t15.5 -12.5t26 -3.5q28 0 51.5 15t40.5 42.5t26.5 65t9.5 82.5z" />
    <glyph glyph-name="q" unicode="q" horiz-adv-x="521" 
d="M265 -243v42h79v612q-19 8 -30 10t-25 2q-64 0 -100 -52t-36 -145q0 -90 26.5 -137t77.5 -47h48v-34q-36 -12 -55.5 -16.5t-39.5 -4.5q-40 0 -74 17t-58.5 46.5t-38.5 70.5t-14 89q0 38 10 76t29 70q35 58 88 83.5t139 25.5q23 0 43.5 -1.5t40.5 -5t41 -9t45 -13.5v-637
h50v-42h-246z" />
    <glyph glyph-name="r" unicode="r" horiz-adv-x="377" 
d="M322 341q-20 14 -30.5 20t-19.5 6q-14 0 -28 -11t-34 -37v-277h70v-42h-247v42h59v350h-70v32l144 39h44v-77l23 25q27 30 46.5 42t40.5 12q16 0 23.5 -3.5t10.5 -6.5l31 -27z" />
    <glyph glyph-name="s" unicode="s" horiz-adv-x="421" 
d="M381 126q0 -66 -41.5 -102.5t-117.5 -36.5q-85 0 -129 40v-36h-49v142h55v-27q0 -15 9.5 -29t26 -24.5t38 -16.5t44.5 -6q36 0 57 14.5t21 38.5q0 15 -5.5 27t-19.5 23t-37.5 22t-60.5 25q-73 28 -103 61t-30 86q0 31 11.5 56.5t32.5 43.5t50.5 28t65.5 10q37 0 63.5 -8
t48.5 -26l6 36h52l-25 -144h-51q3 8 4.5 17t1.5 16q0 13 -8.5 25t-22.5 21t-31.5 14.5t-36.5 5.5q-32 0 -52 -15t-20 -41q0 -14 4 -24t17 -19.5t37 -20.5t64 -27q37 -15 62 -30t40.5 -32.5t22 -38.5t6.5 -48z" />
    <glyph glyph-name="t" unicode="t" horiz-adv-x="299" 
d="M299 42q-38 -31 -64.5 -43t-55.5 -12q-47 0 -75.5 28t-28.5 73v304h-66v32l66 17v143h114v-141h103v-51h-103v-312q0 -10 8.5 -17.5t19.5 -7.5q14 0 26 4.5t35 18.5z" />
    <glyph glyph-name="u" unicode="u" horiz-adv-x="570" 
d="M416 -8h-43v84q-25 -26 -45 -43.5t-38.5 -27.5t-37 -14t-41.5 -4q-131 0 -131 129v276h-71v32l144 39h44v-327q0 -43 14 -62.5t45 -19.5q15 0 27.5 3.5t26 11.5t28.5 22.5t35 35.5v265h-51v36l132 35h36v-402h70v-33z" />
    <glyph glyph-name="v" unicode="v" horiz-adv-x="442" 
d="M398 411l-161 -424h-39l-171 424h-27v42h194v-42h-43l101 -249l96 249h-60v42h154v-42h-44z" />
    <glyph glyph-name="w" unicode="w" horiz-adv-x="706" 
d="M662 411l-160 -424h-31l-121 300l-115 -300h-37l-171 424h-27v42h193v-42h-42l101 -247l73 187l-25 60h-51v42h209v-42h-43l103 -253l95 253h-60v42h153v-42h-44z" />
    <glyph glyph-name="x" unicode="x" horiz-adv-x="437" 
d="M232 0v42h36l-72 119l-93 -119h52v-42h-155v42h43l126 164l-122 205h-37v42h210v-42h-41l65 -108l83 108h-41v42h144v-42h-43l-116 -152l129 -217h37v-42h-205z" />
    <glyph glyph-name="y" unicode="y" horiz-adv-x="443" 
d="M402 411l-167 -434q-19 -50 -44 -98t-49 -81q-7 -10 -17.5 -23t-25.5 -31l-66 69q21 13 35.5 23t26.5 19.5t22 20.5t21 25q10 13 17.5 24t14 24t13.5 28.5t15 36.5l-162 397h-36v42h211v-42h-52l99 -242l94 242h-63v42h154v-42h-41z" />
    <glyph glyph-name="z" unicode="z" horiz-adv-x="469" 
d="M184 51h203v72l43 -1v-122h-392v37l246 364h-189l-12 -78h-43l21 150h43l-3 -20h331v-30z" />
    <glyph glyph-name="braceleft" unicode="{" horiz-adv-x="409" 
d="M288 -256q-130 0 -130 134v237q0 57 -20 87t-57 30h-37v36h37q37 0 57 30t20 87v226q0 133 130 133h82v-41h-39q-73 0 -73 -97v-228q0 -33 -4.5 -56t-15 -38t-28.5 -23t-43 -11q25 -4 43 -12t28.5 -22.5t15 -37.5t4.5 -56v-232q0 -48 19 -73t54 -25h39v-48h-82z" />
    <glyph glyph-name="bar" unicode="|" horiz-adv-x="250" 
d="M87 -256v1000h76v-1000h-76z" />
    <glyph glyph-name="braceright" unicode="}" horiz-adv-x="409" 
d="M331 221q-37 0 -57 -30t-20 -87v-226q0 -133 -130 -133h-82v41h39q73 0 73 97v228q0 33 4.5 56t15 37.5t28.5 22.5q16 8 41 12q-25 4 -41 12q-18 8 -29 22.5t-15.5 37t-4.5 55.5v233q0 97 -72 97h-40v48h83q130 0 130 -133v-237q0 -57 20 -87t57 -30h37v-36h-37z" />
    <glyph glyph-name="asciitilde" unicode="~" horiz-adv-x="544" 
d="M539 206q-44 -32 -83.5 -46.5t-83.5 -14.5q-15 0 -28.5 1.5t-28 5.5t-32 11.5t-41.5 18.5t-39 15.5t-32 4.5q-30 0 -62.5 -12.5t-62.5 -35.5l-42 68q41 32 81.5 49.5t77.5 17.5q17 0 37.5 -5.5t43.5 -15.5l50 -21q23 -10 38.5 -14t32.5 -4q35 0 63.5 11t65.5 37z" />
    <glyph glyph-name="uni00A0" unicode="&#xa0;" horiz-adv-x="250" 
 />
    <glyph glyph-name="exclamdown" unicode="&#xa1;" horiz-adv-x="264" 
d="M66 -238l34 544h61l38 -544h-133zM190 453q0 -24 -17 -40.5t-40 -16.5q-24 0 -40.5 16.5t-16.5 40.5q0 23 16.5 39.5t40.5 16.5q23 0 40 -16.5t17 -39.5z" />
    <glyph glyph-name="cent" unicode="&#xa2;" 
d="M407 349q-9 11 -15 18.5t-12.5 13t-14 10t-18.5 10.5l-66 -343q14 -3 28.5 -4.5t22.5 -1.5q23 0 45.5 7.5t60.5 27.5l24 -44q-27 -17 -48.5 -27.5t-41 -17t-39 -9t-42.5 -2.5h-11q-4 0 -12 2l-14 -75h-46l17 83q-80 19 -123 76t-43 143q0 53 18.5 98.5t50.5 79t76.5 52.5
t95.5 19h14l13 75h46l-14 -78q17 -3 29.5 -6t24 -7.5t24 -11t30.5 -16.5zM303 412q-123 -44 -123 -184q0 -47 15 -87t43 -67z" />
    <glyph glyph-name="sterling" unicode="&#xa3;" 
d="M522 593q0 -16 -9 -29.5t-25 -21.5q-14 -8 -29 -8q-40 0 -52 47q-5 21 -11 30t-14 9q-10 0 -22 -11.5t-24.5 -30.5t-23.5 -43.5t-18 -49.5l-27 -96h191l-20 -67h-187l-40 -133l-7 -21q-3 -9 -7 -17t-10 -17t-15 -22h5q31 0 56.5 -7t64.5 -26q37 -19 56.5 -25t36.5 -6
q18 0 29 7t11 21t-9 28.5t-30 36.5l90 58q24 -32 33.5 -53t9.5 -44q0 -53 -46.5 -83.5t-124.5 -30.5q-65 0 -108 27l-45 28q-14 8 -26 12.5t-35 7.5q-39 -41 -73 -58.5t-75 -17.5q-15 0 -24 8t-9 22q0 29 31 53t84 37q6 13 11 25t9.5 25t9.5 29t11 38l26 98h-122l16 47
l122 20l36 119q23 75 75.5 118t124.5 43q57 0 93 -21.5t36 -54.5z" />
    <glyph glyph-name="currency" unicode="&#xa4;" horiz-adv-x="400" 
d="M354 33l-88 88q-14 -8 -31 -13t-35 -5q-33 0 -63 16l-86 -86l-51 51l86 86q-8 14 -13 30.5t-5 34.5t5 35t13 31l-86 86l51 51l87 -87q29 16 62 16q18 0 34.5 -5t31.5 -13l88 89l51 -51l-89 -89q16 -30 16 -63t-16 -62l89 -89zM273 235q0 31 -21 52t-52 21q-30 0 -51 -21
t-21 -52q0 -30 21 -51t51 -21q31 0 52 21t21 51z" />
    <glyph glyph-name="yen" unicode="&#xa5;" 
d="M487 618l-169 -274h146v-47h-148v-86h148v-50h-148v-119h62v-42h-246v42h62v119h-147v50h147v86h-147v47h126l-180 274h-48v42h249v-42h-58l141 -221l134 221h-67v42h200v-42h-57z" />
    <glyph glyph-name="brokenbar" unicode="&#xa6;" horiz-adv-x="200" 
d="M63 -256v435h76v-435h-76zM63 317v427h76v-427h-76z" />
    <glyph glyph-name="section" unicode="&#xa7;" horiz-adv-x="396" 
d="M329 613q-16 31 -45.5 50t-60.5 19q-109 0 -109 -163q0 -47 12 -115t38 -166q18 -69 30.5 -118t20 -83.5t11 -57t3.5 -38.5q0 -14 -1.5 -25.5t-5.5 -22t-10 -21t-16 -23.5l-41 8q3 14 4 21.5t1 17.5q0 26 -7.5 70.5t-19.5 88.5l-54 200q-18 66 -28 130.5t-10 115.5
q0 116 50.5 177.5t146.5 61.5q29 0 50.5 -3t39.5 -11t34 -22t35 -35zM358 -12q0 -35 -3.5 -62.5t-12 -50.5t-21.5 -42t-32 -36q-15 -14 -28.5 -23t-28 -14t-31.5 -7.5t-39 -2.5q-30 0 -51.5 3t-39 10.5t-33.5 21t-35 35.5l67 56q31 -40 53.5 -55t50.5 -15q112 0 112 164
q0 47 -12.5 115t-38.5 166q-18 69 -30.5 118.5t-20 84t-10.5 57t-3 37.5q0 14 1.5 25.5t5 22t10 21t16.5 23.5l41 -8q-4 -14 -4.5 -21.5t-0.5 -17.5q0 -26 7.5 -71t19.5 -89l54 -199q18 -66 27.5 -130.5t9.5 -115.5z" />
    <glyph glyph-name="dieresis" unicode="&#xa8;" horiz-adv-x="570" 
d="M428 568q0 -24 -17 -41t-42 -17q-24 0 -41.5 17t-17.5 41q0 25 17.5 42t41.5 17q25 0 42 -17t17 -42zM230 568q0 -24 -17.5 -41t-41.5 -17t-41.5 17t-17.5 41q0 25 17.5 42t41.5 17t41.5 -17t17.5 -42z" />
    <glyph glyph-name="copyright" unicode="&#xa9;" horiz-adv-x="1000" 
d="M910 243q0 -85 -32 -160t-87.5 -130.5t-130.5 -88t-160 -32.5q-86 0 -160.5 32.5t-130 88t-87.5 130.5t-32 160t32 159.5t87.5 130t130 88t160.5 32.5q85 0 160 -32.5t130.5 -88t87.5 -130t32 -159.5zM846 243q0 72 -27 135t-74 110t-110 74t-135 27t-135 -27t-110 -74
t-74 -110t-27 -135t27 -135t74 -110.5t110 -74.5t135 -27t135 27t110 74.5t74 110.5t27 135zM679 28q-54 -24 -88.5 -32.5t-70.5 -8.5q-56 0 -103 18.5t-82 52t-54.5 79.5t-19.5 101q0 50 18.5 95t52 78.5t80.5 53.5t104 20q26 0 52.5 -7.5t49.5 -19.5v28h59v-144h-60v64
q-17 9 -29 14t-21.5 8t-19 3.5t-21.5 0.5q-28 0 -52 -16t-41 -43t-27 -61.5t-10 -71.5q0 -45 10.5 -82t29.5 -62.5t45 -39.5t56 -14h20q14 0 27 4t35 18v71h60v-107z" />
    <glyph glyph-name="ordfeminine" unicode="&#xaa;" horiz-adv-x="353" 
d="M286 354q-9 -3 -18 -4t-17 -1q-36 0 -46 28q-17 -17 -35.5 -24t-44.5 -7q-43 0 -69.5 23t-26.5 62q0 32 19.5 54.5t54.5 30.5l96 20v66q0 24 -6 31.5t-20 7.5q-7 0 -12.5 -1t-15.5 -5v-35l-91 -21q-6 10 -7.5 15t-1.5 12q0 35 37 54.5t91 19.5q57 0 90 -19.5t33 -60.5
v-196h42v-35zM199 487l-75 -16v-33q0 -17 8.5 -26.5t19.5 -9.5t21 5t26 19v61z" />
    <glyph glyph-name="guillemotleft" unicode="&#xab;" 
d="M217 224l274 192v-41l-119 -151l119 -151v-42zM2 224l274 192v-41l-119 -151l119 -151v-42z" />
    <glyph glyph-name="logicalnot" unicode="&#xac;" horiz-adv-x="550" 
d="M443 31v163h-418v82h500v-245h-82z" />
    <glyph glyph-name="uni00AD" unicode="&#xad;" horiz-adv-x="275" 
d="M32 173v112h208v-112h-208z" />
    <glyph glyph-name="registered" unicode="&#xae;" horiz-adv-x="1000" 
d="M910 229q0 -85 -32 -159.5t-87.5 -130t-130.5 -88t-160 -32.5t-160 32.5t-130.5 88t-87.5 130t-32 159.5t32 160t87.5 130.5t130.5 88t160 32.5t160 -32.5t130.5 -88t87.5 -130.5t32 -160zM846 229q0 72 -27 135t-74 110.5t-110 74.5t-135 27t-135 -27t-110 -74.5
t-74 -110.5t-27 -135t27 -135t74 -110t110 -74t135 -27t135 27t110 74t74 110t27 135zM601 0l-117 206h-47v-169h69v-37h-209v37h70v392h-70v37h198q172 0 172 -124q0 -96 -109 -126l93 -159q12 -20 33 -20h33v-37h-116zM591 335q0 90 -104 90h-50v-178h61q42 0 67.5 24
t25.5 64z" />
    <glyph glyph-name="macron" unicode="&#xaf;" horiz-adv-x="406" 
d="M32 525v75h341v-75h-341z" />
    <glyph glyph-name="degree" unicode="&#xb0;" horiz-adv-x="333" 
d="M286 552q0 -26 -10 -49t-27 -40t-40 -27t-49 -10q-24 0 -45.5 9t-37.5 25t-25 37.5t-9 45.5q0 26 10 49t27 40t40 27t49 10q24 0 45.5 -9.5t37 -25t25 -37t9.5 -45.5zM227 547q0 26 -18.5 44.5t-44.5 18.5t-44 -18.5t-18 -44.5t18 -44.5t44 -18.5t44.5 18.5t18.5 44.5z
" />
    <glyph glyph-name="plusminus" unicode="&#xb1;" horiz-adv-x="550" 
d="M316 260v-156h-82v156h-196v82h196v156h82v-156h196v-82h-196zM38 0v82h474v-82h-474z" />
    <glyph glyph-name="twosuperior" unicode="&#xb2;" horiz-adv-x="360" 
d="M20 199v34l119 144q29 35 44 71.5t15 77.5q0 12 -1.5 26t-7 25t-16.5 18.5t-29 7.5q-22 0 -40 -11t-47 -35l-37 46q42 36 76.5 48.5t79.5 12.5q28 0 53.5 -7t44 -21.5t29.5 -37t11 -54.5q0 -48 -26 -90t-67 -87l-90 -99h156v44h54v-113h-321z" />
    <glyph glyph-name="threesuperior" unicode="&#xb3;" horiz-adv-x="360" 
d="M316 331q0 -30 -13 -56t-36 -45t-53.5 -30t-65.5 -11q-49 0 -80 8.5t-57 22.5l29 53q16 -9 27.5 -14.5t21 -8.5t18 -4t18.5 -1q14 0 28.5 6t26 16.5t18.5 25.5t7 33q0 42 -20 60.5t-55 18.5h-46v43q48 19 68.5 42t20.5 61q0 27 -14.5 42.5t-34.5 15.5q-15 0 -31.5 -5.5
t-40.5 -22.5l-26 43q19 12 35 19.5t32 12.5t33.5 7t39.5 2q39 0 63 -10.5t37.5 -26t18.5 -34.5t5 -35q0 -41 -26 -68.5t-75 -38.5q25 -1 48.5 -9t40.5 -23t27.5 -37t10.5 -52z" />
    <glyph glyph-name="acute" unicode="&#xb4;" horiz-adv-x="570" 
d="M258 513h-70l118 161h110z" />
    <glyph glyph-name="mu" unicode="&#xb5;" horiz-adv-x="570" 
d="M416 -8h-43v84q-25 -26 -45 -43.5t-38.5 -27.5t-37 -14t-41.5 -4q-13 0 -19 1.5t-17 3.5l6 -230h-112q1 64 3 143t4 162.5t3 167t1 157.5h-71v32l144 39h44v-327q0 -43 14 -62.5t45 -19.5q15 0 27.5 3.5t26 11.5t28.5 22.5t35 35.5v265h-51v36l132 35h36v-402h70v-33z
" />
    <glyph glyph-name="paragraph" unicode="&#xb6;" horiz-adv-x="644" 
d="M509 682v-938h-63v939h-60v-939h-63v501h-42q-44 0 -84.5 20.5t-71.5 54t-50 77.5t-19 91q0 54 19 99.5t52 78.5t78 52t98 19h284v-55h-78z" />
    <glyph glyph-name="periodcentered" unicode="&#xb7;" horiz-adv-x="474" 
d="M304 240q0 -28 -19.5 -47.5t-47.5 -19.5t-47.5 19.5t-19.5 47.5t19.5 47.5t47.5 19.5t47.5 -19.5t19.5 -47.5z" />
    <glyph glyph-name="cedilla" unicode="&#xb8;" horiz-adv-x="430" 
d="M300 20l-71 -83q35 -1 58.5 -21t23.5 -50q0 -45 -35.5 -72.5t-92.5 -27.5q-11 0 -19 0.5t-16.5 2t-19 4t-25.5 6.5l29 55q11 -11 21 -20.5t32 -9.5q19 0 33 16t14 38t-22.5 37.5t-52.5 15.5h-9l101 109h51z" />
    <glyph glyph-name="onesuperior" unicode="&#xb9;" horiz-adv-x="360" 
d="M68 199v41h71v331l-85 -31l-16 58l208 71v-429h72v-41h-250z" />
    <glyph glyph-name="ordmasculine" unicode="&#xba;" horiz-adv-x="353" 
d="M346 513q0 -36 -12.5 -66.5t-35 -53t-54 -35t-68.5 -12.5t-68 12.5t-53.5 35t-35 53t-12.5 66.5t12.5 67t35 53t53.5 34.5t68 12.5t68.5 -12.5t54 -34.5t35 -53t12.5 -67zM242 513q0 57 -19.5 88.5t-46.5 31.5q-26 0 -45.5 -31.5t-19.5 -88.5t19.5 -88t45.5 -31
q27 0 46.5 31t19.5 88z" />
    <glyph glyph-name="guillemotright" unicode="&#xbb;" 
d="M9 31v42l118 151l-118 151v41l274 -192zM224 31v42l119 151l-119 151v41l274 -192z" />
    <glyph glyph-name="onequarter" unicode="&#xbc;" horiz-adv-x="830" 
d="M68 199v41h71v331l-85 -31l-16 58l208 71v-429h72v-41h-250zM314 -46h-71l313 733h70zM740 106v-106h-91v106h-173v33l217 328h47v-299h84v-62h-84zM649 306l-89 -137h89v137z" />
    <glyph glyph-name="onehalf" unicode="&#xbd;" horiz-adv-x="870" 
d="M68 199v41h71v331l-85 -31l-16 58l208 71v-429h72v-41h-250zM314 -46h-71l313 733h70zM518 0v34l119 144q29 35 44 71.5t15 77.5q0 12 -1.5 26t-7 25t-16.5 18.5t-29 7.5q-22 0 -40 -11t-47 -35l-37 46q42 36 76.5 48.5t79.5 12.5q28 0 53.5 -7t44 -21.5t29.5 -37
t11 -54.5q0 -48 -26 -90t-67 -87l-90 -99h156v44h54v-113h-321z" />
    <glyph glyph-name="threequarters" unicode="&#xbe;" horiz-adv-x="830" 
d="M316 331q0 -30 -13 -56t-36 -45t-53.5 -30t-65.5 -11q-49 0 -80 8.5t-57 22.5l29 53q16 -9 27.5 -14.5t21 -8.5t18 -4t18.5 -1q14 0 28.5 6t26 16.5t18.5 25.5t7 33q0 42 -20 60.5t-55 18.5h-46v43q48 19 68.5 42t20.5 61q0 27 -14.5 42.5t-34.5 15.5q-15 0 -31.5 -5.5
t-40.5 -22.5l-26 43q19 12 35 19.5t32 12.5t33.5 7t39.5 2q39 0 63 -10.5t37.5 -26t18.5 -34.5t5 -35q0 -41 -26 -68.5t-75 -38.5q25 -1 48.5 -9t40.5 -23t27.5 -37t10.5 -52zM314 -46h-71l313 733h70zM740 106v-106h-91v106h-173v33l217 328h47v-299h84v-62h-84zM649 306
l-89 -137h89v137z" />
    <glyph glyph-name="questiondown" unicode="&#xbf;" horiz-adv-x="409" 
d="M302 -237q-25 6 -43 12t-33 13.5t-28.5 17t-29.5 22.5q-52 44 -81.5 104.5t-29.5 124.5q0 72 37 115.5t100 43.5h47l18 91h43v-191h-166q-2 -12 -2.5 -18t-0.5 -14q0 -48 22.5 -88t61.5 -62q15 -8 26.5 -13.5t25 -10t31.5 -9t46 -10.5zM339 453q0 -24 -16.5 -41
t-39.5 -17q-24 0 -41 16.5t-17 39.5q0 24 16.5 41.5t40.5 17.5t40.5 -17t16.5 -40z" />
    <glyph glyph-name="Agrave" unicode="&#xc0;" horiz-adv-x="672" 
d="M427 0v42h70l-62 162h-243l-65 -162h80v-42h-207v42h62l258 639h61l248 -639h42v-42h-244zM317 515l-101 -250h196zM158 809h130l118 -102h-73z" />
    <glyph glyph-name="Aacute" unicode="&#xc1;" horiz-adv-x="672" 
d="M427 0v42h70l-62 162h-243l-65 -162h80v-42h-207v42h62l258 639h61l248 -639h42v-42h-244zM317 515l-101 -250h196zM369 707h-80l118 102h137z" />
    <glyph glyph-name="Acircumflex" unicode="&#xc2;" horiz-adv-x="672" 
d="M427 0v42h70l-62 162h-243l-65 -162h80v-42h-207v42h62l258 639h61l248 -639h42v-42h-244zM317 515l-101 -250h196zM436 707l-82 59l-83 -59h-64l110 112h71l105 -112h-57z" />
    <glyph glyph-name="Atilde" unicode="&#xc3;" horiz-adv-x="672" 
d="M427 0v42h70l-62 162h-243l-65 -162h80v-42h-207v42h62l258 639h61l248 -639h42v-42h-244zM317 515l-101 -250h196zM536 780q-35 -43 -64 -60t-68 -17q-23 0 -40 5t-37 18q-13 9 -20.5 14t-13.5 7.5t-11.5 3t-12.5 0.5q-19 0 -35.5 -7.5t-37.5 -28.5l-30 27
q34 43 63.5 62t61.5 19q13 0 26.5 -3t22.5 -8l35 -22q25 -17 60 -17q12 0 20.5 1t16 5t15 10.5t18.5 17.5z" />
    <glyph glyph-name="Adieresis" unicode="&#xc4;" horiz-adv-x="672" 
d="M427 0v42h70l-62 162h-243l-65 -162h80v-42h-207v42h62l258 639h61l248 -639h42v-42h-244zM317 515l-101 -250h196zM319 761q0 -24 -17 -41t-42 -17q-24 0 -41.5 17t-17.5 41q0 25 17.5 42t41.5 17q25 0 42 -17t17 -42zM496 761q0 -24 -17 -41t-42 -17q-24 0 -41.5 17
t-17.5 41q0 25 17.5 42t41.5 17q25 0 42 -17t17 -42z" />
    <glyph glyph-name="Aring" unicode="&#xc5;" horiz-adv-x="672" 
d="M427 0v42h70l-62 162h-243l-65 -162h80v-42h-207v42h62l258 639h61l248 -639h42v-42h-244zM317 515l-101 -250h196zM438 791q0 -36 -25.5 -62t-62.5 -26q-18 0 -34 7t-28 19t-19 28t-7 34q0 37 26 62.5t62 25.5q37 0 62.5 -25.5t25.5 -62.5zM396 791q0 20 -13 33.5
t-33 13.5q-19 0 -32.5 -13.5t-13.5 -33.5q0 -19 13.5 -32.5t32.5 -13.5q20 0 33 13.5t13 32.5z" />
    <glyph glyph-name="AE" unicode="&#xc6;" horiz-adv-x="882" 
d="M350 0v42h75v159h-218l-84 -159h77v-42h-200v42h59l305 574h-80v44h479v24h55v-160h-55v77h-209v-238h163v69h54v-197h-54v69h-163v-245h220v72h53v-131h-477zM425 613l-185 -350h185v350z" />
    <glyph glyph-name="Ccedilla" unicode="&#xc7;" horiz-adv-x="667" 
d="M617 29q-31 -11 -57.5 -19t-51 -13t-49 -7.5t-51.5 -2.5l-43 -50q35 -1 58.5 -21t23.5 -50q0 -45 -35.5 -72.5t-92.5 -27.5q-11 0 -19 0.5t-16.5 2t-19 4t-25.5 6.5l29 55q11 -11 21 -20.5t32 -9.5q19 0 33 16t14 38t-22.5 37.5t-52.5 15.5h-9l72 79q-70 7 -127.5 35
t-99 72t-64.5 103t-23 128q0 74 26.5 137t73.5 109t111.5 72t139.5 26q49 0 86.5 -7.5t81.5 -26.5v42h55v-179h-55v64q-21 15 -38.5 25t-34 15.5t-33 8t-36.5 2.5q-52 0 -95.5 -20.5t-74.5 -58t-48.5 -89.5t-17.5 -114q0 -61 19 -113.5t52 -91.5t77.5 -61t96.5 -22
q38 0 68 9t65 31v76h56v-133z" />
    <glyph glyph-name="Egrave" unicode="&#xc8;" horiz-adv-x="581" 
d="M50 0v42h76v576h-76v42h412v28h54v-159h-53v72h-208v-236h160v69h54v-198h-54v70h-160v-247h217v74h54v-133h-476zM138 809h130l118 -102h-73z" />
    <glyph glyph-name="Eacute" unicode="&#xc9;" horiz-adv-x="581" 
d="M50 0v42h76v576h-76v42h412v28h54v-159h-53v72h-208v-236h160v69h54v-198h-54v70h-160v-247h217v74h54v-133h-476zM289 707h-80l118 102h137z" />
    <glyph glyph-name="Ecircumflex" unicode="&#xca;" horiz-adv-x="581" 
d="M50 0v42h76v576h-76v42h412v28h54v-159h-53v72h-208v-236h160v69h54v-198h-54v70h-160v-247h217v74h54v-133h-476zM377 707l-82 59l-83 -59h-64l110 112h71l105 -112h-57z" />
    <glyph glyph-name="Edieresis" unicode="&#xcb;" horiz-adv-x="581" 
d="M50 0v42h76v576h-76v42h412v28h54v-159h-53v72h-208v-236h160v69h54v-198h-54v70h-160v-247h217v74h54v-133h-476zM241 761q0 -24 -17 -41t-42 -17q-24 0 -41.5 17t-17.5 41q0 25 17.5 42t41.5 17q25 0 42 -17t17 -42zM426 761q0 -24 -17 -41t-42 -17q-24 0 -41.5 17
t-17.5 41q0 25 17.5 42t41.5 17q25 0 42 -17t17 -42z" />
    <glyph glyph-name="Igrave" unicode="&#xcc;" horiz-adv-x="372" 
d="M46 0v42h76v576h-76v42h280v-42h-75v-576h75v-42h-280zM13 809h130l118 -102h-73z" />
    <glyph glyph-name="Iacute" unicode="&#xcd;" horiz-adv-x="372" 
d="M46 0v42h76v576h-76v42h280v-42h-75v-576h75v-42h-280zM222 707h-80l118 102h137z" />
    <glyph glyph-name="Icircumflex" unicode="&#xce;" horiz-adv-x="372" 
d="M46 0v42h76v576h-76v42h280v-42h-75v-576h75v-42h-280zM276 707l-82 59l-83 -59h-64l110 112h71l105 -112h-57z" />
    <glyph glyph-name="Idieresis" unicode="&#xcf;" horiz-adv-x="372" 
d="M46 0v42h76v576h-76v42h280v-42h-75v-576h75v-42h-280zM163 761q0 -24 -17 -41t-42 -17q-24 0 -41.5 17t-17.5 41q0 25 17.5 42t41.5 17q25 0 42 -17t17 -42zM339 761q0 -24 -17 -41t-42 -17q-24 0 -41.5 17t-17.5 41q0 25 17.5 42t41.5 17q25 0 42 -17t17 -42z" />
    <glyph glyph-name="Eth" unicode="&#xd0;" horiz-adv-x="740" 
d="M698 331q0 -69 -27 -131.5t-78 -112.5q-48 -45 -103 -66t-129 -21h-311v42h76v277h-95v51h95v248h-76v42h312q71 0 132.5 -25.5t106.5 -69.5t71 -104.5t26 -129.5zM557 331q0 55 -17.5 104.5t-47 87t-69 59.5t-83.5 22h-85v-234h97v-51h-97v-264h81q47 0 87.5 21t70 58
t46.5 87.5t17 109.5z" />
    <glyph glyph-name="Ntilde" unicode="&#xd1;" horiz-adv-x="737" 
d="M619 618v-629h-70l-348 490v-437h79v-42h-226v42h83v525l-32 51h-72v42h199l324 -461v419h-79v42h226v-42h-84zM544 780q-35 -43 -64 -60t-68 -17q-23 0 -40 5t-37 18q-13 9 -20.5 14t-13.5 7.5t-11.5 3t-12.5 0.5q-19 0 -35.5 -7.5t-37.5 -28.5l-30 27q34 43 63.5 62
t61.5 19q13 0 26.5 -3t22.5 -8l35 -22q25 -17 60 -17q12 0 20.5 1t16 5t15 10.5t18.5 17.5z" />
    <glyph glyph-name="Ograve" unicode="&#xd2;" horiz-adv-x="743" 
d="M703 330q0 -72 -26 -134.5t-70.5 -109t-105 -73t-129.5 -26.5t-129 26.5t-105 73t-70.5 109t-25.5 134.5t25.5 134t70.5 108.5t105 73t129 26.5t129.5 -26.5t105 -73t70.5 -108.5t26 -134zM562 330q0 57 -15.5 108.5t-41.5 90.5t-60.5 62.5t-72.5 23.5t-72 -23.5
t-60 -62.5t-41.5 -90.5t-15.5 -108.5t15.5 -109t41.5 -91t60 -62.5t72 -23.5t72.5 23.5t60.5 62.5t41.5 91t15.5 109zM209 809h130l118 -102h-73z" />
    <glyph glyph-name="Oacute" unicode="&#xd3;" horiz-adv-x="743" 
d="M703 330q0 -72 -26 -134.5t-70.5 -109t-105 -73t-129.5 -26.5t-129 26.5t-105 73t-70.5 109t-25.5 134.5t25.5 134t70.5 108.5t105 73t129 26.5t129.5 -26.5t105 -73t70.5 -108.5t26 -134zM562 330q0 57 -15.5 108.5t-41.5 90.5t-60.5 62.5t-72.5 23.5t-72 -23.5
t-60 -62.5t-41.5 -90.5t-15.5 -108.5t15.5 -109t41.5 -91t60 -62.5t72 -23.5t72.5 23.5t60.5 62.5t41.5 91t15.5 109zM406 707h-80l118 102h137z" />
    <glyph glyph-name="Ocircumflex" unicode="&#xd4;" horiz-adv-x="743" 
d="M703 330q0 -72 -26 -134.5t-70.5 -109t-105 -73t-129.5 -26.5t-129 26.5t-105 73t-70.5 109t-25.5 134.5t25.5 134t70.5 108.5t105 73t129 26.5t129.5 -26.5t105 -73t70.5 -108.5t26 -134zM562 330q0 57 -15.5 108.5t-41.5 90.5t-60.5 62.5t-72.5 23.5t-72 -23.5
t-60 -62.5t-41.5 -90.5t-15.5 -108.5t15.5 -109t41.5 -91t60 -62.5t72 -23.5t72.5 23.5t60.5 62.5t41.5 91t15.5 109zM456 707l-82 59l-83 -59h-64l110 112h71l105 -112h-57z" />
    <glyph glyph-name="Otilde" unicode="&#xd5;" horiz-adv-x="743" 
d="M703 330q0 -72 -26 -134.5t-70.5 -109t-105 -73t-129.5 -26.5t-129 26.5t-105 73t-70.5 109t-25.5 134.5t25.5 134t70.5 108.5t105 73t129 26.5t129.5 -26.5t105 -73t70.5 -108.5t26 -134zM562 330q0 57 -15.5 108.5t-41.5 90.5t-60.5 62.5t-72.5 23.5t-72 -23.5
t-60 -62.5t-41.5 -90.5t-15.5 -108.5t15.5 -109t41.5 -91t60 -62.5t72 -23.5t72.5 23.5t60.5 62.5t41.5 91t15.5 109zM561 780q-35 -43 -64 -60t-68 -17q-23 0 -40 5t-37 18q-13 9 -20.5 14t-13.5 7.5t-11.5 3t-12.5 0.5q-19 0 -35.5 -7.5t-37.5 -28.5l-30 27q34 43 63.5 62
t61.5 19q13 0 26.5 -3t22.5 -8l35 -22q25 -17 60 -17q12 0 20.5 1t16 5t15 10.5t18.5 17.5z" />
    <glyph glyph-name="Odieresis" unicode="&#xd6;" horiz-adv-x="743" 
d="M703 330q0 -72 -26 -134.5t-70.5 -109t-105 -73t-129.5 -26.5t-129 26.5t-105 73t-70.5 109t-25.5 134.5t25.5 134t70.5 108.5t105 73t129 26.5t129.5 -26.5t105 -73t70.5 -108.5t26 -134zM562 330q0 57 -15.5 108.5t-41.5 90.5t-60.5 62.5t-72.5 23.5t-72 -23.5
t-60 -62.5t-41.5 -90.5t-15.5 -108.5t15.5 -109t41.5 -91t60 -62.5t72 -23.5t72.5 23.5t60.5 62.5t41.5 91t15.5 109zM290 761q0 -24 -17 -41t-42 -17q-24 0 -41.5 17t-17.5 41q0 25 17.5 42t41.5 17q25 0 42 -17t17 -42zM571 761q0 -24 -17 -41t-42 -17q-24 0 -41.5 17
t-17.5 41q0 25 17.5 42t41.5 17q25 0 42 -17t17 -42z" />
    <glyph glyph-name="multiply" unicode="&#xd7;" horiz-adv-x="550" 
d="M447 -18l-186 186l-186 -186l-58 58l186 186l-186 186l58 58l186 -186l186 186l58 -58l-186 -186l186 -186z" />
    <glyph glyph-name="Oslash" unicode="&#xd8;" horiz-adv-x="743" 
d="M610 565q94 -97 94 -238q0 -71 -26 -132.5t-71 -108t-105 -73t-128 -26.5q-113 0 -206 72l-97 -115l-36 32l99 114q-93 93 -93 236q0 72 25.5 134.5t70.5 108.5t106 72t132 26q29 0 53.5 -3.5t47.5 -12t47 -22t53 -33.5l99 117l37 -33zM562 326q0 20 -1.5 36.5t-4.5 33
t-9 35.5t-15 45l-297 -342q66 -91 138 -91q37 0 71 23.5t60.5 62.5t42 90t15.5 107zM508 520q-56 90 -135 90q-38 0 -72.5 -23.5t-61 -62.5t-42.5 -90t-16 -107q0 -19 1 -34.5t4.5 -32t9.5 -36t15 -45.5z" />
    <glyph glyph-name="Ugrave" unicode="&#xd9;" horiz-adv-x="780" 
d="M662 618v-376q0 -85 -30 -139.5t-94 -84.5q-68 -31 -145 -31q-61 0 -110 16t-84 45.5t-54 71.5t-19 94v404h-76v42h280v-42h-75v-373q0 -38 3.5 -66t12 -48.5t21.5 -35t32 -24.5q38 -19 83 -19q91 0 140.5 50.5t49.5 142.5v372h-83v43h232v-42h-84zM245 809h130l118 -102
h-73z" />
    <glyph glyph-name="Uacute" unicode="&#xda;" horiz-adv-x="780" 
d="M662 618v-376q0 -85 -30 -139.5t-94 -84.5q-68 -31 -145 -31q-61 0 -110 16t-84 45.5t-54 71.5t-19 94v404h-76v42h280v-42h-75v-373q0 -38 3.5 -66t12 -48.5t21.5 -35t32 -24.5q38 -19 83 -19q91 0 140.5 50.5t49.5 142.5v372h-83v43h232v-42h-84zM409 707h-80l118 102
h137z" />
    <glyph glyph-name="Ucircumflex" unicode="&#xdb;" horiz-adv-x="780" 
d="M662 618v-376q0 -85 -30 -139.5t-94 -84.5q-68 -31 -145 -31q-61 0 -110 16t-84 45.5t-54 71.5t-19 94v404h-76v42h280v-42h-75v-373q0 -38 3.5 -66t12 -48.5t21.5 -35t32 -24.5q38 -19 83 -19q91 0 140.5 50.5t49.5 142.5v372h-83v43h232v-42h-84zM503 707l-82 59
l-83 -59h-64l110 112h71l105 -112h-57z" />
    <glyph glyph-name="Udieresis" unicode="&#xdc;" horiz-adv-x="780" 
d="M662 618v-376q0 -85 -30 -139.5t-94 -84.5q-68 -31 -145 -31q-61 0 -110 16t-84 45.5t-54 71.5t-19 94v404h-76v42h280v-42h-75v-373q0 -38 3.5 -66t12 -48.5t21.5 -35t32 -24.5q38 -19 83 -19q91 0 140.5 50.5t49.5 142.5v372h-83v43h232v-42h-84zM325 761
q0 -24 -17 -41t-42 -17q-24 0 -41.5 17t-17.5 41q0 25 17.5 42t41.5 17q25 0 42 -17t17 -42zM587 761q0 -24 -17 -41t-42 -17q-24 0 -41.5 17t-17.5 41q0 25 17.5 42t41.5 17q25 0 42 -17t17 -42z" />
    <glyph glyph-name="Yacute" unicode="&#xdd;" horiz-adv-x="612" 
d="M549 618l-167 -274v-302h76v-42h-280v42h75v276l-198 300h-63v42h280v-42h-74l142 -219l133 219h-85v42h233v-42h-72zM347 707h-80l118 102h137z" />
    <glyph glyph-name="Thorn" unicode="&#xde;" horiz-adv-x="600" 
d="M558 340q0 -41 -17 -77t-46 -63t-67.5 -43t-82.5 -16q-13 0 -23.5 1t-30.5 5v49q10 -2 15 -2.5t12 -0.5q51 0 78.5 35.5t27.5 102.5q0 143 -109 143h-60v-432h85v-42h-290v42h76v576h-76v42h290v-42h-85v-88h98q46 0 84 -13.5t65 -38.5t41.5 -60t14.5 -78z" />
    <glyph glyph-name="germandbls" unicode="&#xdf;" horiz-adv-x="605" 
d="M573 140q0 -71 -52.5 -112t-141.5 -41q-44 0 -75 10.5t-69 38.5l53 81q41 -71 106 -71q32 0 54.5 16.5t22.5 41.5q0 19 -10.5 31.5t-37.5 27.5l-49 27q-34 19 -56.5 35t-36 33t-19 36.5t-5.5 43.5q0 20 4 38.5t14 37t25 38.5t38 44q17 18 27.5 30.5t16.5 23t8 19.5t2 20
q0 31 -22 55t-76 47q-26 -8 -42.5 -18.5t-25.5 -30.5t-12.5 -52t-3.5 -81v-509h-177v42h59v350h-70v32l70 22v81q0 46 16 85t44.5 67t68 44t86.5 16q43 0 80.5 -11.5t65.5 -31t43.5 -46.5t15.5 -58q0 -29 -14.5 -51t-46.5 -45l-59 -41q-43 -29 -43 -66q0 -29 22 -50.5
t74 -44.5q36 -17 60.5 -32.5t39.5 -33.5t21.5 -39.5t6.5 -48.5z" />
    <glyph glyph-name="agrave" unicode="&#xe0;" horiz-adv-x="457" 
d="M370 -2q-22 -7 -47 -7q-53 0 -60 55q-25 -32 -52 -45.5t-68 -13.5q-58 0 -92 31t-34 85q0 45 25 75t72 41l146 33v106q0 38 -11 53.5t-38 15.5q-12 0 -22 -2.5t-28 -10.5v-50l-114 -28q-5 9 -6.5 14.5t-1.5 13.5q0 46 47.5 73.5t125.5 27.5q81 0 123 -28t42 -82v-303h60
v-33zM260 201l-129 -30v-57q0 -29 14 -47t37 -18q18 0 35.5 9.5t42.5 32.5v110zM234 513l-159 161h110l119 -161h-70z" />
    <glyph glyph-name="aacute" unicode="&#xe1;" horiz-adv-x="457" 
d="M370 -2q-22 -7 -47 -7q-53 0 -60 55q-25 -32 -52 -45.5t-68 -13.5q-58 0 -92 31t-34 85q0 45 25 75t72 41l146 33v106q0 38 -11 53.5t-38 15.5q-12 0 -22 -2.5t-28 -10.5v-50l-114 -28q-5 9 -6.5 14.5t-1.5 13.5q0 46 47.5 73.5t125.5 27.5q81 0 123 -28t42 -82v-303h60
v-33zM260 201l-129 -30v-57q0 -29 14 -47t37 -18q18 0 35.5 9.5t42.5 32.5v110zM216 513h-70l118 161h110z" />
    <glyph glyph-name="acircumflex" unicode="&#xe2;" horiz-adv-x="457" 
d="M370 -2q-22 -7 -47 -7q-53 0 -60 55q-25 -32 -52 -45.5t-68 -13.5q-58 0 -92 31t-34 85q0 45 25 75t72 41l146 33v106q0 38 -11 53.5t-38 15.5q-12 0 -22 -2.5t-28 -10.5v-50l-114 -28q-5 9 -6.5 14.5t-1.5 13.5q0 46 47.5 73.5t125.5 27.5q81 0 123 -28t42 -82v-303h60
v-33zM260 201l-129 -30v-57q0 -29 14 -47t37 -18q18 0 35.5 9.5t42.5 32.5v110zM309 513l-85 88l-86 -88h-65l110 165h84l105 -165h-63z" />
    <glyph glyph-name="atilde" unicode="&#xe3;" horiz-adv-x="457" 
d="M370 -2q-22 -7 -47 -7q-53 0 -60 55q-25 -32 -52 -45.5t-68 -13.5q-58 0 -92 31t-34 85q0 45 25 75t72 41l146 33v106q0 38 -11 53.5t-38 15.5q-12 0 -22 -2.5t-28 -10.5v-50l-114 -28q-5 9 -6.5 14.5t-1.5 13.5q0 46 47.5 73.5t125.5 27.5q81 0 123 -28t42 -82v-303h60
v-33zM260 201l-129 -30v-57q0 -29 14 -47t37 -18q18 0 35.5 9.5t42.5 32.5v110zM405 587q-35 -43 -64 -60t-68 -17q-23 0 -40 5t-37 18q-13 9 -20.5 14t-13.5 7.5t-11.5 3t-12.5 0.5q-19 0 -35.5 -7.5t-37.5 -28.5l-30 27q34 43 63.5 62t61.5 19q13 0 26.5 -3t22.5 -8
l35 -22q25 -17 60 -17q12 0 20.5 1t16 5t15 10.5t18.5 17.5z" />
    <glyph glyph-name="adieresis" unicode="&#xe4;" horiz-adv-x="457" 
d="M370 -2q-22 -7 -47 -7q-53 0 -60 55q-25 -32 -52 -45.5t-68 -13.5q-58 0 -92 31t-34 85q0 45 25 75t72 41l146 33v106q0 38 -11 53.5t-38 15.5q-12 0 -22 -2.5t-28 -10.5v-50l-114 -28q-5 9 -6.5 14.5t-1.5 13.5q0 46 47.5 73.5t125.5 27.5q81 0 123 -28t42 -82v-303h60
v-33zM260 201l-129 -30v-57q0 -29 14 -47t37 -18q18 0 35.5 9.5t42.5 32.5v110zM189 568q0 -24 -17.5 -41t-41.5 -17t-41.5 17t-17.5 41q0 25 17.5 42t41.5 17t41.5 -17t17.5 -42zM364 568q0 -24 -17.5 -41t-41.5 -17t-41.5 17t-17.5 41q0 25 17.5 42t41.5 17t41.5 -17
t17.5 -42z" />
    <glyph glyph-name="aring" unicode="&#xe5;" horiz-adv-x="457" 
d="M370 -2q-22 -7 -47 -7q-53 0 -60 55q-25 -32 -52 -45.5t-68 -13.5q-58 0 -92 31t-34 85q0 45 25 75t72 41l146 33v106q0 38 -11 53.5t-38 15.5q-12 0 -22 -2.5t-28 -10.5v-50l-114 -28q-5 9 -6.5 14.5t-1.5 13.5q0 46 47.5 73.5t125.5 27.5q81 0 123 -28t42 -82v-303h60
v-33zM260 201l-129 -30v-57q0 -29 14 -47t37 -18q18 0 35.5 9.5t42.5 32.5v110zM307 597q0 -36 -25.5 -62t-62.5 -26q-18 0 -34 7t-28 19t-19 28t-7 34q0 37 26 62.5t62 25.5q37 0 62.5 -25.5t25.5 -62.5zM265 597q0 20 -13 33.5t-33 13.5q-19 0 -32.5 -13.5t-13.5 -33.5
q0 -19 13.5 -32.5t32.5 -13.5q20 0 33 13.5t13 32.5z" />
    <glyph glyph-name="ae" unicode="&#xe6;" horiz-adv-x="687" 
d="M673 53q-35 -21 -60 -34t-46 -20t-42 -9.5t-48 -2.5q-68 0 -110.5 19t-73.5 63q-37 -45 -70 -63.5t-76 -18.5q-60 0 -95 31t-35 85q0 44 27 76t70 39l146 24v115q0 38 -11 53.5t-37 15.5q-12 0 -22.5 -2.5t-28.5 -10.5v-50l-114 -28q-5 10 -7.5 16t-2.5 14q0 45 49.5 72
t130.5 27q46 0 75 -8.5t55 -29.5q37 20 65 28t63 8q44 0 80 -12.5t61.5 -35t39.5 -54t14 -70.5v-29l-302 -51q7 -76 47.5 -120.5t102.5 -44.5q32 0 61.5 11.5t71.5 41.5zM546 322q0 47 -18 72t-52 25q-48 0 -77.5 -43t-31.5 -115l179 32v29zM271 102q-11 30 -11 63v26
l-129 -22v-56q0 -26 15 -45t37 -19q19 0 37.5 11t50.5 42z" />
    <glyph glyph-name="ccedilla" unicode="&#xe7;" horiz-adv-x="430" 
d="M418 40q-45 -24 -78.5 -35.5t-65.5 -15.5l-44 -52q35 -1 58.5 -21t23.5 -50q0 -45 -35.5 -72.5t-92.5 -27.5q-11 0 -19 0.5t-16.5 2t-19 4t-25.5 6.5l29 55q11 -11 21 -20.5t32 -9.5q19 0 33 16t14 38t-22.5 37.5t-52.5 15.5h-9l71 77q-44 4 -81 23t-63 49t-40.5 70.5
t-14.5 88.5q0 52 18 97t50.5 78t76 52t94.5 19q52 0 87 -10.5t71 -35.5l-63 -63q-14 13 -23.5 21.5t-19 15t-21 13t-28.5 15.5q-117 -50 -117 -184q0 -38 11.5 -72.5t31 -61.5t45 -43t52.5 -16q24 0 46 8.5t60 31.5z" />
    <glyph glyph-name="egrave" unicode="&#xe8;" horiz-adv-x="461" 
d="M447 54q-37 -21 -63.5 -34t-48.5 -20.5t-43.5 -10t-47.5 -2.5q-50 0 -91.5 17t-70.5 48t-45 75t-16 97q0 54 16.5 98.5t46.5 76t72 49t94 17.5q43 0 79 -13t61 -37t39 -57.5t14 -74.5v-38h-299q0 -94 39 -147.5t107 -53.5q14 0 26 2t26 8t33.5 16.5t48.5 27.5zM319 320
q0 45 -19.5 73.5t-50.5 28.5q-40 0 -68.5 -34.5t-35.5 -91.5h174v24zM241 513l-159 161h110l119 -161h-70z" />
    <glyph glyph-name="eacute" unicode="&#xe9;" horiz-adv-x="461" 
d="M447 54q-37 -21 -63.5 -34t-48.5 -20.5t-43.5 -10t-47.5 -2.5q-50 0 -91.5 17t-70.5 48t-45 75t-16 97q0 54 16.5 98.5t46.5 76t72 49t94 17.5q43 0 79 -13t61 -37t39 -57.5t14 -74.5v-38h-299q0 -94 39 -147.5t107 -53.5q14 0 26 2t26 8t33.5 16.5t48.5 27.5zM319 320
q0 45 -19.5 73.5t-50.5 28.5q-40 0 -68.5 -34.5t-35.5 -91.5h174v24zM247 513h-70l118 161h110z" />
    <glyph glyph-name="ecircumflex" unicode="&#xea;" horiz-adv-x="461" 
d="M447 54q-37 -21 -63.5 -34t-48.5 -20.5t-43.5 -10t-47.5 -2.5q-50 0 -91.5 17t-70.5 48t-45 75t-16 97q0 54 16.5 98.5t46.5 76t72 49t94 17.5q43 0 79 -13t61 -37t39 -57.5t14 -74.5v-38h-299q0 -94 39 -147.5t107 -53.5q14 0 26 2t26 8t33.5 16.5t48.5 27.5zM319 320
q0 45 -19.5 73.5t-50.5 28.5q-40 0 -68.5 -34.5t-35.5 -91.5h174v24zM345 513l-85 88l-86 -88h-65l110 165h84l105 -165h-63z" />
    <glyph glyph-name="edieresis" unicode="&#xeb;" horiz-adv-x="461" 
d="M447 54q-37 -21 -63.5 -34t-48.5 -20.5t-43.5 -10t-47.5 -2.5q-50 0 -91.5 17t-70.5 48t-45 75t-16 97q0 54 16.5 98.5t46.5 76t72 49t94 17.5q43 0 79 -13t61 -37t39 -57.5t14 -74.5v-38h-299q0 -94 39 -147.5t107 -53.5q14 0 26 2t26 8t33.5 16.5t48.5 27.5zM319 320
q0 45 -19.5 73.5t-50.5 28.5q-40 0 -68.5 -34.5t-35.5 -91.5h174v24zM217 568q0 -24 -17.5 -41t-41.5 -17t-41.5 17t-17.5 41q0 25 17.5 42t41.5 17t41.5 -17t17.5 -42zM392 568q0 -24 -17.5 -41t-41.5 -17t-41.5 17t-17.5 41q0 25 17.5 42t41.5 17t41.5 -17t17.5 -42z" />
    <glyph glyph-name="igrave" unicode="&#xec;" horiz-adv-x="282" 
d="M29 0v42h59v350h-66v32l144 39h39v-421h59v-42h-235zM159 513l-159 161h110l119 -161h-70z" />
    <glyph glyph-name="iacute" unicode="&#xed;" horiz-adv-x="282" 
d="M29 0v42h59v350h-66v32l144 39h39v-421h59v-42h-235zM147 513h-70l118 161h110z" />
    <glyph glyph-name="icircumflex" unicode="&#xee;" horiz-adv-x="282" 
d="M29 0v42h59v350h-66v32l144 39h39v-421h59v-42h-235zM237 513l-85 88l-86 -88h-65l110 165h84l105 -165h-63z" />
    <glyph glyph-name="idieresis" unicode="&#xef;" horiz-adv-x="282" 
d="M29 0v42h59v350h-66v32l144 39h39v-421h59v-42h-235zM278 568q0 -24 -17.5 -41t-41.5 -17t-41.5 17t-17.5 41q0 25 17.5 42t41.5 17t41.5 -17t17.5 -42zM125 568q0 -24 -17.5 -41t-41.5 -17t-41.5 17t-17.5 41q0 25 17.5 42t41.5 17t41.5 -17t17.5 -42z" />
    <glyph glyph-name="eth" unicode="&#xf0;" horiz-adv-x="486" 
d="M446 289q0 -65 -16 -120t-44.5 -95.5t-68 -63.5t-86.5 -23q-42 0 -78 18t-62.5 48.5t-41.5 71.5t-15 86v8q1 44 13.5 81t34.5 63.5t54 41.5t73 15q8 0 14.5 -0.5t13.5 -2t15.5 -4t22.5 -6.5l5 -45h-43q-20 0 -34.5 -11t-24.5 -30.5t-15 -46.5t-6 -59v-15q0 -37 6.5 -66
t17 -48.5t23.5 -30t26 -10.5q40 0 66 61t26 183q0 33 -3 67.5t-11 67.5t-21 63t-33 54l-115 -66l-26 44l102 59q-24 17 -54.5 27.5t-69.5 13.5l2 50q55 0 101.5 -14t85.5 -40l111 65l26 -44l-94 -55q60 -56 91.5 -134t31.5 -158z" />
    <glyph glyph-name="ntilde" unicode="&#xf1;" horiz-adv-x="581" 
d="M326 0v42h59v279q0 45 -11.5 62t-42.5 17q-15 0 -26.5 -2.5t-24.5 -10t-29.5 -22t-40.5 -37.5v-286h58v-42h-235v42h59v350h-70v32l144 39h44v-82q24 25 43.5 41t38 25.5t37.5 13.5t43 4q64 0 97 -32t33 -93v-298h59v-42h-235zM470 587q-35 -43 -64 -60t-68 -17
q-23 0 -40 5t-37 18q-13 9 -20.5 14t-13.5 7.5t-11.5 3t-12.5 0.5q-19 0 -35.5 -7.5t-37.5 -28.5l-30 27q34 43 63.5 62t61.5 19q13 0 26.5 -3t22.5 -8l35 -22q25 -17 60 -17q12 0 20.5 1t16 5t15 10.5t18.5 17.5z" />
    <glyph glyph-name="ograve" unicode="&#xf2;" horiz-adv-x="505" 
d="M484 226q0 -52 -17.5 -95.5t-48.5 -75.5t-73.5 -50t-92.5 -18t-92.5 18t-73.5 50t-48 75.5t-17 95.5t17 96t48 75.5t73.5 49.5t92.5 18t92.5 -18t73.5 -49.5t48.5 -75.5t17.5 -96zM356 226q0 42 -7.5 77t-21.5 60t-33 39t-42 14t-42 -14t-33 -39t-21.5 -60t-7.5 -77
t7.5 -76.5t21.5 -59.5t33 -39t42 -14t42 14t33 39t21.5 59.5t7.5 76.5zM260 513l-159 161h110l119 -161h-70z" />
    <glyph glyph-name="oacute" unicode="&#xf3;" horiz-adv-x="505" 
d="M484 226q0 -52 -17.5 -95.5t-48.5 -75.5t-73.5 -50t-92.5 -18t-92.5 18t-73.5 50t-48 75.5t-17 95.5t17 96t48 75.5t73.5 49.5t92.5 18t92.5 -18t73.5 -49.5t48.5 -75.5t17.5 -96zM356 226q0 42 -7.5 77t-21.5 60t-33 39t-42 14t-42 -14t-33 -39t-21.5 -60t-7.5 -77
t7.5 -76.5t21.5 -59.5t33 -39t42 -14t42 14t33 39t21.5 59.5t7.5 76.5zM261 513h-70l118 161h110z" />
    <glyph glyph-name="ocircumflex" unicode="&#xf4;" horiz-adv-x="505" 
d="M484 226q0 -52 -17.5 -95.5t-48.5 -75.5t-73.5 -50t-92.5 -18t-92.5 18t-73.5 50t-48 75.5t-17 95.5t17 96t48 75.5t73.5 49.5t92.5 18t92.5 -18t73.5 -49.5t48.5 -75.5t17.5 -96zM356 226q0 42 -7.5 77t-21.5 60t-33 39t-42 14t-42 -14t-33 -39t-21.5 -60t-7.5 -77
t7.5 -76.5t21.5 -59.5t33 -39t42 -14t42 14t33 39t21.5 59.5t7.5 76.5zM341 513l-85 88l-86 -88h-65l110 165h84l105 -165h-63z" />
    <glyph glyph-name="otilde" unicode="&#xf5;" horiz-adv-x="505" 
d="M484 226q0 -52 -17.5 -95.5t-48.5 -75.5t-73.5 -50t-92.5 -18t-92.5 18t-73.5 50t-48 75.5t-17 95.5t17 96t48 75.5t73.5 49.5t92.5 18t92.5 -18t73.5 -49.5t48.5 -75.5t17.5 -96zM356 226q0 42 -7.5 77t-21.5 60t-33 39t-42 14t-42 -14t-33 -39t-21.5 -60t-7.5 -77
t7.5 -76.5t21.5 -59.5t33 -39t42 -14t42 14t33 39t21.5 59.5t7.5 76.5zM444 587q-35 -43 -64 -60t-68 -17q-23 0 -40 5t-37 18q-13 9 -20.5 14t-13.5 7.5t-11.5 3t-12.5 0.5q-19 0 -35.5 -7.5t-37.5 -28.5l-30 27q34 43 63.5 62t61.5 19q13 0 26.5 -3t22.5 -8l35 -22
q25 -17 60 -17q12 0 20.5 1t16 5t15 10.5t18.5 17.5z" />
    <glyph glyph-name="odieresis" unicode="&#xf6;" horiz-adv-x="505" 
d="M484 226q0 -52 -17.5 -95.5t-48.5 -75.5t-73.5 -50t-92.5 -18t-92.5 18t-73.5 50t-48 75.5t-17 95.5t17 96t48 75.5t73.5 49.5t92.5 18t92.5 -18t73.5 -49.5t48.5 -75.5t17.5 -96zM356 226q0 42 -7.5 77t-21.5 60t-33 39t-42 14t-42 -14t-33 -39t-21.5 -60t-7.5 -77
t7.5 -76.5t21.5 -59.5t33 -39t42 -14t42 14t33 39t21.5 59.5t7.5 76.5zM402 568q0 -24 -17.5 -41t-41.5 -17t-41.5 17t-17.5 41q0 25 17.5 42t41.5 17t41.5 -17t17.5 -42zM227 568q0 -24 -17.5 -41t-41.5 -17t-41.5 17t-17.5 41q0 25 17.5 42t41.5 17t41.5 -17t17.5 -42z
" />
    <glyph glyph-name="divide" unicode="&#xf7;" horiz-adv-x="550" 
d="M25 196v82h500v-82h-500zM344 427q0 -28 -19.5 -47.5t-47.5 -19.5t-47.5 19.5t-19.5 47.5t19.5 47.5t47.5 19.5t47.5 -19.5t19.5 -47.5zM343 48q0 -28 -19.5 -47.5t-47.5 -19.5t-47.5 19.5t-19.5 47.5t19.5 47.5t47.5 19.5t47.5 -19.5t19.5 -47.5z" />
    <glyph glyph-name="oslash" unicode="&#xf8;" horiz-adv-x="505" 
d="M425 390q32 -36 46 -74.5t14 -88.5q0 -52 -17.5 -96t-48.5 -76t-74 -50t-93 -18q-79 0 -139 44l-62 -72l-36 31l64 72q-32 37 -45.5 76t-13.5 90t17.5 93.5t48 74t72.5 49t92 17.5q39 0 74.5 -10.5t63.5 -30.5l66 78l37 -33zM356 228q0 10 -0.5 18.5t-1 16.5t-2 17.5
t-3.5 22.5l-177 -206q22 -35 39 -48t41 -13q23 0 42.5 14t33 39t21 60.5t7.5 78.5zM331 352q-18 33 -35.5 47t-42.5 14q-23 0 -42.5 -14t-33.5 -39t-22 -59t-8 -74q0 -19 1.5 -34t6.5 -42z" />
    <glyph glyph-name="ugrave" unicode="&#xf9;" horiz-adv-x="570" 
d="M416 -8h-43v84q-25 -26 -45 -43.5t-38.5 -27.5t-37 -14t-41.5 -4q-131 0 -131 129v276h-71v32l144 39h44v-327q0 -43 14 -62.5t45 -19.5q15 0 27.5 3.5t26 11.5t28.5 22.5t35 35.5v265h-51v36l132 35h36v-402h70v-33zM274 513l-159 161h110l119 -161h-70z" />
    <glyph glyph-name="uacute" unicode="&#xfa;" horiz-adv-x="570" 
d="M416 -8h-43v84q-25 -26 -45 -43.5t-38.5 -27.5t-37 -14t-41.5 -4q-131 0 -131 129v276h-71v32l144 39h44v-327q0 -43 14 -62.5t45 -19.5q15 0 27.5 3.5t26 11.5t28.5 22.5t35 35.5v265h-51v36l132 35h36v-402h70v-33zM282 513h-70l118 161h110z" />
    <glyph glyph-name="ucircumflex" unicode="&#xfb;" horiz-adv-x="570" 
d="M416 -8h-43v84q-25 -26 -45 -43.5t-38.5 -27.5t-37 -14t-41.5 -4q-131 0 -131 129v276h-71v32l144 39h44v-327q0 -43 14 -62.5t45 -19.5q15 0 27.5 3.5t26 11.5t28.5 22.5t35 35.5v265h-51v36l132 35h36v-402h70v-33zM365 513l-85 88l-86 -88h-65l110 165h84l105 -165
h-63z" />
    <glyph glyph-name="udieresis" unicode="&#xfc;" horiz-adv-x="570" 
d="M416 -8h-43v84q-25 -26 -45 -43.5t-38.5 -27.5t-37 -14t-41.5 -4q-131 0 -131 129v276h-71v32l144 39h44v-327q0 -43 14 -62.5t45 -19.5q15 0 27.5 3.5t26 11.5t28.5 22.5t35 35.5v265h-51v36l132 35h36v-402h70v-33zM428 568q0 -24 -17 -41t-42 -17q-24 0 -41.5 17
t-17.5 41q0 25 17.5 42t41.5 17q25 0 42 -17t17 -42zM230 568q0 -24 -17.5 -41t-41.5 -17t-41.5 17t-17.5 41q0 25 17.5 42t41.5 17t41.5 -17t17.5 -42z" />
    <glyph glyph-name="yacute" unicode="&#xfd;" horiz-adv-x="443" 
d="M402 411l-167 -434q-19 -50 -44 -98t-49 -81q-7 -10 -17.5 -23t-25.5 -31l-66 69q21 13 35.5 23t26.5 19.5t22 20.5t21 25q10 13 17.5 24t14 24t13.5 28.5t15 36.5l-162 397h-36v42h211v-42h-52l99 -242l94 242h-63v42h154v-42h-41zM256 513h-70l118 161h110z" />
    <glyph glyph-name="thorn" unicode="&#xfe;" horiz-adv-x="538" 
d="M513 245q0 -57 -17.5 -104.5t-50 -81.5t-77 -53t-98.5 -19q-20 0 -32 2t-32 9v-199h66v-42h-242v42h59v867h-67v32l144 39h40v-318q29 25 57.5 35t68.5 10q41 0 74.5 -15.5t57 -44t36.5 -69t13 -90.5zM385 234q0 75 -28 121.5t-74 46.5q-18 0 -34.5 -7t-42.5 -27v-254
q0 -27 2 -43.5t7.5 -25.5t15.5 -12.5t26 -3.5q28 0 51.5 15t40.5 42.5t26.5 65t9.5 82.5z" />
    <glyph glyph-name="ydieresis" unicode="&#xff;" horiz-adv-x="443" 
d="M402 411l-167 -434q-19 -50 -44 -98t-49 -81q-7 -10 -17.5 -23t-25.5 -31l-66 69q21 13 35.5 23t26.5 19.5t22 20.5t21 25q10 13 17.5 24t14 24t13.5 28.5t15 36.5l-162 397h-36v42h211v-42h-52l99 -242l94 242h-63v42h154v-42h-41zM159 568q0 -24 -17.5 -41t-41.5 -17
t-41.5 17t-17.5 41q0 25 17.5 42t41.5 17t41.5 -17t17.5 -42zM385 568q0 -24 -17.5 -41t-41.5 -17t-41.5 17t-17.5 41q0 25 17.5 42t41.5 17t41.5 -17t17.5 -42z" />
    <glyph glyph-name="Amacron" unicode="&#x100;" horiz-adv-x="672" 
d="M427 0v42h70l-62 162h-243l-65 -162h80v-42h-207v42h62l258 639h61l248 -639h42v-42h-244zM317 515l-101 -250h196zM175 719v75h341v-75h-341z" />
    <glyph glyph-name="amacron" unicode="&#x101;" horiz-adv-x="457" 
d="M370 -2q-22 -7 -47 -7q-53 0 -60 55q-25 -32 -52 -45.5t-68 -13.5q-58 0 -92 31t-34 85q0 45 25 75t72 41l146 33v106q0 38 -11 53.5t-38 15.5q-12 0 -22 -2.5t-28 -10.5v-50l-114 -28q-5 9 -6.5 14.5t-1.5 13.5q0 46 47.5 73.5t125.5 27.5q81 0 123 -28t42 -82v-303h60
v-33zM260 201l-129 -30v-57q0 -29 14 -47t37 -18q18 0 35.5 9.5t42.5 32.5v110zM47 525v75h341v-75h-341z" />
    <glyph glyph-name="Abreve" unicode="&#x102;" horiz-adv-x="672" 
d="M427 0v42h70l-62 162h-243l-65 -162h80v-42h-207v42h62l258 639h61l248 -639h42v-42h-244zM317 515l-101 -250h196zM510 836q-22 -65 -59 -99t-97 -34q-61 0 -100 34.5t-58 98.5h44q17 -35 44.5 -51t70.5 -16q80 0 112 67h43z" />
    <glyph glyph-name="abreve" unicode="&#x103;" horiz-adv-x="457" 
d="M370 -2q-22 -7 -47 -7q-53 0 -60 55q-25 -32 -52 -45.5t-68 -13.5q-58 0 -92 31t-34 85q0 45 25 75t72 41l146 33v106q0 38 -11 53.5t-38 15.5q-12 0 -22 -2.5t-28 -10.5v-50l-114 -28q-5 9 -6.5 14.5t-1.5 13.5q0 46 47.5 73.5t125.5 27.5q81 0 123 -28t42 -82v-303h60
v-33zM260 201l-129 -30v-57q0 -29 14 -47t37 -18q18 0 35.5 9.5t42.5 32.5v110zM384 670q-5 -21 -9.5 -37t-10 -28t-12 -22t-15.5 -20q-22 -26 -51.5 -40t-59.5 -14q-61 0 -101 41.5t-59 119.5h46q17 -41 44.5 -62t70.5 -21q42 0 68 20.5t44 62.5h45z" />
    <glyph glyph-name="Aogonek" unicode="&#x104;" horiz-adv-x="672" 
d="M569 0q-11 -11 -21.5 -24t-19 -26.5t-14 -26.5t-5.5 -23q0 -26 10.5 -39t26.5 -13q11 0 26 3.5t41 13.5l-6 -52q-17 -11 -37.5 -21t-48.5 -10q-50 0 -74 21.5t-24 58.5q0 16 7.5 33.5t20 35t28 35t32.5 34.5h-84v42h70l-62 162h-243l-65 -162h80v-42h-207v42h62l258 639
h61l248 -639h42v-42h-102zM317 515l-101 -250h196z" />
    <glyph glyph-name="aogonek" unicode="&#x105;" horiz-adv-x="457" 
d="M369 -2q-11 -11 -21 -24t-18.5 -26t-13.5 -25.5t-5 -22.5q0 -26 10.5 -39t26.5 -13q11 0 26 3.5t41 13.5l-6 -52q-17 -11 -37.5 -21t-48.5 -10q-50 0 -74 21.5t-24 58.5q0 32 24.5 65.5t55.5 65.5q-36 7 -42 53q-25 -32 -52 -45.5t-68 -13.5q-58 0 -92 31t-34 85
q0 45 25 75t72 41l146 33v106q0 38 -11 53.5t-38 15.5q-12 0 -22 -2.5t-28 -10.5v-50l-114 -28q-5 9 -6.5 14.5t-1.5 13.5q0 46 47.5 73.5t125.5 27.5q81 0 123 -28t42 -82v-303h60v-33zM260 201l-129 -30v-57q0 -29 14 -47t37 -18q18 0 35.5 9.5t42.5 32.5v110z" />
    <glyph glyph-name="Cacute" unicode="&#x106;" horiz-adv-x="667" 
d="M617 29q-32 -12 -58.5 -20t-51.5 -13t-50.5 -7t-53.5 -2q-79 0 -145.5 25.5t-114.5 70.5t-74.5 107.5t-26.5 137.5q0 74 26.5 137t73.5 109t111.5 72t139.5 26q49 0 86.5 -7.5t81.5 -26.5v42h55v-179h-55v64q-21 15 -38.5 25t-34 15.5t-33 8t-36.5 2.5q-52 0 -95.5 -20.5
t-74.5 -58t-48.5 -89.5t-17.5 -114q0 -61 19 -113.5t52 -91.5t77.5 -61t96.5 -22q38 0 68 9t65 31v76h56v-133zM417 707h-80l118 102h137z" />
    <glyph glyph-name="cacute" unicode="&#x107;" horiz-adv-x="430" 
d="M418 40q-56 -29 -95.5 -41t-79.5 -12q-49 0 -89.5 17.5t-70 48t-46 73t-16.5 93.5q0 52 18 97t50.5 78t76 52t94.5 19q52 0 87 -10.5t71 -35.5l-63 -63q-14 13 -23.5 21.5t-19 15t-21 13t-28.5 15.5q-117 -50 -117 -184q0 -38 11.5 -72.5t31 -61.5t45 -43t52.5 -16
q24 0 46 8.5t60 31.5zM275 513h-70l118 161h110z" />
    <glyph glyph-name="Ccircumflex" unicode="&#x108;" horiz-adv-x="667" 
d="M617 29q-32 -12 -58.5 -20t-51.5 -13t-50.5 -7t-53.5 -2q-79 0 -145.5 25.5t-114.5 70.5t-74.5 107.5t-26.5 137.5q0 74 26.5 137t73.5 109t111.5 72t139.5 26q49 0 86.5 -7.5t81.5 -26.5v42h55v-179h-55v64q-21 15 -38.5 25t-34 15.5t-33 8t-36.5 2.5q-52 0 -95.5 -20.5
t-74.5 -58t-48.5 -89.5t-17.5 -114q0 -61 19 -113.5t52 -91.5t77.5 -61t96.5 -22q38 0 68 9t65 31v76h56v-133zM481 707l-82 59l-83 -59h-64l110 112h71l105 -112h-57z" />
    <glyph glyph-name="ccircumflex" unicode="&#x109;" horiz-adv-x="430" 
d="M418 40q-56 -29 -95.5 -41t-79.5 -12q-49 0 -89.5 17.5t-70 48t-46 73t-16.5 93.5q0 52 18 97t50.5 78t76 52t94.5 19q52 0 87 -10.5t71 -35.5l-63 -63q-14 13 -23.5 21.5t-19 15t-21 13t-28.5 15.5q-117 -50 -117 -184q0 -38 11.5 -72.5t31 -61.5t45 -43t52.5 -16
q24 0 46 8.5t60 31.5zM341 513l-85 88l-86 -88h-65l110 165h84l105 -165h-63z" />
    <glyph glyph-name="Cdotaccent" unicode="&#x10a;" horiz-adv-x="667" 
d="M617 29q-32 -12 -58.5 -20t-51.5 -13t-50.5 -7t-53.5 -2q-79 0 -145.5 25.5t-114.5 70.5t-74.5 107.5t-26.5 137.5q0 74 26.5 137t73.5 109t111.5 72t139.5 26q49 0 86.5 -7.5t81.5 -26.5v42h55v-179h-55v64q-21 15 -38.5 25t-34 15.5t-33 8t-36.5 2.5q-52 0 -95.5 -20.5
t-74.5 -58t-48.5 -89.5t-17.5 -114q0 -61 19 -113.5t52 -91.5t77.5 -61t96.5 -22q38 0 68 9t65 31v76h56v-133zM453 761q0 -24 -17 -41t-42 -17q-24 0 -41.5 17t-17.5 41q0 25 17.5 42t41.5 17q25 0 42 -17t17 -42z" />
    <glyph glyph-name="cdotaccent" unicode="&#x10b;" horiz-adv-x="430" 
d="M418 40q-56 -29 -95.5 -41t-79.5 -12q-49 0 -89.5 17.5t-70 48t-46 73t-16.5 93.5q0 52 18 97t50.5 78t76 52t94.5 19q52 0 87 -10.5t71 -35.5l-63 -63q-14 13 -23.5 21.5t-19 15t-21 13t-28.5 15.5q-117 -50 -117 -184q0 -38 11.5 -72.5t31 -61.5t45 -43t52.5 -16
q24 0 46 8.5t60 31.5zM314 568q0 -24 -17.5 -41t-41.5 -17t-41.5 17t-17.5 41q0 25 17.5 42t41.5 17t41.5 -17t17.5 -42z" />
    <glyph glyph-name="Ccaron" unicode="&#x10c;" horiz-adv-x="667" 
d="M617 29q-32 -12 -58.5 -20t-51.5 -13t-50.5 -7t-53.5 -2q-79 0 -145.5 25.5t-114.5 70.5t-74.5 107.5t-26.5 137.5q0 74 26.5 137t73.5 109t111.5 72t139.5 26q49 0 86.5 -7.5t81.5 -26.5v42h55v-179h-55v64q-21 15 -38.5 25t-34 15.5t-33 8t-36.5 2.5q-52 0 -95.5 -20.5
t-74.5 -58t-48.5 -89.5t-17.5 -114q0 -61 19 -113.5t52 -91.5t77.5 -61t96.5 -22q38 0 68 9t65 31v76h56v-133zM314 819l82 -59l83 59h64l-110 -112h-71l-105 112h57z" />
    <glyph glyph-name="ccaron" unicode="&#x10d;" horiz-adv-x="430" 
d="M418 40q-56 -29 -95.5 -41t-79.5 -12q-49 0 -89.5 17.5t-70 48t-46 73t-16.5 93.5q0 52 18 97t50.5 78t76 52t94.5 19q52 0 87 -10.5t71 -35.5l-63 -63q-14 13 -23.5 21.5t-19 15t-21 13t-28.5 15.5q-117 -50 -117 -184q0 -38 11.5 -72.5t31 -61.5t45 -43t52.5 -16
q24 0 46 8.5t60 31.5zM168 678l85 -88l86 88h65l-110 -165h-84l-105 165h63z" />
    <glyph glyph-name="Dcaron" unicode="&#x10e;" horiz-adv-x="740" 
d="M698 331q0 -69 -27 -131.5t-78 -112.5q-48 -45 -103 -66t-129 -21h-311v42h76v576h-76v42h312q71 0 132.5 -25.5t106.5 -69.5t71 -104.5t26 -129.5zM557 331q0 55 -17.5 104.5t-47 87t-69 59.5t-83.5 22h-85v-549h81q47 0 87.5 21t70 58t46.5 87.5t17 109.5zM242 819
l82 -59l83 59h64l-110 -112h-71l-105 112h57z" />
    <glyph glyph-name="dcaron" unicode="&#x10f;" horiz-adv-x="532" 
d="M379 -10h-44v58q-18 -18 -32 -30t-28 -18.5t-29 -9.5t-34 -3q-42 0 -77 17t-60.5 48t-39.5 72.5t-14 91.5q0 53 18.5 98.5t50.5 79t76.5 52.5t95.5 19q21 0 35 -2.5t38 -10.5v214h-70v32l144 39h44v-676h70v-33zM335 343q0 40 -13 58t-41 18t-52.5 -14.5t-42.5 -40
t-28 -60t-10 -74.5q0 -36 8 -67.5t22.5 -55.5t33.5 -37.5t41 -13.5q38 0 82 44v243zM617 680q0 -12 -4 -28t-10.5 -33t-16 -34.5t-20.5 -30.5h-64q8 18 16.5 42.5t12.5 42.5l-33 80q25 11 36.5 14.5t26.5 3.5q29 0 42.5 -15t13.5 -42z" />
    <glyph glyph-name="Dcroat" unicode="&#x110;" horiz-adv-x="740" 
d="M698 331q0 -69 -27 -131.5t-78 -112.5q-48 -45 -103 -66t-129 -21h-311v42h76v277h-95v51h95v248h-76v42h312q71 0 132.5 -25.5t106.5 -69.5t71 -104.5t26 -129.5zM557 331q0 55 -17.5 104.5t-47 87t-69 59.5t-83.5 22h-85v-234h97v-51h-97v-264h81q47 0 87.5 21t70 58
t46.5 87.5t17 109.5z" />
    <glyph glyph-name="dcroat" unicode="&#x111;" horiz-adv-x="532" 
d="M494 535h-41v-474h70v-33l-144 -38h-44v58q-18 -18 -32 -30t-28 -18.5t-29 -9.5t-34 -3q-42 0 -77 17t-60.5 48t-39.5 72.5t-14 91.5q0 53 18.5 98.5t50.5 79t76.5 52.5t95.5 19q21 0 35 -2.5t38 -10.5v83h-113v52h113v79h-70v32l144 39h44v-150h41v-52zM335 343
q0 40 -13 58t-41 18t-52.5 -14.5t-42.5 -40t-28 -60t-10 -74.5q0 -36 8 -67.5t22.5 -55.5t33.5 -37.5t41 -13.5q38 0 82 44v243z" />
    <glyph glyph-name="Emacron" unicode="&#x112;" horiz-adv-x="581" 
d="M50 0v42h76v576h-76v42h412v28h54v-159h-53v72h-208v-236h160v69h54v-198h-54v70h-160v-247h217v74h54v-133h-476zM105 719v75h341v-75h-341z" />
    <glyph glyph-name="emacron" unicode="&#x113;" horiz-adv-x="461" 
d="M447 54q-37 -21 -63.5 -34t-48.5 -20.5t-43.5 -10t-47.5 -2.5q-50 0 -91.5 17t-70.5 48t-45 75t-16 97q0 54 16.5 98.5t46.5 76t72 49t94 17.5q43 0 79 -13t61 -37t39 -57.5t14 -74.5v-38h-299q0 -94 39 -147.5t107 -53.5q14 0 26 2t26 8t33.5 16.5t48.5 27.5zM319 320
q0 45 -19.5 73.5t-50.5 28.5q-40 0 -68.5 -34.5t-35.5 -91.5h174v24zM76 525v75h341v-75h-341z" />
    <glyph glyph-name="Ebreve" unicode="&#x114;" horiz-adv-x="581" 
d="M50 0v42h76v576h-76v42h412v28h54v-159h-53v72h-208v-236h160v69h54v-198h-54v70h-160v-247h217v74h54v-133h-476zM439 836q-22 -65 -59 -99t-97 -34q-61 0 -100 34.5t-58 98.5h44q17 -35 44.5 -51t70.5 -16q80 0 112 67h43z" />
    <glyph glyph-name="ebreve" unicode="&#x115;" horiz-adv-x="461" 
d="M447 54q-37 -21 -63.5 -34t-48.5 -20.5t-43.5 -10t-47.5 -2.5q-50 0 -91.5 17t-70.5 48t-45 75t-16 97q0 54 16.5 98.5t46.5 76t72 49t94 17.5q43 0 79 -13t61 -37t39 -57.5t14 -74.5v-38h-299q0 -94 39 -147.5t107 -53.5q14 0 26 2t26 8t33.5 16.5t48.5 27.5zM319 320
q0 45 -19.5 73.5t-50.5 28.5q-40 0 -68.5 -34.5t-35.5 -91.5h174v24zM413 670q-5 -21 -9.5 -37t-10 -28t-12 -22t-15.5 -20q-22 -26 -51.5 -40t-59.5 -14q-61 0 -101 41.5t-59 119.5h46q17 -41 44.5 -62t70.5 -21q42 0 68 20.5t44 62.5h45z" />
    <glyph glyph-name="Edotaccent" unicode="&#x116;" horiz-adv-x="581" 
d="M50 0v42h76v576h-76v42h412v28h54v-159h-53v72h-208v-236h160v69h54v-198h-54v70h-160v-247h217v74h54v-133h-476zM344 761q0 -24 -17 -41t-42 -17q-24 0 -41.5 17t-17.5 41q0 25 17.5 42t41.5 17q25 0 42 -17t17 -42z" />
    <glyph glyph-name="edotaccent" unicode="&#x117;" horiz-adv-x="461" 
d="M447 54q-37 -21 -63.5 -34t-48.5 -20.5t-43.5 -10t-47.5 -2.5q-50 0 -91.5 17t-70.5 48t-45 75t-16 97q0 54 16.5 98.5t46.5 76t72 49t94 17.5q43 0 79 -13t61 -37t39 -57.5t14 -74.5v-38h-299q0 -94 39 -147.5t107 -53.5q14 0 26 2t26 8t33.5 16.5t48.5 27.5zM319 320
q0 45 -19.5 73.5t-50.5 28.5q-40 0 -68.5 -34.5t-35.5 -91.5h174v24zM319 568q0 -24 -17.5 -41t-41.5 -17t-41.5 17t-17.5 41q0 25 17.5 42t41.5 17t41.5 -17t17.5 -42z" />
    <glyph glyph-name="Eogonek" unicode="&#x118;" horiz-adv-x="581" 
d="M488 0q-11 -11 -21.5 -24t-19 -26.5t-14 -26.5t-5.5 -23q0 -26 10.5 -39t26.5 -13q11 0 26 3.5t41 13.5l-6 -52q-17 -11 -37.5 -21t-48.5 -10q-50 0 -74 21.5t-24 58.5q0 16 7.5 33.5t20 35t28 35t32.5 34.5h-380v42h76v576h-76v42h412v28h54v-159h-53v72h-208v-236h160
v69h54v-198h-54v70h-160v-247h217v74h54v-133h-38z" />
    <glyph glyph-name="eogonek" unicode="&#x119;" horiz-adv-x="461" 
d="M447 54q-35 -20 -59.5 -32.5t-45.5 -20.5q-11 -10 -22 -23t-20 -27t-15 -27.5t-6 -23.5q0 -26 10.5 -39t26.5 -13q11 0 26 3.5t41 13.5l-6 -52q-17 -11 -37.5 -21t-48.5 -10q-50 0 -74 21.5t-24 58.5q0 30 23 62t53 64q-6 -1 -13 -1h-12q-50 0 -91.5 17t-70.5 48t-45 75
t-16 97q0 54 16.5 98.5t46.5 76t72 49t94 17.5q43 0 79 -13t61 -37t39 -57.5t14 -74.5v-38h-299q0 -94 39 -147.5t107 -53.5q14 0 26 2t26 8t33.5 16.5t48.5 27.5zM319 320q0 45 -19.5 73.5t-50.5 28.5q-40 0 -68.5 -34.5t-35.5 -91.5h174v24z" />
    <glyph glyph-name="Ecaron" unicode="&#x11a;" horiz-adv-x="581" 
d="M50 0v42h76v576h-76v42h412v28h54v-159h-53v72h-208v-236h160v69h54v-198h-54v70h-160v-247h217v74h54v-133h-476zM207 819l82 -59l83 59h64l-110 -112h-71l-105 112h57z" />
    <glyph glyph-name="ecaron" unicode="&#x11b;" horiz-adv-x="461" 
d="M447 54q-37 -21 -63.5 -34t-48.5 -20.5t-43.5 -10t-47.5 -2.5q-50 0 -91.5 17t-70.5 48t-45 75t-16 97q0 54 16.5 98.5t46.5 76t72 49t94 17.5q43 0 79 -13t61 -37t39 -57.5t14 -74.5v-38h-299q0 -94 39 -147.5t107 -53.5q14 0 26 2t26 8t33.5 16.5t48.5 27.5zM319 320
q0 45 -19.5 73.5t-50.5 28.5q-40 0 -68.5 -34.5t-35.5 -91.5h174v24zM172 678l85 -88l86 88h65l-110 -165h-84l-105 165h63z" />
    <glyph glyph-name="Gcircumflex" unicode="&#x11c;" horiz-adv-x="745" 
d="M644 227v-202q-37 -10 -67.5 -17.5t-58 -12t-52.5 -6.5t-51 -2q-82 0 -150.5 25.5t-118 71t-77 109t-27.5 138.5q0 54 16.5 105t45.5 93.5t70 74t90 47.5q33 11 70 16.5t78 5.5q23 0 42 -1.5t38 -5t39 -9t44 -14.5v37h55v-178h-55v76q-38 20 -72 29t-78 9q-51 0 -95 -22
t-77 -60.5t-51.5 -90.5t-18.5 -112q0 -58 20.5 -109.5t55 -90.5t81 -61.5t98.5 -22.5q21 0 36 3t41 11v166h-86v42h290v-42h-75zM478 707l-82 59l-83 -59h-64l110 112h71l105 -112h-57z" />
    <glyph glyph-name="gcircumflex" unicode="&#x11d;" horiz-adv-x="507" 
d="M419 384q17 -20 23.5 -39.5t6.5 -48.5q0 -81 -53 -128t-147 -47q-21 0 -35 1.5t-39 6.5q-24 -24 -34 -38.5t-10 -25.5q0 -18 25 -18h250q94 0 94 -93q0 -45 -20 -83t-54.5 -66.5t-82.5 -44.5t-103 -16q-75 0 -127.5 23.5t-95.5 77.5q9 16 15 28t13 21.5t15 19.5t20 24
l31 35q-33 8 -53 18t-43 32q17 24 29.5 40.5t24 30t24.5 25.5t31 28q-86 53 -86 142q0 40 13.5 73t39 55.5t61.5 35t80 12.5q73 0 132 -30h68l71 17v-68h-84zM397 -83q0 23 -11 32.5t-38 9.5h-181q-16 -26 -21.5 -41.5t-5.5 -32.5q0 -42 32 -68.5t83 -26.5q29 0 55 10
t45.5 27t30.5 40.5t11 49.5zM328 294q0 60 -22.5 94t-61.5 34t-61.5 -34t-22.5 -94t22.5 -94t61.5 -34t61.5 34t22.5 94zM341 513l-85 88l-86 -88h-65l110 165h84l105 -165h-63z" />
    <glyph glyph-name="Gbreve" unicode="&#x11e;" horiz-adv-x="745" 
d="M644 227v-202q-37 -10 -67.5 -17.5t-58 -12t-52.5 -6.5t-51 -2q-82 0 -150.5 25.5t-118 71t-77 109t-27.5 138.5q0 54 16.5 105t45.5 93.5t70 74t90 47.5q33 11 70 16.5t78 5.5q23 0 42 -1.5t38 -5t39 -9t44 -14.5v37h55v-178h-55v76q-38 20 -72 29t-78 9q-51 0 -95 -22
t-77 -60.5t-51.5 -90.5t-18.5 -112q0 -58 20.5 -109.5t55 -90.5t81 -61.5t98.5 -22.5q21 0 36 3t41 11v166h-86v42h290v-42h-75zM568 836q-22 -65 -59 -99t-97 -34q-61 0 -100 34.5t-58 98.5h44q17 -35 44.5 -51t70.5 -16q80 0 112 67h43z" />
    <glyph glyph-name="gbreve" unicode="&#x11f;" horiz-adv-x="507" 
d="M419 384q17 -20 23.5 -39.5t6.5 -48.5q0 -81 -53 -128t-147 -47q-21 0 -35 1.5t-39 6.5q-24 -24 -34 -38.5t-10 -25.5q0 -18 25 -18h250q94 0 94 -93q0 -45 -20 -83t-54.5 -66.5t-82.5 -44.5t-103 -16q-75 0 -127.5 23.5t-95.5 77.5q9 16 15 28t13 21.5t15 19.5t20 24
l31 35q-33 8 -53 18t-43 32q17 24 29.5 40.5t24 30t24.5 25.5t31 28q-86 53 -86 142q0 40 13.5 73t39 55.5t61.5 35t80 12.5q73 0 132 -30h68l71 17v-68h-84zM397 -83q0 23 -11 32.5t-38 9.5h-181q-16 -26 -21.5 -41.5t-5.5 -32.5q0 -42 32 -68.5t83 -26.5q29 0 55 10
t45.5 27t30.5 40.5t11 49.5zM328 294q0 60 -22.5 94t-61.5 34t-61.5 -34t-22.5 -94t22.5 -94t61.5 -34t61.5 34t22.5 94zM391 670q-5 -21 -9.5 -37t-10 -28t-12 -22t-15.5 -20q-22 -26 -51.5 -40t-59.5 -14q-61 0 -101 41.5t-59 119.5h46q17 -41 44.5 -62t70.5 -21
q42 0 68 20.5t44 62.5h45z" />
    <glyph glyph-name="Gdotaccent" unicode="&#x120;" horiz-adv-x="745" 
d="M644 227v-202q-37 -10 -67.5 -17.5t-58 -12t-52.5 -6.5t-51 -2q-82 0 -150.5 25.5t-118 71t-77 109t-27.5 138.5q0 54 16.5 105t45.5 93.5t70 74t90 47.5q33 11 70 16.5t78 5.5q23 0 42 -1.5t38 -5t39 -9t44 -14.5v37h55v-178h-55v76q-38 20 -72 29t-78 9q-51 0 -95 -22
t-77 -60.5t-51.5 -90.5t-18.5 -112q0 -58 20.5 -109.5t55 -90.5t81 -61.5t98.5 -22.5q21 0 36 3t41 11v166h-86v42h290v-42h-75zM460 761q0 -24 -17 -41t-42 -17q-24 0 -41.5 17t-17.5 41q0 25 17.5 42t41.5 17q25 0 42 -17t17 -42z" />
    <glyph glyph-name="gdotaccent" unicode="&#x121;" horiz-adv-x="507" 
d="M419 384q17 -20 23.5 -39.5t6.5 -48.5q0 -81 -53 -128t-147 -47q-21 0 -35 1.5t-39 6.5q-24 -24 -34 -38.5t-10 -25.5q0 -18 25 -18h250q94 0 94 -93q0 -45 -20 -83t-54.5 -66.5t-82.5 -44.5t-103 -16q-75 0 -127.5 23.5t-95.5 77.5q9 16 15 28t13 21.5t15 19.5t20 24
l31 35q-33 8 -53 18t-43 32q17 24 29.5 40.5t24 30t24.5 25.5t31 28q-86 53 -86 142q0 40 13.5 73t39 55.5t61.5 35t80 12.5q73 0 132 -30h68l71 17v-68h-84zM397 -83q0 23 -11 32.5t-38 9.5h-181q-16 -26 -21.5 -41.5t-5.5 -32.5q0 -42 32 -68.5t83 -26.5q29 0 55 10
t45.5 27t30.5 40.5t11 49.5zM328 294q0 60 -22.5 94t-61.5 34t-61.5 -34t-22.5 -94t22.5 -94t61.5 -34t61.5 34t22.5 94zM296 568q0 -24 -17.5 -41t-41.5 -17t-41.5 17t-17.5 41q0 25 17.5 42t41.5 17t41.5 -17t17.5 -42z" />
    <glyph glyph-name="Gcommaaccent" unicode="&#x122;" horiz-adv-x="745" 
d="M644 227v-202q-37 -10 -67.5 -17.5t-58 -12t-52.5 -6.5t-51 -2q-82 0 -150.5 25.5t-118 71t-77 109t-27.5 138.5q0 54 16.5 105t45.5 93.5t70 74t90 47.5q33 11 70 16.5t78 5.5q23 0 42 -1.5t38 -5t39 -9t44 -14.5v37h55v-178h-55v76q-38 20 -72 29t-78 9q-51 0 -95 -22
t-77 -60.5t-51.5 -90.5t-18.5 -112q0 -58 20.5 -109.5t55 -90.5t81 -61.5t98.5 -22.5q21 0 36 3t41 11v166h-86v42h290v-42h-75zM467 -130q0 -12 -4 -28t-10.5 -33t-16 -34.5t-20.5 -30.5h-64q8 18 16.5 42.5t12.5 42.5l-33 80q25 11 36.5 14.5t26.5 3.5q29 0 42.5 -15
t13.5 -42z" />
    <glyph glyph-name="gcommaaccent" unicode="&#x123;" horiz-adv-x="507" 
d="M419 384q17 -20 23.5 -39.5t6.5 -48.5q0 -81 -53 -128t-147 -47q-21 0 -35 1.5t-39 6.5q-24 -24 -34 -38.5t-10 -25.5q0 -18 25 -18h250q94 0 94 -93q0 -45 -20 -83t-54.5 -66.5t-82.5 -44.5t-103 -16q-75 0 -127.5 23.5t-95.5 77.5q9 16 15 28t13 21.5t15 19.5t20 24
l31 35q-33 8 -53 18t-43 32q17 24 29.5 40.5t24 30t24.5 25.5t31 28q-86 53 -86 142q0 40 13.5 73t39 55.5t61.5 35t80 12.5q73 0 132 -30h68l71 17v-68h-84zM397 -83q0 23 -11 32.5t-38 9.5h-181q-16 -26 -21.5 -41.5t-5.5 -32.5q0 -42 32 -68.5t83 -26.5q29 0 55 10
t45.5 27t30.5 40.5t11 49.5zM328 294q0 60 -22.5 94t-61.5 34t-61.5 -34t-22.5 -94t22.5 -94t61.5 -34t61.5 34t22.5 94zM171 576q0 12 3.5 28t10.5 33t16.5 34t20.5 31h64q-8 -18 -16.5 -42.5t-12.5 -42.5l33 -80q-25 -11 -36.5 -14.5t-26.5 -3.5q-29 0 -42.5 15t-13.5 42z
" />
    <glyph glyph-name="Hcircumflex" unicode="&#x124;" horiz-adv-x="835" 
d="M505 0v42h75v263h-325v-263h75v-42h-280v42h76v576h-76v42h280v-42h-75v-254h325v254h-75v42h280v-42h-76v-576h76v-42h-280zM503 707l-82 59l-83 -59h-64l110 112h71l105 -112h-57z" />
    <glyph glyph-name="hcircumflex" unicode="&#x125;" horiz-adv-x="568" 
d="M313 0v42h59v279q0 45 -12 62t-43 17q-15 0 -26.5 -2.5t-24 -10t-29 -22t-41.5 -37.5v-286h59v-42h-235v42h59v624h-71v32l144 39h44v-356q24 25 44 41t38.5 25.5t37.5 13.5t43 4q63 0 96.5 -32t33.5 -93v-298h59v-42h-235zM226 753l-82 59l-83 -59h-64l110 112h71
l105 -112h-57z" />
    <glyph glyph-name="Hbar" unicode="&#x126;" horiz-adv-x="835" 
d="M505 0v42h75v263h-325v-263h75v-42h-280v42h76v417h-77v59h77v100h-76v42h280v-42h-75v-100h325v100h-75v42h280v-42h-76v-100h76v-59h-76v-417h76v-42h-280zM580 364v95h-325v-95h325z" />
    <glyph glyph-name="hbar" unicode="&#x127;" horiz-adv-x="568" 
d="M313 0v42h59v279q0 45 -12 62t-43 17q-15 0 -26.5 -2.5t-24 -10t-29 -22t-41.5 -37.5v-286h59v-42h-235v42h59v475h-71v58h71v91h-71v32l144 39h44v-162h174v-58h-174v-136q24 25 44 41t38.5 25.5t37.5 13.5t43 4q63 0 96.5 -32t33.5 -93v-298h59v-42h-235z" />
    <glyph glyph-name="Itilde" unicode="&#x128;" horiz-adv-x="372" 
d="M46 0v42h76v576h-76v42h280v-42h-75v-576h75v-42h-280zM375 780q-35 -43 -64 -60t-68 -17q-23 0 -40 5t-37 18q-13 9 -20.5 14t-13.5 7.5t-11.5 3t-12.5 0.5q-19 0 -35.5 -7.5t-37.5 -28.5l-30 27q34 43 63.5 62t61.5 19q13 0 26.5 -3t22.5 -8l35 -22q25 -17 60 -17
q12 0 20.5 1t16 5t15 10.5t18.5 17.5z" />
    <glyph glyph-name="itilde" unicode="&#x129;" horiz-adv-x="282" 
d="M29 0v42h59v350h-66v32l144 39h39v-421h59v-42h-235zM336 587q-35 -43 -64 -60t-68 -17q-23 0 -40 5t-37 18q-13 9 -20.5 14t-13.5 7.5t-11.5 3t-12.5 0.5q-19 0 -35.5 -7.5t-37.5 -28.5l-30 27q34 43 63.5 62t61.5 19q13 0 26.5 -3t22.5 -8l35 -22q25 -17 60 -17
q12 0 20.5 1t16 5t15 10.5t18.5 17.5z" />
    <glyph glyph-name="Imacron" unicode="&#x12a;" horiz-adv-x="372" 
d="M46 0v42h76v576h-76v42h280v-42h-75v-576h75v-42h-280zM7 719v75h341v-75h-341z" />
    <glyph glyph-name="imacron" unicode="&#x12b;" horiz-adv-x="282" 
d="M29 0v42h59v350h-66v32l144 39h39v-421h59v-42h-235zM-40 525v75h341v-75h-341z" />
    <glyph glyph-name="Ibreve" unicode="&#x12c;" horiz-adv-x="372" 
d="M46 0v42h76v576h-76v42h280v-42h-75v-576h75v-42h-280zM342 836q-22 -65 -59 -99t-97 -34q-61 0 -100 34.5t-58 98.5h44q17 -35 44.5 -51t70.5 -16q80 0 112 67h43z" />
    <glyph glyph-name="ibreve" unicode="&#x12d;" horiz-adv-x="282" 
d="M29 0v42h59v350h-66v32l144 39h39v-421h59v-42h-235zM308 670q-5 -21 -9.5 -37t-10 -28t-12 -22t-15.5 -20q-22 -26 -51.5 -40t-59.5 -14q-61 0 -101 41.5t-59 119.5h46q17 -41 44.5 -62t70.5 -21q42 0 68 20.5t44 62.5h45z" />
    <glyph glyph-name="Iogonek" unicode="&#x12e;" horiz-adv-x="372" 
d="M214 0q-11 -11 -21.5 -24t-19 -26.5t-14 -26.5t-5.5 -23q0 -26 10.5 -39t26.5 -13q11 0 26 3.5t41 13.5l-6 -52q-17 -11 -37.5 -21t-48.5 -10q-50 0 -74 21.5t-24 58.5q0 16 7.5 33.5t20 35t28 35t32.5 34.5h-110v42h76v576h-76v42h280v-42h-75v-576h75v-42h-112z" />
    <glyph glyph-name="iogonek" unicode="&#x12f;" horiz-adv-x="282" 
d="M173 0q-11 -11 -21.5 -24t-19 -26.5t-14 -26.5t-5.5 -23q0 -26 10.5 -39t26.5 -13q11 0 26 3.5t41 13.5l-6 -52q-17 -11 -37.5 -21t-48.5 -10q-50 0 -74 21.5t-24 58.5q0 16 7.5 33.5t20 35t28 35t32.5 34.5h-86v42h59v350h-66v32l144 39h39v-421h59v-42h-91zM213 635
q0 -30 -21 -50.5t-50 -20.5t-50 20.5t-21 50.5q0 29 21 50t50 21t50 -21t21 -50z" />
    <glyph glyph-name="Idotaccent" unicode="&#x130;" horiz-adv-x="372" 
d="M46 0v42h76v576h-76v42h280v-42h-75v-576h75v-42h-280zM247 761q0 -24 -17 -41t-42 -17q-24 0 -41.5 17t-17.5 41q0 25 17.5 42t41.5 17q25 0 42 -17t17 -42z" />
    <glyph glyph-name="dotlessi" unicode="&#x131;" horiz-adv-x="282" 
d="M29 0v42h59v350h-66v32l144 39h39v-421h59v-42h-235z" />
    <glyph glyph-name="IJ" unicode="&#x132;" horiz-adv-x="736" 
d="M46 0v42h76v576h-76v42h280v-42h-75v-576h75v-42h-280zM614 618v-636q-18 -38 -33 -64.5t-33 -49t-42.5 -45.5t-61.5 -54l-42 44q45 43 64 89.5t19 114.5v601h-75v42h280v-42h-76z" />
    <glyph glyph-name="ij" unicode="&#x133;" horiz-adv-x="557" 
d="M29 0v42h59v350h-66v32l144 39h39v-421h59v-42h-235zM213 635q0 -30 -21 -50.5t-50 -20.5t-50 20.5t-21 50.5q0 29 21 50t50 21t50 -21t21 -50zM493 -54q-17 -32 -28.5 -53t-25.5 -41t-35 -44.5t-55 -63.5l-37 32q21 27 33.5 46.5t19.5 39.5t9 44.5t2 60.5v425h-66v32
l144 39h39v-517zM502 635q0 -30 -21 -50.5t-50 -20.5q-30 0 -50.5 20.5t-20.5 50.5q0 29 20.5 50t50.5 21q29 0 50 -21t21 -50z" />
    <glyph glyph-name="Jcircumflex" unicode="&#x134;" horiz-adv-x="364" 
d="M242 618v-636q-18 -38 -33 -64.5t-33 -49t-42.5 -45.5t-61.5 -54l-42 44q45 43 64 89.5t19 114.5v601h-75v42h280v-42h-76zM263 707l-82 59l-83 -59h-64l110 112h71l105 -112h-57z" />
    <glyph glyph-name="jcircumflex" unicode="&#x135;" horiz-adv-x="275" 
d="M211 -54q-17 -32 -28.5 -53t-25.5 -41t-35 -44.5t-55 -63.5l-37 32q21 27 33.5 46.5t19.5 39.5t9 44.5t2 60.5v425h-66v32l144 39h39v-517zM239 513l-85 88l-86 -88h-65l110 165h84l105 -165h-63z" />
    <glyph glyph-name="Kcommaaccent" unicode="&#x136;" horiz-adv-x="653" 
d="M50 0v42h76v575l-76 1v42h280v-42h-75v-576h75v-42h-280zM504 0l-240 326l217 292h-87v42h240v-42h-77l-179 -239l247 -337h48v-42h-169zM447 -130q0 -12 -4 -28t-10.5 -33t-16 -34.5t-20.5 -30.5h-64q8 18 16.5 42.5t12.5 42.5l-33 80q25 11 36.5 14.5t26.5 3.5
q29 0 42.5 -15t13.5 -42z" />
    <glyph glyph-name="kcommaaccent" unicode="&#x137;" horiz-adv-x="508" 
d="M20 0v42h59v629h-71v27l144 39h44v-695h59v-42h-235zM348 0l-150 228l156 183h-60v42h199v-42h-55l-126 -142l153 -227h42v-42h-159zM347 -130q0 -12 -4 -28t-10.5 -33t-16 -34.5t-20.5 -30.5h-64q8 18 16.5 42.5t12.5 42.5l-33 80q25 11 36.5 14.5t26.5 3.5
q29 0 42.5 -15t13.5 -42z" />
    <glyph glyph-name="kgreenlandic" unicode="&#x138;" horiz-adv-x="508" 
d="M20 0v42h59v355h-71v27l144 39h44v-421h59v-42h-235zM348 0l-150 228l156 183h-60v42h199v-42h-55l-126 -142l153 -227h42v-42h-159z" />
    <glyph glyph-name="Lacute" unicode="&#x139;" horiz-adv-x="531" 
d="M50 0v42h76v576h-76v42h280v-42h-75v-559h213v74h54v-133h-472zM204 707h-80l118 102h137z" />
    <glyph glyph-name="lacute" unicode="&#x13a;" horiz-adv-x="267" 
d="M16 0v42h59v624h-67v32l144 39h40v-695h59v-42h-235zM135 763h-80l118 102h137z" />
    <glyph glyph-name="Lcommaaccent" unicode="&#x13b;" horiz-adv-x="531" 
d="M50 0v42h76v576h-76v42h280v-42h-75v-559h213v74h54v-133h-472zM345 -130q0 -12 -4 -28t-10.5 -33t-16 -34.5t-20.5 -30.5h-64q8 18 16.5 42.5t12.5 42.5l-33 80q25 11 36.5 14.5t26.5 3.5q29 0 42.5 -15t13.5 -42z" />
    <glyph glyph-name="lcommaaccent" unicode="&#x13c;" horiz-adv-x="267" 
d="M16 0v42h59v624h-67v32l144 39h40v-695h59v-42h-235zM193 -130q0 -12 -4 -28t-10.5 -33t-16 -34.5t-20.5 -30.5h-64q8 18 16.5 42.5t12.5 42.5l-33 80q25 11 36.5 14.5t26.5 3.5q29 0 42.5 -15t13.5 -42z" />
    <glyph glyph-name="Lcaron" unicode="&#x13d;" horiz-adv-x="531" 
d="M50 0v42h76v576h-76v42h280v-42h-75v-559h213v74h54v-133h-472zM499 603q0 -12 -4 -28t-10.5 -33t-16 -34.5t-20.5 -30.5h-64q8 18 16.5 42.5t12.5 42.5l-33 80q25 11 36.5 14.5t26.5 3.5q29 0 42.5 -15t13.5 -42z" />
    <glyph glyph-name="lcaron" unicode="&#x13e;" horiz-adv-x="267" 
d="M16 0v42h59v624h-67v32l144 39h40v-695h59v-42h-235zM351 680q0 -12 -4 -28t-10.5 -33t-16 -34.5t-20.5 -30.5h-64q8 18 16.5 42.5t12.5 42.5l-33 80q25 11 36.5 14.5t26.5 3.5q29 0 42.5 -15t13.5 -42z" />
    <glyph glyph-name="Ldot" unicode="&#x13f;" horiz-adv-x="531" 
d="M50 0v42h76v576h-76v42h280v-42h-75v-559h213v74h54v-133h-472zM521 354q0 -30 -21 -50.5t-50 -20.5t-50 20.5t-21 50.5q0 29 21 50t50 21t50 -21t21 -50z" />
    <glyph glyph-name="ldot" unicode="&#x140;" horiz-adv-x="334" 
d="M16 0v42h59v624h-67v32l144 39h40v-695h59v-42h-235zM371 382q0 -30 -21 -50.5t-50 -20.5t-50 20.5t-21 50.5q0 29 21 50t50 21t50 -21t21 -50z" />
    <glyph glyph-name="Lslash" unicode="&#x141;" horiz-adv-x="531" 
d="M50 0v42h76v248l-61 -35l-25 44l86 50v269h-76v42h280v-42h-75v-194l62 36l26 -44l-88 -51v-306h213v74h54v-133h-472z" />
    <glyph glyph-name="lslash" unicode="&#x142;" horiz-adv-x="267" 
d="M192 405v-363h59v-42h-235v42h59v295l-75 -43l-26 44l101 58v270h-67v32l144 39h40v-273l60 35l26 -44z" />
    <glyph glyph-name="Nacute" unicode="&#x143;" horiz-adv-x="737" 
d="M619 618v-629h-70l-348 490v-437h79v-42h-226v42h83v525l-32 51h-72v42h199l324 -461v419h-79v42h226v-42h-84zM389 707h-80l118 102h137z" />
    <glyph glyph-name="nacute" unicode="&#x144;" horiz-adv-x="581" 
d="M326 0v42h59v279q0 45 -11.5 62t-42.5 17q-15 0 -26.5 -2.5t-24.5 -10t-29.5 -22t-40.5 -37.5v-286h58v-42h-235v42h59v350h-70v32l144 39h44v-82q24 25 43.5 41t38 25.5t37.5 13.5t43 4q64 0 97 -32t33 -93v-298h59v-42h-235zM310 513h-70l118 161h110z" />
    <glyph glyph-name="Ncommaaccent" unicode="&#x145;" horiz-adv-x="737" 
d="M619 618v-629h-70l-348 490v-437h79v-42h-226v42h83v525l-32 51h-72v42h199l324 -461v419h-79v42h226v-42h-84zM445 -130q0 -12 -4 -28t-10.5 -33t-16 -34.5t-20.5 -30.5h-64q8 18 16.5 42.5t12.5 42.5l-33 80q25 11 36.5 14.5t26.5 3.5q29 0 42.5 -15t13.5 -42z" />
    <glyph glyph-name="ncommaaccent" unicode="&#x146;" horiz-adv-x="581" 
d="M326 0v42h59v279q0 45 -11.5 62t-42.5 17q-15 0 -26.5 -2.5t-24.5 -10t-29.5 -22t-40.5 -37.5v-286h58v-42h-235v42h59v350h-70v32l144 39h44v-82q24 25 43.5 41t38 25.5t37.5 13.5t43 4q64 0 97 -32t33 -93v-298h59v-42h-235zM359 -130q0 -12 -4 -28t-10.5 -33
t-16 -34.5t-20.5 -30.5h-64q8 18 16.5 42.5t12.5 42.5l-33 80q25 11 36.5 14.5t26.5 3.5q29 0 42.5 -15t13.5 -42z" />
    <glyph glyph-name="Ncaron" unicode="&#x147;" horiz-adv-x="737" 
d="M619 618v-629h-70l-348 490v-437h79v-42h-226v42h83v525l-32 51h-72v42h199l324 -461v419h-79v42h226v-42h-84zM296 819l82 -59l83 59h64l-110 -112h-71l-105 112h57z" />
    <glyph glyph-name="ncaron" unicode="&#x148;" horiz-adv-x="581" 
d="M326 0v42h59v279q0 45 -11.5 62t-42.5 17q-15 0 -26.5 -2.5t-24.5 -10t-29.5 -22t-40.5 -37.5v-286h58v-42h-235v42h59v350h-70v32l144 39h44v-82q24 25 43.5 41t38 25.5t37.5 13.5t43 4q64 0 97 -32t33 -93v-298h59v-42h-235zM212 678l85 -88l86 88h65l-110 -165h-84
l-105 165h63z" />
    <glyph glyph-name="napostrophe" unicode="&#x149;" horiz-adv-x="642" 
d="M121 603q0 -12 -4 -28t-10.5 -33t-16 -34.5t-20.5 -30.5h-64q8 18 16.5 42.5t12.5 42.5l-33 80q25 11 36.5 14.5t26.5 3.5q29 0 42.5 -15t13.5 -42zM387 0v42h59v279q0 45 -11.5 62t-42.5 17q-15 0 -26.5 -2.5t-24.5 -10t-29.5 -22t-40.5 -37.5v-286h58v-42h-235v42h59
v350h-70v32l144 39h44v-82q24 25 43.5 41t38 25.5t37.5 13.5t43 4q64 0 97 -32t33 -93v-298h59v-42h-235z" />
    <glyph glyph-name="Eng" unicode="&#x14a;" horiz-adv-x="737" 
d="M619 618v-601q0 -45 -38 -103t-106 -132l-19 16q26 33 43.5 56.5t28 43.5t15.5 41t6 50l-348 490v-437h79v-42h-226v42h83v525l-32 51h-72v42h199l324 -461v419h-79v42h226v-42h-84z" />
    <glyph glyph-name="eng" unicode="&#x14b;" horiz-adv-x="581" 
d="M385 321q0 45 -11.5 62t-42.5 17q-15 0 -26.5 -2.5t-24.5 -10t-29.5 -22t-40.5 -37.5v-286h58v-42h-235v42h59v350h-70v32l144 39h44v-82q24 25 43.5 41t38 25.5t37.5 13.5t43 4q64 0 97 -32t33 -93v-321q0 -19 -5.5 -40t-21 -49t-43.5 -64t-74 -84l-37 32
q21 27 33.5 46.5t19.5 39.5t9 44.5t2 60.5v316z" />
    <glyph glyph-name="Omacron" unicode="&#x14c;" horiz-adv-x="743" 
d="M703 330q0 -72 -26 -134.5t-70.5 -109t-105 -73t-129.5 -26.5t-129 26.5t-105 73t-70.5 109t-25.5 134.5t25.5 134t70.5 108.5t105 73t129 26.5t129.5 -26.5t105 -73t70.5 -108.5t26 -134zM562 330q0 57 -15.5 108.5t-41.5 90.5t-60.5 62.5t-72.5 23.5t-72 -23.5
t-60 -62.5t-41.5 -90.5t-15.5 -108.5t15.5 -109t41.5 -91t60 -62.5t72 -23.5t72.5 23.5t60.5 62.5t41.5 91t15.5 109zM190 719v75h341v-75h-341z" />
    <glyph glyph-name="omacron" unicode="&#x14d;" horiz-adv-x="505" 
d="M484 226q0 -52 -17.5 -95.5t-48.5 -75.5t-73.5 -50t-92.5 -18t-92.5 18t-73.5 50t-48 75.5t-17 95.5t17 96t48 75.5t73.5 49.5t92.5 18t92.5 -18t73.5 -49.5t48.5 -75.5t17.5 -96zM356 226q0 42 -7.5 77t-21.5 60t-33 39t-42 14t-42 -14t-33 -39t-21.5 -60t-7.5 -77
t7.5 -76.5t21.5 -59.5t33 -39t42 -14t42 14t33 39t21.5 59.5t7.5 76.5zM78 525v75h341v-75h-341z" />
    <glyph glyph-name="Obreve" unicode="&#x14e;" horiz-adv-x="743" 
d="M703 330q0 -72 -26 -134.5t-70.5 -109t-105 -73t-129.5 -26.5t-129 26.5t-105 73t-70.5 109t-25.5 134.5t25.5 134t70.5 108.5t105 73t129 26.5t129.5 -26.5t105 -73t70.5 -108.5t26 -134zM562 330q0 57 -15.5 108.5t-41.5 90.5t-60.5 62.5t-72.5 23.5t-72 -23.5
t-60 -62.5t-41.5 -90.5t-15.5 -108.5t15.5 -109t41.5 -91t60 -62.5t72 -23.5t72.5 23.5t60.5 62.5t41.5 91t15.5 109zM526 836q-22 -65 -59 -99t-97 -34q-61 0 -100 34.5t-58 98.5h44q17 -35 44.5 -51t70.5 -16q80 0 112 67h43z" />
    <glyph glyph-name="obreve" unicode="&#x14f;" horiz-adv-x="505" 
d="M484 226q0 -52 -17.5 -95.5t-48.5 -75.5t-73.5 -50t-92.5 -18t-92.5 18t-73.5 50t-48 75.5t-17 95.5t17 96t48 75.5t73.5 49.5t92.5 18t92.5 -18t73.5 -49.5t48.5 -75.5t17.5 -96zM356 226q0 42 -7.5 77t-21.5 60t-33 39t-42 14t-42 -14t-33 -39t-21.5 -60t-7.5 -77
t7.5 -76.5t21.5 -59.5t33 -39t42 -14t42 14t33 39t21.5 59.5t7.5 76.5zM413 670q-5 -21 -9.5 -37t-10 -28t-12 -22t-15.5 -20q-22 -26 -51.5 -40t-59.5 -14q-61 0 -101 41.5t-59 119.5h46q17 -41 44.5 -62t70.5 -21q42 0 68 20.5t44 62.5h45z" />
    <glyph glyph-name="Ohungarumlaut" unicode="&#x150;" horiz-adv-x="743" 
d="M703 330q0 -72 -26 -134.5t-70.5 -109t-105 -73t-129.5 -26.5t-129 26.5t-105 73t-70.5 109t-25.5 134.5t25.5 134t70.5 108.5t105 73t129 26.5t129.5 -26.5t105 -73t70.5 -108.5t26 -134zM562 330q0 57 -15.5 108.5t-41.5 90.5t-60.5 62.5t-72.5 23.5t-72 -23.5
t-60 -62.5t-41.5 -90.5t-15.5 -108.5t15.5 -109t41.5 -91t60 -62.5t72 -23.5t72.5 23.5t60.5 62.5t41.5 91t15.5 109zM316 707h-73l118 102h130zM467 707h-73l118 102h130z" />
    <glyph glyph-name="ohungarumlaut" unicode="&#x151;" horiz-adv-x="505" 
d="M484 226q0 -52 -17.5 -95.5t-48.5 -75.5t-73.5 -50t-92.5 -18t-92.5 18t-73.5 50t-48 75.5t-17 95.5t17 96t48 75.5t73.5 49.5t92.5 18t92.5 -18t73.5 -49.5t48.5 -75.5t17.5 -96zM356 226q0 42 -7.5 77t-21.5 60t-33 39t-42 14t-42 -14t-33 -39t-21.5 -60t-7.5 -77
t7.5 -76.5t21.5 -59.5t33 -39t42 -14t42 14t33 39t21.5 59.5t7.5 76.5zM203 513h-73l118 161h108zM339 513h-73l120 161h108z" />
    <glyph glyph-name="OE" unicode="&#x152;" horiz-adv-x="951" 
d="M506 0q-10 0 -20.5 -1t-24 -2.5t-34.5 -4.5q-19 -2 -34 -3.5t-26 -1.5q-68 0 -127 27t-103.5 73.5t-70 109t-25.5 133.5q0 70 26 132t71 108.5t105 73.5t128 27q14 0 50 -3q38 -4 68.5 -6t42.5 -2h298v26h54v-160h-54v72h-209v-233h161v68h57v-198h-57v71h-161v-247h219
v76h56v-135h-390zM492 543q0 70 -100 70q-48 0 -81 -18t-64 -60q-32 -45 -48 -95.5t-16 -112.5q0 -59 15.5 -110.5t42 -89.5t62.5 -60.5t77 -22.5q63 0 87.5 18t24.5 65v416z" />
    <glyph glyph-name="oe" unicode="&#x153;" horiz-adv-x="779" 
d="M765 56q-37 -21 -63.5 -34.5t-48 -21t-41.5 -10.5t-44 -3q-52 0 -90.5 14t-70.5 43q-35 -29 -71.5 -43t-83.5 -14q-50 0 -92.5 17.5t-73.5 49t-48.5 74.5t-17.5 94q0 52 17.5 96t49 76.5t74.5 50.5t94 18q89 0 155 -58q39 31 73.5 44.5t81.5 13.5q44 0 80.5 -13t63 -36.5
t41 -56t14.5 -71.5v-42h-304q4 -99 42 -150t108 -51q14 0 26.5 2t27 8t33 16.5t44.5 27.5zM357 230q0 84 -28 134t-74 50q-23 0 -42.5 -14t-33.5 -39t-22 -60t-8 -76t8 -75t21.5 -59.5t32.5 -39.5t41 -14q24 0 43 14t33 39.5t21.5 61t7.5 78.5zM637 326q0 45 -19 69.5
t-53 24.5q-42 0 -69.5 -33.5t-33.5 -92.5h175v32z" />
    <glyph glyph-name="Racute" unicode="&#x154;" horiz-adv-x="654" 
d="M535 0q-22 0 -36 2t-24.5 8t-20 17.5t-22.5 31.5l-150 235h-27v-252h75v-42h-280v42h76v576h-76v42h295q65 0 104 -11t66 -38q49 -49 49 -129q0 -134 -140 -177l142 -218q17 -26 28.5 -35t26.5 -9h41v-43h-127zM430 478q0 60 -29 93t-83 33h-63v-260h59q52 0 84 37t32 97
zM307 707h-80l118 102h137z" />
    <glyph glyph-name="racute" unicode="&#x155;" horiz-adv-x="377" 
d="M322 341q-20 14 -30.5 20t-19.5 6q-14 0 -28 -11t-34 -37v-277h70v-42h-247v42h59v350h-70v32l144 39h44v-77l23 25q27 30 46.5 42t40.5 12q16 0 23.5 -3.5t10.5 -6.5l31 -27zM204 513h-70l118 161h110z" />
    <glyph glyph-name="Rcommaaccent" unicode="&#x156;" horiz-adv-x="654" 
d="M535 0q-22 0 -36 2t-24.5 8t-20 17.5t-22.5 31.5l-150 235h-27v-252h75v-42h-280v42h76v576h-76v42h295q65 0 104 -11t66 -38q49 -49 49 -129q0 -134 -140 -177l142 -218q17 -26 28.5 -35t26.5 -9h41v-43h-127zM430 478q0 60 -29 93t-83 33h-63v-260h59q52 0 84 37t32 97
zM431 -130q0 -12 -4 -28t-10.5 -33t-16 -34.5t-20.5 -30.5h-64q8 18 16.5 42.5t12.5 42.5l-33 80q25 11 36.5 14.5t26.5 3.5q29 0 42.5 -15t13.5 -42z" />
    <glyph glyph-name="rcommaaccent" unicode="&#x157;" horiz-adv-x="377" 
d="M322 341q-20 14 -30.5 20t-19.5 6q-14 0 -28 -11t-34 -37v-277h70v-42h-247v42h59v350h-70v32l144 39h44v-77l23 25q27 30 46.5 42t40.5 12q16 0 23.5 -3.5t10.5 -6.5l31 -27zM212 -130q0 -12 -4 -28t-10.5 -33t-16 -34.5t-20.5 -30.5h-64q8 18 16.5 42.5t12.5 42.5
l-33 80q25 11 36.5 14.5t26.5 3.5q29 0 42.5 -15t13.5 -42z" />
    <glyph glyph-name="Rcaron" unicode="&#x158;" horiz-adv-x="654" 
d="M535 0q-22 0 -36 2t-24.5 8t-20 17.5t-22.5 31.5l-150 235h-27v-252h75v-42h-280v42h76v576h-76v42h295q65 0 104 -11t66 -38q49 -49 49 -129q0 -134 -140 -177l142 -218q17 -26 28.5 -35t26.5 -9h41v-43h-127zM430 478q0 60 -29 93t-83 33h-63v-260h59q52 0 84 37t32 97
zM221 819l82 -59l83 59h64l-110 -112h-71l-105 112h57z" />
    <glyph glyph-name="rcaron" unicode="&#x159;" horiz-adv-x="377" 
d="M322 341q-20 14 -30.5 20t-19.5 6q-14 0 -28 -11t-34 -37v-277h70v-42h-247v42h59v350h-70v32l144 39h44v-77l23 25q27 30 46.5 42t40.5 12q16 0 23.5 -3.5t10.5 -6.5l31 -27zM127 678l85 -88l86 88h65l-110 -165h-84l-105 165h63z" />
    <glyph glyph-name="Sacute" unicode="&#x15a;" horiz-adv-x="562" 
d="M488 181q0 -43 -15 -78.5t-41.5 -61t-63 -40t-80.5 -14.5t-77.5 9.5t-68.5 29.5v-35h-55v180h55v-74q34 -27 62.5 -38t65.5 -11q47 0 77 25t30 64q0 17 -6 32t-20 31t-37.5 33.5t-58.5 40.5q-37 23 -59 37.5t-36 25t-22.5 19.5t-18.5 20q-19 22 -28.5 51t-9.5 62
q0 41 14.5 75t41 58t64 37t83.5 13q29 0 54 -5t54 -17v30h54v-171h-54v69q-32 20 -55 28.5t-51 8.5q-39 0 -65.5 -24.5t-26.5 -59.5q0 -15 5 -28t18.5 -27t36.5 -31t59 -40q35 -23 56.5 -36.5t29.5 -19.5q36 -25 61 -65q28 -46 28 -103zM295 707h-80l118 102h137z" />
    <glyph glyph-name="sacute" unicode="&#x15b;" horiz-adv-x="421" 
d="M381 126q0 -66 -41.5 -102.5t-117.5 -36.5q-85 0 -129 40v-36h-49v142h55v-27q0 -15 9.5 -29t26 -24.5t38 -16.5t44.5 -6q36 0 57 14.5t21 38.5q0 15 -5.5 27t-19.5 23t-37.5 22t-60.5 25q-73 28 -103 61t-30 86q0 31 11.5 56.5t32.5 43.5t50.5 28t65.5 10q37 0 63.5 -8
t48.5 -26l6 36h52l-25 -144h-51q3 8 4.5 17t1.5 16q0 13 -8.5 25t-22.5 21t-31.5 14.5t-36.5 5.5q-32 0 -52 -15t-20 -41q0 -14 4 -24t17 -19.5t37 -20.5t64 -27q37 -15 62 -30t40.5 -32.5t22 -38.5t6.5 -48zM221 513h-70l118 161h110z" />
    <glyph glyph-name="Scircumflex" unicode="&#x15c;" horiz-adv-x="562" 
d="M488 181q0 -43 -15 -78.5t-41.5 -61t-63 -40t-80.5 -14.5t-77.5 9.5t-68.5 29.5v-35h-55v180h55v-74q34 -27 62.5 -38t65.5 -11q47 0 77 25t30 64q0 17 -6 32t-20 31t-37.5 33.5t-58.5 40.5q-37 23 -59 37.5t-36 25t-22.5 19.5t-18.5 20q-19 22 -28.5 51t-9.5 62
q0 41 14.5 75t41 58t64 37t83.5 13q29 0 54 -5t54 -17v30h54v-171h-54v69q-32 20 -55 28.5t-51 8.5q-39 0 -65.5 -24.5t-26.5 -59.5q0 -15 5 -28t18.5 -27t36.5 -31t59 -40q35 -23 56.5 -36.5t29.5 -19.5q36 -25 61 -65q28 -46 28 -103zM366 707l-82 59l-83 -59h-64l110 112
h71l105 -112h-57z" />
    <glyph glyph-name="scircumflex" unicode="&#x15d;" horiz-adv-x="421" 
d="M381 126q0 -66 -41.5 -102.5t-117.5 -36.5q-85 0 -129 40v-36h-49v142h55v-27q0 -15 9.5 -29t26 -24.5t38 -16.5t44.5 -6q36 0 57 14.5t21 38.5q0 15 -5.5 27t-19.5 23t-37.5 22t-60.5 25q-73 28 -103 61t-30 86q0 31 11.5 56.5t32.5 43.5t50.5 28t65.5 10q37 0 63.5 -8
t48.5 -26l6 36h52l-25 -144h-51q3 8 4.5 17t1.5 16q0 13 -8.5 25t-22.5 21t-31.5 14.5t-36.5 5.5q-32 0 -52 -15t-20 -41q0 -14 4 -24t17 -19.5t37 -20.5t64 -27q37 -15 62 -30t40.5 -32.5t22 -38.5t6.5 -48zM287 513l-85 88l-86 -88h-65l110 165h84l105 -165h-63z" />
    <glyph glyph-name="Scedilla" unicode="&#x15e;" horiz-adv-x="562" 
d="M488 181q0 -39 -12.5 -72t-34.5 -58t-53.5 -41t-68.5 -21l-44 -52q35 -1 58.5 -21t23.5 -50q0 -45 -35.5 -72.5t-92.5 -27.5q-11 0 -19 0.5t-16.5 2t-19 4t-25.5 6.5l29 55q11 -11 21 -20.5t32 -9.5q19 0 33 16t14 38t-22.5 37.5t-52.5 15.5h-9l71 77q-35 2 -64.5 11
t-58.5 27v-35h-55v180h55v-74q34 -27 62.5 -38t65.5 -11q47 0 77 25t30 64q0 17 -6 32t-20 31t-37.5 33.5t-58.5 40.5q-37 23 -59 37.5t-36 25t-22.5 19.5t-18.5 20q-19 22 -28.5 51t-9.5 62q0 41 14.5 75t41 58t64 37t83.5 13q29 0 54 -5t54 -17v30h54v-171h-54v69
q-32 20 -55 28.5t-51 8.5q-39 0 -65.5 -24.5t-26.5 -59.5q0 -15 5 -28t18.5 -27t36.5 -31t59 -40q35 -23 56.5 -36.5t29.5 -19.5q36 -25 61 -65q28 -46 28 -103z" />
    <glyph glyph-name="scedilla" unicode="&#x15f;" horiz-adv-x="421" 
d="M381 126q0 -63 -37 -98.5t-105 -39.5l-43 -51q35 -1 58.5 -21t23.5 -50q0 -45 -35.5 -72.5t-92.5 -27.5q-11 0 -19 0.5t-16.5 2t-19 4t-25.5 6.5l29 55q11 -11 21 -20.5t32 -9.5q19 0 33 16t14 38t-22.5 37.5t-52.5 15.5h-9l72 78q-61 8 -94 38v-36h-49v142h55v-27
q0 -15 9.5 -29t26 -24.5t38 -16.5t44.5 -6q36 0 57 14.5t21 38.5q0 15 -5.5 27t-19.5 23t-37.5 22t-60.5 25q-73 28 -103 61t-30 86q0 31 11.5 56.5t32.5 43.5t50.5 28t65.5 10q37 0 63.5 -8t48.5 -26l6 36h52l-25 -144h-51q3 8 4.5 17t1.5 16q0 13 -8.5 25t-22.5 21
t-31.5 14.5t-36.5 5.5q-32 0 -52 -15t-20 -41q0 -14 4 -24t17 -19.5t37 -20.5t64 -27q37 -15 62 -30t40.5 -32.5t22 -38.5t6.5 -48z" />
    <glyph glyph-name="Scaron" unicode="&#x160;" horiz-adv-x="562" 
d="M488 181q0 -43 -15 -78.5t-41.5 -61t-63 -40t-80.5 -14.5t-77.5 9.5t-68.5 29.5v-35h-55v180h55v-74q34 -27 62.5 -38t65.5 -11q47 0 77 25t30 64q0 17 -6 32t-20 31t-37.5 33.5t-58.5 40.5q-37 23 -59 37.5t-36 25t-22.5 19.5t-18.5 20q-19 22 -28.5 51t-9.5 62
q0 41 14.5 75t41 58t64 37t83.5 13q29 0 54 -5t54 -17v30h54v-171h-54v69q-32 20 -55 28.5t-51 8.5q-39 0 -65.5 -24.5t-26.5 -59.5q0 -15 5 -28t18.5 -27t36.5 -31t59 -40q35 -23 56.5 -36.5t29.5 -19.5q36 -25 61 -65q28 -46 28 -103zM196 819l82 -59l83 59h64l-110 -112
h-71l-105 112h57z" />
    <glyph glyph-name="scaron" unicode="&#x161;" horiz-adv-x="421" 
d="M381 126q0 -66 -41.5 -102.5t-117.5 -36.5q-85 0 -129 40v-36h-49v142h55v-27q0 -15 9.5 -29t26 -24.5t38 -16.5t44.5 -6q36 0 57 14.5t21 38.5q0 15 -5.5 27t-19.5 23t-37.5 22t-60.5 25q-73 28 -103 61t-30 86q0 31 11.5 56.5t32.5 43.5t50.5 28t65.5 10q37 0 63.5 -8
t48.5 -26l6 36h52l-25 -144h-51q3 8 4.5 17t1.5 16q0 13 -8.5 25t-22.5 21t-31.5 14.5t-36.5 5.5q-32 0 -52 -15t-20 -41q0 -14 4 -24t17 -19.5t37 -20.5t64 -27q37 -15 62 -30t40.5 -32.5t22 -38.5t6.5 -48zM117 678l85 -88l86 88h65l-110 -165h-84l-105 165h63z" />
    <glyph glyph-name="Tcommaaccent" unicode="&#x162;" horiz-adv-x="600" 
d="M537 518v83h-172v-559h96v-42h-144l-54 -63q35 -1 58.5 -21t23.5 -50q0 -45 -35.5 -72.5t-92.5 -27.5q-11 0 -19 0.5t-16.5 2t-19 4t-25.5 6.5l29 55q11 -11 21 -20.5t32 -9.5q19 0 33 16t14 38t-22.5 37.5t-52.5 15.5h-9l82 89h-125v42h97v559h-173v-83h-55v170h55v-28
h474v28h55v-170h-55z" />
    <glyph glyph-name="tcommaaccent" unicode="&#x163;" horiz-adv-x="299" 
d="M299 42q-30 -24 -51.5 -36t-42.5 -16l-45 -53q35 -1 58.5 -21t23.5 -50q0 -45 -35.5 -72.5t-92.5 -27.5q-11 0 -19 0.5t-16.5 2t-19 4t-25.5 6.5l29 55q11 -11 21 -20.5t32 -9.5q19 0 33 16t14 38t-22.5 37.5t-52.5 15.5h-9l73 79q-35 8 -56 34t-21 64v304h-66v32l66 17
v143h114v-141h103v-51h-103v-312q0 -10 8.5 -17.5t19.5 -7.5q14 0 26 4.5t35 18.5z" />
    <glyph glyph-name="Tcaron" unicode="&#x164;" horiz-adv-x="600" 
d="M537 518v83h-172v-559h96v-42h-322v42h97v559h-173v-83h-55v170h55v-28h474v28h55v-170h-55zM212 819l82 -59l83 59h64l-110 -112h-71l-105 112h57z" />
    <glyph glyph-name="tcaron" unicode="&#x165;" horiz-adv-x="299" 
d="M299 42q-38 -31 -64.5 -43t-55.5 -12q-47 0 -75.5 28t-28.5 73v304h-66v32l66 17v143h114v-141h103v-51h-103v-312q0 -10 8.5 -17.5t19.5 -7.5q14 0 26 4.5t35 18.5zM345 616q0 -12 -4 -28t-10.5 -33t-16 -34.5t-20.5 -30.5h-64q8 18 16.5 42.5t12.5 42.5l-33 80
q25 11 36.5 14.5t26.5 3.5q29 0 42.5 -15t13.5 -42z" />
    <glyph glyph-name="Tbar" unicode="&#x166;" horiz-adv-x="600" 
d="M537 518v83h-172v-208h138v-60h-138v-291h96v-42h-322v42h97v291h-141v60h141v208h-173v-83h-55v170h55v-28h474v28h55v-170h-55z" />
    <glyph glyph-name="tbar" unicode="&#x167;" horiz-adv-x="299" 
d="M75 392h-66v32l66 17v143h114v-141h103v-51h-103v-137h103v-51h-103v-124q0 -10 8.5 -17.5t19.5 -7.5q14 0 26 4.5t35 18.5l21 -36q-38 -31 -64.5 -43t-55.5 -12q-47 0 -75.5 28t-28.5 73v116h-66v32l66 17v139z" />
    <glyph glyph-name="Utilde" unicode="&#x168;" horiz-adv-x="780" 
d="M662 618v-376q0 -85 -30 -139.5t-94 -84.5q-68 -31 -145 -31q-61 0 -110 16t-84 45.5t-54 71.5t-19 94v404h-76v42h280v-42h-75v-373q0 -38 3.5 -66t12 -48.5t21.5 -35t32 -24.5q38 -19 83 -19q91 0 140.5 50.5t49.5 142.5v372h-83v43h232v-42h-84zM604 780
q-35 -43 -64 -60t-68 -17q-23 0 -40 5t-37 18q-13 9 -20.5 14t-13.5 7.5t-11.5 3t-12.5 0.5q-19 0 -35.5 -7.5t-37.5 -28.5l-30 27q34 43 63.5 62t61.5 19q13 0 26.5 -3t22.5 -8l35 -22q25 -17 60 -17q12 0 20.5 1t16 5t15 10.5t18.5 17.5z" />
    <glyph glyph-name="utilde" unicode="&#x169;" horiz-adv-x="570" 
d="M416 -8h-43v84q-25 -26 -45 -43.5t-38.5 -27.5t-37 -14t-41.5 -4q-131 0 -131 129v276h-71v32l144 39h44v-327q0 -43 14 -62.5t45 -19.5q15 0 27.5 3.5t26 11.5t28.5 22.5t35 35.5v265h-51v36l132 35h36v-402h70v-33zM464 587q-35 -43 -64 -60t-68 -17q-23 0 -40 5
t-37 18q-13 9 -20.5 14t-13.5 7.5t-11.5 3t-12.5 0.5q-19 0 -35.5 -7.5t-37.5 -28.5l-30 27q34 43 63.5 62t61.5 19q13 0 26.5 -3t22.5 -8l35 -22q25 -17 60 -17q12 0 20.5 1t16 5t15 10.5t18.5 17.5z" />
    <glyph glyph-name="Umacron" unicode="&#x16a;" horiz-adv-x="780" 
d="M662 618v-376q0 -85 -30 -139.5t-94 -84.5q-68 -31 -145 -31q-61 0 -110 16t-84 45.5t-54 71.5t-19 94v404h-76v42h280v-42h-75v-373q0 -38 3.5 -66t12 -48.5t21.5 -35t32 -24.5q38 -19 83 -19q91 0 140.5 50.5t49.5 142.5v372h-83v43h232v-42h-84zM242 719v75h341v-75
h-341z" />
    <glyph glyph-name="umacron" unicode="&#x16b;" horiz-adv-x="570" 
d="M416 -8h-43v84q-25 -26 -45 -43.5t-38.5 -27.5t-37 -14t-41.5 -4q-131 0 -131 129v276h-71v32l144 39h44v-327q0 -43 14 -62.5t45 -19.5q15 0 27.5 3.5t26 11.5t28.5 22.5t35 35.5v265h-51v36l132 35h36v-402h70v-33zM106 525v75h341v-75h-341z" />
    <glyph glyph-name="Ubreve" unicode="&#x16c;" horiz-adv-x="780" 
d="M662 618v-376q0 -85 -30 -139.5t-94 -84.5q-68 -31 -145 -31q-61 0 -110 16t-84 45.5t-54 71.5t-19 94v404h-76v42h280v-42h-75v-373q0 -38 3.5 -66t12 -48.5t21.5 -35t32 -24.5q38 -19 83 -19q91 0 140.5 50.5t49.5 142.5v372h-83v43h232v-42h-84zM554 836
q-22 -65 -59 -99t-97 -34q-61 0 -100 34.5t-58 98.5h44q17 -35 44.5 -51t70.5 -16q80 0 112 67h43z" />
    <glyph glyph-name="ubreve" unicode="&#x16d;" horiz-adv-x="570" 
d="M416 -8h-43v84q-25 -26 -45 -43.5t-38.5 -27.5t-37 -14t-41.5 -4q-131 0 -131 129v276h-71v32l144 39h44v-327q0 -43 14 -62.5t45 -19.5q15 0 27.5 3.5t26 11.5t28.5 22.5t35 35.5v265h-51v36l132 35h36v-402h70v-33zM437 670q-5 -21 -9.5 -37t-10 -28t-12 -22t-15.5 -20
q-22 -26 -51.5 -40t-59.5 -14q-61 0 -101 41.5t-59 119.5h46q17 -41 44.5 -62t70.5 -21q42 0 68 20.5t44 62.5h45z" />
    <glyph glyph-name="Uring" unicode="&#x16e;" horiz-adv-x="780" 
d="M662 618v-376q0 -85 -30 -139.5t-94 -84.5q-68 -31 -145 -31q-61 0 -110 16t-84 45.5t-54 71.5t-19 94v404h-76v42h280v-42h-75v-373q0 -38 3.5 -66t12 -48.5t21.5 -35t32 -24.5q38 -19 83 -19q91 0 140.5 50.5t49.5 142.5v372h-83v43h232v-42h-84zM509 791
q0 -36 -25.5 -62t-62.5 -26q-18 0 -34 7t-28 19t-19 28t-7 34q0 37 26 62.5t62 25.5q37 0 62.5 -25.5t25.5 -62.5zM467 791q0 20 -13 33.5t-33 13.5q-19 0 -32.5 -13.5t-13.5 -33.5q0 -19 13.5 -32.5t32.5 -13.5q20 0 33 13.5t13 32.5z" />
    <glyph glyph-name="uring" unicode="&#x16f;" horiz-adv-x="570" 
d="M416 -8h-43v84q-25 -26 -45 -43.5t-38.5 -27.5t-37 -14t-41.5 -4q-131 0 -131 129v276h-71v32l144 39h44v-327q0 -43 14 -62.5t45 -19.5q15 0 27.5 3.5t26 11.5t28.5 22.5t35 35.5v265h-51v36l132 35h36v-402h70v-33zM367 597q0 -36 -25.5 -62t-62.5 -26q-18 0 -34 7
t-28 19t-19 28t-7 34q0 37 26 62.5t62 25.5q37 0 62.5 -25.5t25.5 -62.5zM325 597q0 20 -13 33.5t-33 13.5q-19 0 -32.5 -13.5t-13.5 -33.5q0 -19 13.5 -32.5t32.5 -13.5q20 0 33 13.5t13 32.5z" />
    <glyph glyph-name="Uhungarumlaut" unicode="&#x170;" horiz-adv-x="780" 
d="M662 618v-376q0 -85 -30 -139.5t-94 -84.5q-68 -31 -145 -31q-61 0 -110 16t-84 45.5t-54 71.5t-19 94v404h-76v42h280v-42h-75v-373q0 -38 3.5 -66t12 -48.5t21.5 -35t32 -24.5q38 -19 83 -19q91 0 140.5 50.5t49.5 142.5v372h-83v43h232v-42h-84zM354 707h-73l118 102
h130zM505 707h-73l118 102h130z" />
    <glyph glyph-name="uhungarumlaut" unicode="&#x171;" horiz-adv-x="570" 
d="M416 -8h-43v84q-25 -26 -45 -43.5t-38.5 -27.5t-37 -14t-41.5 -4q-131 0 -131 129v276h-71v32l144 39h44v-327q0 -43 14 -62.5t45 -19.5q15 0 27.5 3.5t26 11.5t28.5 22.5t35 35.5v265h-51v36l132 35h36v-402h70v-33zM214 513h-73l118 161h108zM350 513h-73l120 161h108z
" />
    <glyph glyph-name="Uogonek" unicode="&#x172;" horiz-adv-x="780" 
d="M662 618v-376q0 -85 -30 -139.5t-94 -84.5q-40 -19 -83 -26q-20 -22 -36.5 -47.5t-16.5 -44.5q0 -26 10.5 -39t26.5 -13q11 0 26 3.5t41 13.5l-6 -52q-17 -11 -37.5 -21t-48.5 -10q-50 0 -74 21.5t-24 58.5q0 30 23 62t52 63q-60 0 -109 16.5t-83.5 46t-53.5 71t-19 93.5
v404h-76v42h280v-42h-75v-373q0 -38 3.5 -66t12 -48.5t21.5 -35t32 -24.5q38 -19 83 -19q91 0 140.5 50.5t49.5 142.5v372h-83v43h232v-42h-84z" />
    <glyph glyph-name="uogonek" unicode="&#x173;" horiz-adv-x="570" 
d="M456 2q-16 -4 -30.5 -17t-25 -28.5t-17 -31t-6.5 -25.5q0 -26 10.5 -39t26.5 -13q11 0 26 3.5t41 13.5l-6 -52q-17 -11 -37.5 -21t-48.5 -10q-50 0 -74 21.5t-24 58.5q0 32 25 66t57 66v82q-25 -26 -45 -43.5t-38.5 -27.5t-37 -14t-41.5 -4q-131 0 -131 129v276h-71v32
l144 39h44v-327q0 -43 14 -62.5t45 -19.5q15 0 27.5 3.5t26 11.5t28.5 22.5t35 35.5v265h-51v36l132 35h36v-402h70v-33z" />
    <glyph glyph-name="Wcircumflex" unicode="&#x174;" horiz-adv-x="942" 
d="M900 618l-248 -635h-64l-113 287l-112 -287h-64l-248 635h-59v42h243v-42h-56l179 -459l81 204l-100 255h-56v42h386v-42h-71l-69 -178l115 -288l182 466h-72v42h196v-42h-50zM459 618l39 -100l40 100h-79zM565 707l-82 59l-83 -59h-64l110 112h71l105 -112h-57z" />
    <glyph glyph-name="wcircumflex" unicode="&#x175;" horiz-adv-x="706" 
d="M662 411l-160 -424h-31l-121 300l-115 -300h-37l-171 424h-27v42h193v-42h-42l101 -247l73 187l-25 60h-51v42h209v-42h-43l103 -253l95 253h-60v42h153v-42h-44zM438 513l-85 88l-86 -88h-65l110 165h84l105 -165h-63z" />
    <glyph glyph-name="Ycircumflex" unicode="&#x176;" horiz-adv-x="612" 
d="M549 618l-167 -274v-302h76v-42h-280v42h75v276l-198 300h-63v42h280v-42h-74l142 -219l133 219h-85v42h233v-42h-72zM415 707l-82 59l-83 -59h-64l110 112h71l105 -112h-57z" />
    <glyph glyph-name="ycircumflex" unicode="&#x177;" horiz-adv-x="443" 
d="M402 411l-167 -434q-19 -50 -44 -98t-49 -81q-7 -10 -17.5 -23t-25.5 -31l-66 69q21 13 35.5 23t26.5 19.5t22 20.5t21 25q10 13 17.5 24t14 24t13.5 28.5t15 36.5l-162 397h-36v42h211v-42h-52l99 -242l94 242h-63v42h154v-42h-41zM314 513l-85 88l-86 -88h-65l110 165
h84l105 -165h-63z" />
    <glyph glyph-name="Ydieresis" unicode="&#x178;" horiz-adv-x="612" 
d="M549 618l-167 -274v-302h76v-42h-280v42h75v276l-198 300h-63v42h280v-42h-74l142 -219l133 219h-85v42h233v-42h-72zM269 761q0 -24 -17 -41t-42 -17q-24 0 -41.5 17t-17.5 41q0 25 17.5 42t41.5 17q25 0 42 -17t17 -42zM497 761q0 -24 -17 -41t-42 -17q-24 0 -41.5 17
t-17.5 41q0 25 17.5 42t41.5 17q25 0 42 -17t17 -42z" />
    <glyph glyph-name="Zacute" unicode="&#x179;" horiz-adv-x="668" 
d="M59 0v30l372 571h-318v-80h-54v167h54v-28h476v-31l-369 -570h335v103h54v-162h-550zM337 707h-80l118 102h137z" />
    <glyph glyph-name="zacute" unicode="&#x17a;" horiz-adv-x="469" 
d="M184 51h203v72l43 -1v-122h-392v37l246 364h-189l-12 -78h-43l21 150h43l-3 -20h331v-30zM251 513h-70l118 161h110z" />
    <glyph glyph-name="Zdotaccent" unicode="&#x17b;" horiz-adv-x="668" 
d="M59 0v30l372 571h-318v-80h-54v167h54v-28h476v-31l-369 -570h335v103h54v-162h-550zM403 761q0 -24 -17 -41t-42 -17q-24 0 -41.5 17t-17.5 41q0 25 17.5 42t41.5 17q25 0 42 -17t17 -42z" />
    <glyph glyph-name="zdotaccent" unicode="&#x17c;" horiz-adv-x="469" 
d="M184 51h203v72l43 -1v-122h-392v37l246 364h-189l-12 -78h-43l21 150h43l-3 -20h331v-30zM310 568q0 -24 -17.5 -41t-41.5 -17t-41.5 17t-17.5 41q0 25 17.5 42t41.5 17t41.5 -17t17.5 -42z" />
    <glyph glyph-name="Zcaron" unicode="&#x17d;" horiz-adv-x="668" 
d="M59 0v30l372 571h-318v-80h-54v167h54v-28h476v-31l-369 -570h335v103h54v-162h-550zM255 819l82 -59l83 59h64l-110 -112h-71l-105 112h57z" />
    <glyph glyph-name="zcaron" unicode="&#x17e;" horiz-adv-x="469" 
d="M184 51h203v72l43 -1v-122h-392v37l246 364h-189l-12 -78h-43l21 150h43l-3 -20h331v-30zM167 678l85 -88l86 88h65l-110 -165h-84l-105 165h63z" />
    <glyph glyph-name="longs" unicode="&#x17f;" horiz-adv-x="316" 
d="M392 617q-16 15 -27.5 24.5t-22.5 17.5t-24 16t-32 19q-27 -8 -43.5 -17t-24.5 -28t-10.5 -52t-2.5 -88v-467h83v-42h-259v42h59v350h-70v32l70 22v82q0 60 19 98.5t66 71.5q30 21 63 31t75 10q45 0 78.5 -8.5t70.5 -29.5z" />
    <glyph glyph-name="uni018F" unicode="&#x18f;" horiz-adv-x="671" 
d="M70 596q63 37 119.5 56.5t124.5 19.5q71 0 129.5 -24.5t100 -69.5t64.5 -107.5t23 -138.5q0 -78 -21.5 -141.5t-62 -109t-99.5 -70t-133 -24.5q-125 0 -194 69.5t-69 190.5v43h437q0 155 -52 235.5t-155 80.5q-25 0 -46 -4t-42 -11.5t-44 -20t-51 -28.5zM194 194
q0 -36 10 -64t26.5 -47t38.5 -29t47 -10q28 0 56.5 13.5t52.5 38t40.5 59t21.5 76.5h-293v-37z" />
    <glyph glyph-name="florin" unicode="&#x192;" horiz-adv-x="578" 
d="M673 662q0 -26 -19.5 -45.5t-45.5 -19.5q-20 0 -33 11t-16 30l-4 23q-4 25 -28 25q-67 0 -104 -133l-30 -110h140l-18 -60h-141l-113 -437q-52 -202 -206 -202q-54 0 -85.5 23t-31.5 62q0 27 16 44.5t40 17.5q39 0 53 -53q6 -21 13 -29.5t21 -8.5q11 0 21.5 9.5t21 30.5
t21.5 56t24 86l104 401h-114l19 60h113l36 132q21 78 81 126q27 21 54.5 29t68.5 8q64 0 103 -20.5t39 -55.5z" />
    <glyph glyph-name="uni01B5" unicode="&#x1b5;" horiz-adv-x="668" 
d="M59 0v30l178 274h-97v62h138l153 235h-318v-80h-54v167h54v-28h476v-31l-171 -263h94v-62h-134l-158 -245h335v103h54v-162h-550z" />
    <glyph glyph-name="uni01B6" unicode="&#x1b6;" horiz-adv-x="469" 
d="M324 262h49v-57h-87l-102 -154h203v72l43 -1v-122h-392v37l113 168h-50v57h89l94 139h-189l-12 -78h-43l21 150h43l-3 -20h331v-30z" />
    <glyph glyph-name="uni01C4" unicode="&#x1c4;" horiz-adv-x="1408" 
d="M698 331q0 -69 -27 -131.5t-78 -112.5q-48 -45 -103 -66t-129 -21h-311v42h76v576h-76v42h312q71 0 132.5 -25.5t106.5 -69.5t71 -104.5t26 -129.5zM557 331q0 55 -17.5 104.5t-47 87t-69 59.5t-83.5 22h-85v-549h81q47 0 87.5 21t70 58t46.5 87.5t17 109.5zM799 0v30
l372 571h-318v-80h-54v167h54v-28h476v-31l-369 -570h335v103h54v-162h-550zM994 819l82 -59l83 59h64l-110 -112h-71l-105 112h57z" />
    <glyph glyph-name="uni01C5" unicode="&#x1c5;" horiz-adv-x="1209" 
d="M924 51h203v72l43 -1v-122h-392v37l246 364h-189l-12 -78h-43l21 150h43l-3 -20h331v-30zM698 331q0 -69 -27 -131.5t-78 -112.5q-48 -45 -103 -66t-129 -21h-311v42h76v576h-76v42h312q71 0 132.5 -25.5t106.5 -69.5t71 -104.5t26 -129.5zM557 331q0 55 -17.5 104.5
t-47 87t-69 59.5t-83.5 22h-85v-549h81q47 0 87.5 21t70 58t46.5 87.5t17 109.5zM906 678l85 -88l86 88h65l-110 -165h-84l-105 165h63z" />
    <glyph glyph-name="uni01C6" unicode="&#x1c6;" horiz-adv-x="1001" 
d="M379 -10h-44v58q-18 -18 -32 -30t-28 -18.5t-29 -9.5t-34 -3q-42 0 -77 17t-60.5 48t-39.5 72.5t-14 91.5q0 53 18.5 98.5t50.5 79t76.5 52.5t95.5 19q21 0 35 -2.5t38 -10.5v214h-70v32l144 39h44v-676h70v-33zM335 343q0 40 -13 58t-41 18t-52.5 -14.5t-42.5 -40
t-28 -60t-10 -74.5q0 -36 8 -67.5t22.5 -55.5t33.5 -37.5t41 -13.5q38 0 82 44v243zM717 51h203v72l43 -1v-122h-392v37l246 364h-189l-12 -78h-43l21 150h43l-3 -20h331v-30zM699 678l85 -88l86 88h65l-110 -165h-84l-105 165h63z" />
    <glyph glyph-name="uni01C7" unicode="&#x1c7;" horiz-adv-x="895" 
d="M50 0v42h76v576h-76v42h280v-42h-75v-559h213v74h54v-133h-472zM773 618v-636q-18 -38 -33 -64.5t-33 -49t-42.5 -45.5t-61.5 -54l-42 44q45 43 64 89.5t19 114.5v601h-75v42h280v-42h-76z" />
    <glyph glyph-name="uni01C8" unicode="&#x1c8;" horiz-adv-x="806" 
d="M50 0v42h76v576h-76v42h280v-42h-75v-559h213v74h54v-133h-472zM742 -54q-17 -32 -28.5 -53t-25.5 -41t-35 -44.5t-55 -63.5l-37 32q21 27 33.5 46.5t19.5 39.5t9 44.5t2 60.5v425h-66v32l144 39h39v-517zM751 635q0 -30 -21 -50.5t-50 -20.5q-30 0 -50.5 20.5
t-20.5 50.5q0 29 20.5 50t50.5 21q29 0 50 -21t21 -50z" />
    <glyph glyph-name="uni01C9" unicode="&#x1c9;" horiz-adv-x="542" 
d="M16 0v42h59v624h-67v32l144 39h40v-695h59v-42h-235zM478 -54q-17 -32 -28.5 -53t-25.5 -41t-35 -44.5t-55 -63.5l-37 32q21 27 33.5 46.5t19.5 39.5t9 44.5t2 60.5v425h-66v32l144 39h39v-517zM487 635q0 -30 -21 -50.5t-50 -20.5q-30 0 -50.5 20.5t-20.5 50.5
q0 29 20.5 50t50.5 21q29 0 50 -21t21 -50z" />
    <glyph glyph-name="uni01CA" unicode="&#x1ca;" horiz-adv-x="1101" 
d="M619 618v-629h-70l-348 490v-437h79v-42h-226v42h83v525l-32 51h-72v42h199l324 -461v419h-79v42h226v-42h-84zM979 618v-636q-18 -38 -33 -64.5t-33 -49t-42.5 -45.5t-61.5 -54l-42 44q45 43 64 89.5t19 114.5v601h-75v42h280v-42h-76z" />
    <glyph glyph-name="uni01CB" unicode="&#x1cb;" horiz-adv-x="1012" 
d="M619 618v-629h-70l-348 490v-437h79v-42h-226v42h83v525l-32 51h-72v42h199l324 -461v419h-79v42h226v-42h-84zM948 -54q-17 -32 -28.5 -53t-25.5 -41t-35 -44.5t-55 -63.5l-37 32q21 27 33.5 46.5t19.5 39.5t9 44.5t2 60.5v425h-66v32l144 39h39v-517zM957 635
q0 -30 -21 -50.5t-50 -20.5q-30 0 -50.5 20.5t-20.5 50.5q0 29 20.5 50t50.5 21q29 0 50 -21t21 -50z" />
    <glyph glyph-name="uni01CC" unicode="&#x1cc;" horiz-adv-x="856" 
d="M326 0v42h59v279q0 45 -11.5 62t-42.5 17q-15 0 -26.5 -2.5t-24.5 -10t-29.5 -22t-40.5 -37.5v-286h58v-42h-235v42h59v350h-70v32l144 39h44v-82q24 25 43.5 41t38 25.5t37.5 13.5t43 4q64 0 97 -32t33 -93v-298h59v-42h-235zM792 -54q-17 -32 -28.5 -53t-25.5 -41
t-35 -44.5t-55 -63.5l-37 32q21 27 33.5 46.5t19.5 39.5t9 44.5t2 60.5v425h-66v32l144 39h39v-517zM801 635q0 -30 -21 -50.5t-50 -20.5q-30 0 -50.5 20.5t-20.5 50.5q0 29 20.5 50t50.5 21q29 0 50 -21t21 -50z" />
    <glyph glyph-name="uni01F1" unicode="&#x1f1;" horiz-adv-x="1408" 
d="M698 331q0 -69 -27 -131.5t-78 -112.5q-48 -45 -103 -66t-129 -21h-311v42h76v576h-76v42h312q71 0 132.5 -25.5t106.5 -69.5t71 -104.5t26 -129.5zM557 331q0 55 -17.5 104.5t-47 87t-69 59.5t-83.5 22h-85v-549h81q47 0 87.5 21t70 58t46.5 87.5t17 109.5zM799 0v30
l372 571h-318v-80h-54v167h54v-28h476v-31l-369 -570h335v103h54v-162h-550z" />
    <glyph glyph-name="uni01F2" unicode="&#x1f2;" horiz-adv-x="1209" 
d="M698 331q0 -69 -27 -131.5t-78 -112.5q-48 -45 -103 -66t-129 -21h-311v42h76v576h-76v42h312q71 0 132.5 -25.5t106.5 -69.5t71 -104.5t26 -129.5zM557 331q0 55 -17.5 104.5t-47 87t-69 59.5t-83.5 22h-85v-549h81q47 0 87.5 21t70 58t46.5 87.5t17 109.5zM924 51h203
v72l43 -1v-122h-392v37l246 364h-189l-12 -78h-43l21 150h43l-3 -20h331v-30z" />
    <glyph glyph-name="uni01F3" unicode="&#x1f3;" horiz-adv-x="1001" 
d="M379 -10h-44v58q-18 -18 -32 -30t-28 -18.5t-29 -9.5t-34 -3q-42 0 -77 17t-60.5 48t-39.5 72.5t-14 91.5q0 53 18.5 98.5t50.5 79t76.5 52.5t95.5 19q21 0 35 -2.5t38 -10.5v214h-70v32l144 39h44v-676h70v-33zM335 343q0 40 -13 58t-41 18t-52.5 -14.5t-42.5 -40
t-28 -60t-10 -74.5q0 -36 8 -67.5t22.5 -55.5t33.5 -37.5t41 -13.5q38 0 82 44v243zM716 51h203v72l43 -1v-122h-392v37l246 364h-189l-12 -78h-43l21 150h43l-3 -20h331v-30z" />
    <glyph glyph-name="Aringacute" unicode="&#x1fa;" horiz-adv-x="672" 
d="M382 828h-73l74 71h130zM396 727q0 20 -13 33.5t-33 13.5q-19 0 -32.5 -13.5t-13.5 -33.5q0 -19 13.5 -32.5t32.5 -13.5q20 0 33 13.5t13 32.5zM317 515l-101 -250h196zM427 0v42h70l-62 162h-243l-65 -162h80v-42h-207v42h62l245 608q-20 11 -32.5 31.5t-12.5 45.5
q0 37 26 62.5t62 25.5q37 0 62.5 -25.5t25.5 -62.5q0 -25 -12.5 -45.5t-32.5 -31.5l236 -608h42v-42h-244z" />
    <glyph glyph-name="aringacute" unicode="&#x1fb;" horiz-adv-x="457" 
d="M370 -2q-22 -7 -47 -7q-53 0 -60 55q-25 -32 -52 -45.5t-68 -13.5q-58 0 -92 31t-34 85q0 45 25 75t72 41l146 33v106q0 38 -11 53.5t-38 15.5q-12 0 -22 -2.5t-28 -10.5v-50l-114 -28q-5 9 -6.5 14.5t-1.5 13.5q0 46 47.5 73.5t125.5 27.5q81 0 123 -28t42 -82v-303h60
v-33zM260 201l-129 -30v-57q0 -29 14 -47t37 -18q18 0 35.5 9.5t42.5 32.5v110zM307 578q0 -36 -25.5 -62t-62.5 -26q-18 0 -34 7t-28 19t-19 28t-7 34q0 37 26 62.5t62 25.5q37 0 62.5 -25.5t25.5 -62.5zM265 578q0 20 -13 33.5t-33 13.5q-19 0 -32.5 -13.5t-13.5 -33.5
q0 -19 13.5 -32.5t32.5 -13.5q20 0 33 13.5t13 32.5zM249 685h-80l118 102h137z" />
    <glyph glyph-name="AEacute" unicode="&#x1fc;" horiz-adv-x="882" 
d="M350 0v42h75v159h-218l-84 -159h77v-42h-200v42h59l305 574h-80v44h479v24h55v-160h-55v77h-209v-238h163v69h54v-197h-54v69h-163v-245h220v72h53v-131h-477zM425 613l-185 -350h185v350zM551 707h-80l118 102h137z" />
    <glyph glyph-name="aeacute" unicode="&#x1fd;" horiz-adv-x="687" 
d="M673 53q-35 -21 -60 -34t-46 -20t-42 -9.5t-48 -2.5q-68 0 -110.5 19t-73.5 63q-37 -45 -70 -63.5t-76 -18.5q-60 0 -95 31t-35 85q0 44 27 76t70 39l146 24v115q0 38 -11 53.5t-37 15.5q-12 0 -22.5 -2.5t-28.5 -10.5v-50l-114 -28q-5 10 -7.5 16t-2.5 14q0 45 49.5 72
t130.5 27q46 0 75 -8.5t55 -29.5q37 20 65 28t63 8q44 0 80 -12.5t61.5 -35t39.5 -54t14 -70.5v-29l-302 -51q7 -76 47.5 -120.5t102.5 -44.5q32 0 61.5 11.5t71.5 41.5zM546 322q0 47 -18 72t-52 25q-48 0 -77.5 -43t-31.5 -115l179 32v29zM271 102q-11 30 -11 63v26
l-129 -22v-56q0 -26 15 -45t37 -19q19 0 37.5 11t50.5 42zM383 513h-70l118 161h110z" />
    <glyph glyph-name="Oslashacute" unicode="&#x1fe;" horiz-adv-x="743" 
d="M610 565q94 -97 94 -238q0 -71 -26 -132.5t-71 -108t-105 -73t-128 -26.5q-113 0 -206 72l-97 -115l-36 32l99 114q-93 93 -93 236q0 72 25.5 134.5t70.5 108.5t106 72t132 26q29 0 53.5 -3.5t47.5 -12t47 -22t53 -33.5l99 117l37 -33zM562 326q0 20 -1.5 36.5t-4.5 33
t-9 35.5t-15 45l-297 -342q66 -91 138 -91q37 0 71 23.5t60.5 62.5t42 90t15.5 107zM508 520q-56 90 -135 90q-38 0 -72.5 -23.5t-61 -62.5t-42.5 -90t-16 -107q0 -19 1 -34.5t4.5 -32t9.5 -36t15 -45.5zM370 707h-80l118 102h137z" />
    <glyph glyph-name="oslashacute" unicode="&#x1ff;" horiz-adv-x="505" 
d="M425 390q32 -36 46 -74.5t14 -88.5q0 -52 -17.5 -96t-48.5 -76t-74 -50t-93 -18q-79 0 -139 44l-62 -72l-36 31l64 72q-32 37 -45.5 76t-13.5 90t17.5 93.5t48 74t72.5 49t92 17.5q39 0 74.5 -10.5t63.5 -30.5l66 78l37 -33zM356 228q0 10 -0.5 18.5t-1 16.5t-2 17.5
t-3.5 22.5l-177 -206q22 -35 39 -48t41 -13q23 0 42.5 14t33 39t21 60.5t7.5 78.5zM331 352q-18 33 -35.5 47t-42.5 14q-23 0 -42.5 -14t-33.5 -39t-22 -59t-8 -74q0 -19 1.5 -34t6.5 -42zM247 513h-70l118 161h110z" />
    <glyph glyph-name="Scommaaccent" unicode="&#x218;" horiz-adv-x="562" 
d="M488 181q0 -43 -15 -78.5t-41.5 -61t-63 -40t-80.5 -14.5t-77.5 9.5t-68.5 29.5v-35h-55v180h55v-74q34 -27 62.5 -38t65.5 -11q47 0 77 25t30 64q0 17 -6 32t-20 31t-37.5 33.5t-58.5 40.5q-37 23 -59 37.5t-36 25t-22.5 19.5t-18.5 20q-19 22 -28.5 51t-9.5 62
q0 41 14.5 75t41 58t64 37t83.5 13q29 0 54 -5t54 -17v30h54v-171h-54v69q-32 20 -55 28.5t-51 8.5q-39 0 -65.5 -24.5t-26.5 -59.5q0 -15 5 -28t18.5 -27t36.5 -31t59 -40q35 -23 56.5 -36.5t29.5 -19.5q36 -25 61 -65q28 -46 28 -103zM344 -130q0 -12 -4 -28t-10.5 -33
t-16 -34.5t-20.5 -30.5h-64q8 18 16.5 42.5t12.5 42.5l-33 80q25 11 36.5 14.5t26.5 3.5q29 0 42.5 -15t13.5 -42z" />
    <glyph glyph-name="scommaaccent" unicode="&#x219;" horiz-adv-x="421" 
d="M381 126q0 -66 -41.5 -102.5t-117.5 -36.5q-85 0 -129 40v-36h-49v142h55v-27q0 -15 9.5 -29t26 -24.5t38 -16.5t44.5 -6q36 0 57 14.5t21 38.5q0 15 -5.5 27t-19.5 23t-37.5 22t-60.5 25q-73 28 -103 61t-30 86q0 31 11.5 56.5t32.5 43.5t50.5 28t65.5 10q37 0 63.5 -8
t48.5 -26l6 36h52l-25 -144h-51q3 8 4.5 17t1.5 16q0 13 -8.5 25t-22.5 21t-31.5 14.5t-36.5 5.5q-32 0 -52 -15t-20 -41q0 -14 4 -24t17 -19.5t37 -20.5t64 -27q37 -15 62 -30t40.5 -32.5t22 -38.5t6.5 -48zM278 -130q0 -12 -4 -28t-10.5 -33t-16 -34.5t-20.5 -30.5h-64
q8 18 16.5 42.5t12.5 42.5l-33 80q25 11 36.5 14.5t26.5 3.5q29 0 42.5 -15t13.5 -42z" />
    <glyph glyph-name="uni021A" unicode="&#x21a;" horiz-adv-x="600" 
d="M537 518v83h-172v-559h96v-42h-322v42h97v559h-173v-83h-55v170h55v-28h474v28h55v-170h-55zM354 -130q0 -12 -4 -28t-10.5 -33t-16 -34.5t-20.5 -30.5h-64q8 18 16.5 42.5t12.5 42.5l-33 80q25 11 36.5 14.5t26.5 3.5q29 0 42.5 -15t13.5 -42z" />
    <glyph glyph-name="uni021B" unicode="&#x21b;" horiz-adv-x="299" 
d="M299 42q-38 -31 -64.5 -43t-55.5 -12q-47 0 -75.5 28t-28.5 73v304h-66v32l66 17v143h114v-141h103v-51h-103v-312q0 -10 8.5 -17.5t19.5 -7.5q14 0 26 4.5t35 18.5zM234 -130q0 -12 -4 -28t-10.5 -33t-16 -34.5t-20.5 -30.5h-64q8 18 16.5 42.5t12.5 42.5l-33 80
q25 11 36.5 14.5t26.5 3.5q29 0 42.5 -15t13.5 -42z" />
    <glyph glyph-name="uni0237" unicode="&#x237;" horiz-adv-x="275" 
d="M211 -54q-17 -32 -28.5 -53t-25.5 -41t-35 -44.5t-55 -63.5l-37 32q21 27 33.5 46.5t19.5 39.5t9 44.5t2 60.5v425h-66v32l144 39h39v-517z" />
    <glyph glyph-name="uni0259" unicode="&#x259;" horiz-adv-x="461" 
d="M14 398q37 21 63.5 34t48.5 20.5t43.5 10t47.5 2.5q50 0 91 -17t70.5 -48t45.5 -75t16 -97q0 -54 -16.5 -98.5t-46.5 -76t-72 -49t-94 -17.5q-44 0 -79.5 13t-60.5 37t-39 57.5t-14 74.5v38h299q0 94 -39 147.5t-107 53.5q-14 0 -26 -2t-26 -8t-33.5 -16.5t-48.5 -27.5z
M142 132q0 -45 19.5 -73.5t50.5 -28.5q40 0 68.5 34.5t35.5 91.5h-174v-24z" />
    <glyph glyph-name="uni02BB" unicode="&#x2bb;" horiz-adv-x="250" 
d="M204 634q-35 -29 -49.5 -50.5t-14.5 -42.5q0 -22 11.5 -34.5t39.5 -21.5q-12 -31 -27.5 -44t-41.5 -13q-31 0 -49 19t-18 52q0 83 108 173z" />
    <glyph glyph-name="afii57929" unicode="&#x2bc;" horiz-adv-x="250" 
d="M193 602q0 -83 -108 -174l-41 39q35 29 49.5 50.5t14.5 42.5t-11.5 34t-39.5 21q12 32 27.5 44.5t41.5 12.5q31 0 49 -19t18 -51z" />
    <glyph glyph-name="circumflex" unicode="&#x2c6;" horiz-adv-x="743" 
d="M454 513l-85 88l-86 -88h-65l110 165h84l105 -165h-63z" />
    <glyph glyph-name="caron" unicode="&#x2c7;" horiz-adv-x="668" 
d="M254 678l85 -88l86 88h65l-110 -165h-84l-105 165h63z" />
    <glyph glyph-name="breve" unicode="&#x2d8;" 
d="M440 670q-5 -21 -9.5 -37t-10 -28t-12 -22t-15.5 -20q-22 -26 -51.5 -40t-59.5 -14q-61 0 -101 41.5t-59 119.5h46q17 -41 44.5 -62t70.5 -21q42 0 68 20.5t44 62.5h45z" />
    <glyph glyph-name="dotaccent" unicode="&#x2d9;" horiz-adv-x="581" 
d="M345 568q0 -24 -17.5 -41t-41.5 -17t-41.5 17t-17.5 41q0 25 17.5 42t41.5 17t41.5 -17t17.5 -42z" />
    <glyph glyph-name="ring" unicode="&#x2da;" horiz-adv-x="672" 
d="M438 597q0 -36 -25.5 -62t-62.5 -26q-18 0 -34 7t-28 19t-19 28t-7 34q0 37 26 62.5t62 25.5q37 0 62.5 -25.5t25.5 -62.5zM396 597q0 20 -13 33.5t-33 13.5q-19 0 -32.5 -13.5t-13.5 -33.5q0 -19 13.5 -32.5t32.5 -13.5q20 0 33 13.5t13 32.5z" />
    <glyph glyph-name="ogonek" unicode="&#x2db;" horiz-adv-x="380" 
d="M280 19q-11 -9 -25 -24t-26 -32t-20.5 -33.5t-8.5 -29.5q0 -26 10.5 -39t26.5 -13q11 0 26 3.5t41 13.5l-6 -52q-17 -11 -37.5 -21t-48.5 -10q-50 0 -74 21.5t-24 58.5q0 19 10 39.5t25.5 40.5t35 40t38.5 39z" />
    <glyph glyph-name="tilde" unicode="&#x2dc;" horiz-adv-x="737" 
d="M545 587q-35 -43 -64 -60t-68 -17q-23 0 -40 5t-37 18q-13 9 -20.5 14t-13.5 7.5t-11.5 3t-12.5 0.5q-19 0 -35.5 -7.5t-37.5 -28.5l-30 27q34 43 63.5 62t61.5 19q13 0 26.5 -3t22.5 -8l35 -22q25 -17 60 -17q12 0 20.5 1t16 5t15 10.5t18.5 17.5z" />
    <glyph glyph-name="hungarumlaut" unicode="&#x2dd;" horiz-adv-x="780" 
d="M308 513h-73l118 161h108zM444 513h-73l120 161h108z" />
    <glyph glyph-name="gravecomb" unicode="&#x300;" horiz-adv-x="1" 
d="M-244 513l-159 161h110l119 -161h-70z" />
    <glyph glyph-name="acutecomb" unicode="&#x301;" horiz-adv-x="1" 
d="M-283 513h-70l118 161h110z" />
    <glyph glyph-name="uni0302" unicode="&#x302;" horiz-adv-x="1" 
d="M-163 513l-85 88l-86 -88h-65l110 165h84l105 -165h-63z" />
    <glyph glyph-name="tildecomb" unicode="&#x303;" horiz-adv-x="1" 
d="M-66 587q-35 -43 -64 -60t-68 -17q-23 0 -40 5t-37 18q-13 9 -20.5 14t-13.5 7.5t-11.5 3t-12.5 0.5q-19 0 -35.5 -7.5t-37.5 -28.5l-30 27q34 43 63.5 62t61.5 19q13 0 26.5 -3t22.5 -8l35 -22q25 -17 60 -17q12 0 20.5 1t16 5t15 10.5t18.5 17.5z" />
    <glyph glyph-name="uni0304" unicode="&#x304;" horiz-adv-x="1" 
d="M-379 525v75h341v-75h-341z" />
    <glyph glyph-name="uni0306" unicode="&#x306;" horiz-adv-x="1" 
d="M-59 670q-5 -21 -9.5 -37t-10 -28t-12 -22t-15.5 -20q-22 -26 -51.5 -40t-59.5 -14q-61 0 -101 41.5t-59 119.5h46q17 -41 44.5 -62t70.5 -21q42 0 68 20.5t44 62.5h45z" />
    <glyph glyph-name="uni0307" unicode="&#x307;" horiz-adv-x="1" 
d="M-80 568q0 -24 -17.5 -41t-41.5 -17t-41.5 17t-17.5 41q0 25 17.5 42t41.5 17t41.5 -17t17.5 -42z" />
    <glyph glyph-name="uni0308" unicode="&#x308;" horiz-adv-x="1" 
d="M-141 568q0 -24 -17 -41t-42 -17q-24 0 -41.5 17t-17.5 41q0 25 17.5 42t41.5 17q25 0 42 -17t17 -42zM-339 568q0 -24 -17.5 -41t-41.5 -17t-41.5 17t-17.5 41q0 25 17.5 42t41.5 17t41.5 -17t17.5 -42z" />
    <glyph glyph-name="uni030A" unicode="&#x30a;" horiz-adv-x="1" 
d="M-232 597q0 -36 -25.5 -62t-62.5 -26q-18 0 -34 7t-28 19t-19 28t-7 34q0 37 26 62.5t62 25.5q37 0 62.5 -25.5t25.5 -62.5zM-274 597q0 20 -13 33.5t-33 13.5q-19 0 -32.5 -13.5t-13.5 -33.5q0 -19 13.5 -32.5t32.5 -13.5q20 0 33 13.5t13 32.5z" />
    <glyph glyph-name="uni030B" unicode="&#x30b;" horiz-adv-x="1" 
d="M-425 513h-73l118 161h108zM-289 513h-73l120 161h108z" />
    <glyph glyph-name="uni030C" unicode="&#x30c;" horiz-adv-x="1" 
d="M-301 678l85 -88l86 88h65l-110 -165h-84l-105 165h63z" />
    <glyph glyph-name="uni0312" unicode="&#x312;" horiz-adv-x="1" 
d="M-192 567q0 12 3.5 28t10.5 33t16.5 34t20.5 31h64q-8 -18 -16.5 -42.5t-12.5 -42.5l33 -80q-25 -11 -36.5 -14.5t-26.5 -3.5q-29 0 -42.5 15t-13.5 42z" />
    <glyph glyph-name="uni0313" unicode="&#x313;" horiz-adv-x="1" 
d="M-65 603q0 -12 -4 -28t-10.5 -33t-16 -34.5t-20.5 -30.5h-64q8 18 16.5 42.5t12.5 42.5l-33 80q25 11 36.5 14.5t26.5 3.5q29 0 42.5 -15t13.5 -42z" />
    <glyph glyph-name="uni0326" unicode="&#x326;" horiz-adv-x="1" 
d="M-90 -130q0 -12 -4 -28t-10.5 -33t-16 -34.5t-20.5 -30.5h-64q8 18 16.5 42.5t12.5 42.5l-33 80q25 11 36.5 14.5t26.5 3.5q29 0 42.5 -15t13.5 -42z" />
    <glyph glyph-name="uni0327" unicode="&#x327;" horiz-adv-x="1" 
d="M-129 20l-71 -83q35 -1 58.5 -21t23.5 -50q0 -45 -35.5 -72.5t-92.5 -27.5q-11 0 -19 0.5t-16.5 2t-19 4t-25.5 6.5l29 55q11 -11 21 -20.5t32 -9.5q19 0 33 16t14 38t-22.5 37.5t-52.5 15.5h-9l101 109h51z" />
    <glyph glyph-name="uni0328" unicode="&#x328;" horiz-adv-x="1" 
d="M-99 3q-11 -9 -25 -24t-26 -32t-20.5 -33.5t-8.5 -29.5q0 -26 10.5 -39t26.5 -13q11 0 26 3.5t41 13.5l-6 -52q-17 -11 -37.5 -21t-48.5 -10q-50 0 -74 21.5t-24 58.5q0 19 10 39.5t25.5 40.5t35 40t38.5 39z" />
    <glyph glyph-name="uni0394" unicode="&#x394;" horiz-adv-x="673" 
d="M36 0v32l268 624l54 13l278 -637v-32h-600zM294 522l-192 -466h389z" />
    <glyph glyph-name="uni03A9" unicode="&#x3a9;" horiz-adv-x="655" 
d="M601 0h-225l-8 19q14 36 31 78t32 87t25.5 91.5t10.5 91.5q0 74 -11.5 124.5t-31 82t-45.5 45t-54 13.5q-30 0 -55 -12.5t-43.5 -43.5t-29 -82.5t-10.5 -129.5q0 -44 9 -89t23 -89t31 -86t34 -81l-9 -19h-224l-22 155h30q7 -21 13.5 -34t14.5 -20t18.5 -9.5t24.5 -2.5h85
q-23 19 -50.5 45t-51 60.5t-39.5 78t-16 99.5q0 67 21 122t57 93t85.5 59t106.5 21q58 0 107 -20t84.5 -57.5t55.5 -91.5t20 -121q0 -51 -15.5 -92.5t-39 -77t-52.5 -64.5t-56 -54h95q13 0 22.5 2t17 9t14 20t13.5 35h30z" />
    <glyph glyph-name="uni03BC" unicode="&#x3bc;" horiz-adv-x="570" 
d="M416 -8h-43v84q-25 -26 -45 -43.5t-38.5 -27.5t-37 -14t-41.5 -4q-13 0 -19 1.5t-17 3.5l6 -230h-112q1 64 3 143t4 162.5t3 167t1 157.5h-71v32l144 39h44v-327q0 -43 14 -62.5t45 -19.5q15 0 27.5 3.5t26 11.5t28.5 22.5t35 35.5v265h-51v36l132 35h36v-402h70v-33z
" />
    <glyph glyph-name="pi" unicode="&#x3c0;" horiz-adv-x="528" 
d="M505 443q-2 -15 -6 -30.5t-8.5 -30t-10 -26t-9.5 -18.5q-11 -4 -25.5 -4.5t-32.5 -0.5q-3 -33 -3.5 -67t-0.5 -69q0 -38 1 -64t4.5 -42.5t10.5 -24t20 -7.5q12 0 21 5t20 16l12 -24q-17 -30 -46.5 -49t-59.5 -19q-19 0 -35.5 5.5t-29 20t-20 39.5t-7.5 63q0 33 0.5 61.5
t2 54t2.5 51t3 52.5q-32 0 -61 1t-56 1v-11q0 -83 -7 -140.5t-17 -95t-20 -57.5t-16 -28q-16 -7 -33.5 -11t-31.5 -6l-7 20q25 35 42 78t27 87t14 87t4 78q-21 0 -36 -2t-28 -6.5t-24.5 -11t-26.5 -16.5l-15 28q14 20 29.5 37t34.5 29.5t42.5 19.5t55.5 7q54 0 117.5 -1.5
t128.5 -1.5q23 0 33.5 6t20.5 24z" />
    <glyph glyph-name="Wgrave" unicode="&#x1e80;" horiz-adv-x="942" 
d="M900 618l-248 -635h-64l-113 287l-112 -287h-64l-248 635h-59v42h243v-42h-56l179 -459l81 204l-100 255h-56v42h386v-42h-71l-69 -178l115 -288l182 466h-72v42h196v-42h-50zM459 618l39 -100l40 100h-79zM340 809h130l118 -102h-73z" />
    <glyph glyph-name="wgrave" unicode="&#x1e81;" horiz-adv-x="706" 
d="M662 411l-160 -424h-31l-121 300l-115 -300h-37l-171 424h-27v42h193v-42h-42l101 -247l73 187l-25 60h-51v42h209v-42h-43l103 -253l95 253h-60v42h153v-42h-44zM386 513l-159 161h110l119 -161h-70z" />
    <glyph glyph-name="Wacute" unicode="&#x1e82;" horiz-adv-x="942" 
d="M900 618l-248 -635h-64l-113 287l-112 -287h-64l-248 635h-59v42h243v-42h-56l179 -459l81 204l-100 255h-56v42h386v-42h-71l-69 -178l115 -288l182 466h-72v42h196v-42h-50zM459 618l39 -100l40 100h-79zM456 707h-80l118 102h137z" />
    <glyph glyph-name="wacute" unicode="&#x1e83;" horiz-adv-x="706" 
d="M662 411l-160 -424h-31l-121 300l-115 -300h-37l-171 424h-27v42h193v-42h-42l101 -247l73 187l-25 60h-51v42h209v-42h-43l103 -253l95 253h-60v42h153v-42h-44zM341 513h-70l118 161h110z" />
    <glyph glyph-name="Wdieresis" unicode="&#x1e84;" horiz-adv-x="942" 
d="M900 618l-248 -635h-64l-113 287l-112 -287h-64l-248 635h-59v42h243v-42h-56l179 -459l81 204l-100 255h-56v42h386v-42h-71l-69 -178l115 -288l182 466h-72v42h196v-42h-50zM459 618l39 -100l40 100h-79zM404 761q0 -24 -17 -41t-42 -17q-24 0 -41.5 17t-17.5 41
q0 25 17.5 42t41.5 17q25 0 42 -17t17 -42zM671 761q0 -24 -17 -41t-42 -17q-24 0 -41.5 17t-17.5 41q0 25 17.5 42t41.5 17q25 0 42 -17t17 -42z" />
    <glyph glyph-name="wdieresis" unicode="&#x1e85;" horiz-adv-x="706" 
d="M662 411l-160 -424h-31l-121 300l-115 -300h-37l-171 424h-27v42h193v-42h-42l101 -247l73 187l-25 60h-51v42h209v-42h-43l103 -253l95 253h-60v42h153v-42h-44zM511 568q0 -24 -17.5 -41t-41.5 -17t-41.5 17t-17.5 41q0 25 17.5 42t41.5 17t41.5 -17t17.5 -42zM336 568
q0 -24 -17.5 -41t-41.5 -17t-41.5 17t-17.5 41q0 25 17.5 42t41.5 17t41.5 -17t17.5 -42z" />
    <glyph glyph-name="uni1E8A" unicode="&#x1e8a;" horiz-adv-x="660" 
d="M379 0v42h65l-134 213l-159 -213h92v-42h-251v42h76l202 273l-191 303h-77v42h288v-42h-66l125 -198l147 198h-88v42h251v-42h-79l-193 -259l202 -317h79v-42h-289zM408 761q0 -24 -17 -41t-42 -17q-24 0 -41.5 17t-17.5 41q0 25 17.5 42t41.5 17q25 0 42 -17t17 -42z
" />
    <glyph glyph-name="uni1E8B" unicode="&#x1e8b;" horiz-adv-x="437" 
d="M232 0v42h36l-72 119l-93 -119h52v-42h-155v42h43l126 164l-122 205h-37v42h210v-42h-41l65 -108l83 108h-41v42h144v-42h-43l-116 -152l129 -217h37v-42h-205zM304 568q0 -24 -17.5 -41t-41.5 -17t-41.5 17t-17.5 41q0 25 17.5 42t41.5 17t41.5 -17t17.5 -42z" />
    <glyph glyph-name="Ygrave" unicode="&#x1ef2;" horiz-adv-x="612" 
d="M549 618l-167 -274v-302h76v-42h-280v42h75v276l-198 300h-63v42h280v-42h-74l142 -219l133 219h-85v42h233v-42h-72zM182 809h130l118 -102h-73z" />
    <glyph glyph-name="ygrave" unicode="&#x1ef3;" horiz-adv-x="443" 
d="M402 411l-167 -434q-19 -50 -44 -98t-49 -81q-7 -10 -17.5 -23t-25.5 -31l-66 69q21 13 35.5 23t26.5 19.5t22 20.5t21 25q10 13 17.5 24t14 24t13.5 28.5t15 36.5l-162 397h-36v42h211v-42h-52l99 -242l94 242h-63v42h154v-42h-41zM233 513l-159 161h110l119 -161h-70z
" />
    <glyph glyph-name="uni2007" unicode="&#x2007;" 
 />
    <glyph glyph-name="uni2008" unicode="&#x2008;" horiz-adv-x="250" 
 />
    <glyph glyph-name="uni200B" unicode="&#x200b;" horiz-adv-x="0" 
 />
    <glyph glyph-name="endash" unicode="&#x2013;" 
d="M0 192v81h500v-81h-500z" />
    <glyph glyph-name="emdash" unicode="&#x2014;" horiz-adv-x="1000" 
d="M0 191v82h1000v-82h-1000z" />
    <glyph glyph-name="quoteleft" unicode="&#x2018;" horiz-adv-x="250" 
d="M204 634q-35 -29 -49.5 -50.5t-14.5 -42.5q0 -22 11.5 -34.5t39.5 -21.5q-12 -31 -27.5 -44t-41.5 -13q-31 0 -49 19t-18 52q0 83 108 173z" />
    <glyph glyph-name="quoteright" unicode="&#x2019;" horiz-adv-x="250" 
d="M193 602q0 -83 -108 -174l-41 39q35 29 49.5 50.5t14.5 42.5t-11.5 34t-39.5 21q12 32 27.5 44.5t41.5 12.5q31 0 49 -19t18 -51z" />
    <glyph glyph-name="quotesinglbase" unicode="&#x201a;" horiz-adv-x="250" 
d="M192 34q0 -83 -108 -174l-41 39q35 29 50 50t15 43q0 21 -12 34t-40 21q13 32 28 44.5t41 12.5q32 0 49.5 -19t17.5 -51z" />
    <glyph glyph-name="quotedblleft" unicode="&#x201c;" horiz-adv-x="409" 
d="M362 632q-35 -29 -49.5 -50t-14.5 -43q0 -21 12 -33.5t40 -21.5q-13 -32 -28 -44.5t-41 -12.5q-32 0 -49.5 19t-17.5 51q0 83 108 174zM203 632q-35 -29 -49.5 -50t-14.5 -43q0 -21 12 -33.5t40 -21.5q-13 -32 -28 -44.5t-41 -12.5q-32 0 -49.5 19t-17.5 51q0 83 108 174
z" />
    <glyph glyph-name="quotedblright" unicode="&#x201d;" horiz-adv-x="409" 
d="M352 602q0 -83 -108 -174l-41 39q35 29 49.5 50.5t14.5 42.5t-11.5 34t-39.5 21q12 32 27.5 44.5t41.5 12.5q31 0 49 -19t18 -51zM193 602q0 -83 -108 -174l-41 39q35 29 49.5 50.5t14.5 42.5t-11.5 34t-39.5 21q12 32 27.5 44.5t41.5 12.5q31 0 49 -19t18 -51z" />
    <glyph glyph-name="quotedblbase" unicode="&#x201e;" horiz-adv-x="409" 
d="M351 34q0 -83 -108 -174l-41 39q35 29 49.5 50t14.5 43q0 21 -11.5 34t-39.5 21q12 32 27.5 44.5t41.5 12.5q31 0 49 -19t18 -51zM192 34q0 -83 -108 -174l-41 39q35 29 49.5 50t14.5 43q0 21 -11.5 34t-39.5 21q12 32 27.5 44.5t41.5 12.5q31 0 49 -19t18 -51z" />
    <glyph glyph-name="dagger" unicode="&#x2020;" horiz-adv-x="573" 
d="M308 -248h-43l-34 455l31 182h48l32 -182zM332 411v46l182 38v-123zM59 372v123l182 -38v-46zM310 478h-48l-36 182h121z" />
    <glyph glyph-name="daggerdbl" unicode="&#x2021;" horiz-adv-x="573" 
d="M310 23h-48l-23 183l23 183h48l32 -183zM59 -83v123l182 -39v-46zM332 411v46l182 38v-123zM332 -45v46l182 39v-123zM59 372v123l182 -38v-46zM310 478h-48l-28 182h113zM234 -248l28 181h48l37 -181h-113z" />
    <glyph glyph-name="bullet" unicode="&#x2022;" horiz-adv-x="352" 
d="M335 231q0 -33 -12.5 -62t-34 -50.5t-50.5 -34t-62 -12.5t-62 12.5t-50.5 34t-34 50.5t-12.5 62t12.5 62t34 50.5t50.5 34t62 12.5t62 -12.5t50.5 -34t34 -50.5t12.5 -62z" />
    <glyph glyph-name="ellipsis" unicode="&#x2026;" horiz-adv-x="758" 
d="M451 56q0 -28 -20 -47.5t-48 -19.5t-47.5 19.5t-19.5 47.5t19.5 47.5t47.5 19.5t48 -19.5t20 -47.5zM700 56q0 -28 -19.5 -47.5t-47.5 -19.5t-47.5 19.5t-19.5 47.5t19.5 47.5t47.5 19.5t47.5 -19.5t19.5 -47.5zM192 56q0 -28 -19.5 -47.5t-47.5 -19.5t-47.5 19.5
t-19.5 47.5t19.5 47.5t47.5 19.5t47.5 -19.5t19.5 -47.5z" />
    <glyph glyph-name="perthousand" unicode="&#x2030;" horiz-adv-x="1234" 
d="M384 495q0 -36 -13.5 -68t-37.5 -56t-56 -37.5t-68 -13.5t-68 13.5t-55.5 37.5t-37.5 56t-14 68t14 68t37.5 56t55.5 38t68 14t68 -14t56 -38t37.5 -56t13.5 -68zM1199 162q0 -36 -13.5 -68t-37.5 -55.5t-56 -37.5t-68 -14t-68 14t-56 37.5t-37.5 55.5t-13.5 68t13.5 68
t37.5 56t56 37.5t68 13.5t68 -13.5t56 -37.5t37.5 -56t13.5 -68zM816 162q0 -36 -14 -68t-37.5 -55.5t-55.5 -37.5t-68 -14t-68 14t-56 37.5t-37.5 55.5t-13.5 68t13.5 68t37.5 56t56 37.5t68 13.5t68 -13.5t55.5 -37.5t37.5 -56t14 -68zM180 -46h-78l559 733h95zM739 162
q0 41 -28.5 69.5t-69.5 28.5q-42 0 -70 -28.5t-28 -69.5t28 -69.5t70 -28.5q41 0 69.5 28.5t28.5 69.5zM307 495q0 41 -28 69.5t-70 28.5q-41 0 -69.5 -28.5t-28.5 -69.5t28.5 -69.5t69.5 -28.5q42 0 70 28.5t28 69.5zM1122 162q0 41 -28.5 69.5t-69.5 28.5t-69.5 -28.5
t-28.5 -69.5t28.5 -69.5t69.5 -28.5t69.5 28.5t28.5 69.5z" />
    <glyph glyph-name="guilsinglleft" unicode="&#x2039;" horiz-adv-x="285" 
d="M2 224l274 192v-41l-119 -151l119 -151v-42z" />
    <glyph glyph-name="guilsinglright" unicode="&#x203a;" horiz-adv-x="285" 
d="M9 31v42l118 151l-118 151v41l274 -192z" />
    <glyph glyph-name="fraction" unicode="&#x2044;" horiz-adv-x="150" 
d="M-46 -46h-71l313 733h70z" />
    <glyph glyph-name="uni2070" unicode="&#x2070;" horiz-adv-x="360" 
d="M344 428q0 -50 -12 -93t-34 -75.5t-52 -51t-66 -18.5q-35 0 -65 18.5t-52 51t-34 75.5t-12 92q0 50 12 93.5t34 76t51.5 51.5t65.5 19t66 -19t52 -51t34 -76t12 -93zM236 426q0 91 -14 143t-41 52q-26 0 -41 -51t-15 -141t15 -141.5t41 -51.5q24 0 39.5 51t15.5 139z" />
    <glyph glyph-name="uni2074" unicode="&#x2074;" horiz-adv-x="360" 
d="M270 305v-106h-91v106h-173v33l217 328h47v-299h84v-62h-84zM179 505l-89 -137h89v137z" />
    <glyph glyph-name="uni2075" unicode="&#x2075;" horiz-adv-x="360" 
d="M317 351q0 -41 -16.5 -71.5t-42 -50t-57 -29t-61.5 -9.5q-32 0 -59 5.5t-53 22.5l32 51q22 -17 37.5 -20.5t35.5 -3.5q12 0 24 7.5t21 21t15 31t6 38.5q0 49 -26 74.5t-74 25.5h-46v217h185v23h53v-99h-160v-87q52 0 87.5 -10t57.5 -29t31.5 -46.5t9.5 -61.5z" />
    <glyph glyph-name="uni2076" unicode="&#x2076;" horiz-adv-x="360" 
d="M339 341q0 -26 -8 -52.5t-26.5 -48.5t-49 -36t-75.5 -14q-38 0 -67.5 14.5t-50.5 41.5t-32 64.5t-11 82.5v6q1 56 19.5 104t53.5 84q25 27 51.5 42.5t55 23.5t59 10.5t65.5 3.5v-44q-54 -4 -90 -16.5t-59 -36.5q-26 -28 -36 -71t-10 -103q0 -75 16 -115.5t39 -40.5
q22 0 34.5 22t12.5 72q0 15 -2 30.5t-8 28t-16.5 21t-26.5 8.5h-21l4 44q19 4 26.5 5.5t22.5 1.5q37 0 62 -13.5t40 -34t21.5 -43.5t6.5 -41z" />
    <glyph glyph-name="uni2077" unicode="&#x2077;" horiz-adv-x="360" 
d="M232 371q-23 -52 -50.5 -106t-59.5 -95l-73 45q44 42 71.5 85.5t50.5 95.5l82 189h-161v-39h-52v136h52v-20h255v-27z" />
    <glyph glyph-name="uni2078" unicode="&#x2078;" horiz-adv-x="360" 
d="M338 316q0 -54 -43.5 -89.5t-121.5 -35.5q-36 0 -63 10.5t-44.5 27.5t-26.5 37.5t-9 40.5q0 29 11.5 53t36.5 43l48 35l-47 37q-20 15 -29 40t-9 48q0 19 10 38t28 34t44 24.5t58 9.5q63 0 98 -25t35 -70q0 -30 -11.5 -52t-37.5 -42l-28 -23l58 -45q26 -19 34.5 -44.5
t8.5 -51.5zM239 571q0 22 -11 35t-40 13q-21 0 -35 -13t-14 -30q0 -18 5 -34.5t23 -30.5l30 -25l18 17q14 14 19 32t5 36zM238 305q0 23 -6 39t-26 31l-40 32l-32 -30q-16 -16 -22 -34t-6 -36q0 -26 18.5 -45.5t46.5 -19.5q32 0 49.5 18t17.5 45z" />
    <glyph glyph-name="uni2079" unicode="&#x2079;" horiz-adv-x="360" 
d="M335 459q-1 -56 -19.5 -104t-53.5 -84q-26 -27 -52 -42.5t-54.5 -24t-59.5 -11t-65 -2.5v44q54 3 90 16t59 37q26 27 36 70t10 104q0 75 -15.5 115.5t-38.5 40.5t-35.5 -22t-12.5 -72q0 -15 2 -30.5t8 -28.5t16.5 -21.5t26.5 -8.5h22l-5 -43q-10 -2 -16 -3.5t-11 -2.5
l-10 -1h-12q-37 0 -62 13.5t-40 34t-21.5 43.5t-6.5 41q0 25 8 52t26.5 49t49 36t76.5 14q37 0 66.5 -14.5t50.5 -41.5t32 -64.5t11 -82.5v-6z" />
    <glyph glyph-name="uni2080" unicode="&#x2080;" horiz-adv-x="360" 
d="M338 -6q0 -50 -12 -93t-34 -75.5t-52 -51t-66 -18.5q-35 0 -65 18.5t-52 51t-34 75.5t-12 92q0 50 12 93.5t34 76t51.5 51.5t65.5 19t66 -19t52 -51t34 -76t12 -93zM230 -8q0 91 -14 143t-41 52q-26 0 -41 -51t-15 -141t15 -141.5t41 -51.5q24 0 39.5 51t15.5 139z" />
    <glyph glyph-name="uni2081" unicode="&#x2081;" horiz-adv-x="360" 
d="M68 -235v41h71v331l-85 -31l-16 58l208 71v-429h72v-41h-250z" />
    <glyph glyph-name="uni2082" unicode="&#x2082;" horiz-adv-x="360" 
d="M8 -235v34l119 144q29 35 44 71.5t15 77.5q0 12 -1.5 26t-7 25t-16.5 18.5t-29 7.5q-22 0 -40 -11t-47 -35l-37 46q42 36 76.5 48.5t79.5 12.5q28 0 53.5 -7t44 -21.5t29.5 -37t11 -54.5q0 -48 -26 -90t-67 -87l-90 -99h156v44h54v-113h-321z" />
    <glyph glyph-name="uni2083" unicode="&#x2083;" horiz-adv-x="360" 
d="M316 -103q0 -30 -13 -56t-36 -45t-53.5 -30t-65.5 -11q-49 0 -80 8.5t-57 22.5l29 53q16 -9 27.5 -14.5t21 -8.5t18 -4t18.5 -1q14 0 28.5 6t26 16.5t18.5 25.5t7 33q0 42 -20 60.5t-55 18.5h-46v43q48 19 68.5 42t20.5 61q0 27 -14.5 42.5t-34.5 15.5q-15 0 -31.5 -5.5
t-40.5 -22.5l-26 43q19 12 35 19.5t32 12.5t33.5 7t39.5 2q39 0 63 -10.5t37.5 -26t18.5 -34.5t5 -35q0 -41 -26 -68.5t-75 -38.5q25 -1 48.5 -9t40.5 -23t27.5 -37t10.5 -52z" />
    <glyph glyph-name="uni2084" unicode="&#x2084;" horiz-adv-x="360" 
d="M270 -129v-106h-91v106h-173v33l217 328h47v-299h84v-62h-84zM179 71l-89 -137h89v137z" />
    <glyph glyph-name="uni2085" unicode="&#x2085;" horiz-adv-x="360" 
d="M317 -83q0 -41 -16.5 -71.5t-42 -50t-57 -29t-61.5 -9.5q-32 0 -59 5.5t-53 22.5l32 51q22 -17 37.5 -20.5t35.5 -3.5q12 0 24 7.5t21 21t15 31t6 38.5q0 49 -26 74.5t-74 25.5h-46v217h185v23h53v-99h-160v-87q52 0 87.5 -10t57.5 -29t31.5 -46.5t9.5 -61.5z" />
    <glyph glyph-name="uni2086" unicode="&#x2086;" horiz-adv-x="360" 
d="M348 -93q0 -26 -8 -52.5t-26.5 -48.5t-49 -36t-75.5 -14q-38 0 -67.5 14.5t-50.5 41.5t-32 64.5t-11 82.5v6q1 56 19.5 104t53.5 84q25 27 51.5 42.5t55 23.5t59 10.5t65.5 3.5v-44q-54 -4 -90 -16.5t-59 -36.5q-26 -28 -36 -71t-10 -103q0 -75 16 -115.5t39 -40.5
q22 0 34.5 22t12.5 72q0 15 -2 30.5t-8 28t-16.5 21t-26.5 8.5h-21l4 44q19 4 26.5 5.5t22.5 1.5q37 0 62 -13.5t40 -34t21.5 -43.5t6.5 -41z" />
    <glyph glyph-name="uni2087" unicode="&#x2087;" horiz-adv-x="360" 
d="M232 -63q-23 -52 -50.5 -106t-59.5 -95l-73 45q44 42 71.5 85.5t50.5 95.5l82 189h-161v-39h-52v136h52v-20h255v-27z" />
    <glyph glyph-name="uni2088" unicode="&#x2088;" horiz-adv-x="360" 
d="M338 -118q0 -54 -43.5 -89.5t-121.5 -35.5q-36 0 -63 10.5t-44.5 27.5t-26.5 37.5t-9 40.5q0 29 11.5 53t36.5 43l48 35l-47 37q-20 15 -29 40t-9 48q0 19 10 38t28 34t44 24.5t58 9.5q63 0 98 -25t35 -70q0 -30 -11.5 -52t-37.5 -42l-28 -23l58 -45q26 -19 34.5 -44.5
t8.5 -51.5zM239 137q0 22 -11 35t-40 13q-21 0 -35 -13t-14 -30q0 -18 5 -34.5t23 -30.5l30 -25l18 17q14 14 19 32t5 36zM238 -129q0 23 -6 39t-26 31l-40 32l-32 -30q-16 -16 -22 -34t-6 -36q0 -26 18.5 -45.5t46.5 -19.5q32 0 49.5 18t17.5 45z" />
    <glyph glyph-name="uni2089" unicode="&#x2089;" horiz-adv-x="360" 
d="M335 25q-1 -56 -19.5 -104t-53.5 -84q-26 -27 -52 -42.5t-54.5 -24t-59.5 -11t-65 -2.5v44q54 3 90 16t59 37q26 27 36 70t10 104q0 75 -15.5 115.5t-38.5 40.5t-35.5 -22t-12.5 -72q0 -15 2 -30.5t8 -28.5t16.5 -21.5t26.5 -8.5h22l-5 -43q-10 -2 -16 -3.5t-11 -2.5
l-10 -1h-12q-37 0 -62 13.5t-40 34t-21.5 43.5t-6.5 41q0 25 8 52t26.5 49t49 36t76.5 14q37 0 66.5 -14.5t50.5 -41.5t32 -64.5t11 -82.5v-6z" />
    <glyph glyph-name="Euro" unicode="&#x20ac;" 
d="M496 32q-27 -13 -48 -21.5t-39.5 -14t-37 -7.5t-40.5 -2q-54 0 -99.5 19t-79.5 53.5t-57 82t-32 105.5h-63v38l58 11q-1 8 -1 16v16q0 27 3 53h-60v38l67 11q12 53 35 97.5t56 76.5t74.5 50t91.5 18q26 0 43.5 -3t30.5 -8t23 -12t21 -16v47h53v-199h-53v85
q-16 15 -27.5 24.5t-22 15t-22 7.5t-27.5 2q-54 0 -92 -51t-53 -133h226v-50h-232q-1 -11 -1.5 -23t-0.5 -24v-19q0 -9 1 -18h233v-50h-226q7 -43 21.5 -79.5t34.5 -63.5t44.5 -42.5t51.5 -15.5q37 0 57 11t35 36v69h54v-130z" />
    <glyph glyph-name="afii61289" unicode="&#x2113;" horiz-adv-x="402" 
d="M387 107q-28 -56 -69.5 -87t-97.5 -31q-36 0 -61.5 7t-42.5 26.5t-25 54t-8 89.5v69l-50 -36l-13 29l63 48v132q0 52 2.5 88.5t8 63t15 46.5t23.5 38q21 29 47 43.5t52 14.5q24 0 41.5 -10t29.5 -27.5t18 -41.5t6 -52q0 -41 -9 -76.5t-26.5 -68t-42 -63.5t-55.5 -62v-80
q0 -46 4 -77.5t13 -50.5t23 -27t34 -8q32 0 55.5 21t42.5 48zM193 354q32 38 52 94.5t20 120.5q0 47 -8.5 73t-27.5 26q-11 0 -18 -9t-11 -32.5t-5.5 -64.5t-1.5 -104v-104z" />
    <glyph glyph-name="trademark" unicode="&#x2122;" horiz-adv-x="999" 
d="M881 621v-246h58v-38h-203v38h53v207l-113 -245l-113 248v-210h50v-38h-151v38h58v246h-63v39h162l80 -174l83 174h162v-39h-63zM379 554v62h-93v-241h68v-38h-232v38h67v241h-97v-62h-38v120h38v-14h287v14h38v-120h-38z" />
    <glyph glyph-name="Omega" unicode="&#x2126;" horiz-adv-x="655" 
d="M601 0h-225l-8 19q14 36 31 78t32 87t25.5 91.5t10.5 91.5q0 74 -11.5 124.5t-31 82t-45.5 45t-54 13.5q-30 0 -55 -12.5t-43.5 -43.5t-29 -82.5t-10.5 -129.5q0 -44 9 -89t23 -89t31 -86t34 -81l-9 -19h-224l-22 155h30q7 -21 13.5 -34t14.5 -20t18.5 -9.5t24.5 -2.5h85
q-23 19 -50.5 45t-51 60.5t-39.5 78t-16 99.5q0 67 21 122t57 93t85.5 59t106.5 21q58 0 107 -20t84.5 -57.5t55.5 -91.5t20 -121q0 -51 -15.5 -92.5t-39 -77t-52.5 -64.5t-56 -54h95q13 0 22.5 2t17 9t14 20t13.5 35h30z" />
    <glyph glyph-name="estimated" unicode="&#x212e;" horiz-adv-x="821" 
d="M176 318q-5 0 -5 -4v-185q0 -12 8 -22q45 -46 104 -73t128 -27q73 0 135.5 30.5t107.5 81.5h55q-51 -60 -129.5 -95.5t-169.5 -35.5q-78 0 -147 26.5t-120.5 72.5t-81 108t-29.5 132t29.5 132t81 108.5t120.5 73t147 26.5q81 0 150 -27.5t120 -75t79.5 -111t28.5 -135.5
h-612zM649 528q0 14 -9 23q-45 44 -103.5 70t-125.5 26q-68 0 -127 -27t-104 -72q-9 -9 -9 -24v-182q0 -2 1.5 -4t3.5 -2h469q2 0 3 2t1 4v186z" />
    <glyph glyph-name="uni2150" unicode="&#x2150;" horiz-adv-x="900" 
d="M68 199v41h71v331l-85 -31l-16 58l208 71v-429h72v-41h-250zM314 -46h-71l313 733h70zM772 172q-23 -52 -50.5 -106t-59.5 -95l-73 45q44 42 71.5 85.5t50.5 95.5l82 189h-161v-39h-52v136h52v-20h255v-27z" />
    <glyph glyph-name="uni2151" unicode="&#x2151;" horiz-adv-x="870" 
d="M68 199v41h71v331l-85 -31l-16 58l208 71v-429h72v-41h-250zM314 -46h-71l313 733h70zM845 260q-1 -56 -19.5 -104t-53.5 -84q-26 -27 -52 -42.5t-54.5 -24t-59.5 -11t-65 -2.5v44q54 3 90 16t59 37q26 27 36 70t10 104q0 75 -15.5 115.5t-38.5 40.5t-35.5 -22t-12.5 -72
q0 -15 2 -30.5t8 -28.5t16.5 -21.5t26.5 -8.5h22l-5 -43q-10 -2 -16 -3.5t-11 -2.5l-10 -1h-12q-37 0 -62 13.5t-40 34t-21.5 43.5t-6.5 41q0 25 8 52t26.5 49t49 36t76.5 14q37 0 66.5 -14.5t50.5 -41.5t32 -64.5t11 -82.5v-6z" />
    <glyph glyph-name="uni2152" unicode="&#x2152;" horiz-adv-x="1230" 
d="M68 199v41h71v331l-85 -31l-16 58l208 71v-429h72v-41h-250zM314 -46h-71l313 733h70zM563 0v41h71v331l-85 -31l-16 58l208 71v-429h72v-41h-250zM1214 229q0 -50 -12 -93t-34 -75.5t-52 -51t-66 -18.5q-35 0 -65 18.5t-52 51t-34 75.5t-12 92q0 50 12 93.5t34 76
t51.5 51.5t65.5 19t66 -19t52 -51t34 -76t12 -93zM1106 227q0 91 -14 143t-41 52q-26 0 -41 -51t-15 -141t15 -141.5t41 -51.5q24 0 39.5 51t15.5 139z" />
    <glyph glyph-name="onethird" unicode="&#x2153;" horiz-adv-x="870" 
d="M68 199v41h71v331l-85 -31l-16 58l208 71v-429h72v-41h-250zM314 -46h-71l313 733h70zM826 132q0 -30 -13 -56t-36 -45t-53.5 -30t-65.5 -11q-49 0 -80 8.5t-57 22.5l29 53q16 -9 27.5 -14.5t21 -8.5t18 -4t18.5 -1q14 0 28.5 6t26 16.5t18.5 25.5t7 33q0 42 -20 60.5
t-55 18.5h-46v43q48 19 68.5 42t20.5 61q0 27 -14.5 42.5t-34.5 15.5q-15 0 -31.5 -5.5t-40.5 -22.5l-26 43q19 12 35 19.5t32 12.5t33.5 7t39.5 2q39 0 63 -10.5t37.5 -26t18.5 -34.5t5 -35q0 -41 -26 -68.5t-75 -38.5q25 -1 48.5 -9t40.5 -23t27.5 -37t10.5 -52z" />
    <glyph glyph-name="twothirds" unicode="&#x2154;" horiz-adv-x="900" 
d="M10 199v34l119 144q29 35 44 71.5t15 77.5q0 12 -1.5 26t-7 25t-16.5 18.5t-29 7.5q-22 0 -40 -11t-47 -35l-37 46q42 36 76.5 48.5t79.5 12.5q28 0 53.5 -7t44 -21.5t29.5 -37t11 -54.5q0 -48 -26 -90t-67 -87l-90 -99h156v44h54v-113h-321zM344 -46h-71l313 733h70z
M856 132q0 -30 -13 -56t-36 -45t-53.5 -30t-65.5 -11q-49 0 -80 8.5t-57 22.5l29 53q16 -9 27.5 -14.5t21 -8.5t18 -4t18.5 -1q14 0 28.5 6t26 16.5t18.5 25.5t7 33q0 42 -20 60.5t-55 18.5h-46v43q48 19 68.5 42t20.5 61q0 27 -14.5 42.5t-34.5 15.5q-15 0 -31.5 -5.5
t-40.5 -22.5l-26 43q19 12 35 19.5t32 12.5t33.5 7t39.5 2q39 0 63 -10.5t37.5 -26t18.5 -34.5t5 -35q0 -41 -26 -68.5t-75 -38.5q25 -1 48.5 -9t40.5 -23t27.5 -37t10.5 -52z" />
    <glyph glyph-name="uni2155" unicode="&#x2155;" horiz-adv-x="870" 
d="M68 199v41h71v331l-85 -31l-16 58l208 71v-429h72v-41h-250zM314 -46h-71l313 733h70zM827 152q0 -41 -16.5 -71.5t-42 -50t-57 -29t-61.5 -9.5q-32 0 -59 5.5t-53 22.5l32 51q22 -17 37.5 -20.5t35.5 -3.5q12 0 24 7.5t21 21t15 31t6 38.5q0 49 -26 74.5t-74 25.5h-46
v217h185v23h53v-99h-160v-87q52 0 87.5 -10t57.5 -29t31.5 -46.5t9.5 -61.5z" />
    <glyph glyph-name="uni2156" unicode="&#x2156;" horiz-adv-x="900" 
d="M10 199v34l119 144q29 35 44 71.5t15 77.5q0 12 -1.5 26t-7 25t-16.5 18.5t-29 7.5q-22 0 -40 -11t-47 -35l-37 46q42 36 76.5 48.5t79.5 12.5q28 0 53.5 -7t44 -21.5t29.5 -37t11 -54.5q0 -48 -26 -90t-67 -87l-90 -99h156v44h54v-113h-321zM344 -46h-71l313 733h70z
M857 152q0 -41 -16.5 -71.5t-42 -50t-57 -29t-61.5 -9.5q-32 0 -59 5.5t-53 22.5l32 51q22 -17 37.5 -20.5t35.5 -3.5q12 0 24 7.5t21 21t15 31t6 38.5q0 49 -26 74.5t-74 25.5h-46v217h185v23h53v-99h-160v-87q52 0 87.5 -10t57.5 -29t31.5 -46.5t9.5 -61.5z" />
    <glyph glyph-name="uni2157" unicode="&#x2157;" horiz-adv-x="870" 
d="M316 331q0 -30 -13 -56t-36 -45t-53.5 -30t-65.5 -11q-49 0 -80 8.5t-57 22.5l29 53q16 -9 27.5 -14.5t21 -8.5t18 -4t18.5 -1q14 0 28.5 6t26 16.5t18.5 25.5t7 33q0 42 -20 60.5t-55 18.5h-46v43q48 19 68.5 42t20.5 61q0 27 -14.5 42.5t-34.5 15.5q-15 0 -31.5 -5.5
t-40.5 -22.5l-26 43q19 12 35 19.5t32 12.5t33.5 7t39.5 2q39 0 63 -10.5t37.5 -26t18.5 -34.5t5 -35q0 -41 -26 -68.5t-75 -38.5q25 -1 48.5 -9t40.5 -23t27.5 -37t10.5 -52zM314 -46h-71l313 733h70zM827 152q0 -41 -16.5 -71.5t-42 -50t-57 -29t-61.5 -9.5q-32 0 -59 5.5
t-53 22.5l32 51q22 -17 37.5 -20.5t35.5 -3.5q12 0 24 7.5t21 21t15 31t6 38.5q0 49 -26 74.5t-74 25.5h-46v217h185v23h53v-99h-160v-87q52 0 87.5 -10t57.5 -29t31.5 -46.5t9.5 -61.5z" />
    <glyph glyph-name="uni2158" unicode="&#x2158;" horiz-adv-x="870" 
d="M270 305v-106h-91v106h-173v33l217 328h47v-299h84v-62h-84zM179 505l-89 -137h89v137zM314 -46h-71l313 733h70zM827 152q0 -41 -16.5 -71.5t-42 -50t-57 -29t-61.5 -9.5q-32 0 -59 5.5t-53 22.5l32 51q22 -17 37.5 -20.5t35.5 -3.5q12 0 24 7.5t21 21t15 31t6 38.5
q0 49 -26 74.5t-74 25.5h-46v217h185v23h53v-99h-160v-87q52 0 87.5 -10t57.5 -29t31.5 -46.5t9.5 -61.5z" />
    <glyph glyph-name="uni2159" unicode="&#x2159;" horiz-adv-x="870" 
d="M68 199v41h71v331l-85 -31l-16 58l208 71v-429h72v-41h-250zM314 -46h-71l313 733h70zM858 142q0 -26 -8 -52.5t-26.5 -48.5t-49 -36t-75.5 -14q-38 0 -67.5 14.5t-50.5 41.5t-32 64.5t-11 82.5v6q1 56 19.5 104t53.5 84q25 27 51.5 42.5t55 23.5t59 10.5t65.5 3.5v-44
q-54 -4 -90 -16.5t-59 -36.5q-26 -28 -36 -71t-10 -103q0 -75 16 -115.5t39 -40.5q22 0 34.5 22t12.5 72q0 15 -2 30.5t-8 28t-16.5 21t-26.5 8.5h-21l4 44q19 4 26.5 5.5t22.5 1.5q37 0 62 -13.5t40 -34t21.5 -43.5t6.5 -41z" />
    <glyph glyph-name="uni215A" unicode="&#x215a;" horiz-adv-x="870" 
d="M317 351q0 -41 -16.5 -71.5t-42 -50t-57 -29t-61.5 -9.5q-32 0 -59 5.5t-53 22.5l32 51q22 -17 37.5 -20.5t35.5 -3.5q12 0 24 7.5t21 21t15 31t6 38.5q0 49 -26 74.5t-74 25.5h-46v217h185v23h53v-99h-160v-87q52 0 87.5 -10t57.5 -29t31.5 -46.5t9.5 -61.5zM314 -46
h-71l313 733h70zM858 142q0 -26 -8 -52.5t-26.5 -48.5t-49 -36t-75.5 -14q-38 0 -67.5 14.5t-50.5 41.5t-32 64.5t-11 82.5v6q1 56 19.5 104t53.5 84q25 27 51.5 42.5t55 23.5t59 10.5t65.5 3.5v-44q-54 -4 -90 -16.5t-59 -36.5q-26 -28 -36 -71t-10 -103q0 -75 16 -115.5
t39 -40.5q22 0 34.5 22t12.5 72q0 15 -2 30.5t-8 28t-16.5 21t-26.5 8.5h-21l4 44q19 4 26.5 5.5t22.5 1.5q37 0 62 -13.5t40 -34t21.5 -43.5t6.5 -41z" />
    <glyph glyph-name="oneeighth" unicode="&#x215b;" horiz-adv-x="870" 
d="M68 199v41h71v331l-85 -31l-16 58l208 71v-429h72v-41h-250zM314 -46h-71l313 733h70zM848 117q0 -54 -43.5 -89.5t-121.5 -35.5q-36 0 -63 10.5t-44.5 27.5t-26.5 37.5t-9 40.5q0 29 11.5 53t36.5 43l48 35l-47 37q-20 15 -29 40t-9 48q0 19 10 38t28 34t44 24.5t58 9.5
q63 0 98 -25t35 -70q0 -30 -11.5 -52t-37.5 -42l-28 -23l58 -45q26 -19 34.5 -44.5t8.5 -51.5zM749 372q0 22 -11 35t-40 13q-21 0 -35 -13t-14 -30q0 -18 5 -34.5t23 -30.5l30 -25l18 17q14 14 19 32t5 36zM748 106q0 23 -6 39t-26 31l-40 32l-32 -30q-16 -16 -22 -34
t-6 -36q0 -26 18.5 -45.5t46.5 -19.5q32 0 49.5 18t17.5 45z" />
    <glyph glyph-name="threeeighths" unicode="&#x215c;" horiz-adv-x="870" 
d="M316 331q0 -30 -13 -56t-36 -45t-53.5 -30t-65.5 -11q-49 0 -80 8.5t-57 22.5l29 53q16 -9 27.5 -14.5t21 -8.5t18 -4t18.5 -1q14 0 28.5 6t26 16.5t18.5 25.5t7 33q0 42 -20 60.5t-55 18.5h-46v43q48 19 68.5 42t20.5 61q0 27 -14.5 42.5t-34.5 15.5q-15 0 -31.5 -5.5
t-40.5 -22.5l-26 43q19 12 35 19.5t32 12.5t33.5 7t39.5 2q39 0 63 -10.5t37.5 -26t18.5 -34.5t5 -35q0 -41 -26 -68.5t-75 -38.5q25 -1 48.5 -9t40.5 -23t27.5 -37t10.5 -52zM314 -46h-71l313 733h70zM848 117q0 -54 -43.5 -89.5t-121.5 -35.5q-36 0 -63 10.5t-44.5 27.5
t-26.5 37.5t-9 40.5q0 29 11.5 53t36.5 43l48 35l-47 37q-20 15 -29 40t-9 48q0 19 10 38t28 34t44 24.5t58 9.5q63 0 98 -25t35 -70q0 -30 -11.5 -52t-37.5 -42l-28 -23l58 -45q26 -19 34.5 -44.5t8.5 -51.5zM749 372q0 22 -11 35t-40 13q-21 0 -35 -13t-14 -30
q0 -18 5 -34.5t23 -30.5l30 -25l18 17q14 14 19 32t5 36zM748 106q0 23 -6 39t-26 31l-40 32l-32 -30q-16 -16 -22 -34t-6 -36q0 -26 18.5 -45.5t46.5 -19.5q32 0 49.5 18t17.5 45z" />
    <glyph glyph-name="fiveeighths" unicode="&#x215d;" horiz-adv-x="870" 
d="M317 351q0 -41 -16.5 -71.5t-42 -50t-57 -29t-61.5 -9.5q-32 0 -59 5.5t-53 22.5l32 51q22 -17 37.5 -20.5t35.5 -3.5q12 0 24 7.5t21 21t15 31t6 38.5q0 49 -26 74.5t-74 25.5h-46v217h185v23h53v-99h-160v-87q52 0 87.5 -10t57.5 -29t31.5 -46.5t9.5 -61.5zM314 -46
h-71l313 733h70zM848 117q0 -54 -43.5 -89.5t-121.5 -35.5q-36 0 -63 10.5t-44.5 27.5t-26.5 37.5t-9 40.5q0 29 11.5 53t36.5 43l48 35l-47 37q-20 15 -29 40t-9 48q0 19 10 38t28 34t44 24.5t58 9.5q63 0 98 -25t35 -70q0 -30 -11.5 -52t-37.5 -42l-28 -23l58 -45
q26 -19 34.5 -44.5t8.5 -51.5zM749 372q0 22 -11 35t-40 13q-21 0 -35 -13t-14 -30q0 -18 5 -34.5t23 -30.5l30 -25l18 17q14 14 19 32t5 36zM748 106q0 23 -6 39t-26 31l-40 32l-32 -30q-16 -16 -22 -34t-6 -36q0 -26 18.5 -45.5t46.5 -19.5q32 0 49.5 18t17.5 45z" />
    <glyph glyph-name="seveneighths" unicode="&#x215e;" horiz-adv-x="800" 
d="M232 371q-23 -52 -50.5 -106t-59.5 -95l-73 45q44 42 71.5 85.5t50.5 95.5l82 189h-161v-39h-52v136h52v-20h255v-27zM244 -46h-71l313 733h70zM778 117q0 -54 -43.5 -89.5t-121.5 -35.5q-36 0 -63 10.5t-44.5 27.5t-26.5 37.5t-9 40.5q0 29 11.5 53t36.5 43l48 35
l-47 37q-20 15 -29 40t-9 48q0 19 10 38t28 34t44 24.5t58 9.5q63 0 98 -25t35 -70q0 -30 -11.5 -52t-37.5 -42l-28 -23l58 -45q26 -19 34.5 -44.5t8.5 -51.5zM679 372q0 22 -11 35t-40 13q-21 0 -35 -13t-14 -30q0 -18 5 -34.5t23 -30.5l30 -25l18 17q14 14 19 32t5 36z
M678 106q0 23 -6 39t-26 31l-40 32l-32 -30q-16 -16 -22 -34t-6 -36q0 -26 18.5 -45.5t46.5 -19.5q32 0 49.5 18t17.5 45z" />
    <glyph glyph-name="uni215F" unicode="&#x215f;" horiz-adv-x="510" 
d="M68 199v41h71v331l-85 -31l-16 58l208 71v-429h72v-41h-250zM314 -46h-71l313 733h70z" />
    <glyph glyph-name="uni2189" unicode="&#x2189;" horiz-adv-x="870" 
d="M344 428q0 -50 -12 -93t-34 -75.5t-52 -51t-66 -18.5q-35 0 -65 18.5t-52 51t-34 75.5t-12 92q0 50 12 93.5t34 76t51.5 51.5t65.5 19t66 -19t52 -51t34 -76t12 -93zM236 426q0 91 -14 143t-41 52q-26 0 -41 -51t-15 -141t15 -141.5t41 -51.5q24 0 39.5 51t15.5 139z
M314 -46h-71l313 733h70zM826 132q0 -30 -13 -56t-36 -45t-53.5 -30t-65.5 -11q-49 0 -80 8.5t-57 22.5l29 53q16 -9 27.5 -14.5t21 -8.5t18 -4t18.5 -1q14 0 28.5 6t26 16.5t18.5 25.5t7 33q0 42 -20 60.5t-55 18.5h-46v43q48 19 68.5 42t20.5 61q0 27 -14.5 42.5
t-34.5 15.5q-15 0 -31.5 -5.5t-40.5 -22.5l-26 43q19 12 35 19.5t32 12.5t33.5 7t39.5 2q39 0 63 -10.5t37.5 -26t18.5 -34.5t5 -35q0 -41 -26 -68.5t-75 -38.5q25 -1 48.5 -9t40.5 -23t27.5 -37t10.5 -52z" />
    <glyph glyph-name="partialdiff" unicode="&#x2202;" horiz-adv-x="566" 
d="M275 419q35 0 72.5 -16t60.5 -48q4 28 7 60.5t3 62.5q0 31 -6.5 67.5t-23 67t-44.5 51t-70 20.5q-22 0 -43 -6t-40 -15.5t-36.5 -21t-31.5 -23.5q-6 0 -13.5 6t-13.5 16t-10.5 21t-4.5 22q0 12 15 21.5t38 17t50 11.5t52 4q78 0 132.5 -37t92.5 -101q16 -28 26.5 -58
t16.5 -59.5t8.5 -56.5t2.5 -49q0 -66 -15 -134.5t-48 -125t-85.5 -92t-127.5 -35.5q-44 0 -80.5 14t-62 39.5t-39.5 62t-14 81.5q0 55 19 98t51 73t73.5 46t87.5 16h1zM303 373q-26 -1 -52 -11t-49 -44q-23 -35 -33.5 -83.5t-10.5 -99.5q0 -49 21.5 -80t62.5 -31
q36 0 62.5 26.5t45 68t30.5 92.5t19 99q-5 9 -13.5 20t-21 20.5t-27.5 16t-33 6.5h-1z" />
    <glyph glyph-name="emptyset" unicode="&#x2205;" horiz-adv-x="646" 
d="M330 -12q-42 0 -77 12t-73 41l-102 -102l-40 42l101 103q-26 35 -37.5 69t-11.5 78q0 51 18.5 96t51 78t76.5 52t95 19q42 0 76 -11.5t72 -39.5l90 92l42 -42l-90 -92q28 -38 40 -73t12 -78q0 -50 -19.5 -94.5t-52.5 -77.5t-77 -52.5t-94 -19.5zM228 88q29 -19 51.5 -26
t51.5 -7q37 0 69 13.5t56 37.5t37.5 56t13.5 69q0 29 -7.5 52t-25.5 52zM155 232q0 -29 7 -51.5t24 -49.5l245 247q-26 17 -48 24t-51 7q-37 0 -69 -13.5t-56 -37.5t-38 -56.5t-14 -69.5z" />
    <glyph glyph-name="Delta" unicode="&#x2206;" horiz-adv-x="673" 
d="M36 0v32l268 624l54 13l278 -637v-32h-600zM294 522l-192 -466h389z" />
    <glyph glyph-name="product" unicode="&#x220f;" horiz-adv-x="733" 
d="M704 638q-33 -3 -52 -6.5t-28.5 -12t-11.5 -23.5t-2 -40v-516q0 -28 2.5 -44.5t12 -25.5t28 -13t50.5 -6v-31h-293v31q29 2 45.5 5.5t24.5 12t10 25.5t2 46v555q0 23 -7 28.5t-30 5.5h-181q-23 0 -28.5 -5.5t-5.5 -25.5v-558q0 -28 1 -44.5t8 -25.5t22.5 -13t43.5 -6v-31
h-286v31q31 2 49.5 6t28 13t12 25.5t2.5 44.5v516q0 25 -2.5 40.5t-12 23.5t-28.5 11.5t-52 6.5v30h678v-30z" />
    <glyph glyph-name="summation" unicode="&#x2211;" horiz-adv-x="585" 
d="M513 -86h-486v30l225 315l-219 378v31h479l13 -171l-32 -8q-8 35 -17.5 62.5t-20.5 44.5q-6 10 -12.5 16.5t-18 10.5t-29.5 6t-47 2h-172l176 -299l-227 -323h256q34 0 54.5 2.5t35.5 14.5t27.5 36t29.5 67l33 -8z" />
    <glyph glyph-name="minus" unicode="&#x2212;" horiz-adv-x="550" 
d="M25 194v81h500v-81h-500z" />
    <glyph glyph-name="uni2219" unicode="&#x2219;" horiz-adv-x="550" 
d="M434 231q0 -33 -12.5 -62t-34 -50.5t-50.5 -34t-62 -12.5t-62 12.5t-50.5 34t-34 50.5t-12.5 62t12.5 62t34 50.5t50.5 34t62 12.5t62 -12.5t50.5 -34t34 -50.5t12.5 -62z" />
    <glyph glyph-name="radical" unicode="&#x221a;" horiz-adv-x="518" 
d="M344 -159l-25 -11l-194 516l-81 -36l-12 37l168 73l133 -375h2l126 791l46 -9z" />
    <glyph glyph-name="infinity" unicode="&#x221e;" horiz-adv-x="702" 
d="M659 272q0 -38 -12.5 -68t-33 -50.5t-46.5 -31.5t-54 -11q-20 0 -39 4.5t-38.5 16t-40.5 31.5t-43 50q-35 -44 -73.5 -73t-92.5 -29q-28 0 -54 11.5t-46 31.5t-32 48.5t-12 63.5t11.5 64t31.5 49.5t48 32t60 11.5q51 0 89 -26.5t73 -71.5l7 8q13 15 28 31t33.5 29
t41 21.5t51.5 8.5q30 0 56 -10.5t45.5 -30t30.5 -47.5t11 -63zM194 178q19 0 35.5 7.5t31.5 19.5t28.5 27t26.5 31l-7 9q-13 17 -25.5 33t-26 28t-30 19t-36.5 7q-38 0 -59.5 -26.5t-21.5 -67.5q0 -36 24 -61.5t60 -25.5zM511 359q-21 0 -38.5 -9.5t-32.5 -23t-28 -29.5
t-24 -28q20 -26 36 -43t30.5 -28t29 -15.5t31.5 -4.5q18 0 32.5 8.5t24 21t14.5 28t5 30.5q0 40 -21.5 66.5t-58.5 26.5z" />
    <glyph glyph-name="integral" unicode="&#x222b;" horiz-adv-x="399" 
d="M143 383q-2 20 -2 38v37q0 106 16 174t41 106t55 52.5t59 14.5q12 0 24.5 -3.5t23 -10t17 -16t6.5 -22.5q0 -28 -16.5 -41t-36.5 -13q-14 0 -21 9t-12 20t-10 20t-13 9q-6 0 -12 -4.5t-10.5 -16.5t-7.5 -33t-3 -54v-21q0 -11 1 -24l18 -361q2 -26 2 -45v-38
q0 -103 -14.5 -172.5t-38.5 -111.5t-55.5 -59.5t-65.5 -17.5q-30 0 -50.5 15.5t-20.5 38.5q0 25 19.5 41t42.5 16q12 0 18.5 -10t11.5 -21.5t9.5 -21.5t12.5 -10q17 0 25.5 29t8.5 80v21q0 11 -1 22z" />
    <glyph glyph-name="approxequal" unicode="&#x2248;" horiz-adv-x="550" 
d="M171 133q-30 0 -62.5 -12.5t-62.5 -35.5l-42 69q40 32 81.5 49.5t76.5 17.5t82 -21l50 -22q23 -10 38.5 -14t32.5 -4q35 0 63.5 11t65.5 37l45 -71q-44 -32 -83.5 -46.5t-83.5 -14.5q-15 0 -28.5 1.5t-28 5.5t-32 11.5t-41.5 18.5t-39 15.5t-32 4.5zM171 271
q-30 0 -62.5 -12.5t-62.5 -35.5l-42 68q41 32 81.5 49.5t77.5 17.5q17 0 37.5 -5.5t43.5 -15.5l50 -21q23 -10 38.5 -14t32.5 -4q35 0 63.5 11t65.5 37l45 -71q-44 -32 -83.5 -46.5t-83.5 -14.5q-15 0 -28.5 1.5t-28 5.5t-32 11.5t-41.5 18.5t-39 15.5t-32 4.5z" />
    <glyph glyph-name="notequal" unicode="&#x2260;" horiz-adv-x="550" 
d="M255 109l-42 -103l-51 21l34 82h-171v82h205l33 81h-238v82h272l44 105l51 -20l-35 -85h168v-82h-202l-34 -81h236v-82h-270z" />
    <glyph glyph-name="lessequal" unicode="&#x2264;" horiz-adv-x="550" 
d="M511 117l-472 160v54l472 159v-75l-320 -111l320 -111v-76zM511 0h-472v82h472v-82z" />
    <glyph glyph-name="greaterequal" unicode="&#x2265;" horiz-adv-x="550" 
d="M39 117v76l320 111l-320 111v75l472 -159v-54zM39 0v82h472v-82h-472z" />
    <glyph glyph-name="dotmath" unicode="&#x22c5;" horiz-adv-x="550" 
d="M342 240q0 -28 -19.5 -47.5t-47.5 -19.5t-47.5 19.5t-19.5 47.5t19.5 47.5t47.5 19.5t47.5 -19.5t19.5 -47.5z" />
    <glyph glyph-name="filledbox" unicode="&#x25a0;" horiz-adv-x="1000" 
d="M169 0v660h660v-660h-660z" />
    <glyph glyph-name="H22073" unicode="&#x25a1;" horiz-adv-x="1000" 
d="M169 0v660h660v-660h-660zM211 42h576v576h-576v-576z" />
    <glyph glyph-name="H18543" unicode="&#x25aa;" horiz-adv-x="620" 
d="M84 0v453h452v-453h-452z" />
    <glyph glyph-name="H18551" unicode="&#x25ab;" horiz-adv-x="620" 
d="M84 0v453h452v-453h-452zM513 425h-398v-398h398v398z" />
    <glyph glyph-name="triagup" unicode="&#x25b2;" horiz-adv-x="1000" 
d="M899 -20h-730l365 695z" />
    <glyph glyph-name="uni25B4" unicode="&#x25b4;" horiz-adv-x="620" 
d="M575 -14h-503l252 480z" />
    <glyph glyph-name="uni25B5" unicode="&#x25b5;" horiz-adv-x="620" 
d="M575 -14h-503l252 480zM538 10l-214 408l-214 -408h428z" />
    <glyph glyph-name="uni25B6" unicode="&#x25b6;" horiz-adv-x="1000" 
d="M187 -38v730l695 -365z" />
    <glyph glyph-name="uni25B8" unicode="&#x25b8;" horiz-adv-x="620" 
d="M84 -25v503l480 -252z" />
    <glyph glyph-name="uni25B9" unicode="&#x25b9;" horiz-adv-x="620" 
d="M84 -25v503l480 -252zM108 12l408 214l-408 214v-428z" />
    <glyph glyph-name="triagdn" unicode="&#x25bc;" horiz-adv-x="1000" 
d="M146 674h729l-365 -696z" />
    <glyph glyph-name="uni25BE" unicode="&#x25be;" horiz-adv-x="620" 
d="M303 -13l-252 479h503z" />
    <glyph glyph-name="uni25BF" unicode="&#x25bf;" horiz-adv-x="620" 
d="M73 466h503l-252 -480zM110 442l214 -408l214 408h-428z" />
    <glyph glyph-name="uni25C0" unicode="&#x25c0;" horiz-adv-x="1000" 
d="M859 691v-729l-696 365z" />
    <glyph glyph-name="uni25C2" unicode="&#x25c2;" horiz-adv-x="620" 
d="M64 226l479 252v-503z" />
    <glyph glyph-name="uni25C3" unicode="&#x25c3;" horiz-adv-x="620" 
d="M543 478v-503l-479 251zM519 441l-408 -215l408 -213v428z" />
    <glyph glyph-name="uni25C6" unicode="&#x25c6;" horiz-adv-x="620" 
d="M62 226l248 248l248 -248l-248 -248z" />
    <glyph glyph-name="uni25C7" unicode="&#x25c7;" horiz-adv-x="620" 
d="M62 226l248 248l248 -248l-248 -248zM103 226l207 -207l207 207l-207 207z" />
    <glyph glyph-name="lozenge" unicode="&#x25ca;" horiz-adv-x="585" 
d="M334 -71h-85l-203 389l205 393h83l204 -393zM295 638h-4l-163 -319l163 -320h3l163 319z" />
    <glyph glyph-name="circle" unicode="&#x25cb;" horiz-adv-x="620" 
d="M548 226q0 -50 -19 -93.5t-51 -75.5t-76 -51t-93 -19q-50 0 -93 19t-75.5 51t-51 75.5t-18.5 93.5q0 49 18.5 93t51 76t75.5 51t93 19q49 0 93 -19t76 -51t51 -76t19 -93zM519 225q0 43 -16.5 81t-45 66.5t-66.5 45t-81 16.5q-44 0 -82 -16.5t-66 -45t-44.5 -66.5
t-16.5 -81q0 -44 16.5 -82t44.5 -66t66 -44.5t82 -16.5q43 0 81 16.5t66.5 44.5t45 66t16.5 82z" />
    <glyph glyph-name="H18533" unicode="&#x25cf;" horiz-adv-x="620" 
d="M549 226q0 -50 -19 -93.5t-51 -75.5t-76 -51t-93 -19q-50 0 -93.5 19t-75.5 51t-51 75.5t-19 93.5q0 49 19 93t51 76t75.5 51t93.5 19q49 0 93 -19t76 -51t51 -76t19 -93z" />
    <glyph glyph-name="uni25EF" unicode="&#x25ef;" horiz-adv-x="1000" 
d="M841 331q0 -71 -27 -133t-73.5 -108.5t-109 -73.5t-133.5 -27t-133 27t-108 73.5t-72.5 108.5t-26.5 133t26.5 133t72.5 108.5t108 73.5t133 27t133.5 -27t109 -73.5t73.5 -108.5t27 -133zM784 329q0 59 -22.5 111t-61 90.5t-90.5 61t-110 22.5q-59 0 -111 -22.5
t-90.5 -61t-60.5 -90.5t-22 -111t22 -110.5t60.5 -90t90.5 -61t111 -22.5q58 0 110 22.5t90.5 61t61 90t22.5 110.5z" />
    <glyph glyph-name="uni2605" unicode="&#x2605;" horiz-adv-x="920" 
d="M624 253l102 -312l-266 193l-266 -193l102 312l-266 193h329l101 312l101 -312h329z" />
    <glyph glyph-name="uni2606" unicode="&#x2606;" horiz-adv-x="920" 
d="M624 253l102 -312l-266 193l-266 -193l102 312l-266 193h329l101 312l101 -312h329zM516 383l-56 250l-56 -250l-254 25l220 -130l-102 -235l192 169l192 -169l-102 235l220 130z" />
    <glyph glyph-name="uni261A" unicode="&#x261a;" horiz-adv-x="1000" 
d="M933 259q0 -14 -14 -24.5t-28 -21.5q-6 -5 -10 -8t-8 -5.5t-9 -5.5t-13 -7q-7 -4 -12 -11t-5 -14q0 -3 4.5 -10.5t9.5 -14.5t10 -13l5 -6q14 -19 22.5 -33.5t13.5 -28.5t7 -29t2 -33q0 -14 -2 -18.5t-9 -4.5q-10 0 -15 9l-4 7q-6 10 -10 16.5t-8.5 12t-11 11t-16.5 13.5
q-23 17 -37.5 26.5t-29 15t-32.5 9.5t-47 11q-11 2 -15.5 3.5t-18.5 2.5q-10 0 -33 -13q-8 -5 -73 -35l-57 -26q-8 -4 -15 -6.5t-13 -2.5h-4q-3 1 -6.5 4t-4.5 5l16 15l24 22q12 11 23 25q6 8 10.5 18t4.5 19q0 5 -2 11q-3 5 -7.5 7.5t-9.5 3.5t-8.5 1t-3.5 2q0 3 4.5 5
t9.5 7q5 8 8.5 13.5t3.5 17.5q0 11 -9 14.5t-14 4.5h-13q-7 0 -7 3t8.5 11t8.5 19v4q-2 11 -13.5 13t-19.5 4q-12 4 -33 4l-20 -1q-8 0 -23 -1.5t-26 -3.5q-8 -2 -18.5 -5t-20.5 -6.5t-17.5 -6t-8.5 -2.5q-11 0 -18.5 1t-12.5 1q-28 0 -44.5 1.5t-39.5 6.5q-8 2 -20.5 5
t-16.5 3l-31 2q-20 2 -31.5 11.5t-11.5 24.5q0 28 34 35q16 4 35.5 7t38.5 5t36.5 3.5t30.5 1.5h15q9 0 17.5 0.5t14.5 0.5h10q4 -2 15 -9.5t18 -8.5q4 0 8 -2t10 -4t14.5 -4t21.5 -3q9 0 20.5 3t15.5 4q11 -5 19.5 -10.5t19.5 -7.5q12 -8 24.5 -19.5t24.5 -19.5q6 1 6 4
q0 4 -4 7.5t-9.5 6.5t-9.5 6.5t-4 9.5q14 5 27 14.5t13 14.5q0 2 -4 3q-8 0 -21 -9.5t-23 -9.5q-13 1 -27 10t-28 14q-3 1 -8 1q-7 0 -13.5 -1.5t-11.5 -3.5q-6 -2 -10 -2q-11 0 -23 3.5t-15 5.5q-12 4 -20 7t-20 14q-14 13 -16 33t-2 30q0 6 4.5 18.5t12.5 12.5q5 0 11 -6
t17 -8l30 -4q11 3 18 5t16 2l11 -1q23 -2 49 -12t40 -14q11 -3 20.5 -4t19 -3t20 -6.5t23.5 -13.5q14 -11 23.5 -17t16.5 -9.5t13 -4.5t12 -1q8 0 22.5 2t29.5 5t28.5 6t20.5 5q13 4 31 14.5t36 24t33.5 28t23.5 26.5q2 3 9 14t14 11t11.5 -6.5t4.5 -17.5q0 -17 -5 -38
t-12 -32q-8 -13 -19 -28.5t-19 -31.5q-5 -5 -9 -10t-4 -11q0 -8 8 -14t34 -19q29 -14 40 -22t11 -19zM716 224q1 25 -2 49t-5 49q-1 20 -4.5 27.5t-12.5 7.5q-8 0 -15.5 -1.5t-15.5 -3.5q-1 -5 -1 -8v-5q0 -3 -0.5 -9t-0.5 -15q0 -33 3.5 -66.5t4.5 -66.5q0 -3 -0.5 -12
t-0.5 -18q0 -8 0.5 -14t2.5 -8q1 0 13 -2.5t18 -2.5q8 0 10.5 5.5t2.5 20.5zM502 201q2 -4 2 -7q0 -5 -3 -9.5t-7 -9.5l-12 -11l-22 -18q-11 -9 -21 -19q-11 -8 -26.5 -18t-29.5 -10q-6 0 -9 1q-9 3 -16 10.5t-12.5 16.5t-9 18.5t-5.5 16.5q14 3 24 6t25 8q12 4 17.5 6.5
t9.5 4.5l24 9q6 2 19 5.5t18 5.5q4 2 13 2q6 0 12.5 -1.5t8.5 -6.5zM473 256q4 -3 4 -6q0 -5 -6 -12t-8 -9q-1 -1 -6.5 -3.5t-12 -5.5t-13 -6.5t-9.5 -4.5l-15 -6l-19 -7q-9 -3 -17.5 -6t-11.5 -4q-1 0 -8 -2.5t-15 -2.5q-10 0 -16 5t-9 11q-2 4 -3 8t-3 8q-2 6 -4 13t-3 15
q6 2 13 3t12 3q23 10 47.5 14t55.5 4q15 0 28 -2t19 -7zM509 134q1 -1 1 -5q0 -5 -2.5 -9.5t-4.5 -9.5q-3 -6 -10 -14t-15 -16t-15 -14.5t-12 -10.5q-9 -9 -18 -9q-8 0 -14 6q-5 5 -8 13t-7 14l-3 5q8 5 14.5 8t17.5 11l3 2l29 25q4 3 7 6.5t6 5.5l8 6q5 -1 13 -5t10 -9z
" />
    <glyph glyph-name="uni261B" unicode="&#x261b;" horiz-adv-x="1000" 
d="M933 308q0 -15 -11.5 -24.5t-31.5 -11.5l-31 -2q-4 0 -16.5 -3t-20.5 -5q-23 -5 -39.5 -6.5t-44.5 -1.5q-5 0 -12.5 -1t-18.5 -1q-1 0 -8.5 2.5t-17.5 6t-21 6.5t-18 5q-11 2 -26 3.5t-23 1.5l-20 1q-21 0 -33 -4q-8 -2 -19.5 -4t-13.5 -13v-4q0 -11 8.5 -19t8.5 -12
q0 -2 -5 -2h-15q-5 -1 -14 -4.5t-9 -14.5q0 -12 3.5 -17.5t8.5 -13.5q5 -5 9.5 -7t4.5 -6q0 -1 -3.5 -1.5t-8.5 -1t-9.5 -3t-7.5 -7.5q-2 -6 -2 -11q0 -9 4.5 -19t10.5 -18q11 -14 23 -25l24 -22l16 -15q-1 -2 -4.5 -5t-6.5 -4h-4q-6 0 -13 2.5t-15 6.5l-57 26
q-65 30 -73 35q-23 13 -35 13q-12 -1 -16.5 -2.5t-15.5 -3.5q-29 -7 -47 -11t-32.5 -9.5t-29 -15t-37.5 -26.5q-11 -8 -17 -13.5t-10.5 -11t-8.5 -12t-10 -16.5l-4 -7q-5 -9 -15 -9q-7 0 -9 4.5t-2 18.5q0 18 2 33t7 29t13.5 28.5t22.5 33.5l5 6q5 6 10 13t9.5 14.5
t4.5 10.5q0 7 -5 14t-12 11q-11 5 -22 11.5t-20 15.5q-5 5 -12 9.5t-13 10t-10.5 11.5t-4.5 14q0 11 11 19t40 22q26 13 34 19t8 14q0 6 -4.5 11.5t-10.5 11.5q-7 14 -17.5 29.5t-18.5 28.5q-7 11 -12 32t-5 38q0 11 4.5 17.5t11.5 6.5t14 -11t9 -14q8 -12 23.5 -26.5
t33.5 -28t36 -24t31 -14.5q7 -2 20.5 -5t28.5 -6t29.5 -5t22.5 -2q6 0 12 1t13 4.5t16.5 9.5t23.5 17q13 9 23.5 13.5t20 6.5t19 3t20.5 4q14 4 40 14t49 12l11 1q9 0 16 -2t18 -5l30 4q11 2 17 8t11 6q8 0 12.5 -12.5t4.5 -19.5q0 -9 -2 -29t-16 -33q-12 -11 -20 -14
t-20 -7q-3 -2 -15 -5.5t-23 -3.5q-4 0 -10 2q-5 2 -11.5 3.5t-13.5 1.5q-6 0 -8 -1q-14 -5 -28 -14t-27 -10q-10 0 -23.5 9.5t-22.5 9.5q-2 -2 -2 -3q0 -5 13.5 -14.5t27.5 -16.5q0 -3 -4.5 -6.5t-9.5 -7.5t-9.5 -7.5t-4.5 -6.5t6 -4q12 8 24.5 19.5t24.5 19.5
q11 2 19.5 7.5t19.5 10.5l16 -4q12 -3 22 -3q24 2 34 7t18 6q7 1 18 8.5t15 9.5h9q7 0 15.5 -0.5t16.5 -0.5h16q13 0 30.5 -1.5t36.5 -3.5t38.5 -5t35.5 -7q34 -7 34 -35zM341 315q0 6 -0.5 11.5t-0.5 12.5q0 2 -0.5 5t-0.5 8q-8 2 -15.5 3.5t-15.5 1.5q-9 0 -12.5 -7.5
t-4.5 -27.5q-2 -21 -5 -45t-2 -45l3 -81q0 -15 2.5 -20.5t10.5 -5.5q6 0 18 2.5t13 2.5q2 2 2.5 8t0.5 14q0 9 -0.5 18t-0.5 12q1 33 4.5 66.5t3.5 66.5zM669 162q-2 -7 -5.5 -16.5t-9 -18.5t-12.5 -16.5t-16 -10.5q-3 -1 -9 -1q-14 0 -29.5 10t-26.5 18q-10 10 -21 19
l-22 18l-13 12q-4 5 -6.5 9t-2.5 9q0 3 2 7q2 5 8.5 6.5t12.5 1.5q9 0 13 -2q5 -2 18 -5.5t19 -5.5l24 -9q4 -2 9.5 -4.5t17.5 -6.5q15 -5 25 -8t24 -6zM699 228q-1 -7 -4 -15q-2 -4 -3 -8t-3 -8q-3 -6 -9 -11t-16 -5q-8 0 -15 2.5t-8 2.5q-26 9 -38 14t-26 10
q-11 4 -22.5 8.5t-18.5 11.5q-3 3 -8 9t-5 11q0 3 4 6q6 5 19 7t28 2q31 0 55.5 -4t47.5 -14q5 -2 12 -3t13 -3zM596 79q-4 -6 -7 -14t-8 -13q-6 -6 -14 -6q-9 0 -18 9q-5 4 -12 10.5t-15 14.5t-15 16t-10 14q-2 5 -4.5 9.5t-2.5 9.5q0 4 1 5q2 5 10 9t13 5l50 -43l3 -2
q11 -8 17.5 -11t14.5 -8z" />
    <glyph glyph-name="uni261C" unicode="&#x261c;" horiz-adv-x="1000" 
d="M934 259q0 -7 -4.5 -14t-11 -13.5t-13.5 -11.5t-13 -7q-6 -5 -10 -8t-8 -5.5t-9 -5.5t-13 -7q-7 -4 -12 -11t-5 -14q0 -3 4.5 -10.5t9.5 -14.5t10 -13l5 -6q14 -19 22.5 -33.5t13.5 -28.5t7 -29t2 -33q0 -14 -2 -18.5t-9 -4.5q-10 0 -15 9l-4 7q-6 10 -10 16.5t-8.5 12
t-11 11t-16.5 13.5q-23 17 -37.5 26.5t-29 15t-32.5 9.5t-47 11q-24 6 -32 6q-11 0 -37 -13q-29 -15 -56 -28t-48.5 -22t-36.5 -14.5t-21 -5.5q-26 0 -42 30l-9 16q-3 6 -7 10t-10 7t-17 10q-15 9 -23.5 18.5t-14.5 26.5q-4 11 -6.5 17.5t-3.5 8.5q-8 13 -12 18t-6.5 9
t-4.5 9.5t-7 19.5l-3 9q-1 3 -2 10t-4 9q-10 5 -34 6t-51 3l-78 7q-55 5 -55 40q0 10 9 22t27 17q23 6 58 10t80 4q6 0 13 -0.5t16 -0.5h27q6 0 14 -2q0 2 -7.5 11t-9.5 14q0 1 -0.5 2t-0.5 2q-2 11 -4 19.5t-2 20.5q0 7 4 18.5t13 11.5q5 0 7.5 -2.5t7.5 -5.5q10 -7 37 -7
l57 7q20 0 43.5 -6t46.5 -14q1 0 2 -0.5t2 -0.5q10 -3 20 -4t19 -1.5t17.5 -2.5t15.5 -7q29 -21 40.5 -31.5t24.5 -10.5q5 0 14.5 0.5t17.5 2.5l71 15q13 4 31 14.5t36 24t33.5 28t23.5 26.5q2 3 9 14t14 11t11.5 -6.5t4.5 -17.5q0 -17 -5 -38t-12 -32q-8 -13 -19 -28.5
t-19 -31.5q-5 -5 -9 -10t-4 -11q0 -8 8 -14t34 -19q29 -14 40 -22t11 -19zM635 170q0 2 -0.5 5.5t-1 15t-1.5 35t-3 65.5q-2 26 -7 41t-12 20l-58 43q-8 5 -20.5 4.5t-29.5 4.5q-22 8 -44 14.5t-35 6.5q-5 0 -10 -2.5t-23 -4.5l-13 -10q-2 -4 -4 -12t-9 -8q-2 0 -5 5.5
t-7 12.5t-10 12.5t-14 5.5h-10q-5 0 -7 -3.5t-2 -18.5q0 -5 5 -11.5t10 -14.5q16 -13 32 -15.5t39 -5.5q5 0 12.5 3.5t15.5 3.5q4 0 6 -1q14 -6 26.5 -17.5t25.5 -12.5q9 0 21.5 5t20.5 5q3 0 4 -1q3 -2 3 -4q0 -5 -9 -10.5t-23 -11.5q0 -6 9.5 -15t9.5 -14q0 -4 -7 -5
q-12 8 -24.5 16.5t-24.5 16.5q-11 2 -19.5 10.5t-19.5 13.5l-16 -4q-12 -3 -22 -3q-24 2 -34 7.5t-18 5.5h-19q-17 0 -36.5 -1t-51.5 -3q-27 -2 -45.5 -1.5t-31.5 -1.5q-17 -2 -33.5 -10.5t-16.5 -19.5q0 -7 9.5 -11.5t14.5 -5.5t9 -1h9q9 0 12.5 1t5 2.5t2 2.5t3.5 1
t4.5 -1.5t4.5 -3.5t9 -4t18 -2h6q10 0 14.5 1t7 2t4.5 2t5 1t5 -2t7.5 -4.5t16.5 -4.5t31 -2q7 0 12 4t8.5 9t6 9t5.5 4h1q1 1 3 1t3 -1q2 -1 2 -4l-1 -9q0 -4 2 -6q3 -3 5 -3t3.5 0.5t4.5 0.5h7q14 2 30 3.5t32 1.5q11 0 21.5 -1t18.5 -4q1 -1 6 -1.5t10.5 -3t10 -7
t6.5 -13.5v-5q0 -10 -5 -17t-5 -11q0 -2 3 -2l11 1q4 -2 12.5 -3.5t9.5 -18.5v-6q0 -5 -1.5 -12.5t-7.5 -13.5q-2 -2 -6 -3.5t-4 -5.5q0 -2 9.5 -5t12.5 -11q1 -2 1 -8q0 -9 -3.5 -20.5t-10.5 -19.5l-21 -21q-6 -6 -10.5 -12t-4.5 -9q3 0 14 5t24 11.5t26 13.5t20 10
q28 12 43.5 20t23 15.5t9.5 16.5t2 24zM714 224q1 18 -2 45.5t-5 52.5q-1 20 -4.5 27.5t-12.5 7.5q-8 0 -15.5 -1.5t-15.5 -3.5q-1 -5 -1 -8v-5q0 -3 -0.5 -9t-0.5 -15q0 -33 3.5 -66.5t4.5 -66.5q0 -3 -0.5 -12t-0.5 -18q0 -8 0.5 -14t2.5 -8q1 0 13 -2.5t18 -2.5
q8 0 10.5 5.5t2.5 20.5zM456 232q4 4 4 10t-3.5 11.5t-8.5 7.5q-9 4 -21 5.5t-24 1.5q-11 0 -20 -1t-17 -4q-14 -2 -22 -2t-18 -10t-10 -22q0 -15 15 -25.5t29 -10.5q6 0 14 3t17 7.5t17.5 9t14.5 6.5q8 4 17.5 5.5t15.5 7.5zM485 198q-10 10 -22 10l-5 -1q-3 -1 -12.5 -3.5
t-15.5 -4.5q1 0 -3 -1t-10.5 -3.5t-13.5 -5t-11 -4.5q-3 -2 -13 -6q-12 -5 -18 -5q-2 -2 -5 -6.5t-3 -9.5q0 -16 13 -27q7 -6 16.5 -10.5t23.5 -4.5q11 1 19 10t16 14q12 12 20.5 17t17.5 19q2 3 4.5 8t2.5 10q0 3 -1 4zM486 104q3 4 4.5 9t1.5 10q0 8 -3.5 13.5t-11.5 6.5
q-4 -2 -12.5 -8.5t-17.5 -14.5t-16 -15t-7 -10q0 -4 0.5 -10.5t3.5 -11.5q4 -5 9.5 -8t9.5 -4q4 0 14.5 12.5t24.5 30.5z" />
    <glyph glyph-name="uni261D" unicode="&#x261d;" horiz-adv-x="700" 
d="M370 -195q-7 0 -14 4.5t-13.5 11t-11.5 13.5t-7 13q-5 6 -8 10t-5.5 8t-5.5 9t-7 13q-4 7 -11 12t-14 5q-3 0 -10.5 -4.5t-14.5 -9.5t-13 -10l-6 -5q-19 -14 -33.5 -22.5t-28.5 -13.5t-29 -7t-33 -2q-14 0 -18.5 2t-4.5 9q0 10 9 15l7 4q10 6 16.5 10t12 8.5t11 10.5
t13.5 17q17 23 26.5 37.5t15 29t9.5 32.5t11 47q6 24 6 32q0 11 -13 37q-15 29 -28 56t-22 48.5t-14.5 36.5t-5.5 21q0 26 30 42l16 9q6 3 10 7t7 10t10 17q9 15 18.5 23.5t26.5 14.5q11 4 17.5 6.5t8.5 3.5q13 8 18 12t9 6.5t9.5 4.5t19.5 7l9 3q3 1 10 2t9 4q5 10 6 34
t3 51l7 78q5 55 40 55q10 0 22 -9t17 -27q6 -23 10 -58t4 -80q0 -6 -0.5 -13t-0.5 -16v-28q0 -5 -2 -13q2 0 11 7.5t14 9.5q1 0 2 0.5t2 0.5q11 2 19.5 4t20.5 2q7 0 18.5 -4t11.5 -13q0 -5 -2.5 -7.5t-5.5 -7.5q-7 -11 -7 -37l7 -57q0 -20 -6 -43.5t-14 -46.5q0 -1 -0.5 -2
t-0.5 -2q-3 -10 -4 -20t-1.5 -19t-2.5 -17.5t-7 -15.5q-21 -29 -31.5 -40.5t-10.5 -24.5q0 -5 0.5 -14.5t2.5 -17.5l15 -71q4 -13 14.5 -31t24 -36t28 -33.5t26.5 -23.5q3 -2 14 -9t11 -14t-6.5 -11.5t-17.5 -4.5q-17 0 -38 5t-32 12q-13 8 -28.5 19t-31.5 19q-5 5 -10 9
t-11 4q-8 0 -14 -8t-19 -34q-14 -29 -22 -40t-19 -11zM281 104q2 0 5.5 0.5t15 1t35 1.5t65.5 3q26 2 41 7t20 12l43 58q5 8 4.5 20.5t4.5 29.5q8 22 14.5 44t6.5 35q0 5 -2.5 10t-4.5 23l-10 13q-4 2 -12 4t-8 9q0 2 5.5 5t12.5 7t12.5 10t5.5 14v10q0 5 -3.5 7t-18.5 2
q-5 0 -11.5 -5t-14.5 -10q-13 -16 -15.5 -32t-5.5 -39q0 -5 3.5 -12.5t3.5 -15.5q0 -4 -1 -6q-6 -14 -17.5 -26.5t-12.5 -25.5q0 -9 5 -21.5t5 -20.5q0 -3 -1 -4q-2 -3 -4 -3q-5 0 -10.5 9t-11.5 23q-6 0 -15 -9.5t-14 -9.5q-4 0 -5 7q8 12 16.5 24.5t16.5 24.5
q2 11 10.5 19.5t13.5 19.5l-4 16q-3 12 -3 22q2 24 7.5 34t5.5 18v19q0 17 -1 36.5t-3 51.5q-2 27 -1.5 45.5t-1.5 31.5q-2 17 -10.5 33.5t-19.5 16.5q-7 0 -11.5 -9.5t-5.5 -14.5t-1 -10v-8q0 -9 1 -12.5t2.5 -5t2.5 -2t1 -3.5t-1.5 -4.5t-3.5 -4.5t-4 -9t-2 -18v-6
q0 -10 1 -14.5t2 -7t2 -4.5t1 -5t-2 -5t-4.5 -7.5t-4.5 -16.5t-2 -31q0 -7 4 -12t9 -8.5t9 -6t4 -5.5v-2q1 0 1 -2t-1 -3q-1 -2 -4 -2l-9 1q-4 0 -6 -2q-3 -3 -3 -5t0.5 -3.5t0.5 -4.5v-7q2 -14 3.5 -30t1.5 -32q0 -11 -1 -21.5t-4 -18.5q-1 -2 -1.5 -6.5t-3 -10t-7 -10.5
t-13.5 -6h-5q-10 0 -17 5t-11 5q-2 0 -2 -3l1 -11q-2 -4 -3.5 -12.5t-18.5 -9.5h-6q-5 0 -12.5 1.5t-13.5 7.5q-2 2 -3.5 6t-5.5 4q-2 0 -5 -9.5t-11 -12.5q-2 -1 -8 -1q-9 0 -20.5 3.5t-19.5 10.5l-21 21q-6 6 -12 10.5t-9 4.5q0 -3 5 -14t11.5 -24t13.5 -26t10 -20
q12 -28 20 -43.5t15.5 -23t16.5 -9.5t24 -2zM335 25q18 -1 45.5 2t52.5 5q20 1 27.5 4.5t7.5 12.5q0 8 -1.5 15.5t-3.5 15.5q-5 1 -8 1h-5q-3 0 -9 0.5t-15 0.5q-33 0 -66.5 -3.5t-66.5 -4.5q-3 0 -12 0.5t-18 0.5q-8 0 -14 -0.5t-8 -2.5q0 -1 -2.5 -13t-2.5 -18
q0 -8 5.5 -10.5t20.5 -2.5zM343 283q4 -4 10 -4t11.5 3.5t7.5 8.5q4 9 5.5 21t1.5 24q0 11 -1 20t-4 17q-2 14 -2 22t-10 18t-22 10q-15 0 -25.5 -15t-10.5 -29q0 -6 3 -14t7.5 -17t9 -17.5t6.5 -14.5q4 -8 5.5 -17.5t7.5 -15.5zM309 254q10 10 10 22l-1 5l-4 12q-2 9 -4 15
q0 1 -1 4q-1 4 -3.5 10.5t-5 13.5t-4.5 11q-2 3 -6 13q-5 12 -5 18q-2 2 -6.5 5t-9.5 3q-16 0 -27 -13q-6 -7 -10.5 -16.5t-4.5 -23.5q1 -11 10 -19t14 -16q12 -12 17 -20.5t19 -17.5q3 -2 8 -4.5t10 -2.5q3 0 4 1zM215 253q4 -3 9 -4.5t10 -1.5q8 0 13.5 3.5t6.5 11.5
q-2 4 -8.5 12.5t-14.5 17.5t-15 16t-10 7q-4 0 -10.5 -0.5t-11.5 -3.5q-5 -4 -8 -9.5t-4 -9.5q0 -4 12.5 -14.5t30.5 -24.5z" />
    <glyph glyph-name="uni261E" unicode="&#x261e;" horiz-adv-x="1000" 
d="M934 309q0 -35 -55 -40l-78 -7q-27 -2 -51 -3t-34 -6q-3 -2 -4 -9t-2 -10l-8 -21q-2 -7 -4 -11.5t-3.5 -7t-4.5 -6.5q-2 -3 -5 -7t-8 -12q-1 -2 -3.5 -8.5t-6.5 -17.5q-6 -17 -14.5 -26.5t-23.5 -18.5q-11 -7 -17 -10t-10 -7t-7 -10l-9 -16q-16 -30 -42 -30q-6 0 -21 5.5
t-36.5 14.5t-48.5 22t-56 28q-26 13 -37 13q-8 0 -32 -6q-29 -7 -47 -11t-32.5 -9.5t-29 -15t-37.5 -26.5q-11 -8 -17 -13.5t-10.5 -11t-8.5 -12t-10 -16.5l-4 -7q-5 -9 -15 -9q-7 0 -9 4.5t-2 18.5q0 18 2 33t7 29t13.5 28.5t22.5 33.5l5 6q5 6 10 13t9.5 14.5t4.5 10.5
q0 7 -5 14t-12 11q-11 5 -22 11.5t-20 15.5q-5 5 -12 9.5t-13 10t-10.5 11.5t-4.5 14q0 11 11 19t40 22q26 13 34 19t8 14q0 6 -4.5 11.5t-10.5 11.5q-7 14 -17.5 29.5t-18.5 28.5q-7 11 -12 32t-5 38q0 11 4.5 17.5t11.5 6.5t14 -11t9 -14q8 -12 23.5 -26.5t33.5 -28
t36 -24t31 -14.5l71 -15q8 -2 17.5 -2.5t14.5 -0.5q13 0 24.5 10.5t40.5 31.5q7 5 15.5 7t17.5 2.5t19 1.5t20 4q1 0 2 0.5t2 0.5q23 8 46.5 14t43.5 6l57 -7q26 0 37 7q5 3 7.5 5.5t7.5 2.5q9 0 13 -11.5t4 -18.5q0 -12 -2 -20.5t-4 -19.5q0 -1 -0.5 -2t-0.5 -2
q-2 -5 -9.5 -14t-6.5 -11q7 2 12 2h28q9 0 16 0.5t13 0.5q45 0 80 -4t58 -10q18 -5 27 -17t9 -22zM902 306q0 11 -16.5 19.5t-33.5 10.5q-13 2 -31.5 1.5t-45.5 1.5q-29 2 -48 3t-40 1h-19q-8 0 -18.5 -5.5t-35.5 -7.5q-9 0 -20.5 3t-15.5 4q-11 -5 -19.5 -13.5t-19.5 -10.5
q-12 -8 -24.5 -16.5t-24.5 -16.5q-7 1 -7 5l18 31q-13 5 -22 10t-9 10q0 2 3 4q1 1 4 1q8 0 20.5 -5t21.5 -5q13 1 25.5 12.5t26.5 17.5q2 1 6 1q7 0 15 -3.5t15 -3.5q22 3 37.5 5.5t31.5 15.5q5 8 10 14.5t5 11.5q0 15 -2 18.5t-7 3.5h-10q-8 0 -14 -5.5t-10 -12.5
t-7 -12.5t-5 -5.5q-7 0 -9 8t-4 12l-13 10q-18 2 -23 4.5t-10 2.5q-13 0 -35 -6.5t-44 -14.5q-17 -5 -29.5 -4.5t-20.5 -4.5l-58 -43q-7 -5 -12 -20t-7 -41q-2 -42 -3 -65.5t-1.5 -35t-1 -15t-0.5 -5.5q0 -15 2 -24t9.5 -16.5t23 -15.5t43.5 -20q7 -3 20 -10t26 -13.5
t24 -11.5t15 -5q1 3 -12 14.5t-25 27.5q-7 8 -10.5 19.5t-3.5 20.5q0 6 1 8q3 8 12.5 11t9.5 6t-4 4.5t-6 3.5q-6 6 -7.5 13.5t-1.5 12.5v6q1 17 9.5 18.5t12.5 3.5h10q4 0 4 2q0 3 -5 10.5t-5 17.5v4q1 9 6 13.5t10.5 7t10 3t6.5 1.5q8 3 18.5 4t21.5 1q16 0 32 -1.5
t30 -3.5h7q2 0 4 -0.5t4 -0.5t5 3q2 2 2 6l-1 9q0 2 2 4q1 1 3 1t2 -1h2q3 0 5.5 -4t6 -9t8.5 -9t13 -4q20 0 30.5 2t16 4.5t8 4.5t6.5 2q3 0 4 -1t3.5 -2t7 -2t14.5 -1h6q12 0 18 2t9 4t5 3.5t5 1.5q5 0 5 -3.5t17 -3.5h8q5 0 10 1t14.5 5.5t9.5 11.5zM343 329q0 4 -1 10
q0 2 -0.5 5t-0.5 8q-8 2 -15.5 3.5t-15.5 1.5q-9 0 -12.5 -7.5t-5.5 -27.5q0 -8 -1 -19t-2 -23.5t-2 -24t-1 -18.5q0 -14 0.5 -24t1 -19t1 -19t0.5 -24q0 -15 2.5 -20.5t10.5 -5.5q6 0 18 2.5t13 2.5q2 2 2.5 8t0.5 14q0 9 -0.5 18t-0.5 12q1 33 4.5 66.5t3.5 66.5v14z
M684 229q0 12 -10 22t-18 10t-22 2q-8 3 -17 4t-20 1q-12 0 -24 -1.5t-21 -5.5q-5 -2 -8.5 -7.5t-3.5 -11.5t4 -10q6 -6 15.5 -7.5t17.5 -5.5q6 -2 14.5 -6.5t17.5 -9t17 -7.5t14 -3q14 0 29 10.5t15 25.5zM647 158q0 5 -3 9.5t-5 6.5q-6 0 -18 5q-10 4 -13 6
q-9 4 -22.5 8.5t-15.5 5.5q-6 2 -15.5 4.5t-12.5 3.5l-5 1q-12 0 -22 -10q-1 -1 -1 -4q0 -5 2.5 -10t4.5 -8q9 -14 17.5 -19t20.5 -17q8 -5 16 -14t22 -10q11 0 20.5 4.5t16.5 10.5q13 11 13 27zM576 95q0 3 -7 10t-16 15t-17.5 14.5t-12.5 8.5q-8 -1 -11.5 -6.5t-3.5 -13.5
q0 -5 1.5 -10t4.5 -9q14 -18 24.5 -30.5t15.5 -12.5q3 1 8.5 4t9.5 8q3 5 3.5 11.5t0.5 10.5z" />
    <glyph glyph-name="uni261F" unicode="&#x261f;" horiz-adv-x="700" 
d="M419 -195q-35 0 -40 55l-7 78q-2 27 -3 51t-6 34q-2 3 -9 4t-10 2l-21 7q-7 3 -11.5 5t-7 3.5t-6.5 4.5q-3 2 -7 5t-12 8q-2 1 -8.5 3.5t-17.5 6.5q-17 6 -26.5 14.5t-18.5 23.5q-7 11 -10 17t-7 10t-10 7l-16 9q-30 16 -30 42q0 6 5.5 21t14.5 36.5t22 48.5t28 56
q13 26 13 37q0 8 -6 32q-7 29 -11 47t-9.5 32.5t-15 29t-26.5 37.5q-8 10 -13.5 16.5t-11 11t-12 8.5t-16.5 10l-7 4q-9 5 -9 15q0 7 4.5 9t18.5 2q18 0 33 -2t29 -7t28.5 -13.5t33.5 -22.5l6 -5q6 -5 13 -10t14.5 -9.5t10.5 -4.5q7 0 14 5t11 12q5 11 11.5 22t15.5 20
q5 5 9.5 12t10 13t11.5 10.5t14 4.5q11 0 19 -11t22 -40q13 -26 19 -34t14 -8q6 0 11.5 4.5t11.5 10.5q14 7 29.5 17.5t28.5 18.5q11 7 32 12t38 5q11 0 17.5 -4.5t6.5 -11.5t-11 -14t-14 -9q-12 -8 -26.5 -23.5t-28 -33.5t-24 -36t-14.5 -31l-15 -71q-2 -8 -2.5 -17.5
t-0.5 -14.5q0 -13 10.5 -24.5t31.5 -40.5q5 -7 7 -15.5t2.5 -17.5t1.5 -19t4 -20q0 -1 0.5 -2t0.5 -2q8 -23 14 -46.5t6 -43.5l-7 -57q0 -27 7 -37q3 -5 5.5 -7.5t2.5 -7.5q0 -9 -11.5 -13t-18.5 -4q-12 0 -20.5 2t-19.5 4q-1 0 -2 0.5t-2 0.5q-5 2 -14 9.5t-11 6.5
q2 -7 2 -13v-27q0 -9 0.5 -16t0.5 -13q0 -45 -4 -80t-10 -58q-5 -18 -17 -27t-22 -9zM416 -163q11 0 19.5 16.5t10.5 33.5q2 13 1.5 31.5t1.5 45.5q2 29 3 48t1 40v19q0 4 -1.5 8t-4 10t-4.5 14.5t-3 21.5q0 9 3 20.5t4 15.5q-5 11 -13.5 19.5t-10.5 19.5q-8 12 -16.5 24.5
t-16.5 24.5q1 7 5 7l31 -18q5 13 10 22t10 9q2 0 4 -3q1 -1 1 -4q0 -8 -5 -20.5t-5 -21.5q1 -13 12.5 -25.5t17.5 -26.5q1 -2 1 -6q0 -7 -3.5 -15t-3.5 -15q3 -22 5.5 -37.5t15.5 -31.5q8 -5 14.5 -10t11.5 -5q15 0 18.5 2t3.5 7v10q0 8 -5.5 14t-12.5 10t-12.5 7t-5.5 5
q0 7 8 9t12 4l10 13q2 18 4.5 23t2.5 10q0 13 -6.5 35t-14.5 44q-5 17 -4.5 29.5t-4.5 20.5l-43 58q-5 7 -20 12t-41 7q-42 2 -65.5 3t-35 1.5t-15 1t-5.5 0.5q-15 0 -24 -2t-16.5 -9.5t-15.5 -23t-20 -43.5q-3 -7 -10 -20t-13.5 -26t-11.5 -24t-5 -15q3 -1 14.5 12t27.5 25
q8 7 19.5 10.5t20.5 3.5q6 0 8 -1q8 -3 11 -12.5t6 -9.5t4.5 4t3.5 6q6 6 13.5 7.5t12.5 1.5h6q17 -1 18.5 -9.5t3.5 -12.5v-10q0 -4 2 -4q3 0 10.5 5t17.5 5h4q9 -2 13.5 -6.5t7 -10t3 -10.5t1.5 -6q3 -8 4 -18.5t1 -21.5q0 -16 -1.5 -32t-3.5 -30v-7q0 -2 -0.5 -4t-0.5 -4
t3 -5q2 -2 6 -2l9 1q2 0 4 -2q1 -1 1 -3t-1 -3v-1q0 -3 -4 -5.5t-9 -6t-9 -9t-4 -12.5q0 -20 2 -30.5t4.5 -16t4.5 -8t2 -6.5q0 -5 -3 -7.5t-3 -21.5v-6q0 -12 2 -18t4 -9t3.5 -5t1.5 -5q0 -5 -3.5 -5t-3.5 -17v-8q0 -5 1 -10t5.5 -14.5t11.5 -9.5zM439 396q4 0 10 1
q2 0 5 0.5t8 0.5q2 8 3.5 15.5t1.5 15.5q0 9 -7.5 12.5t-27.5 5.5q-8 0 -19 1t-23.5 2t-24 2t-18.5 1q-14 0 -24 -0.5t-19 -1t-19 -1t-24 -0.5q-15 0 -20.5 -2.5t-5.5 -10.5q0 -6 2.5 -18t2.5 -13q2 -2 8 -2.5t14 -0.5q9 0 18 0.5t12 0.5q33 -1 66.5 -4.5t66.5 -3.5h14z
M339 55q12 0 22 10t10 18t2 22q3 8 4 17t1 20q0 12 -1.5 24t-5.5 21q-2 5 -7.5 8.5t-11.5 3.5t-10 -4q-6 -6 -7.5 -15.5t-5.5 -17.5q-2 -6 -6.5 -14.5t-9 -17.5t-7.5 -17t-3 -14q0 -14 10.5 -29t25.5 -15zM268 92q5 0 9.5 3t6.5 5q0 6 5 18q4 10 6 13q4 9 8.5 22.5t5.5 15.5
q2 6 4.5 15.5t3.5 12.5l1 5q0 12 -10 22q-1 1 -4 1q-5 0 -10 -2.5t-8 -4.5q-14 -9 -19 -17.5t-17 -20.5q-5 -8 -14 -16t-10 -22q0 -11 4.5 -20.5t10.5 -16.5q11 -13 27 -13zM205 163q3 0 10 7t15 16t14.5 17.5t8.5 12.5q-1 8 -6.5 11.5t-13.5 3.5q-5 0 -10 -1.5t-9 -4.5
q-18 -14 -30.5 -24.5t-12.5 -15.5q1 -3 4 -8.5t8 -9.5q5 -3 11.5 -3.5t10.5 -0.5z" />
    <glyph glyph-name="uni2662" unicode="&#x2662;" horiz-adv-x="377" 
d="M218 464l173 -237l-173 -239l-171 239zM218 411l-127 -184l127 -184l129 184z" />
    <glyph glyph-name="diamond" unicode="&#x2666;" horiz-adv-x="620" 
d="M310 -22l-248 248l248 248l248 -248z" />
    <glyph glyph-name="uni2726" unicode="&#x2726;" horiz-adv-x="920" 
d="M555 235l-95 -313l-95 313l-313 95l313 95l95 313l95 -313l313 -95z" />
    <glyph glyph-name="uni2727" unicode="&#x2727;" horiz-adv-x="920" 
d="M555 235l-95 -313l-95 313l-313 95l313 95l95 313l95 -313l313 -95zM509 379l-49 244l-49 -244l-244 -49l244 -49l49 -244l49 244l244 49z" />
    <glyph glyph-name="uni2729" unicode="&#x2729;" horiz-adv-x="620" 
d="M423 196l70 -214l-183 132l-182 -132l69 214l-182 133h225l70 214l70 -214h225zM345 285l-35 156l-35 -156l-159 15l138 -81l-64 -146l120 105l120 -105l-64 146l138 81z" />
    </font>
</defs>
</svg>
