<?xml version="1.0" standalone="no"?>
<!DOCTYPE svg PUBLIC "-//W3C//DTD SVG 1.1//EN" "http://www.w3.org/Graphics/SVG/1.1/DTD/svg11.dtd" >
<svg>
<metadata>
Created by FontForge 20120731 at Wed Nov  5 22:58:27 2014
 By Orthosie Webhosting
2010 Martin Majoor, Latin character set extension by Inka Menne published by FSI FontShop International GmbH
</metadata>
<defs>
<font id="MmnzkkpohmarruujbvcfyufncxpRegular" horiz-adv-x="500" >
  <font-face 
    font-family="MmnzkkpohmarruujbvcfyufncxpRegular"
    font-weight="400"
    font-stretch="normal"
    units-per-em="1000"
    panose-1="2 1 5 4 4 1 1 2 1 2"
    ascent="734"
    descent="-266"
    x-height="453"
    cap-height="660"
    bbox="-444 -270 1349 899"
    underline-thickness="50"
    underline-position="-60"
    unicode-range="U+0020-FB04"
  />
<missing-glyph horiz-adv-x="581" 
d="M22 660h537v-660h-537v660zM502 57v546h-423v-546h423z" />
    <glyph glyph-name="uniFB00" unicode="ff" horiz-adv-x="625" 
d="M698 628q-15 13 -25.5 22t-21 16t-22.5 13l-30 15q-60 -11 -87 -55t-27 -135v-61h116v-46h-115v-360h95v-37h-234v37h63v360h-225v-360h62v-37h-213v37h75v360h-86v24l86 21v61q0 48 14.5 87t42 66.5t66 42.5t86.5 15q41 0 77.5 -10t71.5 -30q30 31 64 44.5t84 13.5
q38 0 69 -8t69 -28zM425 609q-18 15 -31.5 24t-26.5 16t-29 12.5t-40 13.5q-59 -11 -86 -56.5t-27 -132.5v-43h225v59q0 19 0.5 32t2 24.5t4.5 23t8 27.5z" />
    <glyph glyph-name="fi" unicode="fi" horiz-adv-x="583" 
d="M335 0v37h75v360h-226v-360h76v-37h-227v37h76v360h-87v27l87 22v81q0 102 57.5 157t163.5 55q16 0 31 -1t30.5 -4t32.5 -8.5t39 -13.5l32 -12l-57 -82q-16 15 -28 25.5t-23.5 19.5t-25.5 17.5t-33 20.5q-41 -2 -62.5 -9.5t-40.5 -27.5q-13 -14 -21 -26.5t-12.5 -29
t-6 -40t-1.5 -59.5v-66h206l77 20h19v-426h75v-37h-226z" />
    <glyph glyph-name="fl" unicode="fl" horiz-adv-x="582" 
d="M335 0v37h75v360h-226v-360h76v-37h-227v37h76v360h-87v27l87 25v79q0 47 15 86t42 66.5t65 43t85 15.5q23 0 43 -4t52 -15l56 17h19v-700h76v-37h-227zM410 646q-14 12 -24 19.5t-20.5 13.5t-22 11t-28.5 11q-37 -4 -62 -15.5t-40.5 -34t-22 -57t-6.5 -83.5v-68h226v203
z" />
    <glyph glyph-name="uniFB03" unicode="ffi" horiz-adv-x="884" 
d="M636 0v37h76v360h-226v-360h75v-37h-226v37h75v360h-225v-360h75v-37h-226v37h75v360h-87v27l87 22v65q0 48 14.5 87t40.5 66.5t63.5 42.5t84.5 15q18 0 34 -2t32.5 -6.5t35.5 -12t43 -19.5q24 16 44.5 27t40.5 17.5t41.5 9.5t47.5 3q17 0 31.5 -1t30 -4t32.5 -8.5
t39 -13.5l32 -12l-56 -82q-17 15 -29 25.5t-23.5 19.5t-25.5 17.5t-33 20.5q-41 -2 -62.5 -9.5t-40.5 -27.5q-13 -14 -20.5 -26.5t-12 -29t-6 -40t-1.5 -59.5v-66h206l76 20h19v-426h76v-37h-227zM422 605q-20 16 -33.5 27t-26.5 19t-28 15.5t-37 17.5q-60 -11 -86 -56
t-26 -136v-49h225v84q0 13 0.5 22t2 17.5t3.5 17.5t6 21z" />
    <glyph glyph-name="uniFB04" unicode="ffl" horiz-adv-x="883" 
d="M636 0v37h76v360h-226v-360h75v-37h-226v37h75v360h-226v-360h76v-37h-227v37h76v360h-87v27l87 22v82q0 42 15 78t42 61.5t64 40t81 14.5q39 0 71.5 -9.5t73.5 -32.5q40 33 75 46t83 13q25 0 45.5 -4t52.5 -15l56 17h19v-700h76v-37h-227zM712 646q-14 12 -24.5 19.5
t-20.5 13.5t-22 11t-28 11q-37 -4 -62 -15.5t-40.5 -34t-22 -57t-6.5 -83.5v-68h226v203zM422 616q-18 13 -31.5 22.5t-27 16.5t-29 13.5t-37.5 15.5q-32 -9 -54 -22.5t-35 -34t-18.5 -49.5t-5.5 -69v-66h226v85q0 13 0.5 23t2 19.5t3.5 20t6 25.5z" />
    <glyph glyph-name=".notdef" horiz-adv-x="581" 
d="M22 660h537v-660h-537v660zM502 57v546h-423v-546h423z" />
    <glyph glyph-name=".null" horiz-adv-x="0" 
 />
    <glyph glyph-name="nonmarkingreturn" horiz-adv-x="250" 
 />
    <glyph glyph-name="space" unicode=" " horiz-adv-x="250" 
 />
    <glyph glyph-name="exclam" unicode="!" horiz-adv-x="265" 
d="M152 192h-40l-38 545h116zM189 46q0 -23 -17 -40t-40 -17t-40 17t-17 40t17 40t40 17t40 -17t17 -40z" />
    <glyph glyph-name="quotedbl" unicode="&#x22;" horiz-adv-x="409" 
d="M95 432v226h59v-226h-59zM256 432v226h58v-226h-58z" />
    <glyph glyph-name="numbersign" unicode="#" horiz-adv-x="550" 
d="M535 401h-112l-25 -130h113l-10 -57h-115l-41 -214h-62l41 214h-143l-43 -214h-61l43 214h-115l10 57h116l27 130h-117l10 57h117l40 200h60l-39 -200h143l39 200h62l-40 -200h112zM218 401l-26 -130h143l26 130h-143z" />
    <glyph glyph-name="dollar" unicode="$" 
d="M460 178q0 -57 -28.5 -103t-77.5 -68q-19 -8 -34.5 -11.5t-44.5 -5.5v-58h-46v55q-33 2 -57 5t-44 8.5t-38.5 14.5t-39.5 22l57 66q12 -14 21 -23t17.5 -16.5t19 -15t26.5 -17.5l38 3v264l-18 10q-46 25 -76.5 47t-49 44t-26 46t-7.5 53q0 36 13 66.5t36.5 53.5t56 38
t71.5 18v58h46v-57q23 -1 42 -3.5t37.5 -8t38 -14.5t45.5 -23l-60 -64q-12 13 -21 22t-17.5 16.5t-18.5 14.5t-25 17l-21 -2v-246q55 -31 90.5 -56t56.5 -48t29.5 -47.5t8.5 -54.5zM373 149q0 18 -5 33.5t-16.5 30t-30.5 29t-46 31.5v-232q54 22 76 46t22 62zM229 625
q-43 -8 -66 -33.5t-23 -66.5q0 -17 4 -30.5t13.5 -26t27 -26t44.5 -30.5v213z" />
    <glyph glyph-name="percent" unicode="%" horiz-adv-x="850" 
d="M384 495q0 -36 -13.5 -68t-37.5 -56t-56 -37.5t-68 -13.5t-68 13.5t-55.5 37.5t-37.5 56t-14 68t14 68t37.5 56t55.5 38t68 14t68 -14t56 -38t37.5 -56t13.5 -68zM816 162q0 -36 -14 -68t-37.5 -55.5t-55.5 -37.5t-68 -14t-68 14t-56 37.5t-37.5 55.5t-13.5 68t13.5 68
t37.5 56t56 37.5t68 13.5t68 -13.5t55.5 -37.5t37.5 -56t14 -68zM168 -46h-53l559 733h69zM324 495q0 24 -9 44.5t-24.5 36.5t-36.5 25t-45 9t-44.5 -9t-36 -25t-24.5 -36.5t-9 -44.5t9 -45t24.5 -36.5t36 -24.5t44.5 -9t45 9t36.5 24.5t24.5 36.5t9 45zM755 162q0 24 -9 45
t-24.5 36.5t-36 24.5t-44.5 9t-45 -9t-36.5 -24.5t-24.5 -36.5t-9 -45t9 -44.5t24.5 -36t36.5 -24.5t45 -9t44.5 9t36 24.5t24.5 36t9 44.5z" />
    <glyph glyph-name="ampersand" unicode="&#x26;" horiz-adv-x="703" 
d="M703 100q-24 -36 -41 -58t-32.5 -34t-31.5 -16.5t-38 -4.5t-40.5 4.5t-35.5 15t-34 27.5t-35 41q-48 -47 -92 -67.5t-97 -20.5q-42 0 -77 14t-61 38.5t-40.5 58.5t-14.5 73t16 76.5t45 68.5l17 17q8 8 18 17t24 20t35 28q-22 28 -37 50t-24 42t-13 39t-4 41q0 37 14 68
t39.5 53.5t61 35t77.5 12.5q35 0 65 -10t51.5 -28t33.5 -42.5t12 -54.5q0 -33 -16.5 -64t-48.5 -55l-69 -53l-25 33q24 19 40 34.5t25.5 30.5t13 31.5t3.5 36.5q0 103 -93 103q-47 0 -76.5 -30t-29.5 -78q0 -31 14.5 -67.5t39.5 -71.5l200 -277q13 22 22 38t16.5 31.5t15 33
t18.5 43.5h-82v37h226v-37h-97q-11 -30 -20 -51.5t-18.5 -41t-21.5 -40.5t-30 -51q34 -47 58 -64.5t52 -17.5q25 0 44 14t47 52zM213 361q-52 -45 -73 -83.5t-21 -85.5q0 -31 10.5 -59.5t27.5 -50t40 -34.5t47 -13q34 0 72.5 20.5t73.5 57.5z" />
    <glyph glyph-name="quotesingle" unicode="'" horiz-adv-x="250" 
d="M96 432v226h58v-226h-58z" />
    <glyph glyph-name="parenleft" unicode="(" horiz-adv-x="309" 
d="M231 -256q-14 18 -23 32t-17.5 29t-16.5 32.5t-19 42.5q-36 85 -52.5 161t-16.5 161t16.5 161t52.5 161q11 25 19 43t16.5 32.5t17.5 28.5t23 32h43q-23 -44 -41.5 -99.5t-32 -116t-21 -122.5t-7.5 -120t7.5 -120t21 -122.5t32 -116t41.5 -99.5h-43z" />
    <glyph glyph-name="parenright" unicode=")" horiz-adv-x="309" 
d="M222 202q0 -85 -16.5 -161t-52.5 -161q-11 -25 -19 -42.5t-16 -32.5t-17.5 -29t-22.5 -32h-43q22 44 41 99.5t32.5 116t21 122.5t7.5 120t-7.5 120t-21 122.5t-32.5 116t-41 99.5h43q13 -18 22.5 -32t17.5 -28.5t16 -32.5t19 -43q36 -85 52.5 -161t16.5 -161z" />
    <glyph glyph-name="asterisk" unicode="*" 
d="M352 258l-92 155l32 24l120 -135zM202 456l-176 39l23 71l165 -72zM298 456l-12 38l165 72l23 -71zM149 257l-60 44l119 135l32 -24zM271 506h-40l-17 179h74z" />
    <glyph glyph-name="plus" unicode="+" horiz-adv-x="550" 
d="M303 208v-208h-56v208h-209v57h209v209h56v-209h209v-57h-209z" />
    <glyph glyph-name="comma" unicode="," horiz-adv-x="250" 
d="M190 49q0 -42 -28.5 -89t-81.5 -92l-24 31q36 29 50 48.5t14 42.5t-11.5 35.5t-40.5 21.5q12 33 26 45t39 12q24 0 40.5 -16t16.5 -39z" />
    <glyph glyph-name="hyphen" unicode="-" horiz-adv-x="275" 
d="M42 190v76h191v-76h-191z" />
    <glyph glyph-name="period" unicode="." horiz-adv-x="250" 
d="M184 48q0 -25 -17.5 -42t-41.5 -17t-41.5 17t-17.5 42q0 24 17.5 41t41.5 17t41.5 -17t17.5 -41z" />
    <glyph glyph-name="slash" unicode="/" horiz-adv-x="409" 
d="M108 -243h-58l251 903h59z" />
    <glyph glyph-name="zero" unicode="0" 
d="M476 327q0 -71 -18 -133t-48 -108t-70 -72.5t-85 -26.5q-44 0 -84 26.5t-70 72.5t-48 108t-18 132q0 71 18 133.5t48 109t70 73.5t84 27q45 0 85 -27t70 -73.5t48 -108.5t18 -133zM378 325q0 64 -9 120t-25 97t-38.5 64.5t-49.5 23.5q-28 0 -50.5 -23.5t-38.5 -64
t-25 -95.5t-9 -119t9 -119t25 -95.5t39 -64t50 -23.5t49.5 23t38.5 63.5t25 95t9 117.5z" />
    <glyph glyph-name="one" unicode="1" 
d="M106 0v37h107v542l-127 -54l-14 45l228 101v-634h108v-37h-302z" />
    <glyph glyph-name="two" unicode="2" 
d="M46 0v35l152 178q11 13 24 30.5t25.5 36.5t23.5 38.5t19 36.5q10 21 20 54t10 89q0 53 -22 83.5t-59 30.5q-40 0 -79.5 -18.5t-75.5 -59.5l-34 30q27 28 51.5 47.5t49 31.5t50 17t54.5 5q37 0 67 -11.5t52 -31.5t34 -48.5t12 -62.5q0 -43 -9 -80t-25.5 -70t-38.5 -63.5
t-49 -61.5l-150 -175h252v59h45v-120h-399z" />
    <glyph glyph-name="three" unicode="3" 
d="M432 195q0 -43 -19.5 -81t-52 -66t-75.5 -44.5t-90 -16.5q-17 0 -31.5 2t-30 6.5t-33 12.5t-39.5 20l25 49q22 -13 38 -21.5t29.5 -13.5t25.5 -7t25 -2q28 0 52 13t41.5 33.5t27.5 46.5t10 53q0 74 -33 105.5t-88 31.5h-44v34q73 42 101.5 81.5t28.5 81.5q0 45 -18 73
t-58 28q-27 0 -49.5 -12t-58.5 -43l-33 29q45 42 81 59.5t80 17.5q38 0 66.5 -11.5t47.5 -31t28.5 -45.5t9.5 -56q0 -42 -25.5 -77.5t-90.5 -67.5q34 -3 62.5 -17.5t48 -38.5t30.5 -56t11 -69z" />
    <glyph glyph-name="four" unicode="4" 
d="M361 189v-189h-75v189h-270v26l320 450h25v-418h124v-58h-124zM286 512l-187 -265h187v265z" />
    <glyph glyph-name="five" unicode="5" 
d="M425 217q0 -53 -21.5 -95t-54.5 -71.5t-73 -45.5t-78 -16q-10 0 -25.5 0.5t-35 4.5t-42 12t-45.5 23l25 49q21 -15 37 -23.5t30 -12.5t26.5 -5t24.5 -1q21 0 44 9.5t42.5 29.5t32 50.5t12.5 73.5q0 61 -30.5 100t-75.5 55q-14 5 -26 8t-25.5 5t-31 2.5t-41.5 0.5v291h260
v27h46v-94h-253v-174q140 0 209 -51.5t69 -151.5z" />
    <glyph glyph-name="six" unicode="6" 
d="M465 207q0 -49 -15 -89.5t-42 -69.5t-65 -45t-84 -16q-48 0 -87 19.5t-67.5 56t-44 88t-15.5 115.5q0 83 24 156.5t68 128t104.5 86.5t134.5 32h21l-1 -41q-41 -3 -75 -16.5t-61 -33t-46.5 -43t-31.5 -45.5q-21 -38 -29.5 -96.5t-8.5 -115.5q0 -52 8 -98t23.5 -80
t38.5 -54t53 -20q27 0 46 14t32 37t19 52t6 60t-7 58.5t-21.5 47.5t-35.5 31.5t-49 11.5h-52l8 39q31 7 48 9.5t34 2.5q37 0 68 -15t53.5 -40t35.5 -58t13 -69z" />
    <glyph glyph-name="seven" unicode="7" 
d="M332 312q-22 -53 -49.5 -110t-55 -107.5t-51 -88t-37.5 -52.5l-56 43q19 20 45.5 57.5t54.5 85t55 100t47 102.5l98 247h-282v-60h-45v159h45v-28h364v-25z" />
    <glyph glyph-name="eight" unicode="8" 
d="M467 163q0 -33 -17 -64.5t-47 -56t-71.5 -39.5t-90.5 -15q-31 0 -67 8.5t-67 26.5t-52 46.5t-21 68.5q0 77 90 146l58 44l-67 48q-23 17 -43 47.5t-20 83.5q0 30 16 59t43.5 52t63.5 37t75 14q38 0 71.5 -12t58.5 -32t39.5 -47t14.5 -57q0 -44 -22.5 -72t-65.5 -60
l-43 -32l85 -55q25 -16 40.5 -33.5t24 -35t11.5 -35.5t3 -35zM378 144q0 32 -14 50.5t-45 39.5l-96 66l-62 -56q-23 -21 -33.5 -42t-10.5 -56q0 -21 8 -42.5t24 -39t39.5 -28t55.5 -10.5t57 9.5t42 26t26 38t9 44.5zM355 523q0 19 -7.5 38.5t-21 35t-33 25t-43.5 9.5
q-23 0 -42.5 -9.5t-33.5 -25t-21.5 -35.5t-7.5 -41q0 -27 14.5 -50t40.5 -42l61 -44l50 40q24 20 34 44t10 55z" />
    <glyph glyph-name="nine" unicode="9" 
d="M459 387q0 -83 -24 -156.5t-68 -128.5t-105 -86.5t-134 -31.5h-21l1 41q41 3 75 16.5t61 33t46.5 43t31.5 45.5q21 38 29.5 96.5t8.5 115.5q0 52 -8 98t-23.5 80t-38.5 54t-53 20q-27 0 -46 -14t-32 -37t-19 -52t-6 -60q0 -32 7 -59t21.5 -47t35.5 -31.5t49 -11.5h52
l-8 -39q-31 -7 -48 -9.5t-34 -2.5q-37 0 -68 15t-53.5 40t-35.5 58t-13 69q0 49 14.5 89.5t41.5 69.5t65 45t85 16q48 0 87 -19.5t67.5 -56t44 -88t15.5 -115.5z" />
    <glyph glyph-name="colon" unicode=":" horiz-adv-x="250" 
d="M124 104q26 0 42 -17t16 -41q0 -23 -17 -40t-41 -17q-23 0 -39.5 17t-16.5 40q0 24 16.5 41t39.5 17zM124 465q26 0 42 -17t16 -41q0 -23 -17 -39.5t-41 -16.5q-23 0 -39.5 16.5t-16.5 40.5t16.5 40.5t39.5 16.5z" />
    <glyph glyph-name="semicolon" unicode=";" horiz-adv-x="250" 
d="M186 49q0 -42 -28.5 -89t-81.5 -92l-25 31q36 29 50 48.5t14 42.5t-11 35.5t-40 21.5q12 33 25.5 45t39.5 12q23 0 40 -16t17 -39zM128 465q25 0 41.5 -17t16.5 -41q0 -23 -17.5 -39.5t-40.5 -16.5q-24 0 -40.5 16.5t-16.5 40.5t16.5 40.5t40.5 16.5z" />
    <glyph glyph-name="less" unicode="&#x3c;" horiz-adv-x="550" 
d="M39 210v54l472 210v-63l-396 -174l396 -174v-63z" />
    <glyph glyph-name="equal" unicode="=" horiz-adv-x="550" 
d="M25 134v57h500v-57h-500zM25 273v56h500v-56h-500z" />
    <glyph glyph-name="greater" unicode="&#x3e;" horiz-adv-x="550" 
d="M39 0v63l396 174l-396 174v63l472 -210v-54z" />
    <glyph glyph-name="question" unicode="?" horiz-adv-x="409" 
d="M353 441q0 -66 -32 -104t-88 -38h-61l-26 -107h-25v177h165q10 17 12.5 28.5t2.5 34.5q0 47 -21 87t-58 64q-15 10 -27.5 17t-27 12.5t-33.5 10.5t-48 12l35 101q53 -15 96 -43t73 -66.5t46.5 -85.5t16.5 -100zM140 104q26 0 42 -17t16 -41q0 -23 -17 -40t-40 -17
q-24 0 -40.5 17t-16.5 40q0 24 16.5 41t39.5 17z" />
    <glyph glyph-name="at" unicode="@" horiz-adv-x="1000" 
d="M903 268q0 -42 -5 -75.5t-16.5 -60.5t-29 -49.5t-42.5 -42.5q-64 -49 -152 -49q-56 0 -81.5 22.5t-25.5 73.5q0 13 2 27.5t5 27.5l11 43q-17 -28 -31.5 -48.5t-28.5 -37t-28.5 -30.5t-31.5 -27q-25 -19 -53 -31.5t-48 -12.5q-13 0 -24 11t-19 30.5t-12.5 46.5t-4.5 59
q0 71 18.5 132t50.5 106t75.5 70.5t94.5 25.5q13 0 22.5 -1t19 -3.5t19 -7.5t22.5 -13l30 25h39l-57 -355q-2 -14 -3 -24.5t-1 -17.5q0 -20 16 -31t44 -11q22 0 44 6.5t41.5 18t36 27.5t26.5 35q30 54 30 145q0 67 -19.5 116.5t-63.5 98.5q-25 28 -51.5 48t-56.5 32.5
t-64 18t-75 5.5q-86 0 -155.5 -26t-119 -73.5t-76.5 -115t-27 -150.5q0 -95 28.5 -159.5t93.5 -115.5q24 -19 47.5 -32t49.5 -21t56 -11.5t66 -3.5q27 0 48 1.5t39.5 5.5t37 11t39.5 17l20 -44q-23 -11 -44 -18.5t-42 -12t-43.5 -6.5t-49.5 -2q-42 0 -77.5 4.5t-66 15
t-59 27t-56.5 39.5q-71 57 -103.5 129t-32.5 168q0 93 31 170t87 133t133.5 87t170.5 31q91 0 158.5 -27t124.5 -87q52 -55 75.5 -115.5t23.5 -141.5zM598 391q-20 26 -37 36.5t-39 10.5q-30 0 -58 -22.5t-49.5 -60t-34.5 -86.5t-13 -102q0 -84 40 -84q20 0 50.5 27.5
t62.5 74.5q16 23 28 45t21 46.5t16 52.5t13 62z" />
    <glyph glyph-name="A" unicode="A" horiz-adv-x="672" 
d="M435 0v37h80l-70 181h-256l-73 -180h83v-38h-191v38h52l260 643h36l250 -643h57v-38h-228zM321 546l-113 -281h220z" />
    <glyph glyph-name="B" unicode="B" horiz-adv-x="635" 
d="M568 172q0 -37 -13.5 -68.5t-37.5 -54.5t-56.5 -36t-70.5 -13h-323v37h75v586h-75v37h304q34 0 64 -13t52.5 -35t35.5 -52t13 -64q0 -28 -11.5 -53.5t-31.5 -46t-47 -33t-55 -15.5q29 -4 44.5 -8t34.5 -13q47 -22 72.5 -63t25.5 -92zM477 177q0 31 -10 57.5t-28 45.5
t-43 29.5t-54 10.5h-112v-275h112q63 0 99 35t36 97zM443 492q0 53 -28.5 87.5t-73.5 34.5h-111v-249h102q49 0 80 35.5t31 91.5z" />
    <glyph glyph-name="C" unicode="C" horiz-adv-x="667" 
d="M617 29q-32 -12 -58.5 -20t-51.5 -13t-49 -7t-51 -2q-77 0 -142.5 25.5t-113 71t-74.5 108t-27 136.5q0 73 26.5 135.5t73 109t110 73t136.5 26.5q49 0 90 -8.5t83 -28.5v45h47v-170h-47v49q-46 34 -84 48t-86 14q-56 0 -102 -21t-79 -59t-51 -91t-18 -116
q0 -62 20.5 -116t56 -94t84 -62.5t104.5 -22.5q38 0 72.5 11t82.5 39v73h48v-133z" />
    <glyph glyph-name="D" unicode="D" horiz-adv-x="740" 
d="M689 331q0 -69 -25.5 -129.5t-69.5 -105.5t-104 -70.5t-129 -25.5h-294v37h75v586h-75v37h295q67 0 127 -26t104 -70.5t70 -104.5t26 -128zM590 330q0 58 -18.5 108.5t-51 88.5t-76 60t-92.5 22h-122v-559h120q51 0 95 21.5t76.5 59t50.5 88.5t18 111z" />
    <glyph glyph-name="E" unicode="E" horiz-adv-x="581" 
d="M67 0v37h75v586h-75v37h399v28h46v-159h-45v85h-237v-256h189v76h46v-198h-46v77h-189v-268h246v88h46v-133h-455z" />
    <glyph glyph-name="F" unicode="F" horiz-adv-x="571" 
d="M467 529v85h-237v-256h189v76h46v-198h-46v77h-189v-276h75v-37h-238v37h75v586h-75v37h399v28h46v-159h-45z" />
    <glyph glyph-name="G" unicode="G" horiz-adv-x="745" 
d="M619 227v-202q-33 -11 -60 -18t-51 -11.5t-47 -6.5t-49 -2q-78 0 -137 20.5t-109 64.5q-56 50 -86 117t-30 142q0 74 27 136.5t74 108t112 71t142 25.5q22 0 42.5 -1.5t40 -5.5t40 -9.5t43.5 -14.5v39h46v-170h-46v65q-50 24 -90 34.5t-82 10.5q-52 0 -97.5 -22.5
t-79.5 -62t-53.5 -92t-19.5 -112.5q0 -62 22.5 -115t62 -93t92.5 -62.5t114 -22.5q22 0 40.5 3t50.5 11v175h-85v37h248v-37h-75z" />
    <glyph glyph-name="H" unicode="H" horiz-adv-x="838" 
d="M530 0v37h75v275h-375v-275h75v-37h-238v37h75v586h-75v37h238v-37h-75v-266h375v266h-75v37h238v-37h-76v-586h76v-37h-238z" />
    <glyph glyph-name="I" unicode="I" horiz-adv-x="372" 
d="M67 0v37h75v586h-75v37h238v-37h-75v-586h75v-37h-238z" />
    <glyph glyph-name="J" unicode="J" horiz-adv-x="364" 
d="M221 623v-641q-20 -41 -35 -68t-30.5 -49.5t-35 -44.5t-48.5 -51l-34 32q18 17 30 31t20.5 27.5t15 29.5t12.5 37q6 19 9.5 35.5t5.5 34.5t2.5 41.5t0.5 56.5v529h-75v37h238v-37h-76z" />
    <glyph glyph-name="K" unicode="K" horiz-adv-x="653" 
d="M67 0v38h75v585h-75v37h238v-37h-75v-586h75v-37h-238zM521 0l-282 333l246 290h-74v37h207v-37h-65l-221 -264l271 -322h53v-37h-135z" />
    <glyph glyph-name="L" unicode="L" horiz-adv-x="531" 
d="M67 0v37h75v586h-75v37h238v-37h-75v-578h246v88h46v-133h-455z" />
    <glyph glyph-name="M" unicode="M" horiz-adv-x="901" 
d="M596 0v37h75v492l-245 -539l-246 550v-503h76v-37h-202v37h76v586h-76v37h161l228 -510l235 510h156v-37h-75v-586h75v-37h-238z" />
    <glyph glyph-name="N" unicode="N" horiz-adv-x="737" 
d="M611 623v-634h-31l-384 528v-480h76v-37h-202v37h76v548l-27 38h-69v37h145l366 -502v465h-76v37h201v-37h-75z" />
    <glyph glyph-name="O" unicode="O" horiz-adv-x="743" 
d="M693 330q0 -70 -25.5 -132t-69 -109t-102 -74.5t-123.5 -27.5q-66 0 -124.5 27.5t-103 74t-70 108.5t-25.5 132t25.5 132.5t69.5 109.5t103 74t125 27q65 0 123.5 -27.5t102 -74t69 -108.5t25.5 -132zM594 330q0 63 -16.5 116t-46 92t-69.5 60.5t-88 21.5
q-49 0 -90.5 -21.5t-71.5 -60t-46.5 -91.5t-16.5 -117q0 -63 16.5 -116.5t46.5 -92.5t71 -60.5t90 -21.5q48 0 88.5 22t70 60.5t46 92t16.5 116.5z" />
    <glyph glyph-name="P" unicode="P" horiz-adv-x="600" 
d="M549 470q0 -42 -17 -78.5t-46 -63t-69.5 -42t-86.5 -15.5q-14 0 -25 1t-31 5v35q10 -2 15 -2.5t12 -0.5q32 0 60.5 12.5t50 34.5t34 51.5t12.5 62.5q0 30 -9.5 56t-25.5 45.5t-37.5 31t-46.5 11.5h-109v-577h85v-37h-248v37h75v586h-75v37h286q43 0 79.5 -14t62 -39
t40 -60t14.5 -77z" />
    <glyph glyph-name="Q" unicode="Q" horiz-adv-x="759" 
d="M603 -230q-27 13 -46 23.5t-34.5 20t-29 18.5t-27.5 21q-15 12 -28.5 24.5t-27.5 28t-30.5 36t-37.5 48.5q-67 9 -114.5 33.5t-88.5 71.5q-42 47 -65.5 109t-23.5 125q0 70 25.5 132.5t70 109.5t103 74t124.5 27q65 0 123.5 -27.5t102 -74t69 -108.5t25.5 -132
q0 -45 -11.5 -89t-33.5 -83t-52.5 -72t-67.5 -55q-10 -6 -18.5 -10.5t-18 -8.5t-21.5 -8t-28 -8q26 -31 52 -56.5t49 -43.5t43 -28t34 -10q11 0 25 7.5t41 27.5l23 -28zM594 330q0 63 -16.5 116t-46 92t-69.5 60.5t-88 21.5q-49 0 -90.5 -21.5t-71.5 -60t-46.5 -91.5
t-16.5 -117q0 -63 16.5 -116.5t46.5 -92.5t71 -60.5t90 -21.5q48 0 88.5 22t70 60.5t46 92t16.5 116.5z" />
    <glyph glyph-name="R" unicode="R" horiz-adv-x="654" 
d="M560 0q-22 0 -36.5 2t-25 8t-20 17.5t-21.5 31.5l-149 237h-78v-259h75v-37h-238v37h75v586h-75v37h278q73 0 116 -21t66 -68q20 -42 20 -89q0 -73 -39 -117.5t-111 -55.5l144 -222q18 -28 32 -38.5t33 -10.5h39v-38h-85zM455 480q0 65 -34 99.5t-97 34.5h-94v-272h96
q28 0 52 10t41 28t26.5 43.5t9.5 56.5z" />
    <glyph glyph-name="S" unicode="S" horiz-adv-x="562" 
d="M487 171q0 -39 -15 -72.5t-42 -58.5t-63.5 -39t-78.5 -14q-47 0 -82 10.5t-72 34.5v-41h-47v180h47v-79q23 -15 40 -25t32 -16t29 -8t31 -2q60 0 97 28.5t37 76.5q0 21 -8 40t-25 37.5t-45.5 37.5t-68.5 40q-47 25 -79.5 47.5t-52.5 45.5t-28.5 48.5t-8.5 56.5
q0 37 15 68.5t41 55t62.5 36.5t78.5 13q38 0 66.5 -7t52.5 -21v36h46v-171h-46v71q-38 26 -62 35t-54 9q-51 0 -81.5 -28t-30.5 -75q0 -19 6.5 -35t23.5 -33t47 -37t77 -47t78 -50t49.5 -45.5t26 -47t7.5 -55.5z" />
    <glyph glyph-name="T" unicode="T" horiz-adv-x="600" 
d="M544 530v80h-200v-573h100v-37h-288v37h100v573h-200v-80h-48v158h48v-28h488v28h48v-158h-48z" />
    <glyph glyph-name="U" unicode="U" horiz-adv-x="780" 
d="M654 623v-381q0 -81 -29 -134t-92 -87q-65 -34 -139 -34q-54 0 -100.5 17t-80 47.5t-52.5 72t-19 90.5v409h-75v37h238v-37h-75v-378q0 -45 13 -82t36.5 -63.5t57 -40.5t75.5 -14q43 0 78 14.5t60 41t39 63.5t14 82v377h-75v37h201v-37h-75z" />
    <glyph glyph-name="V" unicode="V" horiz-adv-x="661" 
d="M603 623l-250 -640h-34l-252 640h-59v37h248v-37h-94l194 -491l192 491h-66v37h171v-37h-50z" />
    <glyph glyph-name="W" unicode="W" horiz-adv-x="942" 
d="M886 623l-250 -640h-31l-128 324l-125 -324h-33l-253 640h-58v37h210v-37h-59l196 -493l96 244l-99 249h-59v37h359v-37h-52l-79 -204l117 -294l195 498h-69v37h170v-37h-48zM440 623l54 -135l55 135h-109z" />
    <glyph glyph-name="X" unicode="X" horiz-adv-x="660" 
d="M395 0v37h94l-171 242l-187 -242h95v-37h-218v37h56l223 287l-211 299h-57v37h254v-37h-94l161 -229l177 229h-92v37h218v-37h-59l-212 -275l220 -311h60v-37h-257z" />
    <glyph glyph-name="Y" unicode="Y" horiz-adv-x="612" 
d="M552 623l-192 -313v-273h76v-37h-238v37h75v267l-207 319h-58v37h247v-37h-91l172 -262l159 262h-91v37h200v-37h-52z" />
    <glyph glyph-name="Z" unicode="Z" horiz-adv-x="668" 
d="M59 0v30l410 579h-363v-80h-47v159h47v-28h483v-31l-408 -579h381v104h47v-154h-550z" />
    <glyph glyph-name="bracketleft" unicode="[" horiz-adv-x="250" 
d="M69 -243v903h152v-46h-93v-812h93v-45h-152z" />
    <glyph glyph-name="backslash" unicode="\" horiz-adv-x="409" 
d="M301 -243l-251 903h58l252 -903h-59z" />
    <glyph glyph-name="bracketright" unicode="]" horiz-adv-x="250" 
d="M29 -243v45h93v812h-93v46h152v-903h-152z" />
    <glyph glyph-name="asciicircum" unicode="^" horiz-adv-x="522" 
d="M419 273l-157 315h-6l-159 -315h-61l208 417h33l208 -417h-66z" />
    <glyph glyph-name="underscore" unicode="_" 
d="M0 -57v57h500v-57h-500z" />
    <glyph glyph-name="grave" unicode="`" horiz-adv-x="570" 
d="M288 513l-159 161h93l119 -161h-53z" />
    <glyph glyph-name="a" unicode="a" horiz-adv-x="457" 
d="M370 -2q-10 -3 -19.5 -5t-15.5 -2q-23 0 -36 15.5t-13 43.5v10q-32 -39 -62.5 -56t-70.5 -17q-52 0 -86 32t-34 83q0 38 22.5 67t58.5 37l171 39v113q0 30 -20 49.5t-50 19.5q-15 0 -27.5 -3t-34.5 -14v-48l-89 -26q-5 9 -6.5 14.5t-1.5 13.5q0 22 12 40.5t33 32t50 21
t63 7.5q66 0 106 -30t40 -80v-308h77v-28zM285 205l-171 -40v-50q0 -32 18.5 -50.5t50.5 -18.5q24 0 46.5 12t55.5 41v106z" />
    <glyph glyph-name="b" unicode="b" horiz-adv-x="526" 
d="M493 241q0 -57 -18.5 -104t-52.5 -80.5t-82 -51.5t-107 -18q-33 0 -64.5 5t-75.5 16v663h-87v27l144 39h18v-691q25 -10 39 -13.5t33 -3.5q37 0 67.5 15t52.5 42.5t34.5 65t12.5 82.5q0 82 -34.5 129.5t-94.5 47.5h-73v33q38 13 60 17t42 4q41 0 75 -16.5t59 -46.5
t38.5 -71t13.5 -90z" />
    <glyph glyph-name="c" unicode="c" horiz-adv-x="430" 
d="M417 35q-25 -15 -43.5 -24t-35.5 -14.5t-35 -7.5t-42 -2q-53 0 -95 16.5t-72 46.5t-46 72.5t-16 95.5q0 54 18 99.5t50.5 78.5t77 51t98.5 18q19 0 35 -2t31.5 -7.5t31 -14.5t35.5 -22l-54 -60q-13 13 -22.5 22t-18.5 16t-19 14t-25 16q-21 -2 -36 -5t-27 -9t-23 -15.5
t-23 -24.5q-46 -57 -46 -132q0 -42 13.5 -79t36.5 -65t54 -44t66 -16q24 0 47.5 7.5t64.5 28.5z" />
    <glyph glyph-name="d" unicode="d" horiz-adv-x="532" 
d="M379 -10h-19v70q-41 -41 -72 -57t-69 -16q-39 0 -73 18t-59 48.5t-39.5 72.5t-14.5 90q0 52 18.5 97t51 79t75.5 53.5t92 19.5q26 0 43.5 -5t46.5 -20v231h-87v27l144 39h19v-681h87v-28zM360 340q0 47 -17 65t-62 18q-36 0 -66 -14t-51.5 -39t-33 -60.5t-11.5 -78.5
q0 -85 34.5 -132t96.5 -47q23 0 39 6.5t42 26.5l29 23v232z" />
    <glyph glyph-name="e" unicode="e" horiz-adv-x="461" 
d="M115 256v-11q0 -47 12 -86t33 -67t50.5 -43.5t65.5 -15.5q30 0 55.5 9.5t67.5 36.5l19 -37q-28 -16 -49.5 -26.5t-40.5 -17t-37.5 -9t-40.5 -2.5q-48 0 -87.5 17.5t-68.5 49t-45 74.5t-16 95t16 96.5t45 77t68 50.5t86 18q40 0 73.5 -13.5t57.5 -37.5t37.5 -57.5
t13.5 -73.5v-27h-315zM348 320q0 45 -27.5 74t-71.5 29q-55 0 -90.5 -34t-42.5 -93h232v24z" />
    <glyph glyph-name="f" unicode="f" horiz-adv-x="323" 
d="M396 633q-15 13 -26 22t-21.5 16.5t-22 14t-29.5 15.5q-60 -11 -86.5 -56t-26.5 -136v-66h115v-46h-115v-360h96v-37h-247v37h76v360h-87v27l87 22v82q0 47 14.5 86t41.5 66.5t64.5 43t82.5 15.5q72 0 139 -38z" />
    <glyph glyph-name="g" unicode="g" horiz-adv-x="507" 
d="M400 389q18 -21 25 -41.5t7 -51.5q0 -80 -51 -126.5t-140 -46.5q-11 0 -19.5 0.5t-16 2t-16 3.5t-19.5 6q-23 -23 -32.5 -38.5t-9.5 -29.5q0 -26 29 -26h250q36 0 56 -24t20 -68q0 -42 -20 -79.5t-54.5 -65.5t-81 -44t-99.5 -16q-32 0 -59 5.5t-50 17.5t-44 31.5
t-42 46.5q8 20 14.5 34t14.5 27.5t19.5 28.5t29.5 38q-22 4 -37 14t-38 36q13 22 23 38t21 29.5t25.5 26.5t35.5 31q-86 50 -86 142q0 81 51 128t137 47q15 0 26.5 -1t23 -4t25.5 -9t34 -16h64l71 17v-63h-87zM353 295q0 61 -29.5 96.5t-79.5 35.5q-51 0 -80 -35.5
t-29 -96.5t29 -97t80 -36q50 0 79.5 36t29.5 97zM413 -84q0 24 -10.5 38t-27.5 14h-227q-20 -28 -26.5 -45.5t-6.5 -37.5q0 -45 38 -73t98 -28q33 0 62.5 10.5t51.5 28.5t35 42t13 51z" />
    <glyph glyph-name="h" unicode="h" horiz-adv-x="568" 
d="M321 0v37h76v293q0 40 -19 63t-52 23q-17 0 -31 -4.5t-30.5 -17.5t-38.5 -36.5t-55 -60.5v-260h75v-37h-226v37h76v634h-88v27l144 39h19v-386q28 33 51 54.5t44 35t41.5 19t44.5 5.5q56 0 88 -33.5t32 -91.5v-303h76v-37h-227z" />
    <glyph glyph-name="i" unicode="i" horiz-adv-x="282" 
d="M33 0v37h76v360h-87v27l144 39h18v-426h76v-37h-227zM195 635q0 -23 -15 -38t-38 -15q-22 0 -37 15t-15 38q0 22 15 37t37 15q23 0 38 -15t15 -37z" />
    <glyph glyph-name="j" unicode="j" horiz-adv-x="274" 
d="M181 -73q-14 -33 -24.5 -55.5t-23 -42t-28 -39t-39.5 -46.5l-24 19q21 36 34 60.5t20 46t9 43.5t2 54v430h-89v27l144 39h19v-536zM192 635q0 -23 -15.5 -38t-37.5 -15t-37.5 15t-15.5 38q0 22 15.5 37t37.5 15t37.5 -15t15.5 -37z" />
    <glyph glyph-name="k" unicode="k" horiz-adv-x="508" 
d="M20 0v37h76v634h-88v27l144 39h19v-700h75v-37h-226zM384 0l-205 246l179 170h-65v37h199v-37h-77l-155 -148l191 -231h57v-37h-124z" />
    <glyph glyph-name="l" unicode="l" horiz-adv-x="267" 
d="M20 0v37h76v634h-88v27l144 39h19v-700h75v-37h-226z" />
    <glyph glyph-name="m" unicode="m" horiz-adv-x="883" 
d="M636 0v37h76v293q0 41 -19 63t-52 22q-25 0 -47.5 -13t-54.5 -48l-53 -57v-260h75v-37h-226v37h75v293q0 40 -19 63t-52 23q-16 0 -30 -4.5t-31 -17.5t-39 -36.5t-55 -60.5v-260h76v-37h-227v37h76v360h-87v27l144 39h18v-112q28 33 51 54.5t44 35t42 19t45 5.5
q105 0 120 -114q28 33 51 54.5t44 35t41.5 19t44.5 5.5q56 0 88 -33.5t32 -90.5v-304h75v-37h-226z" />
    <glyph glyph-name="n" unicode="n" horiz-adv-x="581" 
d="M335 0v37h75v293q0 40 -19 63t-52 23q-16 0 -30 -4.5t-31 -17.5t-39 -36.5t-55 -60.5v-260h76v-37h-227v37h76v360h-87v27l144 39h18v-112q28 33 51 54.5t44 35t42 19t45 5.5q56 0 88 -33.5t32 -91.5v-303h75v-37h-226z" />
    <glyph glyph-name="o" unicode="o" horiz-adv-x="505" 
d="M471 226q0 -50 -17 -93.5t-47 -75.5t-70 -51t-85 -19t-85 19t-70 51t-47 75.5t-17 93.5q0 49 17 93t47 76t70 51t85 19t85 -19t70 -51t47 -76t17 -93zM386 226q0 42 -10.5 78t-28.5 62.5t-42.5 41.5t-52.5 15t-52.5 -15t-42.5 -41.5t-28 -62.5t-10 -78q0 -41 10 -77
t28 -62.5t42.5 -42t52.5 -15.5t52.5 15t42.5 41.5t28.5 62.5t10.5 78z" />
    <glyph glyph-name="p" unicode="p" horiz-adv-x="538" 
d="M505 246q0 -56 -17.5 -103.5t-49 -82t-74.5 -54t-94 -19.5q-14 0 -25 1t-20.5 4t-20 7.5t-23.5 11.5v-217h91v-37h-242v37h76v603h-88v28l144 38h19v-69q38 39 70.5 54.5t75.5 15.5q40 0 72.5 -16t56 -44.5t36.5 -68.5t13 -89zM419 225q0 82 -34 129.5t-93 47.5
q-29 0 -53 -12t-58 -46v-230q0 -47 17.5 -66t60.5 -19q36 0 65.5 14t50.5 40t32.5 62t11.5 80z" />
    <glyph glyph-name="q" unicode="q" horiz-adv-x="521" 
d="M265 -243v37h95v613q-21 11 -33.5 13.5t-33.5 2.5q-81 0 -127.5 -51.5t-46.5 -141.5q0 -40 10 -74.5t27 -59.5t41 -39.5t51 -14.5h74v-34q-41 -12 -62.5 -16.5t-40.5 -4.5q-39 0 -73 18t-59 48.5t-39.5 72.5t-14.5 90q0 37 10 72t28 65t43 53.5t55 36.5q26 11 56.5 17
t68.5 6q19 0 35.5 -1t33 -3.5t34 -7t39.5 -10.5v-650h75v-37h-246z" />
    <glyph glyph-name="r" unicode="r" horiz-adv-x="377" 
d="M319 359q-29 28 -44 28q-7 0 -14 -3.5t-17.5 -13t-24.5 -26t-35 -41.5v-266h96v-37h-247v37h76v360h-87v27l144 39h18v-112q27 34 46 56.5t34 35t27.5 17.5t26.5 5q19 0 28 -9l31 -27z" />
    <glyph glyph-name="s" unicode="s" horiz-adv-x="421" 
d="M371 123q0 -30 -11 -55t-31 -43t-48 -28t-61 -10q-84 0 -127 40v-36h-40v142h46v-27q0 -16 9.5 -30.5t26 -26t38 -18t44.5 -6.5q42 0 69 19.5t27 49.5q0 15 -6 27t-21 24t-41 24.5t-65 27.5q-72 28 -101 59t-29 78q0 29 11.5 53t31.5 41.5t48.5 27t63.5 9.5q65 0 106 -34
l6 36h43l-24 -144h-43q3 8 4.5 17t1.5 16q0 15 -8 27.5t-21.5 22.5t-31.5 15.5t-38 5.5q-39 0 -62.5 -19.5t-23.5 -51.5q0 -16 3 -26.5t15.5 -20t38.5 -21t71 -29.5q37 -15 61.5 -29t39.5 -29.5t21.5 -34.5t6.5 -43z" />
    <glyph glyph-name="t" unicode="t" horiz-adv-x="299" 
d="M299 42q-20 -16 -34.5 -26t-26.5 -15.5t-23.5 -7.5t-25.5 -2q-44 0 -68.5 25.5t-24.5 71.5v309h-87v27l87 22v138h72v-141h124v-46h-124v-300q0 -29 10.5 -40.5t35.5 -11.5q16 0 29 4.5t39 19.5z" />
    <glyph glyph-name="u" unicode="u" horiz-adv-x="570" 
d="M416 -8h-18v113q-27 -33 -50 -55.5t-44.5 -36.5t-42.5 -20t-44 -6q-57 0 -89 34.5t-32 94.5v281h-87v27l144 39h19v-335q0 -91 73 -91q28 0 48 13t51 47l54 60v240h-76v31l132 35h19v-407h87v-28z" />
    <glyph glyph-name="v" unicode="v" horiz-adv-x="442" 
d="M400 416l-163 -429h-20l-175 429h-42v37h194v-37h-70l119 -295l112 295h-67v37h154v-37h-42z" />
    <glyph glyph-name="w" unicode="w" horiz-adv-x="706" 
d="M664 416l-162 -429h-20l-127 311l-120 -311h-20l-173 429h-42v37h193v-37h-69l117 -295l90 234l-25 61h-57v37h209v-37h-70l120 -295l112 295h-67v37h153v-37h-42z" />
    <glyph glyph-name="x" unicode="x" horiz-adv-x="437" 
d="M248 0v37h57l-97 147l-112 -147h59v-37h-155v37h42l142 183l-132 196h-42v37h193v-37h-62l90 -138l103 138h-48v37h144v-37h-42l-134 -171l141 -208h42v-37h-189z" />
    <glyph glyph-name="y" unicode="y" horiz-adv-x="443" 
d="M401 416l-169 -439q-9 -23 -20.5 -48.5t-24.5 -50t-25.5 -46t-22.5 -34.5l-40 -54l-65 67q21 12 35.5 21t26 18.5t21.5 20.5t22 26q10 14 18.5 26t15.5 26t14.5 30.5t16.5 39.5l-162 397h-42v37h194v-37h-71l121 -295l112 295h-67v37h154v-37h-42z" />
    <glyph glyph-name="z" unicode="z" horiz-adv-x="469" 
d="M139 46h248v77h43v-123h-392v37l291 370h-233l-13 -84h-43l21 150h43l-3 -20h331v-30z" />
    <glyph glyph-name="braceleft" unicode="{" horiz-adv-x="409" 
d="M297 -256q-131 0 -131 134v241q0 57 -20 87t-56 30h-38v28h38q36 0 56 30t20 87v230q0 133 131 133h57v-33h-40q-72 0 -72 -97v-236q0 -33 -4.5 -56t-15.5 -38t-29 -23t-43 -11q25 -4 43 -12t29 -22.5t15.5 -37.5t4.5 -56v-241q0 -97 72 -97h40v-40h-57z" />
    <glyph glyph-name="bar" unicode="|" horiz-adv-x="250" 
d="M96 -256v1000h58v-1000h-58z" />
    <glyph glyph-name="braceright" unicode="}" horiz-adv-x="409" 
d="M320 236q-37 0 -57 -30t-20 -87v-241q0 -134 -130 -134h-57v40h39q73 0 73 97v241q0 33 4.5 56t15 37.5t28.5 22.5q16 8 41 12q-25 3 -41 11q-18 8 -28.5 23t-15 38t-4.5 56v236q0 97 -73 97h-39v33h57q130 0 130 -133v-230q0 -57 20 -87t57 -30h37v-28h-37z" />
    <glyph glyph-name="asciitilde" unicode="~" horiz-adv-x="522" 
d="M519 234q-44 -32 -83.5 -46.5t-83.5 -14.5q-15 0 -28.5 1.5t-28 5.5t-32 11.5t-41.5 18.5t-39 15.5t-32 4.5q-30 0 -62.5 -12.5t-62.5 -35.5l-29 41q40 32 80.5 49.5t77.5 17.5q17 0 37.5 -5.5t43.5 -15.5l50 -21q23 -10 38.5 -14t32.5 -4q35 0 63.5 11t65.5 37z" />
    <glyph glyph-name="uni00A0" unicode="&#xa0;" horiz-adv-x="250" 
 />
    <glyph glyph-name="exclamdown" unicode="&#xa1;" horiz-adv-x="265" 
d="M74 -243l38 544h40l38 -544h-116zM189 448q0 -24 -17 -40.5t-40 -16.5t-40 16.5t-17 40.5q0 23 17 40t40 17t40 -17t17 -40z" />
    <glyph glyph-name="cent" unicode="&#xa2;" 
d="M458 35q-24 -14 -43 -23.5t-35.5 -15t-33 -7.5t-36.5 -2q-6 0 -15 1t-21 1h-8l-14 -75h-37l16 83q-76 18 -118.5 75t-42.5 140q0 56 17.5 102.5t49.5 80t76 52t97 18.5h10l14 75h37l-14 -78q13 -2 24 -5t21.5 -7.5t22 -12t27.5 -18.5l-54 -59q-8 10 -13 17t-10 13
t-11.5 12t-15.5 15l-71 -371q15 -5 24 -7t19 -2q13 0 24.5 1.5t25 6t29.5 12t38 18.5zM313 428q-34 -1 -63 -16t-50.5 -40t-33.5 -58.5t-12 -72.5q0 -54 22.5 -100t66.5 -78z" />
    <glyph glyph-name="sterling" unicode="&#xa3;" 
d="M521 598q0 -12 -6.5 -22.5t-18.5 -16.5q-12 -5 -19 -5q-11 0 -22 7t-14 18l-8 26q-8 24 -31 24q-32 0 -61.5 -39t-47.5 -105l-27 -100h191l-21 -58h-187l-44 -161q-3 -11 -7.5 -21t-18.5 -33q21 -3 35.5 -5.5t28.5 -8t31.5 -14t43.5 -22.5q34 -19 55.5 -27t35.5 -8
q11 0 22 5.5t19 14.5q6 9 6 19q0 21 -29 52l72 44q14 -20 18 -31.5t4 -28.5q0 -52 -42 -83.5t-112 -31.5q-59 0 -106 28l-45 28q-16 10 -29 14t-38 6q-67 -76 -141 -76q-15 0 -24.5 8t-9.5 20q0 13 10.5 27t28 27t41.5 23.5t51 17.5q23 38 42 114l26 103h-126l14 36l128 22
l36 123q22 73 72.5 117t117.5 44q21 0 40.5 -6t34 -15.5t23 -22.5t8.5 -27z" />
    <glyph glyph-name="currency" unicode="&#xa4;" horiz-adv-x="400" 
d="M354 43l-87 87q-29 -20 -67 -20q-17 0 -33.5 5t-30.5 13l-85 -85l-39 39l85 84q-20 31 -20 67q0 38 20 67l-85 85l39 39l85 -86q28 18 64 18q37 0 67 -19l87 87l39 -39l-88 -88q18 -29 18 -64q0 -36 -18 -64l88 -87zM273 233q0 31 -21 52t-52 21q-30 0 -51 -21t-21 -52
q0 -30 21 -51t51 -21q31 0 52 21t21 51z" />
    <glyph glyph-name="yen" unicode="&#xa5;" 
d="M499 623l-175 -279h146v-39h-165v-94h165v-42h-165v-132h76v-37h-238v37h75v132h-165v42h165v94h-165v39h140l-182 279h-60v37h249v-37h-91l171 -261l161 261h-91v37h200v-37h-51z" />
    <glyph glyph-name="brokenbar" unicode="&#xa6;" horiz-adv-x="200" 
d="M71 -256v435h58v-435h-58zM71 319v425h58v-425h-58z" />
    <glyph glyph-name="section" unicode="&#xa7;" horiz-adv-x="396" 
d="M345 -30q0 -31 -3 -55t-10 -44.5t-18.5 -37.5t-27.5 -34q-55 -55 -123 -55q-36 0 -62 13.5t-61 49.5l65 42q29 -51 81 -51q54 0 83.5 39.5t29.5 110.5q0 28 -3.5 59.5t-11.5 68t-20.5 81t-30.5 100.5q-24 73 -39.5 123.5t-24.5 85.5t-13 57t-4 38q0 25 6 41.5t23 42.5
l16 -6q-2 -13 -2.5 -18.5t-0.5 -12.5q0 -26 10 -72t26 -95l64 -196q25 -75 38 -146.5t13 -128.5zM299 632q-29 52 -81 52q-54 0 -83.5 -39.5t-29.5 -111.5q0 -29 3.5 -59.5t11.5 -67.5t20.5 -81.5t30.5 -100.5q24 -72 39.5 -122.5t24.5 -85t12.5 -57t3.5 -38.5q0 -25 -6 -42
t-22 -42l-16 6q2 12 2.5 17.5t0.5 13.5q0 26 -10 72t-26 94l-64 197q-24 75 -37.5 146t-13.5 129q0 51 13 92.5t37 71.5t57.5 46t74.5 16q35 0 61.5 -14t61.5 -49z" />
    <glyph glyph-name="dieresis" unicode="&#xa8;" horiz-adv-x="570" 
d="M225 560q0 -20 -14.5 -35t-35.5 -15t-35.5 15t-14.5 35q0 21 14.5 36t35.5 15t35.5 -15t14.5 -36zM422 560q0 -20 -14.5 -35t-35.5 -15t-35.5 15t-14.5 35q0 21 14.5 36t35.5 15t35.5 -15t14.5 -36z" />
    <glyph glyph-name="copyright" unicode="&#xa9;" horiz-adv-x="1000" 
d="M910 243q0 -85 -32 -160t-87.5 -130.5t-130.5 -88t-160 -32.5t-160 32.5t-130.5 88t-87.5 130.5t-32 160t32 159.5t87.5 130t130.5 88t160 32.5t160 -32.5t130.5 -88t87.5 -130t32 -159.5zM846 243q0 72 -27 135t-74 110t-110 74t-135 27t-135 -27t-110 -74t-74 -110
t-27 -135t27 -135t74 -110.5t110 -74.5t135 -27t135 27t110 74.5t74 110.5t27 135zM669 28q-27 -12 -48 -20t-38 -12.5t-33.5 -6.5t-34.5 -2q-56 0 -102.5 18.5t-80 52t-52.5 79.5t-19 101q0 49 20.5 94t55 79t79.5 54t95 20q26 0 55 -7.5t52 -19.5v28h49v-144h-50v69
q-33 18 -52.5 24.5t-43.5 6.5q-36 0 -67.5 -15.5t-54 -42.5t-35.5 -64t-13 -80q0 -45 13.5 -83.5t37.5 -66t57.5 -43t72.5 -15.5q23 0 41 6.5t46 25.5v71h50v-107z" />
    <glyph glyph-name="ordfeminine" unicode="&#xaa;" horiz-adv-x="353" 
d="M343 369q-1 0 -11 -3.5t-23 -7t-25.5 -6.5t-19.5 -3q-17 0 -27.5 9.5t-12.5 25.5q-20 -20 -40.5 -29t-46.5 -9q-39 0 -65 23.5t-26 60.5q0 29 17 50t45 27l114 25v70q0 17 -11.5 28t-30.5 11q-8 0 -15.5 -2t-19.5 -7v-33l-74 -21q-6 11 -7.5 16t-1.5 12q0 34 34.5 54
t83.5 20q48 0 78.5 -21t30.5 -59v-200h54v-31zM222 490l-105 -23v-28q0 -18 11 -28.5t30 -10.5q14 0 28 6.5t36 24.5v59z" />
    <glyph glyph-name="guillemotleft" unicode="&#xab;" 
d="M25 224l232 192v-41l-118 -151l118 -151v-42zM226 224l232 192v-41l-119 -151l119 -151v-42z" />
    <glyph glyph-name="logicalnot" unicode="&#xac;" horiz-adv-x="550" 
d="M463 41v163h-438v56h500v-219h-62z" />
    <glyph glyph-name="uni00AD" unicode="&#xad;" horiz-adv-x="275" 
d="M42 190v76h191v-76h-191z" />
    <glyph glyph-name="registered" unicode="&#xae;" horiz-adv-x="1000" 
d="M910 229q0 -85 -32 -159.5t-87.5 -130t-130.5 -88t-160 -32.5t-160 32.5t-130.5 88t-87.5 130t-32 159.5t32 160t87.5 130.5t130.5 88t160 32.5t160 -32.5t130.5 -88t87.5 -130.5t32 -160zM846 229q0 72 -27 135t-74 110.5t-110 74.5t-135 27t-135 -27t-110 -74.5
t-74 -110.5t-27 -135t27 -135t74 -110t110 -74t135 -27t135 27t110 74t74 110t27 135zM601 0l-117 206h-47v-169h69v-37h-209v37h70v392h-70v37h198q172 0 172 -124q0 -96 -109 -126l93 -159q12 -20 33 -20h33v-37h-116zM591 335q0 90 -104 90h-50v-178h61q42 0 67.5 24
t25.5 64z" />
    <glyph glyph-name="macron" unicode="&#xaf;" horiz-adv-x="406" 
d="M359 525h-307v63h307v-63z" />
    <glyph glyph-name="degree" unicode="&#xb0;" horiz-adv-x="333" 
d="M286 547q0 -25 -9.5 -47t-26 -38.5t-39 -26t-47.5 -9.5t-47 9.5t-38.5 26t-26 38.5t-9.5 47t9.5 47.5t26 39t38.5 26t47 9.5t47.5 -9.5t39 -26t26 -39t9.5 -47.5zM236 547q0 30 -21 51t-51 21q-29 0 -50 -21t-21 -51q0 -29 21 -50t50 -21q30 0 51 21t21 50z" />
    <glyph glyph-name="plusminus" unicode="&#xb1;" horiz-adv-x="550" 
d="M303 249v-169h-56v169h-209v56h209v169h56v-169h209v-56h-209zM38 0v57h474v-57h-474z" />
    <glyph glyph-name="twosuperior" unicode="&#xb2;" horiz-adv-x="360" 
d="M28 199v34q19 21 43 47t48 54.5t45 58t35 57.5q7 14 13.5 35t6.5 59q0 35 -14 52.5t-35 17.5q-26 0 -52.5 -12.5t-55.5 -43.5l-35 30q42 44 77 60t77 16q55 0 89 -30.5t34 -80.5q0 -61 -24.5 -105t-62.5 -86l-94 -107h157v40h42v-96h-294z" />
    <glyph glyph-name="threesuperior" unicode="&#xb3;" horiz-adv-x="360" 
d="M306 340q0 -31 -14.5 -58t-38.5 -47t-55.5 -31.5t-65.5 -11.5q-25 0 -46 6.5t-57 25.5l24 40q18 -10 30.5 -15t22 -7.5t17.5 -3t16 -0.5q17 0 32.5 8t27 20.5t18 29t6.5 33.5q0 48 -21 67t-56 19h-39v35q53 29 72 54.5t20 51.5v6q0 55 -46 55q-17 0 -32.5 -7.5
t-43.5 -31.5l-34 29q36 33 64 46t60 13q57 0 85.5 -30.5t28.5 -73.5q0 -29 -15.5 -52t-50.5 -43q42 -11 66.5 -45.5t24.5 -81.5z" />
    <glyph glyph-name="acute" unicode="&#xb4;" horiz-adv-x="570" 
d="M229 513h-53l119 161h93z" />
    <glyph glyph-name="mu" unicode="&#xb5;" horiz-adv-x="570" 
d="M416 -8h-18v113q-27 -33 -50 -55.5t-44.5 -36.5t-42.5 -20t-44 -6q-33 0 -58 12l17 -242h-94q1 40 2.5 89t3 100.5t3 100.5t3 89t2 66t0.5 31v164h-87v27l144 39h19v-335q0 -91 73 -91q13 0 23.5 2.5t22 9t24.5 18.5t31 32l52 58v240h-76v31l132 35h19v-407h87v-28z" />
    <glyph glyph-name="paragraph" unicode="&#xb6;" horiz-adv-x="644" 
d="M492 698v-954h-37v955h-78v-955h-38v501h-50q-47 0 -89 19.5t-74 53t-51 77.5t-19 93q0 54 19 99.5t52 78.5t78 52t98 19h284v-39h-95z" />
    <glyph glyph-name="periodcentered" unicode="&#xb7;" horiz-adv-x="474" 
d="M296 240q0 -25 -17.5 -42t-41.5 -17q-25 0 -42 17t-17 42q0 24 17 41.5t42 17.5q24 0 41.5 -17.5t17.5 -41.5z" />
    <glyph glyph-name="cedilla" unicode="&#xb8;" horiz-adv-x="667" 
d="M434 20l-63 -76q45 -18 60.5 -35t15.5 -47q0 -19 -9 -36t-25 -29.5t-38 -19.5t-47 -7q-10 0 -18 1t-17.5 2.5t-21.5 4.5t-31 8l27 53q35 -32 73 -32q18 0 29.5 12.5t11.5 31.5q0 27 -18 41.5t-63 23.5l97 104h37z" />
    <glyph glyph-name="onesuperior" unicode="&#xb9;" horiz-adv-x="360" 
d="M80 199v40h75v349l-86 -35l-14 44l176 76v-434h75v-40h-226z" />
    <glyph glyph-name="ordmasculine" unicode="&#xba;" horiz-adv-x="353" 
d="M337 513q0 -35 -12.5 -65t-34.5 -53t-51 -36t-63 -13q-33 0 -62.5 13t-51 36t-34 53t-12.5 65q0 34 12.5 64.5t34 53.5t51 36t62.5 13q34 0 63 -13t51 -36t34.5 -53.5t12.5 -64.5zM263 513q0 27 -7 50t-19 39.5t-28 26t-33 9.5q-35 0 -60 -35t-25 -90q0 -27 7 -50
t18.5 -39.5t27 -26t32.5 -9.5t33 9.5t28 26t19 39.5t7 50z" />
    <glyph glyph-name="guillemotright" unicode="&#xbb;" 
d="M238 31v42l119 151l-119 151v41l233 -192zM38 31v42l119 151l-119 151v41l232 -192z" />
    <glyph glyph-name="onequarter" unicode="&#xbc;" horiz-adv-x="830" 
d="M80 199v40h75v349l-86 -35l-14 44l176 76v-434h75v-40h-226zM309 -46h-61l313 733h61zM735 128v-128h-67v128h-189v27l228 310h28v-283h87v-54h-87zM668 332l-109 -150h109v150z" />
    <glyph glyph-name="onehalf" unicode="&#xbd;" horiz-adv-x="870" 
d="M80 199v40h75v349l-86 -35l-14 44l176 76v-434h75v-40h-226zM309 -46h-61l313 733h61zM538 0v34q19 21 43 47t48 54.5t45 58t35 57.5q7 14 13.5 35t6.5 59q0 35 -14 52.5t-35 17.5q-26 0 -52.5 -12.5t-55.5 -43.5l-35 30q42 44 77 60t77 16q55 0 89 -30.5t34 -80.5
q0 -61 -24.5 -105t-62.5 -86l-94 -107h157v40h42v-96h-294z" />
    <glyph glyph-name="threequarters" unicode="&#xbe;" horiz-adv-x="830" 
d="M306 340q0 -31 -14.5 -58t-38.5 -47t-55.5 -31.5t-65.5 -11.5q-25 0 -46 6.5t-57 25.5l24 40q18 -10 30.5 -15t22 -7.5t17.5 -3t16 -0.5q17 0 32.5 8t27 20.5t18 29t6.5 33.5q0 48 -21 67t-56 19h-39v35q53 29 72 54.5t20 51.5v6q0 55 -46 55q-17 0 -32.5 -7.5
t-43.5 -31.5l-34 29q36 33 64 46t60 13q57 0 85.5 -30.5t28.5 -73.5q0 -29 -15.5 -52t-50.5 -43q42 -11 66.5 -45.5t24.5 -81.5zM309 -46h-61l313 733h61zM735 128v-128h-67v128h-189v27l228 310h28v-283h87v-54h-87zM668 332l-109 -150h109v150z" />
    <glyph glyph-name="questiondown" unicode="&#xbf;" horiz-adv-x="409" 
d="M288 -256q-53 15 -96 43t-73 66.5t-46.5 86t-16.5 100.5q0 66 32 104t88 38h61l26 106h25v-176h-165q-10 -18 -12.5 -29t-2.5 -34q0 -48 21 -88t58 -63q15 -10 27.5 -17t27 -12.5t33.5 -10.5t48 -12zM326 434q0 -23 -17 -40t-40 -17q-24 0 -41 16.5t-17 39.5
q0 24 16 41.5t42 17.5q23 0 40 -17t17 -41z" />
    <glyph glyph-name="Agrave" unicode="&#xc0;" horiz-adv-x="672" 
d="M435 0v37h80l-70 181h-256l-73 -180h83v-38h-191v38h52l260 643h36l250 -643h57v-38h-228zM321 546l-113 -281h220zM166 809h101l118 -102h-55z" />
    <glyph glyph-name="Aacute" unicode="&#xc1;" horiz-adv-x="672" 
d="M435 0v37h80l-70 181h-256l-73 -180h83v-38h-191v38h52l260 643h36l250 -643h57v-38h-228zM321 546l-113 -281h220zM345 707h-55l118 102h101z" />
    <glyph glyph-name="Acircumflex" unicode="&#xc2;" horiz-adv-x="672" 
d="M435 0v37h80l-70 181h-256l-73 -180h83v-38h-191v38h52l260 643h36l250 -643h57v-38h-228zM321 546l-113 -281h220zM425 707l-85 59l-86 -59h-48l112 112h44l107 -112h-44z" />
    <glyph glyph-name="Atilde" unicode="&#xc3;" horiz-adv-x="672" 
d="M435 0v37h80l-70 181h-256l-73 -180h83v-38h-191v38h52l260 643h36l250 -643h57v-38h-228zM321 546l-113 -281h220zM532 779q-18 -22 -33 -36.5t-29.5 -23t-30.5 -12t-36 -3.5q-24 0 -41.5 5t-37.5 19q-13 9 -21 13.5t-14 7t-11 3t-12 0.5q-20 0 -37.5 -8.5t-38.5 -29.5
l-25 17q32 42 60.5 59.5t61.5 17.5q14 0 27 -2.5t20 -7.5l38 -23q28 -18 61 -18q12 0 20.5 1t16.5 5t16.5 11.5t21.5 20.5z" />
    <glyph glyph-name="Adieresis" unicode="&#xc4;" horiz-adv-x="672" 
d="M435 0v37h80l-70 181h-256l-73 -180h83v-38h-191v38h52l260 643h36l250 -643h57v-38h-228zM321 546l-113 -281h220zM472 754q0 -20 -14.5 -35t-35.5 -15t-35.5 15t-14.5 35q0 21 14.5 36t35.5 15t35.5 -15t14.5 -36zM307 754q0 -20 -14.5 -35t-35.5 -15t-35.5 15
t-14.5 35q0 21 14.5 36t35.5 15t35.5 -15t14.5 -36z" />
    <glyph glyph-name="Aring" unicode="&#xc5;" horiz-adv-x="672" 
d="M435 0v37h80l-70 181h-256l-73 -180h83v-38h-191v38h52l260 643h36l250 -643h57v-38h-228zM321 546l-113 -281h220zM417 782q0 -33 -23.5 -56t-56.5 -23t-56 23t-23 56t23 56.5t56 23.5t56.5 -23.5t23.5 -56.5zM384 782q0 20 -13.5 33t-33.5 13q-19 0 -32.5 -13
t-13.5 -33q0 -19 13.5 -32.5t32.5 -13.5q20 0 33.5 13.5t13.5 32.5z" />
    <glyph glyph-name="AE" unicode="&#xc6;" horiz-adv-x="867" 
d="M351 0v37h75v180h-212l-96 -180h80v-37h-190v37h45l316 586h-64v37h447v23h47v-157h-47v84h-239v-255h192v76h46v-195h-46v74h-192v-264h248v86h47v-132h-457zM426 619l-189 -356h189v356z" />
    <glyph glyph-name="Ccedilla" unicode="&#xc7;" horiz-adv-x="667" 
d="M617 29q-31 -11 -57.5 -19t-51 -13t-48.5 -7.5t-50 -2.5l-36 -43q45 -18 60.5 -35t15.5 -47q0 -19 -9 -36t-25 -29.5t-38 -19.5t-47 -7q-10 0 -18 1t-17.5 2.5t-21.5 4.5t-31 8l27 53q35 -32 73 -32q18 0 29.5 12.5t11.5 31.5q0 27 -18 41.5t-63 23.5l68 73
q-70 6 -129 33.5t-101.5 72.5t-66.5 104.5t-24 128.5q0 73 26.5 135.5t73 109t110 73t136.5 26.5q49 0 90 -8.5t83 -28.5v45h47v-170h-47v49q-46 34 -84 48t-86 14q-56 0 -102 -21t-79 -59t-51 -91t-18 -116q0 -62 20.5 -116t56 -94t84 -62.5t104.5 -22.5q38 0 72.5 11
t82.5 39v73h48v-133z" />
    <glyph glyph-name="Egrave" unicode="&#xc8;" horiz-adv-x="581" 
d="M67 0v37h75v586h-75v37h399v28h46v-159h-45v85h-237v-256h189v76h46v-198h-46v77h-189v-268h246v88h46v-133h-455zM173 809h101l118 -102h-55z" />
    <glyph glyph-name="Eacute" unicode="&#xc9;" horiz-adv-x="581" 
d="M67 0v37h75v586h-75v37h399v28h46v-159h-45v85h-237v-256h189v76h46v-198h-46v77h-189v-268h246v88h46v-133h-455zM280 707h-55l118 102h101z" />
    <glyph glyph-name="Ecircumflex" unicode="&#xca;" horiz-adv-x="581" 
d="M67 0v37h75v586h-75v37h399v28h46v-159h-45v85h-237v-256h189v76h46v-198h-46v77h-189v-268h246v88h46v-133h-455zM382 707l-85 59l-86 -59h-48l112 112h44l107 -112h-44z" />
    <glyph glyph-name="Edieresis" unicode="&#xcb;" horiz-adv-x="581" 
d="M67 0v37h75v586h-75v37h399v28h46v-159h-45v85h-237v-256h189v76h46v-198h-46v77h-189v-268h246v88h46v-133h-455zM230 754q0 -20 -14.5 -35t-35.5 -15t-35.5 15t-14.5 35q0 21 14.5 36t35.5 15t35.5 -15t14.5 -36zM427 754q0 -20 -14.5 -35t-35.5 -15t-35.5 15t-14.5 35
q0 21 14.5 36t35.5 15t35.5 -15t14.5 -36z" />
    <glyph glyph-name="Igrave" unicode="&#xcc;" horiz-adv-x="372" 
d="M67 0v37h75v586h-75v37h238v-37h-75v-586h75v-37h-238zM22 809h101l118 -102h-55z" />
    <glyph glyph-name="Iacute" unicode="&#xcd;" horiz-adv-x="372" 
d="M67 0v37h75v586h-75v37h238v-37h-75v-586h75v-37h-238zM192 707h-55l118 102h101z" />
    <glyph glyph-name="Icircumflex" unicode="&#xce;" horiz-adv-x="372" 
d="M67 0v37h75v586h-75v37h238v-37h-75v-586h75v-37h-238zM274 707l-85 59l-86 -59h-48l112 112h44l107 -112h-44z" />
    <glyph glyph-name="Idieresis" unicode="&#xcf;" horiz-adv-x="372" 
d="M67 0v37h75v586h-75v37h238v-37h-75v-586h75v-37h-238zM312 754q0 -20 -14.5 -35t-35.5 -15t-35.5 15t-14.5 35q0 21 14.5 36t35.5 15t35.5 -15t14.5 -36zM161 754q0 -20 -14.5 -35t-35.5 -15t-35.5 15t-14.5 35q0 21 14.5 36t35.5 15t35.5 -15t14.5 -36z" />
    <glyph glyph-name="Eth" unicode="&#xd0;" horiz-adv-x="740" 
d="M689 331q0 -69 -25.5 -129.5t-69.5 -105.5t-104 -70.5t-129 -25.5h-294v37h75v293h-112v43h112v250h-75v37h295q67 0 127 -26t104 -70.5t70 -104.5t26 -128zM590 330q0 58 -18.5 108.5t-51 88.5t-76 60t-92.5 22h-122v-236h118v-43h-118v-280h120q51 0 95 21.5t76.5 59
t50.5 88.5t18 111z" />
    <glyph glyph-name="Ntilde" unicode="&#xd1;" horiz-adv-x="737" 
d="M611 623v-634h-31l-384 528v-480h76v-37h-202v37h76v548l-27 38h-69v37h145l366 -502v465h-76v37h201v-37h-75zM553 779q-18 -22 -33 -36.5t-29.5 -23t-30.5 -12t-36 -3.5q-24 0 -41.5 5t-37.5 19q-13 9 -21 13.5t-14 7t-11 3t-12 0.5q-20 0 -37.5 -8.5t-38.5 -29.5
l-25 17q32 42 60.5 59.5t61.5 17.5q14 0 27 -2.5t20 -7.5l38 -23q28 -18 61 -18q12 0 20.5 1t16.5 5t16.5 11.5t21.5 20.5z" />
    <glyph glyph-name="Ograve" unicode="&#xd2;" horiz-adv-x="743" 
d="M693 330q0 -70 -25.5 -132t-69 -109t-102 -74.5t-123.5 -27.5q-66 0 -124.5 27.5t-103 74t-70 108.5t-25.5 132t25.5 132.5t69.5 109.5t103 74t125 27q65 0 123.5 -27.5t102 -74t69 -108.5t25.5 -132zM594 330q0 63 -16.5 116t-46 92t-69.5 60.5t-88 21.5
q-49 0 -90.5 -21.5t-71.5 -60t-46.5 -91.5t-16.5 -117q0 -63 16.5 -116.5t46.5 -92.5t71 -60.5t90 -21.5q48 0 88.5 22t70 60.5t46 92t16.5 116.5zM211 809h101l118 -102h-55z" />
    <glyph glyph-name="Oacute" unicode="&#xd3;" horiz-adv-x="743" 
d="M693 330q0 -70 -25.5 -132t-69 -109t-102 -74.5t-123.5 -27.5q-66 0 -124.5 27.5t-103 74t-70 108.5t-25.5 132t25.5 132.5t69.5 109.5t103 74t125 27q65 0 123.5 -27.5t102 -74t69 -108.5t25.5 -132zM594 330q0 63 -16.5 116t-46 92t-69.5 60.5t-88 21.5
q-49 0 -90.5 -21.5t-71.5 -60t-46.5 -91.5t-16.5 -117q0 -63 16.5 -116.5t46.5 -92.5t71 -60.5t90 -21.5q48 0 88.5 22t70 60.5t46 92t16.5 116.5zM382 707h-55l118 102h101z" />
    <glyph glyph-name="Ocircumflex" unicode="&#xd4;" horiz-adv-x="743" 
d="M693 330q0 -70 -25.5 -132t-69 -109t-102 -74.5t-123.5 -27.5q-66 0 -124.5 27.5t-103 74t-70 108.5t-25.5 132t25.5 132.5t69.5 109.5t103 74t125 27q65 0 123.5 -27.5t102 -74t69 -108.5t25.5 -132zM594 330q0 63 -16.5 116t-46 92t-69.5 60.5t-88 21.5
q-49 0 -90.5 -21.5t-71.5 -60t-46.5 -91.5t-16.5 -117q0 -63 16.5 -116.5t46.5 -92.5t71 -60.5t90 -21.5q48 0 88.5 22t70 60.5t46 92t16.5 116.5zM459 707l-85 59l-86 -59h-48l112 112h44l107 -112h-44z" />
    <glyph glyph-name="Otilde" unicode="&#xd5;" horiz-adv-x="743" 
d="M693 330q0 -70 -25.5 -132t-69 -109t-102 -74.5t-123.5 -27.5q-66 0 -124.5 27.5t-103 74t-70 108.5t-25.5 132t25.5 132.5t69.5 109.5t103 74t125 27q65 0 123.5 -27.5t102 -74t69 -108.5t25.5 -132zM594 330q0 63 -16.5 116t-46 92t-69.5 60.5t-88 21.5
q-49 0 -90.5 -21.5t-71.5 -60t-46.5 -91.5t-16.5 -117q0 -63 16.5 -116.5t46.5 -92.5t71 -60.5t90 -21.5q48 0 88.5 22t70 60.5t46 92t16.5 116.5zM557 779q-18 -22 -33 -36.5t-29.5 -23t-30.5 -12t-36 -3.5q-24 0 -41.5 5t-37.5 19q-13 9 -21 13.5t-14 7t-11 3t-12 0.5
q-20 0 -37.5 -8.5t-38.5 -29.5l-25 17q32 42 60.5 59.5t61.5 17.5q14 0 27 -2.5t20 -7.5l38 -23q28 -18 61 -18q12 0 20.5 1t16.5 5t16.5 11.5t21.5 20.5z" />
    <glyph glyph-name="Odieresis" unicode="&#xd6;" horiz-adv-x="743" 
d="M693 330q0 -70 -25.5 -132t-69 -109t-102 -74.5t-123.5 -27.5q-66 0 -124.5 27.5t-103 74t-70 108.5t-25.5 132t25.5 132.5t69.5 109.5t103 74t125 27q65 0 123.5 -27.5t102 -74t69 -108.5t25.5 -132zM594 330q0 63 -16.5 116t-46 92t-69.5 60.5t-88 21.5
q-49 0 -90.5 -21.5t-71.5 -60t-46.5 -91.5t-16.5 -117q0 -63 16.5 -116.5t46.5 -92.5t71 -60.5t90 -21.5q48 0 88.5 22t70 60.5t46 92t16.5 116.5zM304 754q0 -20 -14.5 -35t-35.5 -15t-35.5 15t-14.5 35q0 21 14.5 36t35.5 15t35.5 -15t14.5 -36zM541 754q0 -20 -14.5 -35
t-35.5 -15t-35.5 15t-14.5 35q0 21 14.5 36t35.5 15t35.5 -15t14.5 -36z" />
    <glyph glyph-name="multiply" unicode="&#xd7;" horiz-adv-x="550" 
d="M472 -12l-197 196l-197 -197l-42 42l197 197l-197 197l42 42l197 -197l197 197l42 -42l-197 -197l197 -197z" />
    <glyph glyph-name="Oslash" unicode="&#xd8;" horiz-adv-x="751" 
d="M608 568q48 -57 70 -114t22 -125q0 -69 -26 -131t-70.5 -109t-103 -74.5t-123.5 -27.5q-60 0 -109.5 19t-95.5 61l-101 -116l-29 25l102 117q-48 53 -70.5 110t-22.5 127q0 71 25.5 133t69.5 108.5t103 73.5t126 27q116 0 205 -77l102 117l29 -26zM534 543
q-63 78 -160 78q-48 0 -89 -21.5t-71 -60t-47 -91.5t-17 -115q0 -51 10.5 -94t33.5 -88zM601 329q0 51 -10 91.5t-34 88.5l-339 -390q34 -42 72 -60.5t86 -18.5t89.5 22t71.5 60.5t47 91.5t17 115z" />
    <glyph glyph-name="Ugrave" unicode="&#xd9;" horiz-adv-x="780" 
d="M654 623v-381q0 -81 -29 -134t-92 -87q-65 -34 -139 -34q-54 0 -100.5 17t-80 47.5t-52.5 72t-19 90.5v409h-75v37h238v-37h-75v-378q0 -45 13 -82t36.5 -63.5t57 -40.5t75.5 -14q43 0 78 14.5t60 41t39 63.5t14 82v377h-75v37h201v-37h-75zM247 809h101l118 -102h-55z
" />
    <glyph glyph-name="Uacute" unicode="&#xda;" horiz-adv-x="780" 
d="M654 623v-381q0 -81 -29 -134t-92 -87q-65 -34 -139 -34q-54 0 -100.5 17t-80 47.5t-52.5 72t-19 90.5v409h-75v37h238v-37h-75v-378q0 -45 13 -82t36.5 -63.5t57 -40.5t75.5 -14q43 0 78 14.5t60 41t39 63.5t14 82v377h-75v37h201v-37h-75zM408 707h-55l118 102h101z
" />
    <glyph glyph-name="Ucircumflex" unicode="&#xdb;" horiz-adv-x="780" 
d="M654 623v-381q0 -81 -29 -134t-92 -87q-65 -34 -139 -34q-54 0 -100.5 17t-80 47.5t-52.5 72t-19 90.5v409h-75v37h238v-37h-75v-378q0 -45 13 -82t36.5 -63.5t57 -40.5t75.5 -14q43 0 78 14.5t60 41t39 63.5t14 82v377h-75v37h201v-37h-75zM502 707l-85 59l-86 -59h-48
l112 112h44l107 -112h-44z" />
    <glyph glyph-name="Udieresis" unicode="&#xdc;" horiz-adv-x="780" 
d="M654 623v-381q0 -81 -29 -134t-92 -87q-65 -34 -139 -34q-54 0 -100.5 17t-80 47.5t-52.5 72t-19 90.5v409h-75v37h238v-37h-75v-378q0 -45 13 -82t36.5 -63.5t57 -40.5t75.5 -14q43 0 78 14.5t60 41t39 63.5t14 82v377h-75v37h201v-37h-75zM336 754q0 -20 -14.5 -35
t-35.5 -15t-35.5 15t-14.5 35q0 21 14.5 36t35.5 15t35.5 -15t14.5 -36zM563 754q0 -20 -14.5 -35t-35.5 -15t-35.5 15t-14.5 35q0 21 14.5 36t35.5 15t35.5 -15t14.5 -36z" />
    <glyph glyph-name="Yacute" unicode="&#xdd;" horiz-adv-x="612" 
d="M552 623l-192 -313v-273h76v-37h-238v37h75v267l-207 319h-58v37h247v-37h-91l172 -262l159 262h-91v37h200v-37h-52zM340 707h-55l118 102h101z" />
    <glyph glyph-name="Thorn" unicode="&#xde;" horiz-adv-x="600" 
d="M549 344q0 -42 -17 -78.5t-46 -63t-69.5 -42t-86.5 -15.5q-14 0 -25 1t-31 5v35q10 -2 15 -2.5t12 -0.5q32 0 60.5 12.5t50 34.5t34 51.5t12.5 62.5q0 30 -9.5 56t-25.5 45.5t-37.5 31t-46.5 11.5h-109v-451h84v-37h-247v37h75v586h-75v37h241v-37h-78v-89h123
q43 0 79.5 -14t62 -39t40 -60t14.5 -77z" />
    <glyph glyph-name="germandbls" unicode="&#xdf;" horiz-adv-x="605" 
d="M555 121q0 -63 -46 -98.5t-127 -35.5q-48 0 -83 11t-71 37l48 61q28 -40 53.5 -55.5t61.5 -15.5q42 0 71 22.5t29 54.5q0 15 -4 25.5t-16.5 20t-35.5 21t-62 27.5q-66 27 -92.5 56t-26.5 74q0 22 4 38.5t15 33t30.5 34.5t51.5 43q35 28 48.5 49.5t13.5 51.5
q0 45 -29 75.5t-94 51.5q-34 -9 -55.5 -21t-33.5 -34t-16.5 -55t-4.5 -84v-509h-151v37h76v360h-87v27l87 22v81q0 46 14 85t39.5 67t60.5 44t76 16q38 0 73 -13.5t62 -35.5t43.5 -51t16.5 -60q0 -29 -16 -56.5t-43 -45.5l-62 -42q-25 -17 -39 -40t-14 -47q0 -16 4 -27
t16 -21t34 -20t58 -23q66 -24 94.5 -55.5t28.5 -80.5z" />
    <glyph glyph-name="agrave" unicode="&#xe0;" horiz-adv-x="457" 
d="M370 -2q-10 -3 -19.5 -5t-15.5 -2q-23 0 -36 15.5t-13 43.5v10q-32 -39 -62.5 -56t-70.5 -17q-52 0 -86 32t-34 83q0 38 22.5 67t58.5 37l171 39v113q0 30 -20 49.5t-50 19.5q-15 0 -27.5 -3t-34.5 -14v-48l-89 -26q-5 9 -6.5 14.5t-1.5 13.5q0 22 12 40.5t33 32t50 21
t63 7.5q66 0 106 -30t40 -80v-308h77v-28zM285 205l-171 -40v-50q0 -32 18.5 -50.5t50.5 -18.5q24 0 46.5 12t55.5 41v106zM222 513l-159 161h93l119 -161h-53z" />
    <glyph glyph-name="aacute" unicode="&#xe1;" horiz-adv-x="457" 
d="M370 -2q-10 -3 -19.5 -5t-15.5 -2q-23 0 -36 15.5t-13 43.5v10q-32 -39 -62.5 -56t-70.5 -17q-52 0 -86 32t-34 83q0 38 22.5 67t58.5 37l171 39v113q0 30 -20 49.5t-50 19.5q-15 0 -27.5 -3t-34.5 -14v-48l-89 -26q-5 9 -6.5 14.5t-1.5 13.5q0 22 12 40.5t33 32t50 21
t63 7.5q66 0 106 -30t40 -80v-308h77v-28zM285 205l-171 -40v-50q0 -32 18.5 -50.5t50.5 -18.5q24 0 46.5 12t55.5 41v106zM223 513h-53l119 161h93z" />
    <glyph glyph-name="acircumflex" unicode="&#xe2;" horiz-adv-x="457" 
d="M370 -2q-10 -3 -19.5 -5t-15.5 -2q-23 0 -36 15.5t-13 43.5v10q-32 -39 -62.5 -56t-70.5 -17q-52 0 -86 32t-34 83q0 38 22.5 67t58.5 37l171 39v113q0 30 -20 49.5t-50 19.5q-15 0 -27.5 -3t-34.5 -14v-48l-89 -26q-5 9 -6.5 14.5t-1.5 13.5q0 22 12 40.5t33 32t50 21
t63 7.5q66 0 106 -30t40 -80v-308h77v-28zM285 205l-171 -40v-50q0 -32 18.5 -50.5t50.5 -18.5q24 0 46.5 12t55.5 41v106zM304 513l-86 88l-85 -88h-49l113 165h43l108 -165h-44z" />
    <glyph glyph-name="atilde" unicode="&#xe3;" horiz-adv-x="457" 
d="M370 -2q-10 -3 -19.5 -5t-15.5 -2q-23 0 -36 15.5t-13 43.5v10q-32 -39 -62.5 -56t-70.5 -17q-52 0 -86 32t-34 83q0 38 22.5 67t58.5 37l171 39v113q0 30 -20 49.5t-50 19.5q-15 0 -27.5 -3t-34.5 -14v-48l-89 -26q-5 9 -6.5 14.5t-1.5 13.5q0 22 12 40.5t33 32t50 21
t63 7.5q66 0 106 -30t40 -80v-308h77v-28zM285 205l-171 -40v-50q0 -32 18.5 -50.5t50.5 -18.5q24 0 46.5 12t55.5 41v106zM403 585q-18 -22 -33 -36.5t-29.5 -23t-30.5 -12t-36 -3.5q-24 0 -41.5 5t-37.5 19q-13 9 -21 13.5t-14 7t-11 3t-12 0.5q-20 0 -37.5 -8.5
t-38.5 -29.5l-25 17q32 42 60.5 59.5t61.5 17.5q14 0 27 -2.5t20 -7.5l38 -23q28 -18 61 -18q12 0 20.5 1t16.5 5t16.5 11.5t21.5 20.5z" />
    <glyph glyph-name="adieresis" unicode="&#xe4;" horiz-adv-x="457" 
d="M370 -2q-10 -3 -19.5 -5t-15.5 -2q-23 0 -36 15.5t-13 43.5v10q-32 -39 -62.5 -56t-70.5 -17q-52 0 -86 32t-34 83q0 38 22.5 67t58.5 37l171 39v113q0 30 -20 49.5t-50 19.5q-15 0 -27.5 -3t-34.5 -14v-48l-89 -26q-5 9 -6.5 14.5t-1.5 13.5q0 22 12 40.5t33 32t50 21
t63 7.5q66 0 106 -30t40 -80v-308h77v-28zM285 205l-171 -40v-50q0 -32 18.5 -50.5t50.5 -18.5q24 0 46.5 12t55.5 41v106zM174 560q0 -20 -14.5 -35t-35.5 -15t-35.5 15t-14.5 35q0 21 14.5 36t35.5 15t35.5 -15t14.5 -36zM352 560q0 -20 -14.5 -35t-35.5 -15t-35.5 15
t-14.5 35q0 21 14.5 36t35.5 15t35.5 -15t14.5 -36z" />
    <glyph glyph-name="aring" unicode="&#xe5;" horiz-adv-x="457" 
d="M370 -2q-10 -3 -19.5 -5t-15.5 -2q-23 0 -36 15.5t-13 43.5v10q-32 -39 -62.5 -56t-70.5 -17q-52 0 -86 32t-34 83q0 38 22.5 67t58.5 37l171 39v113q0 30 -20 49.5t-50 19.5q-15 0 -27.5 -3t-34.5 -14v-48l-89 -26q-5 9 -6.5 14.5t-1.5 13.5q0 22 12 40.5t33 32t50 21
t63 7.5q66 0 106 -30t40 -80v-308h77v-28zM285 205l-171 -40v-50q0 -32 18.5 -50.5t50.5 -18.5q24 0 46.5 12t55.5 41v106zM299 589q0 -33 -23.5 -56t-56.5 -23t-56 23t-23 56t23 56.5t56 23.5t56.5 -23.5t23.5 -56.5zM266 589q0 20 -13.5 33t-33.5 13q-19 0 -32.5 -13
t-13.5 -33q0 -19 13.5 -32.5t32.5 -13.5q20 0 33.5 13.5t13.5 32.5z" />
    <glyph glyph-name="ae" unicode="&#xe6;" horiz-adv-x="700" 
d="M359 222q0 -23 1.5 -39.5t6 -30.5t12 -26.5t19.5 -26.5q24 -29 56.5 -45.5t67.5 -16.5q13 0 25.5 2t26 7t30 12.5t37.5 19.5l22 -34q-45 -31 -83 -44t-83 -13q-59 0 -105 23t-74 67q-26 -26 -46 -43t-39 -27.5t-37 -15t-39 -4.5q-57 0 -90.5 29.5t-33.5 80.5
q0 46 24.5 73t78.5 40l149 35v95q0 45 -18 66t-57 21q-16 0 -27.5 -3.5t-29.5 -14.5v-48l-88 -26q-6 9 -8 14.5t-2 11.5q0 22 13 41t35.5 33t52.5 22t64 8q52 0 81.5 -18t41.5 -57q23 37 60.5 56t87.5 19q75 0 121 -44t57 -125zM590 319q-3 109 -98 109q-128 0 -132 -164z
M300 111q-8 22 -11.5 38.5t-3.5 33.5v21l-170 -40v-50q0 -29 19.5 -48.5t49.5 -19.5q13 0 25.5 3t25.5 10.5t28.5 20t36.5 31.5z" />
    <glyph glyph-name="ccedilla" unicode="&#xe7;" horiz-adv-x="430" 
d="M417 35q-23 -13 -40 -22t-33 -14.5t-31.5 -8t-34.5 -3.5l-36 -43q45 -18 60.5 -35t15.5 -47q0 -19 -9 -36t-25 -29.5t-38 -19.5t-47 -7q-10 0 -18 1t-17.5 2.5t-21.5 4.5t-31 8l27 53q35 -32 73 -32q18 0 29.5 12.5t11.5 31.5q0 27 -18 41.5t-63 23.5l67 72
q-48 4 -86 21.5t-64.5 47.5t-41 70.5t-14.5 90.5q0 54 18 99.5t50.5 78.5t77 51t98.5 18q19 0 35 -2t31.5 -7.5t31 -14.5t35.5 -22l-54 -60q-13 13 -22.5 22t-18.5 16t-19 14t-25 16q-21 -2 -36 -5t-27 -9t-23 -15.5t-23 -24.5q-46 -57 -46 -132q0 -42 13.5 -79t36.5 -65
t54 -44t66 -16q24 0 47.5 7.5t64.5 28.5z" />
    <glyph glyph-name="egrave" unicode="&#xe8;" horiz-adv-x="461" 
d="M115 256v-11q0 -47 12 -86t33 -67t50.5 -43.5t65.5 -15.5q30 0 55.5 9.5t67.5 36.5l19 -37q-28 -16 -49.5 -26.5t-40.5 -17t-37.5 -9t-40.5 -2.5q-48 0 -87.5 17.5t-68.5 49t-45 74.5t-16 95t16 96.5t45 77t68 50.5t86 18q40 0 73.5 -13.5t57.5 -37.5t37.5 -57.5
t13.5 -73.5v-27h-315zM348 320q0 45 -27.5 74t-71.5 29q-55 0 -90.5 -34t-42.5 -93h232v24zM256 513l-159 161h93l119 -161h-53z" />
    <glyph glyph-name="eacute" unicode="&#xe9;" horiz-adv-x="461" 
d="M115 256v-11q0 -47 12 -86t33 -67t50.5 -43.5t65.5 -15.5q30 0 55.5 9.5t67.5 36.5l19 -37q-28 -16 -49.5 -26.5t-40.5 -17t-37.5 -9t-40.5 -2.5q-48 0 -87.5 17.5t-68.5 49t-45 74.5t-16 95t16 96.5t45 77t68 50.5t86 18q40 0 73.5 -13.5t57.5 -37.5t37.5 -57.5
t13.5 -73.5v-27h-315zM348 320q0 45 -27.5 74t-71.5 29q-55 0 -90.5 -34t-42.5 -93h232v24zM241 513h-53l119 161h93z" />
    <glyph glyph-name="ecircumflex" unicode="&#xea;" horiz-adv-x="461" 
d="M115 256v-11q0 -47 12 -86t33 -67t50.5 -43.5t65.5 -15.5q30 0 55.5 9.5t67.5 36.5l19 -37q-28 -16 -49.5 -26.5t-40.5 -17t-37.5 -9t-40.5 -2.5q-48 0 -87.5 17.5t-68.5 49t-45 74.5t-16 95t16 96.5t45 77t68 50.5t86 18q40 0 73.5 -13.5t57.5 -37.5t37.5 -57.5
t13.5 -73.5v-27h-315zM348 320q0 45 -27.5 74t-71.5 29q-55 0 -90.5 -34t-42.5 -93h232v24zM328 513l-86 88l-85 -88h-49l113 165h43l108 -165h-44z" />
    <glyph glyph-name="edieresis" unicode="&#xeb;" horiz-adv-x="461" 
d="M115 256v-11q0 -47 12 -86t33 -67t50.5 -43.5t65.5 -15.5q30 0 55.5 9.5t67.5 36.5l19 -37q-28 -16 -49.5 -26.5t-40.5 -17t-37.5 -9t-40.5 -2.5q-48 0 -87.5 17.5t-68.5 49t-45 74.5t-16 95t16 96.5t45 77t68 50.5t86 18q40 0 73.5 -13.5t57.5 -37.5t37.5 -57.5
t13.5 -73.5v-27h-315zM348 320q0 45 -27.5 74t-71.5 29q-55 0 -90.5 -34t-42.5 -93h232v24zM200 560q0 -20 -14.5 -35t-35.5 -15t-35.5 15t-14.5 35q0 21 14.5 36t35.5 15t35.5 -15t14.5 -36zM397 560q0 -20 -14.5 -35t-35.5 -15t-35.5 15t-14.5 35q0 21 14.5 36t35.5 15
t35.5 -15t14.5 -36z" />
    <glyph glyph-name="igrave" unicode="&#xec;" horiz-adv-x="282" 
d="M33 0v37h76v360h-87v27l144 39h18v-426h76v-37h-227zM157 513l-159 161h93l119 -161h-53z" />
    <glyph glyph-name="iacute" unicode="&#xed;" horiz-adv-x="282" 
d="M33 0v37h76v360h-87v27l144 39h18v-426h76v-37h-227zM125 513h-53l119 161h93z" />
    <glyph glyph-name="icircumflex" unicode="&#xee;" horiz-adv-x="282" 
d="M33 0v37h76v360h-87v27l144 39h18v-426h76v-37h-227zM227 513l-86 88l-85 -88h-49l113 165h43l108 -165h-44z" />
    <glyph glyph-name="idieresis" unicode="&#xef;" horiz-adv-x="282" 
d="M33 0v37h76v360h-87v27l144 39h18v-426h76v-37h-227zM117 560q0 -20 -14.5 -35t-35.5 -15t-35.5 15t-14.5 35q0 21 14.5 36t35.5 15t35.5 -15t14.5 -36zM252 560q0 -20 -14.5 -35t-35.5 -15t-35.5 15t-14.5 35q0 21 14.5 36t35.5 15t35.5 -15t14.5 -36z" />
    <glyph glyph-name="eth" unicode="&#xf0;" horiz-adv-x="470" 
d="M427 284q0 -65 -13 -119.5t-38 -94t-60 -61.5t-79 -22q-51 0 -87.5 17t-60.5 46.5t-35 70t-11 87.5q0 44 14 81.5t37.5 64.5t54.5 42t66 15q7 0 12.5 -0.5t11.5 -1.5t14 -3.5t20 -5.5l6 -39h-37q-28 0 -49.5 -14.5t-36 -38t-22 -52.5t-7.5 -58q0 -28 4.5 -58t16 -55.5
t31.5 -42t52 -16.5q22 0 42 21t36 57t25.5 83.5t9.5 101.5q0 66 -13.5 132.5t-48.5 119.5l-135 -77l-21 37l129 75q-31 32 -75 51.5t-105 19.5v42q72 0 129 -23t100 -62l97 56l22 -37l-89 -51q47 -57 70 -132t23 -156z" />
    <glyph glyph-name="ntilde" unicode="&#xf1;" horiz-adv-x="581" 
d="M335 0v37h75v293q0 40 -19 63t-52 23q-16 0 -30 -4.5t-31 -17.5t-39 -36.5t-55 -60.5v-260h76v-37h-227v37h76v360h-87v27l144 39h18v-112q28 33 51 54.5t44 35t42 19t45 5.5q56 0 88 -33.5t32 -91.5v-303h75v-37h-226zM462 585q-18 -22 -33 -36.5t-29.5 -23t-30.5 -12
t-36 -3.5q-24 0 -41.5 5t-37.5 19q-13 9 -21 13.5t-14 7t-11 3t-12 0.5q-20 0 -37.5 -8.5t-38.5 -29.5l-25 17q32 42 60.5 59.5t61.5 17.5q14 0 27 -2.5t20 -7.5l38 -23q28 -18 61 -18q12 0 20.5 1t16.5 5t16.5 11.5t21.5 20.5z" />
    <glyph glyph-name="ograve" unicode="&#xf2;" horiz-adv-x="505" 
d="M471 226q0 -50 -17 -93.5t-47 -75.5t-70 -51t-85 -19t-85 19t-70 51t-47 75.5t-17 93.5q0 49 17 93t47 76t70 51t85 19t85 -19t70 -51t47 -76t17 -93zM386 226q0 42 -10.5 78t-28.5 62.5t-42.5 41.5t-52.5 15t-52.5 -15t-42.5 -41.5t-28 -62.5t-10 -78q0 -41 10 -77
t28 -62.5t42.5 -42t52.5 -15.5t52.5 15t42.5 41.5t28.5 62.5t10.5 78zM259 513l-159 161h93l119 -161h-53z" />
    <glyph glyph-name="oacute" unicode="&#xf3;" horiz-adv-x="505" 
d="M471 226q0 -50 -17 -93.5t-47 -75.5t-70 -51t-85 -19t-85 19t-70 51t-47 75.5t-17 93.5q0 49 17 93t47 76t70 51t85 19t85 -19t70 -51t47 -76t17 -93zM386 226q0 42 -10.5 78t-28.5 62.5t-42.5 41.5t-52.5 15t-52.5 -15t-42.5 -41.5t-28 -62.5t-10 -78q0 -41 10 -77
t28 -62.5t42.5 -42t52.5 -15.5t52.5 15t42.5 41.5t28.5 62.5t10.5 78zM251 513h-53l119 161h93z" />
    <glyph glyph-name="ocircumflex" unicode="&#xf4;" horiz-adv-x="505" 
d="M471 226q0 -50 -17 -93.5t-47 -75.5t-70 -51t-85 -19t-85 19t-70 51t-47 75.5t-17 93.5q0 49 17 93t47 76t70 51t85 19t85 -19t70 -51t47 -76t17 -93zM386 226q0 42 -10.5 78t-28.5 62.5t-42.5 41.5t-52.5 15t-52.5 -15t-42.5 -41.5t-28 -62.5t-10 -78q0 -41 10 -77
t28 -62.5t42.5 -42t52.5 -15.5t52.5 15t42.5 41.5t28.5 62.5t10.5 78zM345 513l-86 88l-85 -88h-49l113 165h43l108 -165h-44z" />
    <glyph glyph-name="otilde" unicode="&#xf5;" horiz-adv-x="505" 
d="M471 226q0 -50 -17 -93.5t-47 -75.5t-70 -51t-85 -19t-85 19t-70 51t-47 75.5t-17 93.5q0 49 17 93t47 76t70 51t85 19t85 -19t70 -51t47 -76t17 -93zM386 226q0 42 -10.5 78t-28.5 62.5t-42.5 41.5t-52.5 15t-52.5 -15t-42.5 -41.5t-28 -62.5t-10 -78q0 -41 10 -77
t28 -62.5t42.5 -42t52.5 -15.5t52.5 15t42.5 41.5t28.5 62.5t10.5 78zM440 585q-18 -22 -33 -36.5t-29.5 -23t-30.5 -12t-36 -3.5q-24 0 -41.5 5t-37.5 19q-13 9 -21 13.5t-14 7t-11 3t-12 0.5q-20 0 -37.5 -8.5t-38.5 -29.5l-25 17q32 42 60.5 59.5t61.5 17.5q14 0 27 -2.5
t20 -7.5l38 -23q28 -18 61 -18q12 0 20.5 1t16.5 5t16.5 11.5t21.5 20.5z" />
    <glyph glyph-name="odieresis" unicode="&#xf6;" horiz-adv-x="505" 
d="M471 226q0 -50 -17 -93.5t-47 -75.5t-70 -51t-85 -19t-85 19t-70 51t-47 75.5t-17 93.5q0 49 17 93t47 76t70 51t85 19t85 -19t70 -51t47 -76t17 -93zM386 226q0 42 -10.5 78t-28.5 62.5t-42.5 41.5t-52.5 15t-52.5 -15t-42.5 -41.5t-28 -62.5t-10 -78q0 -41 10 -77
t28 -62.5t42.5 -42t52.5 -15.5t52.5 15t42.5 41.5t28.5 62.5t10.5 78zM205 560q0 -20 -14.5 -35t-35.5 -15t-35.5 15t-14.5 35q0 21 14.5 36t35.5 15t35.5 -15t14.5 -36zM402 560q0 -20 -14.5 -35t-35.5 -15t-35.5 15t-14.5 35q0 21 14.5 36t35.5 15t35.5 -15t14.5 -36z" />
    <glyph glyph-name="divide" unicode="&#xf7;" horiz-adv-x="550" 
d="M25 208v57h500v-57h-500zM335 427q0 -24 -17 -41t-41 -17q-25 0 -42 17t-17 41q0 25 17 42t42 17q24 0 41 -17t17 -42zM335 48q0 -25 -17 -42t-41 -17q-25 0 -42 17t-17 42q0 24 17 41t42 17q24 0 41 -17t17 -41z" />
    <glyph glyph-name="oslash" unicode="&#xf8;" horiz-adv-x="510" 
d="M418 387q29 -42 43 -80t14 -81q0 -49 -18 -92.5t-48.5 -76t-71 -51.5t-85.5 -19q-76 0 -135 52l-74 -86l-28 26l75 87q-30 39 -43.5 77t-13.5 84q0 49 17.5 92.5t47.5 75.5t70 51t86 19q74 0 136 -51l75 87l29 -25zM349 367q-21 29 -43.5 42t-52.5 13q-29 0 -53.5 -14.5
t-42.5 -40.5t-28 -61t-10 -76q0 -32 4 -57t15 -51zM388 229q0 24 -4.5 50t-13.5 52l-212 -245q17 -26 42.5 -41t55.5 -15q27 0 51 16t42 43t28.5 63t10.5 77z" />
    <glyph glyph-name="ugrave" unicode="&#xf9;" horiz-adv-x="570" 
d="M416 -8h-18v113q-27 -33 -50 -55.5t-44.5 -36.5t-42.5 -20t-44 -6q-57 0 -89 34.5t-32 94.5v281h-87v27l144 39h19v-335q0 -91 73 -91q28 0 48 13t51 47l54 60v240h-76v31l132 35h19v-407h87v-28zM273 513l-159 161h93l119 -161h-53z" />
    <glyph glyph-name="uacute" unicode="&#xfa;" horiz-adv-x="570" 
d="M416 -8h-18v113q-27 -33 -50 -55.5t-44.5 -36.5t-42.5 -20t-44 -6q-57 0 -89 34.5t-32 94.5v281h-87v27l144 39h19v-335q0 -91 73 -91q28 0 48 13t51 47l54 60v240h-76v31l132 35h19v-407h87v-28zM267 513h-53l119 161h93z" />
    <glyph glyph-name="ucircumflex" unicode="&#xfb;" horiz-adv-x="570" 
d="M416 -8h-18v113q-27 -33 -50 -55.5t-44.5 -36.5t-42.5 -20t-44 -6q-57 0 -89 34.5t-32 94.5v281h-87v27l144 39h19v-335q0 -91 73 -91q28 0 48 13t51 47l54 60v240h-76v31l132 35h19v-407h87v-28zM366 513l-86 88l-85 -88h-49l113 165h43l108 -165h-44z" />
    <glyph glyph-name="udieresis" unicode="&#xfc;" horiz-adv-x="570" 
d="M416 -8h-18v113q-27 -33 -50 -55.5t-44.5 -36.5t-42.5 -20t-44 -6q-57 0 -89 34.5t-32 94.5v281h-87v27l144 39h19v-335q0 -91 73 -91q28 0 48 13t51 47l54 60v240h-76v31l132 35h19v-407h87v-28zM225 560q0 -20 -14.5 -35t-35.5 -15t-35.5 15t-14.5 35q0 21 14.5 36
t35.5 15t35.5 -15t14.5 -36zM422 560q0 -20 -14.5 -35t-35.5 -15t-35.5 15t-14.5 35q0 21 14.5 36t35.5 15t35.5 -15t14.5 -36z" />
    <glyph glyph-name="yacute" unicode="&#xfd;" horiz-adv-x="443" 
d="M401 416l-169 -439q-9 -23 -20.5 -48.5t-24.5 -50t-25.5 -46t-22.5 -34.5l-40 -54l-65 67q21 12 35.5 21t26 18.5t21.5 20.5t22 26q10 14 18.5 26t15.5 26t14.5 30.5t16.5 39.5l-162 397h-42v37h194v-37h-71l121 -295l112 295h-67v37h154v-37h-42zM232 513h-53l119 161
h93z" />
    <glyph glyph-name="thorn" unicode="&#xfe;" horiz-adv-x="538" 
d="M505 246q0 -56 -17.5 -103.5t-49 -82t-74.5 -54t-94 -19.5q-14 0 -25 1t-20.5 4t-20 7.5t-23.5 11.5v-217h91v-37h-242v37h76v877h-88v27l144 39h19v-343q38 39 70.5 54.5t75.5 15.5q40 0 72.5 -16t56 -44.5t36.5 -68.5t13 -89zM419 225q0 82 -34 129.5t-93 47.5
q-29 0 -53 -12t-58 -46v-230q0 -47 17.5 -66t60.5 -19q36 0 65.5 14t50.5 40t32.5 62t11.5 80z" />
    <glyph glyph-name="ydieresis" unicode="&#xff;" horiz-adv-x="443" 
d="M401 416l-169 -439q-9 -23 -20.5 -48.5t-24.5 -50t-25.5 -46t-22.5 -34.5l-40 -54l-65 67q21 12 35.5 21t26 18.5t21.5 20.5t22 26q10 14 18.5 26t15.5 26t14.5 30.5t16.5 39.5l-162 397h-42v37h194v-37h-71l121 -295l112 295h-67v37h154v-37h-42zM186 560
q0 -20 -14.5 -35t-35.5 -15t-35.5 15t-14.5 35q0 21 14.5 36t35.5 15t35.5 -15t14.5 -36zM370 560q0 -20 -14.5 -35t-35.5 -15t-35.5 15t-14.5 35q0 21 14.5 36t35.5 15t35.5 -15t14.5 -36z" />
    <glyph glyph-name="Amacron" unicode="&#x100;" horiz-adv-x="672" 
d="M435 0v37h80l-70 181h-256l-73 -180h83v-38h-191v38h52l260 643h36l250 -643h57v-38h-228zM321 546l-113 -281h220zM490 719h-307v63h307v-63z" />
    <glyph glyph-name="amacron" unicode="&#x101;" horiz-adv-x="457" 
d="M370 -2q-10 -3 -19.5 -5t-15.5 -2q-23 0 -36 15.5t-13 43.5v10q-32 -39 -62.5 -56t-70.5 -17q-52 0 -86 32t-34 83q0 38 22.5 67t58.5 37l171 39v113q0 30 -20 49.5t-50 19.5q-15 0 -27.5 -3t-34.5 -14v-48l-89 -26q-5 9 -6.5 14.5t-1.5 13.5q0 22 12 40.5t33 32t50 21
t63 7.5q66 0 106 -30t40 -80v-308h77v-28zM285 205l-171 -40v-50q0 -32 18.5 -50.5t50.5 -18.5q24 0 46.5 12t55.5 41v106zM366 525h-307v63h307v-63z" />
    <glyph glyph-name="Abreve" unicode="&#x102;" horiz-adv-x="672" 
d="M435 0v37h80l-70 181h-256l-73 -180h83v-38h-191v38h52l260 643h36l250 -643h57v-38h-228zM321 546l-113 -281h220zM493 836q-7 -27 -20 -51.5t-32 -42.5t-45.5 -28.5t-60.5 -10.5q-61 0 -101 34.5t-59 98.5h40q17 -37 47.5 -57.5t73.5 -20.5q42 0 71.5 21t46.5 57h39z
" />
    <glyph glyph-name="abreve" unicode="&#x103;" horiz-adv-x="457" 
d="M370 -2q-10 -3 -19.5 -5t-15.5 -2q-23 0 -36 15.5t-13 43.5v10q-32 -39 -62.5 -56t-70.5 -17q-52 0 -86 32t-34 83q0 38 22.5 67t58.5 37l171 39v113q0 30 -20 49.5t-50 19.5q-15 0 -27.5 -3t-34.5 -14v-48l-89 -26q-5 9 -6.5 14.5t-1.5 13.5q0 22 12 40.5t33 32t50 21
t63 7.5q66 0 106 -30t40 -80v-308h77v-28zM285 205l-171 -40v-50q0 -32 18.5 -50.5t50.5 -18.5q24 0 46.5 12t55.5 41v106zM372 670q-5 -21 -10 -37t-10.5 -28t-12 -22t-14.5 -20q-22 -26 -51.5 -40t-59.5 -14q-61 0 -101 41.5t-59 119.5h40q17 -43 47.5 -67.5t73.5 -24.5
q42 0 71.5 25t46.5 67h39z" />
    <glyph glyph-name="Aogonek" unicode="&#x104;" horiz-adv-x="672" 
d="M604 -188q-17 -11 -35 -20t-42 -9q-32 0 -55 23.5t-23 64.5q0 39 18.5 69t48.5 60h-81v37h80l-70 181h-256l-73 -180h83v-38h-191v38h52l260 643h36l250 -643h57v-38h-89q-32 -32 -45 -56t-13 -47q0 -28 11 -41t27 -13q11 0 23 3.5t32 11.5zM321 546l-113 -281h220z" />
    <glyph glyph-name="aogonek" unicode="&#x105;" horiz-adv-x="457" 
d="M285 205l-171 -40v-50q0 -32 18.5 -50.5t50.5 -18.5q24 0 46.5 12t55.5 41v106zM313 -4q-27 13 -27 54v10q-32 -39 -62.5 -56t-70.5 -17q-52 0 -86 32t-34 83q0 38 22.5 67t58.5 37l171 39v113q0 30 -20 49.5t-50 19.5q-15 0 -27.5 -3t-34.5 -14v-48l-89 -26
q-5 9 -6.5 14.5t-1.5 13.5q0 22 12 40.5t33 32t50 21t63 7.5q66 0 106 -30t40 -80v-308h77v-28q-16 -5 -30 -9.5t-23 -8.5t-21 -14.5t-22 -25t-17 -31t-7 -33.5q0 -28 11 -41t27 -13q11 0 23 3.5t32 11.5l-5 -46q-17 -11 -35 -20t-42 -9q-32 0 -55 23.5t-23 64.5
q0 38 17.5 67t45.5 58z" />
    <glyph glyph-name="Cacute" unicode="&#x106;" horiz-adv-x="667" 
d="M617 29q-32 -12 -58.5 -20t-51.5 -13t-49 -7t-51 -2q-77 0 -142.5 25.5t-113 71t-74.5 108t-27 136.5q0 73 26.5 135.5t73 109t110 73t136.5 26.5q49 0 90 -8.5t83 -28.5v45h47v-170h-47v49q-46 34 -84 48t-86 14q-56 0 -102 -21t-79 -59t-51 -91t-18 -116
q0 -62 20.5 -116t56 -94t84 -62.5t104.5 -22.5q38 0 72.5 11t82.5 39v73h48v-133zM403 707h-55l118 102h101z" />
    <glyph glyph-name="cacute" unicode="&#x107;" horiz-adv-x="430" 
d="M417 35q-25 -15 -43.5 -24t-35.5 -14.5t-35 -7.5t-42 -2q-53 0 -95 16.5t-72 46.5t-46 72.5t-16 95.5q0 54 18 99.5t50.5 78.5t77 51t98.5 18q19 0 35 -2t31.5 -7.5t31 -14.5t35.5 -22l-54 -60q-13 13 -22.5 22t-18.5 16t-19 14t-25 16q-21 -2 -36 -5t-27 -9t-23 -15.5
t-23 -24.5q-46 -57 -46 -132q0 -42 13.5 -79t36.5 -65t54 -44t66 -16q24 0 47.5 7.5t64.5 28.5zM258 513h-53l119 161h93z" />
    <glyph glyph-name="Ccircumflex" unicode="&#x108;" horiz-adv-x="667" 
d="M617 29q-32 -12 -58.5 -20t-51.5 -13t-49 -7t-51 -2q-77 0 -142.5 25.5t-113 71t-74.5 108t-27 136.5q0 73 26.5 135.5t73 109t110 73t136.5 26.5q49 0 90 -8.5t83 -28.5v45h47v-170h-47v49q-46 34 -84 48t-86 14q-56 0 -102 -21t-79 -59t-51 -91t-18 -116
q0 -62 20.5 -116t56 -94t84 -62.5t104.5 -22.5q38 0 72.5 11t82.5 39v73h48v-133zM481 707l-85 59l-86 -59h-48l112 112h44l107 -112h-44z" />
    <glyph glyph-name="ccircumflex" unicode="&#x109;" horiz-adv-x="430" 
d="M417 35q-25 -15 -43.5 -24t-35.5 -14.5t-35 -7.5t-42 -2q-53 0 -95 16.5t-72 46.5t-46 72.5t-16 95.5q0 54 18 99.5t50.5 78.5t77 51t98.5 18q19 0 35 -2t31.5 -7.5t31 -14.5t35.5 -22l-54 -60q-13 13 -22.5 22t-18.5 16t-19 14t-25 16q-21 -2 -36 -5t-27 -9t-23 -15.5
t-23 -24.5q-46 -57 -46 -132q0 -42 13.5 -79t36.5 -65t54 -44t66 -16q24 0 47.5 7.5t64.5 28.5zM359 513l-86 88l-85 -88h-49l113 165h43l108 -165h-44z" />
    <glyph glyph-name="Cdotaccent" unicode="&#x10a;" horiz-adv-x="667" 
d="M617 29q-32 -12 -58.5 -20t-51.5 -13t-49 -7t-51 -2q-77 0 -142.5 25.5t-113 71t-74.5 108t-27 136.5q0 73 26.5 135.5t73 109t110 73t136.5 26.5q49 0 90 -8.5t83 -28.5v45h47v-170h-47v49q-46 34 -84 48t-86 14q-56 0 -102 -21t-79 -59t-51 -91t-18 -116
q0 -62 20.5 -116t56 -94t84 -62.5t104.5 -22.5q38 0 72.5 11t82.5 39v73h48v-133zM447 754q0 -20 -14.5 -35t-35.5 -15t-35.5 15t-14.5 35q0 21 14.5 36t35.5 15t35.5 -15t14.5 -36z" />
    <glyph glyph-name="cdotaccent" unicode="&#x10b;" horiz-adv-x="430" 
d="M417 35q-25 -15 -43.5 -24t-35.5 -14.5t-35 -7.5t-42 -2q-53 0 -95 16.5t-72 46.5t-46 72.5t-16 95.5q0 54 18 99.5t50.5 78.5t77 51t98.5 18q19 0 35 -2t31.5 -7.5t31 -14.5t35.5 -22l-54 -60q-13 13 -22.5 22t-18.5 16t-19 14t-25 16q-21 -2 -36 -5t-27 -9t-23 -15.5
t-23 -24.5q-46 -57 -46 -132q0 -42 13.5 -79t36.5 -65t54 -44t66 -16q24 0 47.5 7.5t64.5 28.5zM323 560q0 -20 -14.5 -35t-35.5 -15t-35.5 15t-14.5 35q0 21 14.5 36t35.5 15t35.5 -15t14.5 -36z" />
    <glyph glyph-name="Ccaron" unicode="&#x10c;" horiz-adv-x="667" 
d="M617 29q-32 -12 -58.5 -20t-51.5 -13t-49 -7t-51 -2q-77 0 -142.5 25.5t-113 71t-74.5 108t-27 136.5q0 73 26.5 135.5t73 109t110 73t136.5 26.5q49 0 90 -8.5t83 -28.5v45h47v-170h-47v49q-46 34 -84 48t-86 14q-56 0 -102 -21t-79 -59t-51 -91t-18 -116
q0 -62 20.5 -116t56 -94t84 -62.5t104.5 -22.5q38 0 72.5 11t82.5 39v73h48v-133zM309 819l85 -59l86 59h48l-112 -112h-44l-107 112h44z" />
    <glyph glyph-name="ccaron" unicode="&#x10d;" horiz-adv-x="430" 
d="M417 35q-25 -15 -43.5 -24t-35.5 -14.5t-35 -7.5t-42 -2q-53 0 -95 16.5t-72 46.5t-46 72.5t-16 95.5q0 54 18 99.5t50.5 78.5t77 51t98.5 18q19 0 35 -2t31.5 -7.5t31 -14.5t35.5 -22l-54 -60q-13 13 -22.5 22t-18.5 16t-19 14t-25 16q-21 -2 -36 -5t-27 -9t-23 -15.5
t-23 -24.5q-46 -57 -46 -132q0 -42 13.5 -79t36.5 -65t54 -44t66 -16q24 0 47.5 7.5t64.5 28.5zM288 513h-45l-107 165h43l86 -88l85 88h50z" />
    <glyph glyph-name="Dcaron" unicode="&#x10e;" horiz-adv-x="740" 
d="M689 331q0 -69 -25.5 -129.5t-69.5 -105.5t-104 -70.5t-129 -25.5h-294v37h75v586h-75v37h295q67 0 127 -26t104 -70.5t70 -104.5t26 -128zM590 330q0 58 -18.5 108.5t-51 88.5t-76 60t-92.5 22h-122v-559h120q51 0 95 21.5t76.5 59t50.5 88.5t18 111zM250 819l85 -59
l86 59h48l-112 -112h-44l-107 112h44z" />
    <glyph glyph-name="dcaron" unicode="&#x10f;" horiz-adv-x="532" 
d="M379 -10h-19v70q-41 -41 -72 -57t-69 -16q-39 0 -73 18t-59 48.5t-39.5 72.5t-14.5 90q0 52 18.5 97t51 79t75.5 53.5t92 19.5q26 0 43.5 -5t46.5 -20v231h-87v27l144 39h19v-681h87v-28zM360 340q0 47 -17 65t-62 18q-36 0 -66 -14t-51.5 -39t-33 -60.5t-11.5 -78.5
q0 -85 34.5 -132t96.5 -47q23 0 39 6.5t42 26.5l29 23v232zM578 689q0 -17 -6 -35q-7 -20 -17 -42t-22 -42h-47q6 15 9.5 24.5t6.5 17.5t5.5 16t5.5 20l-26 71q14 10 24.5 14t21.5 4q45 0 45 -48z" />
    <glyph glyph-name="Dcroat" unicode="&#x110;" horiz-adv-x="740" 
d="M689 331q0 -69 -25.5 -129.5t-69.5 -105.5t-104 -70.5t-129 -25.5h-294v37h75v293h-112v43h112v250h-75v37h295q67 0 127 -26t104 -70.5t70 -104.5t26 -128zM590 330q0 58 -18.5 108.5t-51 88.5t-76 60t-92.5 22h-122v-236h118v-43h-118v-280h120q51 0 95 21.5t76.5 59
t50.5 88.5t18 111z" />
    <glyph glyph-name="dcroat" unicode="&#x111;" horiz-adv-x="532" 
d="M436 535v-479h87v-28l-144 -38h-19v70q-41 -41 -72 -57t-69 -16q-39 0 -73 18t-59 48.5t-39.5 72.5t-14.5 90q0 52 18.5 97t51 79t75.5 53.5t92 19.5q26 0 43.5 -5t46.5 -20v95h-141v47h141v89h-87v27l144 39h19v-155h56v-47h-56zM360 340q0 47 -17 65t-62 18
q-36 0 -66 -14t-51.5 -39t-33 -60.5t-11.5 -78.5q0 -85 34.5 -132t96.5 -47q23 0 39 6.5t42 26.5l29 23v232z" />
    <glyph glyph-name="Emacron" unicode="&#x112;" horiz-adv-x="581" 
d="M67 0v37h75v586h-75v37h399v28h46v-159h-45v85h-237v-256h189v76h46v-198h-46v77h-189v-268h246v88h46v-133h-455zM447 719h-307v63h307v-63z" />
    <glyph glyph-name="emacron" unicode="&#x113;" horiz-adv-x="461" 
d="M115 256v-11q0 -47 12 -86t33 -67t50.5 -43.5t65.5 -15.5q30 0 55.5 9.5t67.5 36.5l19 -37q-28 -16 -49.5 -26.5t-40.5 -17t-37.5 -9t-40.5 -2.5q-48 0 -87.5 17.5t-68.5 49t-45 74.5t-16 95t16 96.5t45 77t68 50.5t86 18q40 0 73.5 -13.5t57.5 -37.5t37.5 -57.5
t13.5 -73.5v-27h-315zM348 320q0 45 -27.5 74t-71.5 29q-55 0 -90.5 -34t-42.5 -93h232v24zM401 525h-307v63h307v-63z" />
    <glyph glyph-name="Ebreve" unicode="&#x114;" horiz-adv-x="581" 
d="M67 0v37h75v586h-75v37h399v28h46v-159h-45v85h-237v-256h189v76h46v-198h-46v77h-189v-268h246v88h46v-133h-455zM450 836q-7 -27 -20 -51.5t-32 -42.5t-45.5 -28.5t-60.5 -10.5q-61 0 -101 34.5t-59 98.5h40q17 -37 47.5 -57.5t73.5 -20.5q42 0 71.5 21t46.5 57h39z
" />
    <glyph glyph-name="ebreve" unicode="&#x115;" horiz-adv-x="461" 
d="M115 256v-11q0 -47 12 -86t33 -67t50.5 -43.5t65.5 -15.5q30 0 55.5 9.5t67.5 36.5l19 -37q-28 -16 -49.5 -26.5t-40.5 -17t-37.5 -9t-40.5 -2.5q-48 0 -87.5 17.5t-68.5 49t-45 74.5t-16 95t16 96.5t45 77t68 50.5t86 18q40 0 73.5 -13.5t57.5 -37.5t37.5 -57.5
t13.5 -73.5v-27h-315zM348 320q0 45 -27.5 74t-71.5 29q-55 0 -90.5 -34t-42.5 -93h232v24zM403 670q-5 -21 -10 -37t-10.5 -28t-12 -22t-14.5 -20q-22 -26 -51.5 -40t-59.5 -14q-61 0 -101 41.5t-59 119.5h40q17 -43 47.5 -67.5t73.5 -24.5q42 0 71.5 25t46.5 67h39z" />
    <glyph glyph-name="Edotaccent" unicode="&#x116;" horiz-adv-x="581" 
d="M67 0v37h75v586h-75v37h399v28h46v-159h-45v85h-237v-256h189v76h46v-198h-46v77h-189v-268h246v88h46v-133h-455zM345 754q0 -20 -14.5 -35t-35.5 -15t-35.5 15t-14.5 35q0 21 14.5 36t35.5 15t35.5 -15t14.5 -36z" />
    <glyph glyph-name="edotaccent" unicode="&#x117;" horiz-adv-x="461" 
d="M115 256v-11q0 -47 12 -86t33 -67t50.5 -43.5t65.5 -15.5q30 0 55.5 9.5t67.5 36.5l19 -37q-28 -16 -49.5 -26.5t-40.5 -17t-37.5 -9t-40.5 -2.5q-48 0 -87.5 17.5t-68.5 49t-45 74.5t-16 95t16 96.5t45 77t68 50.5t86 18q40 0 73.5 -13.5t57.5 -37.5t37.5 -57.5
t13.5 -73.5v-27h-315zM348 320q0 45 -27.5 74t-71.5 29q-55 0 -90.5 -34t-42.5 -93h232v24zM298 560q0 -20 -14.5 -35t-35.5 -15t-35.5 15t-14.5 35q0 21 14.5 36t35.5 15t35.5 -15t14.5 -36z" />
    <glyph glyph-name="Eogonek" unicode="&#x118;" horiz-adv-x="581" 
d="M522 -188q-17 -11 -35 -20t-42 -9q-32 0 -55 23.5t-23 64.5q0 39 18.5 69t48.5 60h-367v37h75v586h-75v37h399v28h46v-159h-45v85h-237v-256h189v76h46v-198h-46v77h-189v-268h246v88h46v-133h-30q-32 -32 -45 -56t-13 -47q0 -28 11 -41t27 -13q11 0 23 3.5t32 11.5z" />
    <glyph glyph-name="eogonek" unicode="&#x119;" horiz-adv-x="461" 
d="M364 -188q-17 -11 -35 -20t-42 -9q-32 0 -55 23.5t-23 64.5q0 35 15.5 62.5t39.5 53.5h-14q-48 0 -87.5 17.5t-68.5 49t-45 74.5t-16 95t16 96.5t45 77t68 50.5t86 18q40 0 73.5 -13.5t57.5 -37.5t37.5 -57.5t13.5 -73.5v-27h-315v-11q0 -47 12 -86t33 -67t50.5 -43.5
t65.5 -15.5q30 0 55.5 9.5t67.5 36.5l19 -37q-52 -30 -80 -43q-5 -2 -15 -11.5t-20.5 -23t-18.5 -31t-8 -36.5q0 -28 11 -41t27 -13q11 0 23 3.5t32 11.5zM348 320q0 45 -27.5 74t-71.5 29q-55 0 -90.5 -34t-42.5 -93h232v24z" />
    <glyph glyph-name="Ecaron" unicode="&#x11a;" horiz-adv-x="581" 
d="M67 0v37h75v586h-75v37h399v28h46v-159h-45v85h-237v-256h189v76h46v-198h-46v77h-189v-268h246v88h46v-133h-455zM214 819l85 -59l86 59h48l-112 -112h-44l-107 112h44z" />
    <glyph glyph-name="ecaron" unicode="&#x11b;" horiz-adv-x="461" 
d="M115 256v-11q0 -47 12 -86t33 -67t50.5 -43.5t65.5 -15.5q30 0 55.5 9.5t67.5 36.5l19 -37q-28 -16 -49.5 -26.5t-40.5 -17t-37.5 -9t-40.5 -2.5q-48 0 -87.5 17.5t-68.5 49t-45 74.5t-16 95t16 96.5t45 77t68 50.5t86 18q40 0 73.5 -13.5t57.5 -37.5t37.5 -57.5
t13.5 -73.5v-27h-315zM348 320q0 45 -27.5 74t-71.5 29q-55 0 -90.5 -34t-42.5 -93h232v24zM268 513h-45l-107 165h43l86 -88l85 88h50z" />
    <glyph glyph-name="Gcircumflex" unicode="&#x11c;" horiz-adv-x="745" 
d="M619 227v-202q-33 -11 -60 -18t-51 -11.5t-47 -6.5t-49 -2q-78 0 -137 20.5t-109 64.5q-56 50 -86 117t-30 142q0 74 27 136.5t74 108t112 71t142 25.5q22 0 42.5 -1.5t40 -5.5t40 -9.5t43.5 -14.5v39h46v-170h-46v65q-50 24 -90 34.5t-82 10.5q-52 0 -97.5 -22.5
t-79.5 -62t-53.5 -92t-19.5 -112.5q0 -62 22.5 -115t62 -93t92.5 -62.5t114 -22.5q22 0 40.5 3t50.5 11v175h-85v37h248v-37h-75zM491 707l-85 59l-86 -59h-48l112 112h44l107 -112h-44z" />
    <glyph glyph-name="gcircumflex" unicode="&#x11d;" horiz-adv-x="507" 
d="M400 389q18 -21 25 -41.5t7 -51.5q0 -80 -51 -126.5t-140 -46.5q-11 0 -19.5 0.5t-16 2t-16 3.5t-19.5 6q-23 -23 -32.5 -38.5t-9.5 -29.5q0 -26 29 -26h250q36 0 56 -24t20 -68q0 -42 -20 -79.5t-54.5 -65.5t-81 -44t-99.5 -16q-32 0 -59 5.5t-50 17.5t-44 31.5
t-42 46.5q8 20 14.5 34t14.5 27.5t19.5 28.5t29.5 38q-22 4 -37 14t-38 36q13 22 23 38t21 29.5t25.5 26.5t35.5 31q-86 50 -86 142q0 81 51 128t137 47q15 0 26.5 -1t23 -4t25.5 -9t34 -16h64l71 17v-63h-87zM353 295q0 61 -29.5 96.5t-79.5 35.5q-51 0 -80 -35.5
t-29 -96.5t29 -97t80 -36q50 0 79.5 36t29.5 97zM413 -84q0 24 -10.5 38t-27.5 14h-227q-20 -28 -26.5 -45.5t-6.5 -37.5q0 -45 38 -73t98 -28q33 0 62.5 10.5t51.5 28.5t35 42t13 51zM336 513l-86 88l-85 -88h-49l113 165h43l108 -165h-44z" />
    <glyph glyph-name="Gbreve" unicode="&#x11e;" horiz-adv-x="745" 
d="M619 227v-202q-33 -11 -60 -18t-51 -11.5t-47 -6.5t-49 -2q-78 0 -137 20.5t-109 64.5q-56 50 -86 117t-30 142q0 74 27 136.5t74 108t112 71t142 25.5q22 0 42.5 -1.5t40 -5.5t40 -9.5t43.5 -14.5v39h46v-170h-46v65q-50 24 -90 34.5t-82 10.5q-52 0 -97.5 -22.5
t-79.5 -62t-53.5 -92t-19.5 -112.5q0 -62 22.5 -115t62 -93t92.5 -62.5t114 -22.5q22 0 40.5 3t50.5 11v175h-85v37h248v-37h-75zM563 836q-7 -27 -20 -51.5t-32 -42.5t-45.5 -28.5t-60.5 -10.5q-61 0 -101 34.5t-59 98.5h40q17 -37 47.5 -57.5t73.5 -20.5q42 0 71.5 21
t46.5 57h39z" />
    <glyph glyph-name="gbreve" unicode="&#x11f;" horiz-adv-x="507" 
d="M400 389q18 -21 25 -41.5t7 -51.5q0 -80 -51 -126.5t-140 -46.5q-11 0 -19.5 0.5t-16 2t-16 3.5t-19.5 6q-23 -23 -32.5 -38.5t-9.5 -29.5q0 -26 29 -26h250q36 0 56 -24t20 -68q0 -42 -20 -79.5t-54.5 -65.5t-81 -44t-99.5 -16q-32 0 -59 5.5t-50 17.5t-44 31.5
t-42 46.5q8 20 14.5 34t14.5 27.5t19.5 28.5t29.5 38q-22 4 -37 14t-38 36q13 22 23 38t21 29.5t25.5 26.5t35.5 31q-86 50 -86 142q0 81 51 128t137 47q15 0 26.5 -1t23 -4t25.5 -9t34 -16h64l71 17v-63h-87zM353 295q0 61 -29.5 96.5t-79.5 35.5q-51 0 -80 -35.5
t-29 -96.5t29 -97t80 -36q50 0 79.5 36t29.5 97zM413 -84q0 24 -10.5 38t-27.5 14h-227q-20 -28 -26.5 -45.5t-6.5 -37.5q0 -45 38 -73t98 -28q33 0 62.5 10.5t51.5 28.5t35 42t13 51zM401 670q-5 -21 -10 -37t-10.5 -28t-12 -22t-14.5 -20q-22 -26 -51.5 -40t-59.5 -14
q-61 0 -101 41.5t-59 119.5h40q17 -43 47.5 -67.5t73.5 -24.5q42 0 71.5 25t46.5 67h39z" />
    <glyph glyph-name="Gdotaccent" unicode="&#x120;" horiz-adv-x="745" 
d="M619 227v-202q-33 -11 -60 -18t-51 -11.5t-47 -6.5t-49 -2q-78 0 -137 20.5t-109 64.5q-56 50 -86 117t-30 142q0 74 27 136.5t74 108t112 71t142 25.5q22 0 42.5 -1.5t40 -5.5t40 -9.5t43.5 -14.5v39h46v-170h-46v65q-50 24 -90 34.5t-82 10.5q-52 0 -97.5 -22.5
t-79.5 -62t-53.5 -92t-19.5 -112.5q0 -62 22.5 -115t62 -93t92.5 -62.5t114 -22.5q22 0 40.5 3t50.5 11v175h-85v37h248v-37h-75zM457 754q0 -20 -14.5 -35t-35.5 -15t-35.5 15t-14.5 35q0 21 14.5 36t35.5 15t35.5 -15t14.5 -36z" />
    <glyph glyph-name="gdotaccent" unicode="&#x121;" horiz-adv-x="507" 
d="M400 389q18 -21 25 -41.5t7 -51.5q0 -80 -51 -126.5t-140 -46.5q-11 0 -19.5 0.5t-16 2t-16 3.5t-19.5 6q-23 -23 -32.5 -38.5t-9.5 -29.5q0 -26 29 -26h250q36 0 56 -24t20 -68q0 -42 -20 -79.5t-54.5 -65.5t-81 -44t-99.5 -16q-32 0 -59 5.5t-50 17.5t-44 31.5
t-42 46.5q8 20 14.5 34t14.5 27.5t19.5 28.5t29.5 38q-22 4 -37 14t-38 36q13 22 23 38t21 29.5t25.5 26.5t35.5 31q-86 50 -86 142q0 81 51 128t137 47q15 0 26.5 -1t23 -4t25.5 -9t34 -16h64l71 17v-63h-87zM353 295q0 61 -29.5 96.5t-79.5 35.5q-51 0 -80 -35.5
t-29 -96.5t29 -97t80 -36q50 0 79.5 36t29.5 97zM413 -84q0 24 -10.5 38t-27.5 14h-227q-20 -28 -26.5 -45.5t-6.5 -37.5q0 -45 38 -73t98 -28q33 0 62.5 10.5t51.5 28.5t35 42t13 51zM296 560q0 -20 -14.5 -35t-35.5 -15t-35.5 15t-14.5 35q0 21 14.5 36t35.5 15t35.5 -15
t14.5 -36z" />
    <glyph glyph-name="Gcommaaccent" unicode="&#x122;" horiz-adv-x="745" 
d="M619 227v-202q-33 -11 -60 -18t-51 -11.5t-47 -6.5t-49 -2q-78 0 -137 20.5t-109 64.5q-56 50 -86 117t-30 142q0 74 27 136.5t74 108t112 71t142 25.5q22 0 42.5 -1.5t40 -5.5t40 -9.5t43.5 -14.5v39h46v-170h-46v65q-50 24 -90 34.5t-82 10.5q-52 0 -97.5 -22.5
t-79.5 -62t-53.5 -92t-19.5 -112.5q0 -62 22.5 -115t62 -93t92.5 -62.5t114 -22.5q22 0 40.5 3t50.5 11v175h-85v37h248v-37h-75zM456 -137q0 -17 -6 -35q-7 -20 -17 -42t-22 -42h-47q6 15 9.5 24.5t6.5 17.5t5.5 16t5.5 20l-26 71q14 10 24.5 14t21.5 4q45 0 45 -48z" />
    <glyph glyph-name="gcommaaccent" unicode="&#x123;" horiz-adv-x="507" 
d="M400 389q18 -21 25 -41.5t7 -51.5q0 -80 -51 -126.5t-140 -46.5q-11 0 -19.5 0.5t-16 2t-16 3.5t-19.5 6q-23 -23 -32.5 -38.5t-9.5 -29.5q0 -26 29 -26h250q36 0 56 -24t20 -68q0 -42 -20 -79.5t-54.5 -65.5t-81 -44t-99.5 -16q-32 0 -59 5.5t-50 17.5t-44 31.5
t-42 46.5q8 20 14.5 34t14.5 27.5t19.5 28.5t29.5 38q-22 4 -37 14t-38 36q13 22 23 38t21 29.5t25.5 26.5t35.5 31q-86 50 -86 142q0 81 51 128t137 47q15 0 26.5 -1t23 -4t25.5 -9t34 -16h64l71 17v-63h-87zM353 295q0 61 -29.5 96.5t-79.5 35.5q-51 0 -80 -35.5
t-29 -96.5t29 -97t80 -36q50 0 79.5 36t29.5 97zM413 -84q0 24 -10.5 38t-27.5 14h-227q-20 -28 -26.5 -45.5t-6.5 -37.5q0 -45 38 -73t98 -28q33 0 62.5 10.5t51.5 28.5t35 42t13 51zM202 558q0 17 6 35q7 20 17 42t22 42h47q-6 -15 -9.5 -24.5t-6.5 -17.5t-5.5 -16
t-5.5 -20l26 -71q-14 -10 -24.5 -14t-21.5 -4q-45 0 -45 48z" />
    <glyph glyph-name="Hcircumflex" unicode="&#x124;" horiz-adv-x="838" 
d="M530 0v37h75v275h-375v-275h75v-37h-238v37h75v586h-75v37h238v-37h-75v-266h375v266h-75v37h238v-37h-76v-586h76v-37h-238zM500 707l-85 59l-86 -59h-48l112 112h44l107 -112h-44z" />
    <glyph glyph-name="hcircumflex" unicode="&#x125;" horiz-adv-x="568" 
d="M321 0v37h76v293q0 40 -19 63t-52 23q-17 0 -31 -4.5t-30.5 -17.5t-38.5 -36.5t-55 -60.5v-260h75v-37h-226v37h76v634h-88v27l144 39h19v-386q28 33 51 54.5t44 35t41.5 19t44.5 5.5q56 0 88 -33.5t32 -91.5v-303h76v-37h-227zM219 753l-85 59l-86 -59h-48l112 112h44
l107 -112h-44z" />
    <glyph glyph-name="Hbar" unicode="&#x126;" horiz-adv-x="838" 
d="M530 0v37h75v275h-375v-275h75v-37h-238v37h75v425h-75v45h75v116h-75v37h238v-37h-75v-116h375v116h-75v37h238v-37h-76v-116h76v-45h-76v-425h76v-37h-238zM605 357v105h-375v-105h375z" />
    <glyph glyph-name="hbar" unicode="&#x127;" horiz-adv-x="568" 
d="M321 0v37h76v293q0 40 -19 63t-52 23q-17 0 -31 -4.5t-30.5 -17.5t-38.5 -36.5t-55 -60.5v-260h75v-37h-226v37h76v499h-88v45h88v90h-88v27l144 39h19v-156h199v-45h-199v-185q28 33 51 54.5t44 35t41.5 19t44.5 5.5q56 0 88 -33.5t32 -91.5v-303h76v-37h-227z" />
    <glyph glyph-name="Itilde" unicode="&#x128;" horiz-adv-x="372" 
d="M67 0v37h75v586h-75v37h238v-37h-75v-586h75v-37h-238zM379 779q-18 -22 -33 -36.5t-29.5 -23t-30.5 -12t-36 -3.5q-24 0 -41.5 5t-37.5 19q-13 9 -21 13.5t-14 7t-11 3t-12 0.5q-20 0 -37.5 -8.5t-38.5 -29.5l-25 17q32 42 60.5 59.5t61.5 17.5q14 0 27 -2.5t20 -7.5
l38 -23q28 -18 61 -18q12 0 20.5 1t16.5 5t16.5 11.5t21.5 20.5z" />
    <glyph glyph-name="itilde" unicode="&#x129;" horiz-adv-x="282" 
d="M33 0v37h76v360h-87v27l144 39h18v-426h76v-37h-227zM322 585q-18 -22 -33 -36.5t-29.5 -23t-30.5 -12t-36 -3.5q-24 0 -41.5 5t-37.5 19q-13 9 -21 13.5t-14 7t-11 3t-12 0.5q-20 0 -37.5 -8.5t-38.5 -29.5l-25 17q32 42 60.5 59.5t61.5 17.5q14 0 27 -2.5t20 -7.5
l38 -23q28 -18 61 -18q12 0 20.5 1t16.5 5t16.5 11.5t21.5 20.5z" />
    <glyph glyph-name="Imacron" unicode="&#x12a;" horiz-adv-x="372" 
d="M67 0v37h75v586h-75v37h238v-37h-75v-586h75v-37h-238zM340 719h-307v63h307v-63z" />
    <glyph glyph-name="imacron" unicode="&#x12b;" horiz-adv-x="282" 
d="M33 0v37h76v360h-87v27l144 39h18v-426h76v-37h-227zM292 525h-307v63h307v-63z" />
    <glyph glyph-name="Ibreve" unicode="&#x12c;" horiz-adv-x="372" 
d="M67 0v37h75v586h-75v37h238v-37h-75v-586h75v-37h-238zM346 836q-7 -27 -20 -51.5t-32 -42.5t-45.5 -28.5t-60.5 -10.5q-61 0 -101 34.5t-59 98.5h40q17 -37 47.5 -57.5t73.5 -20.5q42 0 71.5 21t46.5 57h39z" />
    <glyph glyph-name="ibreve" unicode="&#x12d;" horiz-adv-x="282" 
d="M33 0v37h76v360h-87v27l144 39h18v-426h76v-37h-227zM300 670q-5 -21 -10 -37t-10.5 -28t-12 -22t-14.5 -20q-22 -26 -51.5 -40t-59.5 -14q-61 0 -101 41.5t-59 119.5h40q17 -43 47.5 -67.5t73.5 -24.5q42 0 71.5 25t46.5 67h39z" />
    <glyph glyph-name="Iogonek" unicode="&#x12e;" horiz-adv-x="372" 
d="M228 -188q-17 -11 -35 -20t-42 -9q-32 0 -55 23.5t-23 64.5q0 39 18.5 69t48.5 60h-73v37h75v586h-75v37h238v-37h-75v-586h75v-37h-107q-32 -32 -45 -56t-13 -47q0 -28 11 -41t27 -13q11 0 23 3.5t32 11.5z" />
    <glyph glyph-name="iogonek" unicode="&#x12f;" horiz-adv-x="282" 
d="M213 -188q-17 -11 -35 -20t-42 -9q-32 0 -55 23.5t-23 64.5q0 39 18.5 69t48.5 60h-92v37h76v360h-87v27l144 39h18v-426h76v-37h-77q-32 -32 -45 -56t-13 -47q0 -28 11 -41t27 -13q11 0 23 3.5t32 11.5zM195 635q0 -23 -15 -38t-38 -15q-22 0 -37 15t-15 38q0 22 15 37
t37 15q23 0 38 -15t15 -37z" />
    <glyph glyph-name="Idotaccent" unicode="&#x130;" horiz-adv-x="372" 
d="M67 0v37h75v586h-75v37h238v-37h-75v-586h75v-37h-238zM238 754q0 -20 -14.5 -35t-35.5 -15t-35.5 15t-14.5 35q0 21 14.5 36t35.5 15t35.5 -15t14.5 -36z" />
    <glyph glyph-name="dotlessi" unicode="&#x131;" horiz-adv-x="282" 
d="M33 0v37h76v360h-87v27l144 39h18v-426h76v-37h-227z" />
    <glyph glyph-name="IJ" unicode="&#x132;" horiz-adv-x="736" 
d="M67 0v37h75v586h-75v37h238v-37h-75v-586h75v-37h-238zM593 623v-641q-20 -41 -35 -68t-30.5 -49.5t-35 -44.5t-48.5 -51l-34 32q18 17 30 31t20.5 27.5t15 29.5t12.5 37q6 19 9.5 35.5t5.5 34.5t2.5 41.5t0.5 56.5v529h-75v37h238v-37h-76z" />
    <glyph glyph-name="ij" unicode="&#x133;" horiz-adv-x="556" 
d="M33 0v37h76v360h-87v27l144 39h18v-426h76v-37h-227zM195 635q0 -23 -15 -38t-38 -15q-22 0 -37 15t-15 38q0 22 15 37t37 15q23 0 38 -15t15 -37zM463 -73q-14 -33 -24.5 -55.5t-23 -42t-28 -39t-39.5 -46.5l-24 19q21 36 34 60.5t20 46t9 43.5t2 54v430h-89v27l144 39
h19v-536zM474 635q0 -23 -15.5 -38t-37.5 -15t-37.5 15t-15.5 38q0 22 15.5 37t37.5 15t37.5 -15t15.5 -37z" />
    <glyph glyph-name="Jcircumflex" unicode="&#x134;" horiz-adv-x="364" 
d="M221 623v-641q-20 -41 -35 -68t-30.5 -49.5t-35 -44.5t-48.5 -51l-34 32q18 17 30 31t20.5 27.5t15 29.5t12.5 37q6 19 9.5 35.5t5.5 34.5t2.5 41.5t0.5 56.5v529h-75v37h238v-37h-76zM263 707l-85 59l-86 -59h-48l112 112h44l107 -112h-44z" />
    <glyph glyph-name="jcircumflex" unicode="&#x135;" horiz-adv-x="274" 
d="M181 -73q-14 -33 -24.5 -55.5t-23 -42t-28 -39t-39.5 -46.5l-24 19q21 36 34 60.5t20 46t9 43.5t2 54v430h-89v27l144 39h19v-536zM221 513l-86 88l-85 -88h-49l113 165h43l108 -165h-44z" />
    <glyph glyph-name="Kcommaaccent" unicode="&#x136;" horiz-adv-x="653" 
d="M67 0v38h75v585h-75v37h238v-37h-75v-586h75v-37h-238zM521 0l-282 333l246 290h-74v37h207v-37h-65l-221 -264l271 -322h53v-37h-135zM405 -137q0 -17 -6 -35q-7 -20 -17 -42t-22 -42h-47q6 15 9.5 24.5t6.5 17.5t5.5 16t5.5 20l-26 71q14 10 24.5 14t21.5 4
q45 0 45 -48z" />
    <glyph glyph-name="kcommaaccent" unicode="&#x137;" horiz-adv-x="508" 
d="M20 0v37h76v634h-88v27l144 39h19v-700h75v-37h-226zM384 0l-205 246l179 170h-65v37h199v-37h-77l-155 -148l191 -231h57v-37h-124zM318 -137q0 -17 -6 -35q-7 -20 -17 -42t-22 -42h-47q6 15 9.5 24.5t6.5 17.5t5.5 16t5.5 20l-26 71q14 10 24.5 14t21.5 4q45 0 45 -48z
" />
    <glyph glyph-name="kgreenlandic" unicode="&#x138;" horiz-adv-x="508" 
d="M20 0v37h76v360h-88v27l144 39h19v-426h75v-37h-226zM384 0l-205 246l179 170h-65v37h199v-37h-77l-155 -148l191 -231h57v-37h-124z" />
    <glyph glyph-name="Lacute" unicode="&#x139;" horiz-adv-x="531" 
d="M67 0v37h75v586h-75v37h238v-37h-75v-578h246v88h46v-133h-455zM192 707h-55l118 102h101z" />
    <glyph glyph-name="lacute" unicode="&#x13a;" horiz-adv-x="267" 
d="M20 0v37h76v634h-88v27l144 39h19v-700h75v-37h-226zM114 763h-55l118 102h101z" />
    <glyph glyph-name="Lcommaaccent" unicode="&#x13b;" horiz-adv-x="531" 
d="M67 0v37h75v586h-75v37h238v-37h-75v-578h246v88h46v-133h-455zM338 -137q0 -17 -6 -35q-7 -20 -17 -42t-22 -42h-47q6 15 9.5 24.5t6.5 17.5t5.5 16t5.5 20l-26 71q14 10 24.5 14t21.5 4q45 0 45 -48z" />
    <glyph glyph-name="lcommaaccent" unicode="&#x13c;" horiz-adv-x="267" 
d="M20 0v37h76v634h-88v27l144 39h19v-700h75v-37h-226zM177 -137q0 -17 -6 -35q-7 -20 -17 -42t-22 -42h-47q6 15 9.5 24.5t6.5 17.5t5.5 16t5.5 20l-26 71q14 10 24.5 14t21.5 4q45 0 45 -48z" />
    <glyph glyph-name="Lcaron" unicode="&#x13d;" horiz-adv-x="531" 
d="M67 0v37h75v586h-75v37h238v-37h-75v-578h246v88h46v-133h-455zM447 612q0 -17 -6 -35q-7 -20 -17 -42t-22 -42h-47q6 15 9.5 24.5t6.5 17.5t5.5 16t5.5 20l-26 71q14 10 24.5 14t21.5 4q45 0 45 -48z" />
    <glyph glyph-name="lcaron" unicode="&#x13e;" horiz-adv-x="267" 
d="M20 0v37h76v634h-88v27l144 39h19v-700h75v-37h-226zM313 689q0 -17 -6 -35q-7 -20 -17 -42t-22 -42h-47q6 15 9.5 24.5t6.5 17.5t5.5 16t5.5 20l-26 71q14 10 24.5 14t21.5 4q45 0 45 -48z" />
    <glyph glyph-name="Ldot" unicode="&#x13f;" horiz-adv-x="531" 
d="M67 0v37h75v586h-75v37h238v-37h-75v-578h246v88h46v-133h-455zM491 344q0 -20 -14.5 -35t-35.5 -15t-35.5 15t-14.5 35q0 21 14.5 36t35.5 15t35.5 -15t14.5 -36z" />
    <glyph glyph-name="ldot" unicode="&#x140;" horiz-adv-x="312" 
d="M20 0v37h76v634h-88v27l144 39h19v-700h75v-37h-226zM341 380q0 -23 -15 -38t-38 -15q-22 0 -37 15t-15 38q0 22 15 37t37 15q23 0 38 -15t15 -37z" />
    <glyph glyph-name="Lslash" unicode="&#x141;" horiz-adv-x="531" 
d="M67 0v37h75v256l-86 -50l-22 38l108 62v280h-75v37h238v-37h-75v-229l79 46l22 -38l-101 -58v-299h246v88h46v-133h-455z" />
    <glyph glyph-name="lslash" unicode="&#x142;" horiz-adv-x="267" 
d="M171 349v-312h75v-37h-226v37h76v269l-90 -53l-22 38l112 64v316h-88v27l144 39h19v-338l88 51l22 -38z" />
    <glyph glyph-name="Nacute" unicode="&#x143;" horiz-adv-x="737" 
d="M611 623v-634h-31l-384 528v-480h76v-37h-202v37h76v548l-27 38h-69v37h145l366 -502v465h-76v37h201v-37h-75zM353 707h-55l118 102h101z" />
    <glyph glyph-name="nacute" unicode="&#x144;" horiz-adv-x="581" 
d="M335 0v37h75v293q0 40 -19 63t-52 23q-16 0 -30 -4.5t-31 -17.5t-39 -36.5t-55 -60.5v-260h76v-37h-227v37h76v360h-87v27l144 39h18v-112q28 33 51 54.5t44 35t42 19t45 5.5q56 0 88 -33.5t32 -91.5v-303h75v-37h-226zM281 513h-53l119 161h93z" />
    <glyph glyph-name="Ncommaaccent" unicode="&#x145;" horiz-adv-x="737" 
d="M611 623v-634h-31l-384 528v-480h76v-37h-202v37h76v548l-27 38h-69v37h145l366 -502v465h-76v37h201v-37h-75zM419 -137q0 -17 -6 -35q-7 -20 -17 -42t-22 -42h-47q6 15 9.5 24.5t6.5 17.5t5.5 16t5.5 20l-26 71q14 10 24.5 14t21.5 4q45 0 45 -48z" />
    <glyph glyph-name="ncommaaccent" unicode="&#x146;" horiz-adv-x="581" 
d="M335 0v37h75v293q0 40 -19 63t-52 23q-16 0 -30 -4.5t-31 -17.5t-39 -36.5t-55 -60.5v-260h76v-37h-227v37h76v360h-87v27l144 39h18v-112q28 33 51 54.5t44 35t42 19t45 5.5q56 0 88 -33.5t32 -91.5v-303h75v-37h-226zM334 -137q0 -17 -6 -35q-7 -20 -17 -42t-22 -42
h-47q6 15 9.5 24.5t6.5 17.5t5.5 16t5.5 20l-26 71q14 10 24.5 14t21.5 4q45 0 45 -48z" />
    <glyph glyph-name="Ncaron" unicode="&#x147;" horiz-adv-x="737" 
d="M611 623v-634h-31l-384 528v-480h76v-37h-202v37h76v548l-27 38h-69v37h145l366 -502v465h-76v37h201v-37h-75zM285 820l85 -59l86 59h48l-112 -112h-44l-107 112h44z" />
    <glyph glyph-name="ncaron" unicode="&#x148;" horiz-adv-x="581" 
d="M335 0v37h75v293q0 40 -19 63t-52 23q-16 0 -30 -4.5t-31 -17.5t-39 -36.5t-55 -60.5v-260h76v-37h-227v37h76v360h-87v27l144 39h18v-112q28 33 51 54.5t44 35t42 19t45 5.5q56 0 88 -33.5t32 -91.5v-303h75v-37h-226zM311 513h-45l-107 165h43l86 -88l85 88h50z" />
    <glyph glyph-name="napostrophe" unicode="&#x149;" horiz-adv-x="649" 
d="M114 612q0 -17 -6 -35q-7 -20 -17 -42t-22 -42h-47q6 15 9.5 24.5t6.5 17.5t5.5 16t5.5 20l-26 71q14 10 24.5 14t21.5 4q45 0 45 -48zM403 0v37h75v293q0 40 -19 63t-52 23q-16 0 -30 -4.5t-31 -17.5t-39 -36.5t-55 -60.5v-260h76v-37h-227v37h76v360h-87v27l144 39h18
v-112q28 33 51 54.5t44 35t42 19t45 5.5q56 0 88 -33.5t32 -91.5v-303h75v-37h-226z" />
    <glyph glyph-name="Eng" unicode="&#x14a;" horiz-adv-x="737" 
d="M611 623v-616q0 -52 -31 -109t-84 -114l-10 8q21 36 35 62.5t22 49.5t11 47t3 56v13l-361 497v-480h76v-37h-202v37h76v548l-27 38h-69v37h145l366 -502v465h-76v37h201v-37h-75z" />
    <glyph glyph-name="eng" unicode="&#x14b;" horiz-adv-x="581" 
d="M486 8q0 -24 -5.5 -48t-18.5 -50.5t-35 -57t-56 -68.5l-26 20q21 35 33.5 59t19.5 44.5t9.5 42t2.5 50.5v330q0 40 -19 63t-52 23q-16 0 -30 -4.5t-31 -17.5t-39 -36.5t-55 -60.5v-260h76v-37h-227v37h76v360h-87v27l144 39h18v-112q28 33 51 54.5t44 35t42 19t45 5.5
q56 0 88 -33.5t32 -91.5v-332z" />
    <glyph glyph-name="Omacron" unicode="&#x14c;" horiz-adv-x="743" 
d="M693 330q0 -70 -25.5 -132t-69 -109t-102 -74.5t-123.5 -27.5q-66 0 -124.5 27.5t-103 74t-70 108.5t-25.5 132t25.5 132.5t69.5 109.5t103 74t125 27q65 0 123.5 -27.5t102 -74t69 -108.5t25.5 -132zM594 330q0 63 -16.5 116t-46 92t-69.5 60.5t-88 21.5
q-49 0 -90.5 -21.5t-71.5 -60t-46.5 -91.5t-16.5 -117q0 -63 16.5 -116.5t46.5 -92.5t71 -60.5t90 -21.5q48 0 88.5 22t70 60.5t46 92t16.5 116.5zM525 719h-307v63h307v-63z" />
    <glyph glyph-name="omacron" unicode="&#x14d;" horiz-adv-x="505" 
d="M471 226q0 -50 -17 -93.5t-47 -75.5t-70 -51t-85 -19t-85 19t-70 51t-47 75.5t-17 93.5q0 49 17 93t47 76t70 51t85 19t85 -19t70 -51t47 -76t17 -93zM386 226q0 42 -10.5 78t-28.5 62.5t-42.5 41.5t-52.5 15t-52.5 -15t-42.5 -41.5t-28 -62.5t-10 -78q0 -41 10 -77
t28 -62.5t42.5 -42t52.5 -15.5t52.5 15t42.5 41.5t28.5 62.5t10.5 78zM406 525h-307v63h307v-63z" />
    <glyph glyph-name="Obreve" unicode="&#x14e;" horiz-adv-x="743" 
d="M693 330q0 -70 -25.5 -132t-69 -109t-102 -74.5t-123.5 -27.5q-66 0 -124.5 27.5t-103 74t-70 108.5t-25.5 132t25.5 132.5t69.5 109.5t103 74t125 27q65 0 123.5 -27.5t102 -74t69 -108.5t25.5 -132zM594 330q0 63 -16.5 116t-46 92t-69.5 60.5t-88 21.5
q-49 0 -90.5 -21.5t-71.5 -60t-46.5 -91.5t-16.5 -117q0 -63 16.5 -116.5t46.5 -92.5t71 -60.5t90 -21.5q48 0 88.5 22t70 60.5t46 92t16.5 116.5zM532 836q-7 -27 -20 -51.5t-32 -42.5t-45.5 -28.5t-60.5 -10.5q-61 0 -101 34.5t-59 98.5h40q17 -37 47.5 -57.5t73.5 -20.5
q42 0 71.5 21t46.5 57h39z" />
    <glyph glyph-name="obreve" unicode="&#x14f;" horiz-adv-x="505" 
d="M471 226q0 -50 -17 -93.5t-47 -75.5t-70 -51t-85 -19t-85 19t-70 51t-47 75.5t-17 93.5q0 49 17 93t47 76t70 51t85 19t85 -19t70 -51t47 -76t17 -93zM386 226q0 42 -10.5 78t-28.5 62.5t-42.5 41.5t-52.5 15t-52.5 -15t-42.5 -41.5t-28 -62.5t-10 -78q0 -41 10 -77
t28 -62.5t42.5 -42t52.5 -15.5t52.5 15t42.5 41.5t28.5 62.5t10.5 78zM416 670q-5 -21 -10 -37t-10.5 -28t-12 -22t-14.5 -20q-22 -26 -51.5 -40t-59.5 -14q-61 0 -101 41.5t-59 119.5h40q17 -43 47.5 -67.5t73.5 -24.5q42 0 71.5 25t46.5 67h39z" />
    <glyph glyph-name="Ohungarumlaut" unicode="&#x150;" horiz-adv-x="743" 
d="M693 330q0 -70 -25.5 -132t-69 -109t-102 -74.5t-123.5 -27.5q-66 0 -124.5 27.5t-103 74t-70 108.5t-25.5 132t25.5 132.5t69.5 109.5t103 74t125 27q65 0 123.5 -27.5t102 -74t69 -108.5t25.5 -132zM594 330q0 63 -16.5 116t-46 92t-69.5 60.5t-88 21.5
q-49 0 -90.5 -21.5t-71.5 -60t-46.5 -91.5t-16.5 -117q0 -63 16.5 -116.5t46.5 -92.5t71 -60.5t90 -21.5q48 0 88.5 22t70 60.5t46 92t16.5 116.5zM316 707h-55l118 102h101zM454 707h-55l118 102h101z" />
    <glyph glyph-name="ohungarumlaut" unicode="&#x151;" horiz-adv-x="505" 
d="M471 226q0 -50 -17 -93.5t-47 -75.5t-70 -51t-85 -19t-85 19t-70 51t-47 75.5t-17 93.5q0 49 17 93t47 76t70 51t85 19t85 -19t70 -51t47 -76t17 -93zM386 226q0 42 -10.5 78t-28.5 62.5t-42.5 41.5t-52.5 15t-52.5 -15t-42.5 -41.5t-28 -62.5t-10 -78q0 -41 10 -77
t28 -62.5t42.5 -42t52.5 -15.5t52.5 15t42.5 41.5t28.5 62.5t10.5 78zM200 513h-54l118 161h93zM336 513h-53l118 161h93z" />
    <glyph glyph-name="OE" unicode="&#x152;" horiz-adv-x="926" 
d="M480 0q-2 0 -8.5 -0.5t-14 -1.5t-14 -2t-7.5 -1q-29 -7 -60 -7q-67 0 -126.5 27t-104 73.5t-70.5 108t-26 130.5q0 70 26 132.5t70 109t103.5 73.5t126.5 27q19 0 37 -3l37 -6h362v24h46v-157h-46v87h-237v-256h190v74h45v-196h-44v76h-191v-266h247v87h45v-133h-386z
M487 524q0 49 -26.5 71.5t-84.5 22.5q-50 0 -91.5 -21t-71.5 -59t-47 -90.5t-17 -115.5t17 -116.5t46.5 -93t69.5 -62t87 -22.5q65 0 91.5 20t26.5 69v397z" />
    <glyph glyph-name="oe" unicode="&#x153;" horiz-adv-x="853" 
d="M507 248q0 -46 12 -85t34 -67t52.5 -44t66.5 -16q15 0 27.5 2t26 7t28.5 13t35 21l21 -37q-26 -17 -46.5 -27.5t-38.5 -16.5t-36.5 -8.5t-40.5 -2.5q-137 0 -189 111q-32 -58 -77.5 -84.5t-111.5 -26.5q-50 0 -93 18.5t-75 50.5t-50.5 75.5t-18.5 93.5t19 93.5t51 76
t75.5 51.5t92.5 19q60 0 111 -27t80 -75q38 54 81 78t100 24q39 0 71.5 -15t56.5 -41t37.5 -62t13.5 -78v-21h-315zM430 228q0 40 -12.5 74.5t-34 60t-51 40.5t-62.5 15q-34 0 -63 -15t-50 -41t-33 -61.5t-12 -76.5q0 -40 12 -74.5t33.5 -59.5t51 -39.5t63.5 -14.5t63 14.5
t50 40.5t33 61t12 76zM739 321q0 51 -25 79t-72 28q-118 0 -135 -140h232v33z" />
    <glyph glyph-name="Racute" unicode="&#x154;" horiz-adv-x="654" 
d="M560 0q-22 0 -36.5 2t-25 8t-20 17.5t-21.5 31.5l-149 237h-78v-259h75v-37h-238v37h75v586h-75v37h278q73 0 116 -21t66 -68q20 -42 20 -89q0 -73 -39 -117.5t-111 -55.5l144 -222q18 -28 32 -38.5t33 -10.5h39v-38h-85zM455 480q0 65 -34 99.5t-97 34.5h-94v-272h96
q28 0 52 10t41 28t26.5 43.5t9.5 56.5zM312 707h-55l118 102h101z" />
    <glyph glyph-name="racute" unicode="&#x155;" horiz-adv-x="377" 
d="M319 359q-29 28 -44 28q-7 0 -14 -3.5t-17.5 -13t-24.5 -26t-35 -41.5v-266h96v-37h-247v37h76v360h-87v27l144 39h18v-112q27 34 46 56.5t34 35t27.5 17.5t26.5 5q19 0 28 -9l31 -27zM171 513h-53l119 161h93z" />
    <glyph glyph-name="Rcommaaccent" unicode="&#x156;" horiz-adv-x="654" 
d="M560 0q-22 0 -36.5 2t-25 8t-20 17.5t-21.5 31.5l-149 237h-78v-259h75v-37h-238v37h75v586h-75v37h278q73 0 116 -21t66 -68q20 -42 20 -89q0 -73 -39 -117.5t-111 -55.5l144 -222q18 -28 32 -38.5t33 -10.5h39v-38h-85zM455 480q0 65 -34 99.5t-97 34.5h-94v-272h96
q28 0 52 10t41 28t26.5 43.5t9.5 56.5zM400 -137q0 -17 -6 -35q-7 -20 -17 -42t-22 -42h-47q6 15 9.5 24.5t6.5 17.5t5.5 16t5.5 20l-26 71q14 10 24.5 14t21.5 4q45 0 45 -48z" />
    <glyph glyph-name="rcommaaccent" unicode="&#x157;" horiz-adv-x="377" 
d="M319 359q-29 28 -44 28q-7 0 -14 -3.5t-17.5 -13t-24.5 -26t-35 -41.5v-266h96v-37h-247v37h76v360h-87v27l144 39h18v-112q27 34 46 56.5t34 35t27.5 17.5t26.5 5q19 0 28 -9l31 -27zM190 -137q0 -17 -6 -35q-7 -20 -17 -42t-22 -42h-47q6 15 9.5 24.5t6.5 17.5t5.5 16
t5.5 20l-26 71q14 10 24.5 14t21.5 4q45 0 45 -48z" />
    <glyph glyph-name="Rcaron" unicode="&#x158;" horiz-adv-x="654" 
d="M560 0q-22 0 -36.5 2t-25 8t-20 17.5t-21.5 31.5l-149 237h-78v-259h75v-37h-238v37h75v586h-75v37h278q73 0 116 -21t66 -68q20 -42 20 -89q0 -73 -39 -117.5t-111 -55.5l144 -222q18 -28 32 -38.5t33 -10.5h39v-38h-85zM455 480q0 65 -34 99.5t-97 34.5h-94v-272h96
q28 0 52 10t41 28t26.5 43.5t9.5 56.5zM223 819l85 -59l86 59h48l-112 -112h-44l-107 112h44z" />
    <glyph glyph-name="rcaron" unicode="&#x159;" horiz-adv-x="377" 
d="M319 359q-29 28 -44 28q-7 0 -14 -3.5t-17.5 -13t-24.5 -26t-35 -41.5v-266h96v-37h-247v37h76v360h-87v27l144 39h18v-112q27 34 46 56.5t34 35t27.5 17.5t26.5 5q19 0 28 -9l31 -27zM221 513h-45l-107 165h43l86 -88l85 88h50z" />
    <glyph glyph-name="Sacute" unicode="&#x15a;" horiz-adv-x="562" 
d="M487 171q0 -39 -15 -72.5t-42 -58.5t-63.5 -39t-78.5 -14q-47 0 -82 10.5t-72 34.5v-41h-47v180h47v-79q23 -15 40 -25t32 -16t29 -8t31 -2q60 0 97 28.5t37 76.5q0 21 -8 40t-25 37.5t-45.5 37.5t-68.5 40q-47 25 -79.5 47.5t-52.5 45.5t-28.5 48.5t-8.5 56.5
q0 37 15 68.5t41 55t62.5 36.5t78.5 13q38 0 66.5 -7t52.5 -21v36h46v-171h-46v71q-38 26 -62 35t-54 9q-51 0 -81.5 -28t-30.5 -75q0 -19 6.5 -35t23.5 -33t47 -37t77 -47t78 -50t49.5 -45.5t26 -47t7.5 -55.5zM274 707h-55l118 102h101z" />
    <glyph glyph-name="sacute" unicode="&#x15b;" horiz-adv-x="421" 
d="M371 123q0 -30 -11 -55t-31 -43t-48 -28t-61 -10q-84 0 -127 40v-36h-40v142h46v-27q0 -16 9.5 -30.5t26 -26t38 -18t44.5 -6.5q42 0 69 19.5t27 49.5q0 15 -6 27t-21 24t-41 24.5t-65 27.5q-72 28 -101 59t-29 78q0 29 11.5 53t31.5 41.5t48.5 27t63.5 9.5q65 0 106 -34
l6 36h43l-24 -144h-43q3 8 4.5 17t1.5 16q0 15 -8 27.5t-21.5 22.5t-31.5 15.5t-38 5.5q-39 0 -62.5 -19.5t-23.5 -51.5q0 -16 3 -26.5t15.5 -20t38.5 -21t71 -29.5q37 -15 61.5 -29t39.5 -29.5t21.5 -34.5t6.5 -43zM211 513h-53l119 161h93z" />
    <glyph glyph-name="Scircumflex" unicode="&#x15c;" horiz-adv-x="562" 
d="M487 171q0 -39 -15 -72.5t-42 -58.5t-63.5 -39t-78.5 -14q-47 0 -82 10.5t-72 34.5v-41h-47v180h47v-79q23 -15 40 -25t32 -16t29 -8t31 -2q60 0 97 28.5t37 76.5q0 21 -8 40t-25 37.5t-45.5 37.5t-68.5 40q-47 25 -79.5 47.5t-52.5 45.5t-28.5 48.5t-8.5 56.5
q0 37 15 68.5t41 55t62.5 36.5t78.5 13q38 0 66.5 -7t52.5 -21v36h46v-171h-46v71q-38 26 -62 35t-54 9q-51 0 -81.5 -28t-30.5 -75q0 -19 6.5 -35t23.5 -33t47 -37t77 -47t78 -50t49.5 -45.5t26 -47t7.5 -55.5zM368 707l-85 59l-86 -59h-48l112 112h44l107 -112h-44z" />
    <glyph glyph-name="scircumflex" unicode="&#x15d;" horiz-adv-x="421" 
d="M371 123q0 -30 -11 -55t-31 -43t-48 -28t-61 -10q-84 0 -127 40v-36h-40v142h46v-27q0 -16 9.5 -30.5t26 -26t38 -18t44.5 -6.5q42 0 69 19.5t27 49.5q0 15 -6 27t-21 24t-41 24.5t-65 27.5q-72 28 -101 59t-29 78q0 29 11.5 53t31.5 41.5t48.5 27t63.5 9.5q65 0 106 -34
l6 36h43l-24 -144h-43q3 8 4.5 17t1.5 16q0 15 -8 27.5t-21.5 22.5t-31.5 15.5t-38 5.5q-39 0 -62.5 -19.5t-23.5 -51.5q0 -16 3 -26.5t15.5 -20t38.5 -21t71 -29.5q37 -15 61.5 -29t39.5 -29.5t21.5 -34.5t6.5 -43zM291 513l-86 88l-85 -88h-49l113 165h43l108 -165h-44z
" />
    <glyph glyph-name="Scedilla" unicode="&#x15e;" horiz-adv-x="562" 
d="M487 171q0 -36 -13 -68t-36.5 -56t-55.5 -39t-70 -19l-37 -45q45 -18 60.5 -35t15.5 -47q0 -19 -9 -36t-25 -29.5t-38 -19.5t-47 -7q-10 0 -18 1t-17.5 2.5t-21.5 4.5t-31 8l27 53q35 -32 73 -32q18 0 29.5 12.5t11.5 31.5q0 27 -18 41.5t-63 23.5l66 71q-40 2 -71 12.5
t-65 32.5v-41h-47v180h47v-79q23 -15 40 -25t32 -16t29 -8t31 -2q60 0 97 28.5t37 76.5q0 21 -8 40t-25 37.5t-45.5 37.5t-68.5 40q-47 25 -79.5 47.5t-52.5 45.5t-28.5 48.5t-8.5 56.5q0 37 15 68.5t41 55t62.5 36.5t78.5 13q38 0 66.5 -7t52.5 -21v36h46v-171h-46v71
q-38 26 -62 35t-54 9q-51 0 -81.5 -28t-30.5 -75q0 -19 6.5 -35t23.5 -33t47 -37t77 -47t78 -50t49.5 -45.5t26 -47t7.5 -55.5z" />
    <glyph glyph-name="scedilla" unicode="&#x15f;" horiz-adv-x="421" 
d="M371 123q0 -55 -35.5 -91t-92.5 -43l-36 -45q45 -18 60.5 -35t15.5 -47q0 -19 -9 -36t-25 -29.5t-38 -19.5t-47 -7q-10 0 -18 1t-17.5 2.5t-21.5 4.5t-31 8l27 53q35 -32 73 -32q18 0 29.5 12.5t11.5 31.5q0 27 -18 41.5t-63 23.5l66 72q-70 3 -109 39v-36h-40v142h46
v-27q0 -16 9.5 -30.5t26 -26t38 -18t44.5 -6.5q42 0 69 19.5t27 49.5q0 15 -6 27t-21 24t-41 24.5t-65 27.5q-72 28 -101 59t-29 78q0 29 11.5 53t31.5 41.5t48.5 27t63.5 9.5q65 0 106 -34l6 36h43l-24 -144h-43q3 8 4.5 17t1.5 16q0 15 -8 27.5t-21.5 22.5t-31.5 15.5
t-38 5.5q-39 0 -62.5 -19.5t-23.5 -51.5q0 -16 3 -26.5t15.5 -20t38.5 -21t71 -29.5q37 -15 61.5 -29t39.5 -29.5t21.5 -34.5t6.5 -43z" />
    <glyph glyph-name="Scaron" unicode="&#x160;" horiz-adv-x="562" 
d="M487 171q0 -39 -15 -72.5t-42 -58.5t-63.5 -39t-78.5 -14q-47 0 -82 10.5t-72 34.5v-41h-47v180h47v-79q23 -15 40 -25t32 -16t29 -8t31 -2q60 0 97 28.5t37 76.5q0 21 -8 40t-25 37.5t-45.5 37.5t-68.5 40q-47 25 -79.5 47.5t-52.5 45.5t-28.5 48.5t-8.5 56.5
q0 37 15 68.5t41 55t62.5 36.5t78.5 13q38 0 66.5 -7t52.5 -21v36h46v-171h-46v71q-38 26 -62 35t-54 9q-51 0 -81.5 -28t-30.5 -75q0 -19 6.5 -35t23.5 -33t47 -37t77 -47t78 -50t49.5 -45.5t26 -47t7.5 -55.5zM196 819l85 -59l86 59h48l-112 -112h-44l-107 112h44z" />
    <glyph glyph-name="scaron" unicode="&#x161;" horiz-adv-x="421" 
d="M371 123q0 -30 -11 -55t-31 -43t-48 -28t-61 -10q-84 0 -127 40v-36h-40v142h46v-27q0 -16 9.5 -30.5t26 -26t38 -18t44.5 -6.5q42 0 69 19.5t27 49.5q0 15 -6 27t-21 24t-41 24.5t-65 27.5q-72 28 -101 59t-29 78q0 29 11.5 53t31.5 41.5t48.5 27t63.5 9.5q65 0 106 -34
l6 36h43l-24 -144h-43q3 8 4.5 17t1.5 16q0 15 -8 27.5t-21.5 22.5t-31.5 15.5t-38 5.5q-39 0 -62.5 -19.5t-23.5 -51.5q0 -16 3 -26.5t15.5 -20t38.5 -21t71 -29.5q37 -15 61.5 -29t39.5 -29.5t21.5 -34.5t6.5 -43zM228 513h-45l-107 165h43l86 -88l85 88h50z" />
    <glyph glyph-name="Tcommaaccent" unicode="&#x162;" horiz-adv-x="600" 
d="M544 530v80h-200v-573h100v-37h-131l-46 -56q45 -18 60.5 -35t15.5 -47q0 -19 -9 -36t-25 -29.5t-38 -19.5t-47 -7q-10 0 -18 1t-17.5 2.5t-21.5 4.5t-31 8l27 53q35 -32 73 -32q18 0 29.5 12.5t11.5 31.5q0 27 -18 41.5t-63 23.5l78 84h-118v37h100v573h-200v-80h-48
v158h48v-28h488v28h48v-158h-48z" />
    <glyph glyph-name="tcommaaccent" unicode="&#x163;" horiz-adv-x="299" 
d="M299 42q-32 -26 -51.5 -36.5t-39.5 -13.5l-43 -52q45 -18 60.5 -35t15.5 -47q0 -19 -9 -36t-25 -29.5t-38 -19.5t-47 -7q-10 0 -18 1t-17.5 2.5t-21.5 4.5t-31 8l27 53q35 -32 73 -32q18 0 29.5 12.5t11.5 31.5q0 27 -18 41.5t-63 23.5l75 81q-35 5 -54 29.5t-19 65.5
v309h-87v27l87 22v138h72v-141h124v-46h-124v-300q0 -29 10.5 -40.5t35.5 -11.5q16 0 29 4.5t39 19.5z" />
    <glyph glyph-name="Tcaron" unicode="&#x164;" horiz-adv-x="600" 
d="M544 530v80h-200v-573h100v-37h-288v37h100v573h-200v-80h-48v158h48v-28h488v28h48v-158h-48zM213 819l85 -59l86 59h48l-112 -112h-44l-107 112h44z" />
    <glyph glyph-name="tcaron" unicode="&#x165;" horiz-adv-x="299" 
d="M299 42q-20 -16 -34.5 -26t-26.5 -15.5t-23.5 -7.5t-25.5 -2q-44 0 -68.5 25.5t-24.5 71.5v309h-87v27l87 22v138h72v-141h124v-46h-124v-300q0 -29 10.5 -40.5t35.5 -11.5q16 0 29 4.5t39 19.5zM313 609q0 -17 -6 -35q-7 -20 -17 -42t-22 -42h-47q6 15 9.5 24.5
t6.5 17.5t5.5 16t5.5 20l-26 71q14 10 24.5 14t21.5 4q45 0 45 -48z" />
    <glyph glyph-name="Tbar" unicode="&#x166;" horiz-adv-x="600" 
d="M544 530v80h-200v-204h151v-53h-151v-316h100v-37h-288v37h100v316h-149v53h149v204h-200v-80h-48v158h48v-28h488v28h48v-158h-48z" />
    <glyph glyph-name="tbar" unicode="&#x167;" horiz-adv-x="299" 
d="M299 42q-20 -16 -34.5 -26t-26.5 -15.5t-23.5 -7.5t-25.5 -2q-44 0 -68.5 25.5t-24.5 71.5v121h-87v27l87 22v139h-87v27l87 22v138h72v-141h124v-46h-124v-142h124v-46h-124v-112q0 -29 10.5 -40.5t35.5 -11.5q16 0 29 4.5t39 19.5z" />
    <glyph glyph-name="Utilde" unicode="&#x168;" horiz-adv-x="780" 
d="M654 623v-381q0 -81 -29 -134t-92 -87q-65 -34 -139 -34q-54 0 -100.5 17t-80 47.5t-52.5 72t-19 90.5v409h-75v37h238v-37h-75v-378q0 -45 13 -82t36.5 -63.5t57 -40.5t75.5 -14q43 0 78 14.5t60 41t39 63.5t14 82v377h-75v37h201v-37h-75zM607 779q-18 -22 -33 -36.5
t-29.5 -23t-30.5 -12t-36 -3.5q-24 0 -41.5 5t-37.5 19q-13 9 -21 13.5t-14 7t-11 3t-12 0.5q-20 0 -37.5 -8.5t-38.5 -29.5l-25 17q32 42 60.5 59.5t61.5 17.5q14 0 27 -2.5t20 -7.5l38 -23q28 -18 61 -18q12 0 20.5 1t16.5 5t16.5 11.5t21.5 20.5z" />
    <glyph glyph-name="utilde" unicode="&#x169;" horiz-adv-x="570" 
d="M416 -8h-18v113q-27 -33 -50 -55.5t-44.5 -36.5t-42.5 -20t-44 -6q-57 0 -89 34.5t-32 94.5v281h-87v27l144 39h19v-335q0 -91 73 -91q28 0 48 13t51 47l54 60v240h-76v31l132 35h19v-407h87v-28zM464 585q-18 -22 -33 -36.5t-29.5 -23t-30.5 -12t-36 -3.5q-24 0 -41.5 5
t-37.5 19q-13 9 -21 13.5t-14 7t-11 3t-12 0.5q-20 0 -37.5 -8.5t-38.5 -29.5l-25 17q32 42 60.5 59.5t61.5 17.5q14 0 27 -2.5t20 -7.5l38 -23q28 -18 61 -18q12 0 20.5 1t16.5 5t16.5 11.5t21.5 20.5z" />
    <glyph glyph-name="Umacron" unicode="&#x16a;" horiz-adv-x="780" 
d="M654 623v-381q0 -81 -29 -134t-92 -87q-65 -34 -139 -34q-54 0 -100.5 17t-80 47.5t-52.5 72t-19 90.5v409h-75v37h238v-37h-75v-378q0 -45 13 -82t36.5 -63.5t57 -40.5t75.5 -14q43 0 78 14.5t60 41t39 63.5t14 82v377h-75v37h201v-37h-75zM569 719h-307v63h307v-63z
" />
    <glyph glyph-name="umacron" unicode="&#x16b;" horiz-adv-x="570" 
d="M416 -8h-18v113q-27 -33 -50 -55.5t-44.5 -36.5t-42.5 -20t-44 -6q-57 0 -89 34.5t-32 94.5v281h-87v27l144 39h19v-335q0 -91 73 -91q28 0 48 13t51 47l54 60v240h-76v31l132 35h19v-407h87v-28zM433 525h-307v63h307v-63z" />
    <glyph glyph-name="Ubreve" unicode="&#x16c;" horiz-adv-x="780" 
d="M654 623v-381q0 -81 -29 -134t-92 -87q-65 -34 -139 -34q-54 0 -100.5 17t-80 47.5t-52.5 72t-19 90.5v409h-75v37h238v-37h-75v-378q0 -45 13 -82t36.5 -63.5t57 -40.5t75.5 -14q43 0 78 14.5t60 41t39 63.5t14 82v377h-75v37h201v-37h-75zM557 836q-7 -27 -20 -51.5
t-32 -42.5t-45.5 -28.5t-60.5 -10.5q-61 0 -101 34.5t-59 98.5h40q17 -37 47.5 -57.5t73.5 -20.5q42 0 71.5 21t46.5 57h39z" />
    <glyph glyph-name="ubreve" unicode="&#x16d;" horiz-adv-x="570" 
d="M416 -8h-18v113q-27 -33 -50 -55.5t-44.5 -36.5t-42.5 -20t-44 -6q-57 0 -89 34.5t-32 94.5v281h-87v27l144 39h19v-335q0 -91 73 -91q28 0 48 13t51 47l54 60v240h-76v31l132 35h19v-407h87v-28zM438 670q-5 -21 -10 -37t-10.5 -28t-12 -22t-14.5 -20q-22 -26 -51.5 -40
t-59.5 -14q-61 0 -101 41.5t-59 119.5h40q17 -43 47.5 -67.5t73.5 -24.5q42 0 71.5 25t46.5 67h39z" />
    <glyph glyph-name="Uring" unicode="&#x16e;" horiz-adv-x="780" 
d="M654 623v-381q0 -81 -29 -134t-92 -87q-65 -34 -139 -34q-54 0 -100.5 17t-80 47.5t-52.5 72t-19 90.5v409h-75v37h238v-37h-75v-378q0 -45 13 -82t36.5 -63.5t57 -40.5t75.5 -14q43 0 78 14.5t60 41t39 63.5t14 82v377h-75v37h201v-37h-75zM496 782q0 -33 -23.5 -56
t-56.5 -23t-56 23t-23 56t23 56.5t56 23.5t56.5 -23.5t23.5 -56.5zM463 782q0 20 -13.5 33t-33.5 13q-19 0 -32.5 -13t-13.5 -33q0 -19 13.5 -32.5t32.5 -13.5q20 0 33.5 13.5t13.5 32.5z" />
    <glyph glyph-name="uring" unicode="&#x16f;" horiz-adv-x="570" 
d="M416 -8h-18v113q-27 -33 -50 -55.5t-44.5 -36.5t-42.5 -20t-44 -6q-57 0 -89 34.5t-32 94.5v281h-87v27l144 39h19v-335q0 -91 73 -91q28 0 48 13t51 47l54 60v240h-76v31l132 35h19v-407h87v-28zM354 589q0 -33 -23.5 -56t-56.5 -23t-56 23t-23 56t23 56.5t56 23.5
t56.5 -23.5t23.5 -56.5zM321 589q0 20 -13.5 33t-33.5 13q-19 0 -32.5 -13t-13.5 -33q0 -19 13.5 -32.5t32.5 -13.5q20 0 33.5 13.5t13.5 32.5z" />
    <glyph glyph-name="Uhungarumlaut" unicode="&#x170;" horiz-adv-x="780" 
d="M654 623v-381q0 -81 -29 -134t-92 -87q-65 -34 -139 -34q-54 0 -100.5 17t-80 47.5t-52.5 72t-19 90.5v409h-75v37h238v-37h-75v-378q0 -45 13 -82t36.5 -63.5t57 -40.5t75.5 -14q43 0 78 14.5t60 41t39 63.5t14 82v377h-75v37h201v-37h-75zM335 707h-55l118 102h101z
M473 707h-55l118 102h101z" />
    <glyph glyph-name="uhungarumlaut" unicode="&#x171;" horiz-adv-x="570" 
d="M416 -8h-18v113q-27 -33 -50 -55.5t-44.5 -36.5t-42.5 -20t-44 -6q-57 0 -89 34.5t-32 94.5v281h-87v27l144 39h19v-335q0 -91 73 -91q28 0 48 13t51 47l54 60v240h-76v31l132 35h19v-407h87v-28zM194 513h-54l118 161h93zM330 513h-53l118 161h93z" />
    <glyph glyph-name="Uogonek" unicode="&#x172;" horiz-adv-x="780" 
d="M654 623v-381q0 -81 -29 -134t-92 -87q-19 -10 -38.5 -18t-38.5 -15q-24 -16 -38 -42.5t-14 -48.5q0 -28 11 -41t27 -13q11 0 23 3.5t32 11.5l-5 -46q-17 -11 -35 -20t-42 -9q-32 0 -55 23.5t-23 64.5q0 35 15 62.5t39 53.5q-54 0 -99.5 17.5t-78.5 47.5t-52 71.5
t-19 90.5v409h-75v37h238v-37h-75v-378q0 -45 13 -82t36.5 -63.5t57 -40.5t75.5 -14q43 0 78 14.5t60 41t39 63.5t14 82v377h-75v37h201v-37h-75z" />
    <glyph glyph-name="uogonek" unicode="&#x173;" horiz-adv-x="570" 
d="M470 6q-7 -2 -13.5 -4t-8.5 -4q-10 -9 -20 -20.5t-18.5 -25t-13.5 -28t-5 -27.5q0 -28 11 -41t27 -13q11 0 23 3.5t32 11.5l-5 -46q-17 -11 -35 -20t-42 -9q-32 0 -55 23.5t-23 64.5t21 72.5t53 63.5v98q-27 -33 -50 -55.5t-44.5 -36.5t-42.5 -20t-44 -6q-57 0 -89 34.5
t-32 94.5v281h-87v27l144 39h19v-335q0 -91 73 -91q13 0 24 2.5t23 10t25 19.5t31 32l50 56v240h-76v31l132 35h19v-407h87v-28z" />
    <glyph glyph-name="Wcircumflex" unicode="&#x174;" horiz-adv-x="942" 
d="M886 623l-250 -640h-31l-128 324l-125 -324h-33l-253 640h-58v37h210v-37h-59l196 -493l96 244l-99 249h-59v37h359v-37h-52l-79 -204l117 -294l195 498h-69v37h170v-37h-48zM440 623l54 -135l55 135h-109zM565 707l-85 59l-86 -59h-48l112 112h44l107 -112h-44z" />
    <glyph glyph-name="wcircumflex" unicode="&#x175;" horiz-adv-x="706" 
d="M664 416l-162 -429h-20l-127 311l-120 -311h-20l-173 429h-42v37h193v-37h-69l117 -295l90 234l-25 61h-57v37h209v-37h-70l120 -295l112 295h-67v37h153v-37h-42zM442 513l-86 88l-85 -88h-49l113 165h43l108 -165h-44z" />
    <glyph glyph-name="Ycircumflex" unicode="&#x176;" horiz-adv-x="612" 
d="M552 623l-192 -313v-273h76v-37h-238v37h75v267l-207 319h-58v37h247v-37h-91l172 -262l159 262h-91v37h200v-37h-52zM424 707l-85 59l-86 -59h-48l112 112h44l107 -112h-44z" />
    <glyph glyph-name="ycircumflex" unicode="&#x177;" horiz-adv-x="443" 
d="M401 416l-169 -439q-9 -23 -20.5 -48.5t-24.5 -50t-25.5 -46t-22.5 -34.5l-40 -54l-65 67q21 12 35.5 21t26 18.5t21.5 20.5t22 26q10 14 18.5 26t15.5 26t14.5 30.5t16.5 39.5l-162 397h-42v37h194v-37h-71l121 -295l112 295h-67v37h154v-37h-42zM320 513l-86 88
l-85 -88h-49l113 165h43l108 -165h-44z" />
    <glyph glyph-name="Ydieresis" unicode="&#x178;" horiz-adv-x="612" 
d="M552 623l-192 -313v-273h76v-37h-238v37h75v267l-207 319h-58v37h247v-37h-91l172 -262l159 262h-91v37h200v-37h-52zM268 754q0 -20 -14.5 -35t-35.5 -15t-35.5 15t-14.5 35q0 21 14.5 36t35.5 15t35.5 -15t14.5 -36zM495 754q0 -20 -14.5 -35t-35.5 -15t-35.5 15
t-14.5 35q0 21 14.5 36t35.5 15t35.5 -15t14.5 -36z" />
    <glyph glyph-name="Zacute" unicode="&#x179;" horiz-adv-x="668" 
d="M59 0v30l410 579h-363v-80h-47v159h47v-28h483v-31l-408 -579h381v104h47v-154h-550zM303 707h-55l118 102h101z" />
    <glyph glyph-name="zacute" unicode="&#x17a;" horiz-adv-x="469" 
d="M139 46h248v77h43v-123h-392v37l291 370h-233l-13 -84h-43l21 150h43l-3 -20h331v-30zM235 513h-53l119 161h93z" />
    <glyph glyph-name="Zdotaccent" unicode="&#x17b;" horiz-adv-x="668" 
d="M59 0v30l410 579h-363v-80h-47v159h47v-28h483v-31l-408 -579h381v104h47v-154h-550zM376 754q0 -20 -14.5 -35t-35.5 -15t-35.5 15t-14.5 35q0 21 14.5 36t35.5 15t35.5 -15t14.5 -36z" />
    <glyph glyph-name="zdotaccent" unicode="&#x17c;" horiz-adv-x="469" 
d="M139 46h248v77h43v-123h-392v37l291 370h-233l-13 -84h-43l21 150h43l-3 -20h331v-30zM303 560q0 -20 -14.5 -35t-35.5 -15t-35.5 15t-14.5 35q0 21 14.5 36t35.5 15t35.5 -15t14.5 -36z" />
    <glyph glyph-name="Zcaron" unicode="&#x17d;" horiz-adv-x="668" 
d="M59 0v30l410 579h-363v-80h-47v159h47v-28h483v-31l-408 -579h381v104h47v-154h-550zM238 819l85 -59l86 59h48l-112 -112h-44l-107 112h44z" />
    <glyph glyph-name="zcaron" unicode="&#x17e;" horiz-adv-x="469" 
d="M139 46h248v77h43v-123h-392v37l291 370h-233l-13 -84h-43l21 150h43l-3 -20h331v-30zM258 513h-45l-107 165h43l86 -88l85 88h50z" />
    <glyph glyph-name="longs" unicode="&#x17f;" horiz-adv-x="313" 
d="M396 633q-15 13 -26 22t-21.5 16.5t-22 14t-29.5 15.5q-60 -11 -86.5 -56t-26.5 -136v-472h96v-37h-247v37h76v360h-87v27l87 22v82q0 47 14.5 86t41.5 66.5t64.5 43t82.5 15.5q72 0 139 -38z" />
    <glyph glyph-name="uni018F" unicode="&#x18f;" horiz-adv-x="658" 
d="M509 282v21q0 69 -18 127t-49.5 100t-74.5 66t-94 24q-24 0 -46 -1.5t-44 -7.5t-46.5 -17.5t-54.5 -30.5l-24 45q40 23 71.5 36t57.5 19t48 7.5t45 1.5q67 0 126.5 -25t104.5 -70t71 -107t26 -136q0 -75 -22 -139t-62 -110t-95.5 -72t-121.5 -26q-59 0 -107 19
t-82.5 53.5t-53.5 82t-19 105.5v35h464zM147 194q0 -32 12 -60.5t33.5 -49.5t50.5 -33.5t64 -12.5q77 0 128.5 52t69.5 147h-358v-43z" />
    <glyph glyph-name="florin" unicode="&#x192;" horiz-adv-x="576" 
d="M620 670q0 -20 -13 -33t-32 -13q-12 0 -22 7t-14 19l-10 31q-7 22 -29 22q-13 0 -28.5 -12.5t-30.5 -33t-28 -47.5t-21 -57l-31 -110h102l-12 -46h-102l-119 -451q-12 -44 -33 -81t-48 -64t-58 -42t-64 -15q-37 0 -64 18.5t-27 44.5q0 19 13.5 32t32.5 13q11 0 19.5 -6.5
t11.5 -17.5l8 -29q4 -11 23 -11q35 0 66.5 50t56.5 144l110 415h-84l13 46h83l36 132q10 37 28.5 67.5t43.5 52t54.5 33t61.5 11.5q27 0 52 -11q22 -11 38.5 -28t16.5 -30z" />
    <glyph glyph-name="uni01B5" unicode="&#x1b5;" horiz-adv-x="668" 
d="M59 0v30l191 270h-111v63h155l175 246h-363v-80h-47v159h47v-28h483v-31l-188 -266h111v-63h-155l-176 -250h381v104h47v-154h-550z" />
    <glyph glyph-name="uni01B6" unicode="&#x1b6;" horiz-adv-x="469" 
d="M300 254h85v-47h-121l-125 -161h248v76h43v-122h-392v37l133 170h-83v47h120l121 153h-233l-13 -84h-43l21 150h43l-3 -20h331v-30z" />
    <glyph glyph-name="uni01C4" unicode="&#x1c4;" horiz-adv-x="1408" 
d="M689 331q0 -69 -25.5 -129.5t-69.5 -105.5t-104 -70.5t-129 -25.5h-294v37h75v586h-75v37h295q67 0 127 -26t104 -70.5t70 -104.5t26 -128zM590 330q0 58 -18.5 108.5t-51 88.5t-76 60t-92.5 22h-122v-559h120q51 0 95 21.5t76.5 59t50.5 88.5t18 111zM799 0v30l410 579
h-363v-80h-47v159h47v-28h483v-31l-408 -579h381v104h47v-154h-550zM978 819l85 -59l86 59h48l-112 -112h-44l-107 112h44z" />
    <glyph glyph-name="uni01C5" unicode="&#x1c5;" horiz-adv-x="1209" 
d="M689 331q0 -69 -25.5 -129.5t-69.5 -105.5t-104 -70.5t-129 -25.5h-294v37h75v586h-75v37h295q67 0 127 -26t104 -70.5t70 -104.5t26 -128zM590 330q0 58 -18.5 108.5t-51 88.5t-76 60t-92.5 22h-122v-559h120q51 0 95 21.5t76.5 59t50.5 88.5t18 111zM879 46h248v77h43
v-123h-392v37l291 370h-233l-13 -84h-43l21 150h43l-3 -20h331v-30zM998 513h-45l-107 165h43l86 -88l85 88h50z" />
    <glyph glyph-name="uni01C6" unicode="&#x1c6;" horiz-adv-x="1001" 
d="M379 -10h-19v70q-41 -41 -72 -57t-69 -16q-39 0 -73 18t-59 48.5t-39.5 72.5t-14.5 90q0 52 18.5 97t51 79t75.5 53.5t92 19.5q26 0 43.5 -5t46.5 -20v231h-87v27l144 39h19v-681h87v-28zM360 340q0 47 -17 65t-62 18q-36 0 -66 -14t-51.5 -39t-33 -60.5t-11.5 -78.5
q0 -85 34.5 -132t96.5 -47q23 0 39 6.5t42 26.5l29 23v232zM671 46h248v77h43v-123h-392v37l291 370h-233l-13 -84h-43l21 150h43l-3 -20h331v-30zM790 513h-45l-107 165h43l86 -88l85 88h50z" />
    <glyph glyph-name="uni01C7" unicode="&#x1c7;" horiz-adv-x="895" 
d="M67 0v37h75v586h-75v37h238v-37h-75v-578h246v88h46v-133h-455zM752 623v-641q-20 -41 -35 -68t-30.5 -49.5t-35 -44.5t-48.5 -51l-34 32q18 17 30 31t20.5 27.5t15 29.5t12.5 37q6 19 9.5 35.5t5.5 34.5t2.5 41.5t0.5 56.5v529h-75v37h238v-37h-76z" />
    <glyph glyph-name="uni01C8" unicode="&#x1c8;" horiz-adv-x="805" 
d="M67 0v37h75v586h-75v37h238v-37h-75v-578h246v88h46v-133h-455zM712 -73q-14 -33 -24.5 -55.5t-23 -42t-28 -39t-39.5 -46.5l-24 19q21 36 34 60.5t20 46t9 43.5t2 54v430h-89v27l144 39h19v-536zM723 635q0 -23 -15.5 -38t-37.5 -15t-37.5 15t-15.5 38q0 22 15.5 37
t37.5 15t37.5 -15t15.5 -37z" />
    <glyph glyph-name="uni01C9" unicode="&#x1c9;" horiz-adv-x="541" 
d="M20 0v37h76v634h-88v27l144 39h19v-700h75v-37h-226zM448 -73q-14 -33 -24.5 -55.5t-23 -42t-28 -39t-39.5 -46.5l-24 19q21 36 34 60.5t20 46t9 43.5t2 54v430h-89v27l144 39h19v-536zM459 635q0 -23 -15.5 -38t-37.5 -15t-37.5 15t-15.5 38q0 22 15.5 37t37.5 15
t37.5 -15t15.5 -37z" />
    <glyph glyph-name="uni01CA" unicode="&#x1ca;" horiz-adv-x="1101" 
d="M611 623v-634h-31l-384 528v-480h76v-37h-202v37h76v548l-27 38h-69v37h145l366 -502v465h-76v37h201v-37h-75zM958 623v-641q-20 -41 -35 -68t-30.5 -49.5t-35 -44.5t-48.5 -51l-34 32q18 17 30 31t20.5 27.5t15 29.5t12.5 37q6 19 9.5 35.5t5.5 34.5t2.5 41.5t0.5 56.5
v529h-75v37h238v-37h-76z" />
    <glyph glyph-name="uni01CB" unicode="&#x1cb;" horiz-adv-x="1011" 
d="M611 623v-634h-31l-384 528v-480h76v-37h-202v37h76v548l-27 38h-69v37h145l366 -502v465h-76v37h201v-37h-75zM918 -73q-14 -33 -24.5 -55.5t-23 -42t-28 -39t-39.5 -46.5l-24 19q21 36 34 60.5t20 46t9 43.5t2 54v430h-89v27l144 39h19v-536zM929 635q0 -23 -15.5 -38
t-37.5 -15t-37.5 15t-15.5 38q0 22 15.5 37t37.5 15t37.5 -15t15.5 -37z" />
    <glyph glyph-name="uni01CC" unicode="&#x1cc;" horiz-adv-x="855" 
d="M335 0v37h75v293q0 40 -19 63t-52 23q-16 0 -30 -4.5t-31 -17.5t-39 -36.5t-55 -60.5v-260h76v-37h-227v37h76v360h-87v27l144 39h18v-112q28 33 51 54.5t44 35t42 19t45 5.5q56 0 88 -33.5t32 -91.5v-303h75v-37h-226zM762 -73q-14 -33 -24.5 -55.5t-23 -42t-28 -39
t-39.5 -46.5l-24 19q21 36 34 60.5t20 46t9 43.5t2 54v430h-89v27l144 39h19v-536zM773 635q0 -23 -15.5 -38t-37.5 -15t-37.5 15t-15.5 38q0 22 15.5 37t37.5 15t37.5 -15t15.5 -37z" />
    <glyph glyph-name="uni01F1" unicode="&#x1f1;" horiz-adv-x="1408" 
d="M689 331q0 -69 -25.5 -129.5t-69.5 -105.5t-104 -70.5t-129 -25.5h-294v37h75v586h-75v37h295q67 0 127 -26t104 -70.5t70 -104.5t26 -128zM590 330q0 58 -18.5 108.5t-51 88.5t-76 60t-92.5 22h-122v-559h120q51 0 95 21.5t76.5 59t50.5 88.5t18 111zM799 0v30l410 579
h-363v-80h-47v159h47v-28h483v-31l-408 -579h381v104h47v-154h-550z" />
    <glyph glyph-name="uni01F2" unicode="&#x1f2;" horiz-adv-x="1209" 
d="M689 331q0 -69 -25.5 -129.5t-69.5 -105.5t-104 -70.5t-129 -25.5h-294v37h75v586h-75v37h295q67 0 127 -26t104 -70.5t70 -104.5t26 -128zM590 330q0 58 -18.5 108.5t-51 88.5t-76 60t-92.5 22h-122v-559h120q51 0 95 21.5t76.5 59t50.5 88.5t18 111zM879 46h248v77h43
v-123h-392v37l291 370h-233l-13 -84h-43l21 150h43l-3 -20h331v-30z" />
    <glyph glyph-name="uni01F3" unicode="&#x1f3;" horiz-adv-x="1001" 
d="M379 -10h-19v70q-41 -41 -72 -57t-69 -16q-39 0 -73 18t-59 48.5t-39.5 72.5t-14.5 90q0 52 18.5 97t51 79t75.5 53.5t92 19.5q26 0 43.5 -5t46.5 -20v231h-87v27l144 39h19v-681h87v-28zM360 340q0 47 -17 65t-62 18q-36 0 -66 -14t-51.5 -39t-33 -60.5t-11.5 -78.5
q0 -85 34.5 -132t96.5 -47q23 0 39 6.5t42 26.5l29 23v232zM671 46h248v77h43v-123h-392v37l291 370h-233l-13 -84h-43l21 150h43l-3 -20h331v-30z" />
    <glyph glyph-name="Aringacute" unicode="&#x1fa;" horiz-adv-x="672" 
d="M435 0v37h80l-70 181h-256l-73 -180h83v-38h-191v38h52l249 616q-23 9 -36.5 28.5t-13.5 45.5q0 33 23 56.5t56 23.5t56.5 -23.5t23.5 -56.5q0 -26 -14.5 -46t-37.5 -28l240 -616h57v-38h-228zM321 546l-113 -281h220zM385 728q0 20 -13.5 33t-33.5 13q-19 0 -32.5 -13
t-13.5 -33q0 -19 13.5 -32.5t32.5 -13.5q20 0 33.5 13.5t13.5 32.5zM366 827h-55l78 72h101z" />
    <glyph glyph-name="aringacute" unicode="&#x1fb;" horiz-adv-x="457" 
d="M370 -2q-10 -3 -19.5 -5t-15.5 -2q-23 0 -36 15.5t-13 43.5v10q-32 -39 -62.5 -56t-70.5 -17q-52 0 -86 32t-34 83q0 38 22.5 67t58.5 37l171 39v113q0 30 -20 49.5t-50 19.5q-15 0 -27.5 -3t-34.5 -14v-48l-89 -26q-5 9 -6.5 14.5t-1.5 13.5q0 22 12 40.5t33 32t50 21
t63 7.5q66 0 106 -30t40 -80v-308h77v-28zM285 205l-171 -40v-50q0 -32 18.5 -50.5t50.5 -18.5q24 0 46.5 12t55.5 41v106zM299 578q0 -33 -23.5 -56t-56.5 -23t-56 23t-23 56t23 56.5t56 23.5t56.5 -23.5t23.5 -56.5zM266 578q0 20 -13.5 33t-33.5 13q-19 0 -32.5 -13
t-13.5 -33q0 -19 13.5 -32.5t32.5 -13.5q20 0 33.5 13.5t13.5 32.5zM241 685h-55l118 102h101z" />
    <glyph glyph-name="AEacute" unicode="&#x1fc;" horiz-adv-x="867" 
d="M351 0v37h75v180h-212l-96 -180h80v-37h-190v37h45l316 586h-64v37h447v23h47v-157h-47v84h-239v-255h192v76h46v-195h-46v74h-192v-264h248v86h47v-132h-457zM426 619l-189 -356h189v356zM522 707h-55l118 102h101z" />
    <glyph glyph-name="aeacute" unicode="&#x1fd;" horiz-adv-x="700" 
d="M359 222q0 -23 1.5 -39.5t6 -30.5t12 -26.5t19.5 -26.5q24 -29 56.5 -45.5t67.5 -16.5q13 0 25.5 2t26 7t30 12.5t37.5 19.5l22 -34q-45 -31 -83 -44t-83 -13q-59 0 -105 23t-74 67q-26 -26 -46 -43t-39 -27.5t-37 -15t-39 -4.5q-57 0 -90.5 29.5t-33.5 80.5
q0 46 24.5 73t78.5 40l149 35v95q0 45 -18 66t-57 21q-16 0 -27.5 -3.5t-29.5 -14.5v-48l-88 -26q-6 9 -8 14.5t-2 11.5q0 22 13 41t35.5 33t52.5 22t64 8q52 0 81.5 -18t41.5 -57q23 37 60.5 56t87.5 19q75 0 121 -44t57 -125zM590 319q-3 109 -98 109q-128 0 -132 -164z
M300 111q-8 22 -11.5 38.5t-3.5 33.5v21l-170 -40v-50q0 -29 19.5 -48.5t49.5 -19.5q13 0 25.5 3t25.5 10.5t28.5 20t36.5 31.5zM368 513h-53l119 161h93z" />
    <glyph glyph-name="Oslashacute" unicode="&#x1fe;" horiz-adv-x="751" 
d="M608 568q48 -57 70 -114t22 -125q0 -69 -26 -131t-70.5 -109t-103 -74.5t-123.5 -27.5q-60 0 -109.5 19t-95.5 61l-101 -116l-29 25l102 117q-48 53 -70.5 110t-22.5 127q0 71 25.5 133t69.5 108.5t103 73.5t126 27q116 0 205 -77l102 117l29 -26zM534 543
q-63 78 -160 78q-48 0 -89 -21.5t-71 -60t-47 -91.5t-17 -115q0 -51 10.5 -94t33.5 -88zM601 329q0 51 -10 91.5t-34 88.5l-339 -390q34 -42 72 -60.5t86 -18.5t89.5 22t71.5 60.5t47 91.5t17 115zM367 707h-55l118 102h101z" />
    <glyph glyph-name="oslashacute" unicode="&#x1ff;" horiz-adv-x="510" 
d="M418 387q29 -42 43 -80t14 -81q0 -49 -18 -92.5t-48.5 -76t-71 -51.5t-85.5 -19q-76 0 -135 52l-74 -86l-28 26l75 87q-30 39 -43.5 77t-13.5 84q0 49 17.5 92.5t47.5 75.5t70 51t86 19q74 0 136 -51l75 87l29 -25zM349 367q-21 29 -43.5 42t-52.5 13q-29 0 -53.5 -14.5
t-42.5 -40.5t-28 -61t-10 -76q0 -32 4 -57t15 -51zM388 229q0 24 -4.5 50t-13.5 52l-212 -245q17 -26 42.5 -41t55.5 -15q27 0 51 16t42 43t28.5 63t10.5 77zM250 513h-53l119 161h93z" />
    <glyph glyph-name="Scommaaccent" unicode="&#x218;" horiz-adv-x="562" 
d="M487 171q0 -39 -15 -72.5t-42 -58.5t-63.5 -39t-78.5 -14q-47 0 -82 10.5t-72 34.5v-41h-47v180h47v-79q23 -15 40 -25t32 -16t29 -8t31 -2q60 0 97 28.5t37 76.5q0 21 -8 40t-25 37.5t-45.5 37.5t-68.5 40q-47 25 -79.5 47.5t-52.5 45.5t-28.5 48.5t-8.5 56.5
q0 37 15 68.5t41 55t62.5 36.5t78.5 13q38 0 66.5 -7t52.5 -21v36h46v-171h-46v71q-38 26 -62 35t-54 9q-51 0 -81.5 -28t-30.5 -75q0 -19 6.5 -35t23.5 -33t47 -37t77 -47t78 -50t49.5 -45.5t26 -47t7.5 -55.5zM334 -137q0 -17 -6 -35q-7 -20 -17 -42t-22 -42h-47
q6 15 9.5 24.5t6.5 17.5t5.5 16t5.5 20l-26 71q14 10 24.5 14t21.5 4q45 0 45 -48z" />
    <glyph glyph-name="scommaaccent" unicode="&#x219;" horiz-adv-x="421" 
d="M371 123q0 -30 -11 -55t-31 -43t-48 -28t-61 -10q-84 0 -127 40v-36h-40v142h46v-27q0 -16 9.5 -30.5t26 -26t38 -18t44.5 -6.5q42 0 69 19.5t27 49.5q0 15 -6 27t-21 24t-41 24.5t-65 27.5q-72 28 -101 59t-29 78q0 29 11.5 53t31.5 41.5t48.5 27t63.5 9.5q65 0 106 -34
l6 36h43l-24 -144h-43q3 8 4.5 17t1.5 16q0 15 -8 27.5t-21.5 22.5t-31.5 15.5t-38 5.5q-39 0 -62.5 -19.5t-23.5 -51.5q0 -16 3 -26.5t15.5 -20t38.5 -21t71 -29.5q37 -15 61.5 -29t39.5 -29.5t21.5 -34.5t6.5 -43zM266 -137q0 -17 -6 -35q-7 -20 -17 -42t-22 -42h-47
q6 15 9.5 24.5t6.5 17.5t5.5 16t5.5 20l-26 71q14 10 24.5 14t21.5 4q45 0 45 -48z" />
    <glyph glyph-name="uni021A" unicode="&#x21a;" horiz-adv-x="600" 
d="M544 530v80h-200v-573h100v-37h-288v37h100v573h-200v-80h-48v158h48v-28h488v28h48v-158h-48zM341 -137q0 -17 -6 -35q-7 -20 -17 -42t-22 -42h-47q6 15 9.5 24.5t6.5 17.5t5.5 16t5.5 20l-26 71q14 10 24.5 14t21.5 4q45 0 45 -48z" />
    <glyph glyph-name="uni021B" unicode="&#x21b;" horiz-adv-x="299" 
d="M299 42q-20 -16 -34.5 -26t-26.5 -15.5t-23.5 -7.5t-25.5 -2q-44 0 -68.5 25.5t-24.5 71.5v309h-87v27l87 22v138h72v-141h124v-46h-124v-300q0 -29 10.5 -40.5t35.5 -11.5q16 0 29 4.5t39 19.5zM232 -137q0 -17 -6 -35q-7 -20 -17 -42t-22 -42h-47q6 15 9.5 24.5
t6.5 17.5t5.5 16t5.5 20l-26 71q14 10 24.5 14t21.5 4q45 0 45 -48z" />
    <glyph glyph-name="uni0237" unicode="&#x237;" horiz-adv-x="274" 
d="M181 -73q-14 -33 -24.5 -55.5t-23 -42t-28 -39t-39.5 -46.5l-24 19q21 36 34 60.5t20 46t9 43.5t2 54v430h-89v27l144 39h19v-536z" />
    <glyph glyph-name="uni0259" unicode="&#x259;" horiz-adv-x="461" 
d="M346 196v11q0 47 -12 86t-33 67t-50.5 43.5t-65.5 15.5q-30 0 -55.5 -9.5t-67.5 -36.5l-19 37q28 16 49.5 26.5t40.5 17t37.5 9t40.5 2.5q48 0 87.5 -17.5t68.5 -49t45 -74.5t16 -95q0 -53 -16 -97t-45 -76.5t-68.5 -50.5t-85.5 -18q-41 0 -74.5 13t-57.5 37t-37 57.5
t-13 74.5v27h315zM113 132q0 -45 27.5 -74t71.5 -29q55 0 90.5 34t42.5 93h-232v-24z" />
    <glyph glyph-name="uni02BB" unicode="&#x2bb;" horiz-adv-x="250" 
d="M197 641q-36 -29 -50 -48.5t-14 -42.5t11 -35.5t40 -21.5q-12 -32 -25.5 -44.5t-39.5 -12.5q-23 0 -40 16.5t-17 39.5q0 42 28.5 88.5t81.5 91.5z" />
    <glyph glyph-name="afii57929" unicode="&#x2bc;" horiz-adv-x="250" 
d="M188 617q0 -42 -28.5 -89t-81.5 -92l-25 31q36 29 50 48.5t14 42.5t-11.5 36t-39.5 21q12 33 25.5 45t39.5 12q23 0 40 -16t17 -39z" />
    <glyph glyph-name="circumflex" unicode="&#x2c6;" horiz-adv-x="570" 
d="M366 513l-86 88l-85 -88h-49l113 165h43l108 -165h-44z" />
    <glyph glyph-name="caron" unicode="&#x2c7;" horiz-adv-x="469" 
d="M258 513h-45l-107 165h43l86 -88l85 88h50z" />
    <glyph glyph-name="breve" unicode="&#x2d8;" horiz-adv-x="352" 
d="M334 670q-5 -21 -10 -37t-10.5 -28t-12 -22t-14.5 -20q-22 -26 -51.5 -40t-59.5 -14q-61 0 -101 41.5t-59 119.5h40q17 -43 47.5 -67.5t73.5 -24.5q42 0 71.5 25t46.5 67h39z" />
    <glyph glyph-name="dotaccent" unicode="&#x2d9;" horiz-adv-x="234" 
d="M168 560q0 -20 -14.5 -35t-35.5 -15t-35.5 15t-14.5 35q0 21 14.5 36t35.5 15t35.5 -15t14.5 -36z" />
    <glyph glyph-name="ring" unicode="&#x2da;" horiz-adv-x="457" 
d="M299 589q0 -33 -23.5 -56t-56.5 -23t-56 23t-23 56t23 56.5t56 23.5t56.5 -23.5t23.5 -56.5zM266 589q0 20 -13.5 33t-33.5 13q-19 0 -32.5 -13t-13.5 -33q0 -19 13.5 -32.5t32.5 -13.5q20 0 33.5 13.5t13.5 32.5z" />
    <glyph glyph-name="ogonek" unicode="&#x2db;" horiz-adv-x="380" 
d="M287 -188q-17 -11 -35 -20t-42 -9q-32 0 -55 23.5t-23 64.5t21 72.5t53 63.5l51 -7q-32 -32 -45 -56t-13 -47q0 -28 11 -41t27 -13q11 0 23 3.5t32 11.5z" />
    <glyph glyph-name="tilde" unicode="&#x2dc;" horiz-adv-x="581" 
d="M463 585q-18 -22 -33 -36.5t-29.5 -23t-30.5 -12t-36 -3.5q-24 0 -41.5 5t-37.5 19q-13 9 -21 13.5t-14 7t-11 3t-12 0.5q-20 0 -37.5 -8.5t-38.5 -29.5l-25 17q32 42 60.5 59.5t61.5 17.5q14 0 27 -2.5t20 -7.5l38 -23q28 -18 61 -18q12 0 20.5 1t16.5 5t16.5 11.5
t21.5 20.5z" />
    <glyph glyph-name="hungarumlaut" unicode="&#x2dd;" horiz-adv-x="383" 
d="M71 513h-54l118 161h93zM207 513h-53l118 161h93z" />
    <glyph glyph-name="gravecomb" unicode="&#x300;" horiz-adv-x="1" 
d="M-241 513l-159 161h93l119 -161h-53z" />
    <glyph glyph-name="acutecomb" unicode="&#x301;" horiz-adv-x="1" 
d="M-289 513h-53l119 161h93z" />
    <glyph glyph-name="uni0302" unicode="&#x302;" horiz-adv-x="1" 
d="M-159 513l-86 88l-85 -88h-49l113 165h43l108 -165h-44z" />
    <glyph glyph-name="tildecomb" unicode="&#x303;" horiz-adv-x="1" 
d="M-64 585q-18 -22 -33 -36.5t-29.5 -23t-30.5 -12t-36 -3.5q-24 0 -41.5 5t-37.5 19q-13 9 -21 13.5t-14 7t-11 3t-12 0.5q-20 0 -37.5 -8.5t-38.5 -29.5l-25 17q32 42 60.5 59.5t61.5 17.5q14 0 27 -2.5t20 -7.5l38 -23q28 -18 61 -18q12 0 20.5 1t16.5 5t16.5 11.5
t21.5 20.5z" />
    <glyph glyph-name="uni0304" unicode="&#x304;" horiz-adv-x="1" 
d="M-47 525h-307v63h307v-63z" />
    <glyph glyph-name="uni0306" unicode="&#x306;" horiz-adv-x="1" 
d="M-18 670q-5 -21 -10 -37t-10.5 -28t-12 -22t-14.5 -20q-22 -26 -51.5 -40t-59.5 -14q-61 0 -101 41.5t-59 119.5h40q17 -43 47.5 -67.5t73.5 -24.5q42 0 71.5 25t46.5 67h39z" />
    <glyph glyph-name="uni0307" unicode="&#x307;" horiz-adv-x="1" 
d="M-89 560q0 -20 -14.5 -35t-35.5 -15t-35.5 15t-14.5 35q0 21 14.5 36t35.5 15t35.5 -15t14.5 -36z" />
    <glyph glyph-name="uni0308" unicode="&#x308;" horiz-adv-x="1" 
d="M-344 560q0 -20 -14.5 -35t-35.5 -15t-35.5 15t-14.5 35q0 21 14.5 36t35.5 15t35.5 -15t14.5 -36zM-147 560q0 -20 -14.5 -35t-35.5 -15t-35.5 15t-14.5 35q0 21 14.5 36t35.5 15t35.5 -15t14.5 -36z" />
    <glyph glyph-name="uni030A" unicode="&#x30a;" horiz-adv-x="1" 
d="M-157 589q0 -33 -23.5 -56t-56.5 -23t-56 23t-23 56t23 56.5t56 23.5t56.5 -23.5t23.5 -56.5zM-190 589q0 20 -13.5 33t-33.5 13q-19 0 -32.5 -13t-13.5 -33q0 -19 13.5 -32.5t32.5 -13.5q20 0 33.5 13.5t13.5 32.5z" />
    <glyph glyph-name="uni030B" unicode="&#x30b;" horiz-adv-x="1" 
d="M-311 513h-54l118 161h93zM-175 513h-53l118 161h93z" />
    <glyph glyph-name="uni030C" unicode="&#x30c;" horiz-adv-x="1" 
d="M-210 513h-45l-107 165h43l86 -88l85 88h50z" />
    <glyph glyph-name="uni0312" unicode="&#x312;" horiz-adv-x="1" 
d="M-181 558q0 17 6 35q7 20 17 42t22 42h47q-6 -15 -9.5 -24.5t-6.5 -17.5t-5.5 -16t-5.5 -20l26 -71q-14 -10 -24.5 -14t-21.5 -4q-45 0 -45 48z" />
    <glyph glyph-name="uni0313" unicode="&#x313;" horiz-adv-x="1" 
d="M-71 612q0 -17 -6 -35q-7 -20 -17 -42t-22 -42h-47q6 15 9.5 24.5t6.5 17.5t5.5 16t5.5 20l-26 71q14 10 24.5 14t21.5 4q45 0 45 -48z" />
    <glyph glyph-name="uni0326" unicode="&#x326;" horiz-adv-x="1" 
d="M-73 -137q0 -17 -6 -35q-7 -20 -17 -42t-22 -42h-47q6 15 9.5 24.5t6.5 17.5t5.5 16t5.5 20l-26 71q14 10 24.5 14t21.5 4q45 0 45 -48z" />
    <glyph glyph-name="uni0327" unicode="&#x327;" horiz-adv-x="1" 
d="M-232 20l-63 -76q45 -18 60.5 -35t15.5 -47q0 -19 -9 -36t-25 -29.5t-38 -19.5t-47 -7q-10 0 -18 1t-17.5 2.5t-21.5 4.5t-31 8l27 53q35 -32 73 -32q18 0 29.5 12.5t11.5 31.5q0 27 -18 41.5t-63 23.5l97 104h37z" />
    <glyph glyph-name="uni0328" unicode="&#x328;" horiz-adv-x="1" 
d="M-92 -201q-17 -11 -35 -20t-42 -9q-32 0 -55 23.5t-23 64.5t21 72.5t53 63.5l51 -7q-32 -32 -45 -56t-13 -47q0 -28 11 -41t27 -13q11 0 23 3.5t32 11.5z" />
    <glyph glyph-name="uni0394" unicode="&#x394;" horiz-adv-x="747" 
d="M41 0v22l306 635l44 12l313 -647v-22h-663zM344 577l-244 -532h493z" />
    <glyph glyph-name="uni03A9" unicode="&#x3a9;" horiz-adv-x="654" 
d="M601 0h-215l-6 17q14 31 33.5 70.5t37 84t29.5 92.5t12 97q0 76 -14 128.5t-37 85.5t-53 47.5t-62 14.5q-34 0 -64 -14t-52.5 -46.5t-35.5 -85.5t-13 -131q0 -45 8.5 -86.5t23.5 -83t35.5 -84t43.5 -88.5l-8 -18h-213l-21 138l24 1q7 -23 14 -36.5t15 -21t17.5 -10
t23.5 -2.5h92q-21 19 -48 47t-50 64.5t-39 83t-16 103.5q0 69 20.5 124.5t56 94.5t84 60t104.5 21q57 0 105 -20t83 -58t54.5 -92t19.5 -123q0 -52 -15 -96.5t-38.5 -82.5t-51 -69.5t-52.5 -56.5h97q14 0 24 2t17.5 9.5t13.5 21t13 37.5l25 -1z" />
    <glyph glyph-name="uni03BC" unicode="&#x3bc;" horiz-adv-x="570" 
d="M416 -8h-18v113q-27 -33 -50 -55.5t-44.5 -36.5t-42.5 -20t-44 -6q-33 0 -58 12l17 -242h-94q1 40 2.5 89t3 100.5t3 100.5t3 89t2 66t0.5 31v164h-87v27l144 39h19v-335q0 -91 73 -91q13 0 23.5 2.5t22 9t24.5 18.5t31 32l52 58v240h-76v31l132 35h19v-407h87v-28z" />
    <glyph glyph-name="pi" unicode="&#x3c0;" horiz-adv-x="517" 
d="M492 440q-5 -27 -14.5 -50.5t-18.5 -36.5q-11 -3 -26.5 -4t-34.5 -1q-4 -33 -4.5 -77t-0.5 -86q0 -69 5.5 -104t34.5 -35q14 0 23.5 6.5t20.5 20.5l13 -20q-18 -32 -44.5 -48.5t-52.5 -16.5q-18 0 -33.5 5.5t-26.5 19.5t-17.5 38t-6.5 61q0 66 3 124t7 115q-38 0 -73 1
t-63 1v-17q0 -82 -7.5 -141.5t-17.5 -99.5t-20.5 -61.5t-15.5 -28.5q-13 -6 -29 -10.5t-28 -6.5l-6 17q25 34 42 79t26.5 92.5t13.5 94t4 83.5q-23 0 -39 -3t-29 -8t-24.5 -13t-24.5 -17l-14 22q15 20 30 35.5t33 26.5t40 17t52 6q52 0 115 -1.5t130 -1.5q22 0 32.5 6
t21.5 25z" />
    <glyph glyph-name="Wgrave" unicode="&#x1e80;" horiz-adv-x="942" 
d="M886 623l-250 -640h-31l-128 324l-125 -324h-33l-253 640h-58v37h210v-37h-59l196 -493l96 244l-99 249h-59v37h359v-37h-52l-79 -204l117 -294l195 498h-69v37h170v-37h-48zM440 623l54 -135l55 135h-109zM343 809h101l118 -102h-55z" />
    <glyph glyph-name="wgrave" unicode="&#x1e81;" horiz-adv-x="706" 
d="M664 416l-162 -429h-20l-127 311l-120 -311h-20l-173 429h-42v37h193v-37h-69l117 -295l90 234l-25 61h-57v37h209v-37h-70l120 -295l112 295h-67v37h153v-37h-42zM364 513l-159 161h93l119 -161h-53z" />
    <glyph glyph-name="Wacute" unicode="&#x1e82;" horiz-adv-x="942" 
d="M886 623l-250 -640h-31l-128 324l-125 -324h-33l-253 640h-58v37h210v-37h-59l196 -493l96 244l-99 249h-59v37h359v-37h-52l-79 -204l117 -294l195 498h-69v37h170v-37h-48zM440 623l54 -135l55 135h-109zM475 707h-55l118 102h101z" />
    <glyph glyph-name="wacute" unicode="&#x1e83;" horiz-adv-x="706" 
d="M664 416l-162 -429h-20l-127 311l-120 -311h-20l-173 429h-42v37h193v-37h-69l117 -295l90 234l-25 61h-57v37h209v-37h-70l120 -295l112 295h-67v37h153v-37h-42zM353 513h-53l119 161h93z" />
    <glyph glyph-name="Wdieresis" unicode="&#x1e84;" horiz-adv-x="942" 
d="M886 623l-250 -640h-31l-128 324l-125 -324h-33l-253 640h-58v37h210v-37h-59l196 -493l96 244l-99 249h-59v37h359v-37h-52l-79 -204l117 -294l195 498h-69v37h170v-37h-48zM440 623l54 -135l55 135h-109zM408 754q0 -20 -14.5 -35t-35.5 -15t-35.5 15t-14.5 35
q0 21 14.5 36t35.5 15t35.5 -15t14.5 -36zM645 754q0 -20 -14.5 -35t-35.5 -15t-35.5 15t-14.5 35q0 21 14.5 36t35.5 15t35.5 -15t14.5 -36z" />
    <glyph glyph-name="wdieresis" unicode="&#x1e85;" horiz-adv-x="706" 
d="M664 416l-162 -429h-20l-127 311l-120 -311h-20l-173 429h-42v37h193v-37h-69l117 -295l90 234l-25 61h-57v37h209v-37h-70l120 -295l112 295h-67v37h153v-37h-42zM307 560q0 -20 -14.5 -35t-35.5 -15t-35.5 15t-14.5 35q0 21 14.5 36t35.5 15t35.5 -15t14.5 -36z
M504 560q0 -20 -14.5 -35t-35.5 -15t-35.5 15t-14.5 35q0 21 14.5 36t35.5 15t35.5 -15t14.5 -36z" />
    <glyph glyph-name="uni1E8A" unicode="&#x1e8a;" horiz-adv-x="660" 
d="M395 0v37h94l-171 242l-187 -242h95v-37h-218v37h56l223 287l-211 299h-57v37h254v-37h-94l161 -229l177 229h-92v37h218v-37h-59l-212 -275l220 -311h60v-37h-257zM390 754q0 -20 -14.5 -35t-35.5 -15t-35.5 15t-14.5 35q0 21 14.5 36t35.5 15t35.5 -15t14.5 -36z" />
    <glyph glyph-name="uni1E8B" unicode="&#x1e8b;" horiz-adv-x="437" 
d="M248 0v37h57l-97 147l-112 -147h59v-37h-155v37h42l142 183l-132 196h-42v37h193v-37h-62l90 -138l103 138h-48v37h144v-37h-42l-134 -171l141 -208h42v-37h-189zM281 560q0 -20 -14.5 -35t-35.5 -15t-35.5 15t-14.5 35q0 21 14.5 36t35.5 15t35.5 -15t14.5 -36z" />
    <glyph glyph-name="Ygrave" unicode="&#x1ef2;" horiz-adv-x="612" 
d="M552 623l-192 -313v-273h76v-37h-238v37h75v267l-207 319h-58v37h247v-37h-91l172 -262l159 262h-91v37h200v-37h-52zM177 809h101l118 -102h-55z" />
    <glyph glyph-name="ygrave" unicode="&#x1ef3;" horiz-adv-x="443" 
d="M401 416l-169 -439q-9 -23 -20.5 -48.5t-24.5 -50t-25.5 -46t-22.5 -34.5l-40 -54l-65 67q21 12 35.5 21t26 18.5t21.5 20.5t22 26q10 14 18.5 26t15.5 26t14.5 30.5t16.5 39.5l-162 397h-42v37h194v-37h-71l121 -295l112 295h-67v37h154v-37h-42zM242 513l-159 161h93
l119 -161h-53z" />
    <glyph glyph-name="uni2007" unicode="&#x2007;" 
 />
    <glyph glyph-name="uni2008" unicode="&#x2008;" horiz-adv-x="250" 
 />
    <glyph glyph-name="uni200B" unicode="&#x200b;" horiz-adv-x="0" 
 />
    <glyph glyph-name="endash" unicode="&#x2013;" 
d="M0 208v57h500v-57h-500z" />
    <glyph glyph-name="emdash" unicode="&#x2014;" horiz-adv-x="1000" 
d="M0 208v57h1000v-57h-1000z" />
    <glyph glyph-name="quoteleft" unicode="&#x2018;" horiz-adv-x="250" 
d="M197 641q-36 -29 -50 -48.5t-14 -42.5t11 -35.5t40 -21.5q-12 -32 -25.5 -44.5t-39.5 -12.5q-23 0 -40 16.5t-17 39.5q0 42 28.5 88.5t81.5 91.5z" />
    <glyph glyph-name="quoteright" unicode="&#x2019;" horiz-adv-x="250" 
d="M188 617q0 -42 -28.5 -89t-81.5 -92l-25 31q36 29 50 48.5t14 42.5t-11.5 36t-39.5 21q12 33 25.5 45t39.5 12q23 0 40 -16t17 -39z" />
    <glyph glyph-name="quotesinglbase" unicode="&#x201a;" horiz-adv-x="250" 
d="M187 49q0 -42 -28.5 -89t-81.5 -92l-24 31q36 29 50 48.5t14 42.5t-11.5 35.5t-40.5 21.5q12 33 26 45t39 12q24 0 40.5 -16t16.5 -39z" />
    <glyph glyph-name="quotedblleft" unicode="&#x201c;" horiz-adv-x="409" 
d="M197 641q-36 -29 -50 -48.5t-14 -42.5t11 -35.5t40 -21.5q-12 -32 -25.5 -44.5t-39.5 -12.5q-23 0 -40 16.5t-17 39.5q0 42 28.5 88.5t81.5 91.5zM356 641q-36 -29 -50 -48.5t-14 -42.5t11.5 -35.5t39.5 -21.5q-12 -32 -25.5 -44.5t-39.5 -12.5q-23 0 -39.5 16.5
t-16.5 39.5q0 42 28 88.5t82 91.5z" />
    <glyph glyph-name="quotedblright" unicode="&#x201d;" horiz-adv-x="409" 
d="M188 617q0 -42 -28.5 -89t-81.5 -92l-25 31q36 29 50 48.5t14 42.5t-11.5 36t-39.5 21q12 33 25.5 45t39.5 12q23 0 40 -16t17 -39zM347 617q0 -42 -28.5 -89t-81.5 -92l-25 31q37 29 50.5 48.5t13.5 42.5t-11 36t-40 21q12 33 25.5 45t39.5 12q23 0 40 -16t17 -39z" />
    <glyph glyph-name="quotedblbase" unicode="&#x201e;" horiz-adv-x="409" 
d="M188 49q0 -42 -28.5 -89t-81.5 -92l-25 31q36 29 50 48.5t14 42.5t-11.5 35.5t-39.5 21.5q12 33 25.5 45t39.5 12q23 0 40 -16t17 -39zM347 49q0 -42 -28.5 -89t-81.5 -92l-25 31q37 29 50.5 48.5t13.5 42.5t-11 35.5t-40 21.5q12 33 25.5 45t39.5 12q23 0 40 -16t17 -39
z" />
    <glyph glyph-name="dagger" unicode="&#x2020;" horiz-adv-x="573" 
d="M300 -248h-27l-25 455l23 190h31l23 -190zM324 419v30l190 29v-89zM59 389v89l190 -29v-30zM302 470h-31l-29 190h88z" />
    <glyph glyph-name="daggerdbl" unicode="&#x2021;" horiz-adv-x="573" 
d="M302 14h-31l-23 192l23 191h31l23 -191zM324 419v30l190 29v-89zM242 -248l29 190h31l28 -190h-88zM302 470h-31l-29 190h88zM59 389v89l190 -29v-30zM324 -37v29l190 31v-89zM59 -66v89l190 -31v-29z" />
    <glyph glyph-name="bullet" unicode="&#x2022;" horiz-adv-x="352" 
d="M293 231q0 -24 -9 -45.5t-25 -37.5t-37.5 -25t-45.5 -9t-45.5 9t-37.5 25t-25 37.5t-9 45.5t9 45.5t25 37.5t37.5 25t45.5 9t45.5 -9t37.5 -25t25 -37.5t9 -45.5z" />
    <glyph glyph-name="ellipsis" unicode="&#x2026;" horiz-adv-x="758" 
d="M184 48q0 -25 -17.5 -42t-41.5 -17t-41.5 17t-17.5 42q0 24 17.5 41t41.5 17t41.5 -17t17.5 -41zM442 48q0 -25 -17 -42t-41 -17q-25 0 -42 17t-17 42q0 24 17 41t42 17q24 0 41 -17t17 -41zM692 48q0 -25 -17 -42t-42 -17q-24 0 -41 17t-17 42q0 24 17 41t41 17
q25 0 42 -17t17 -41z" />
    <glyph glyph-name="perthousand" unicode="&#x2030;" horiz-adv-x="1234" 
d="M384 495q0 -36 -13.5 -68t-37.5 -56t-56 -37.5t-68 -13.5t-68 13.5t-55.5 37.5t-37.5 56t-14 68t14 68t37.5 56t55.5 38t68 14t68 -14t56 -38t37.5 -56t13.5 -68zM1200 162q0 -36 -14 -68t-37.5 -55.5t-55.5 -37.5t-68 -14t-68 14t-56 37.5t-37.5 55.5t-13.5 68t13.5 68
t37.5 56t56 37.5t68 13.5t68 -13.5t55.5 -37.5t37.5 -56t14 -68zM816 162q0 -36 -14 -68t-37.5 -55.5t-55.5 -37.5t-68 -14t-68 14t-56 37.5t-37.5 55.5t-13.5 68t13.5 68t37.5 56t56 37.5t68 13.5t68 -13.5t55.5 -37.5t37.5 -56t14 -68zM168 -46h-53l559 733h69zM324 495
q0 24 -9 44.5t-24.5 36.5t-36.5 25t-45 9t-44.5 -9t-36 -25t-24.5 -36.5t-9 -44.5t9 -45t24.5 -36.5t36 -24.5t44.5 -9t45 9t36.5 24.5t24.5 36.5t9 45zM1140 162q0 24 -9 45t-25 36.5t-36.5 24.5t-44.5 9t-45 -9t-36.5 -24.5t-24.5 -36.5t-9 -45t9 -44.5t24.5 -36
t36.5 -24.5t45 -9t44.5 9t36.5 24.5t25 36t9 44.5zM755 162q0 24 -9 45t-24.5 36.5t-36 24.5t-44.5 9t-45 -9t-36.5 -24.5t-24.5 -36.5t-9 -45t9 -44.5t24.5 -36t36.5 -24.5t45 -9t44.5 9t36 24.5t24.5 36t9 44.5z" />
    <glyph glyph-name="guilsinglleft" unicode="&#x2039;" horiz-adv-x="300" 
d="M25 224l232 192v-41l-119 -151l119 -151v-42z" />
    <glyph glyph-name="guilsinglright" unicode="&#x203a;" horiz-adv-x="299" 
d="M38 31v42l118 151l-118 151v41l232 -192z" />
    <glyph glyph-name="fraction" unicode="&#x2044;" horiz-adv-x="150" 
d="M-51 -46h-61l313 733h61z" />
    <glyph glyph-name="uni2070" unicode="&#x2070;" horiz-adv-x="360" 
d="M345 429q0 -50 -13.5 -93.5t-36 -75.5t-52.5 -50.5t-63 -18.5t-63 18.5t-52.5 51t-36 75.5t-13.5 92q0 50 13.5 93.5t36 76t52.5 51.5t63 19t63 -19t52.5 -51t36 -76t13.5 -93zM262 427q0 91 -20 146t-62 55q-21 0 -36 -14.5t-25.5 -40.5t-15.5 -62.5t-5 -81.5t5 -81.5
t15.5 -62.5t26 -40t35.5 -14q41 0 61.5 54t20.5 142z" />
    <glyph glyph-name="uni2074" unicode="&#x2074;" horiz-adv-x="360" 
d="M265 327v-128h-67v128h-189v27l228 310h28v-283h87v-54h-87zM198 531l-109 -150h109v150z" />
    <glyph glyph-name="uni2075" unicode="&#x2075;" horiz-adv-x="360" 
d="M316 349q0 -36 -15.5 -65.5t-40 -50t-54 -32t-57.5 -11.5h-8q-15 0 -44.5 4t-61.5 24l23 43q19 -13 37 -18.5t40 -5.5h12q15 0 30 5t27 16.5t19.5 30.5t7.5 48q0 42 -18 64.5t-52 33.5q-20 7 -38.5 9t-54.5 2v214h185v19h45v-81h-180v-107q104 0 151 -36t47 -106z" />
    <glyph glyph-name="uni2076" unicode="&#x2076;" horiz-adv-x="360" 
d="M346 345q0 -34 -11 -62.5t-31 -48.5t-48.5 -31.5t-63.5 -11.5q-36 0 -65.5 13.5t-51 39t-33 61.5t-11.5 81q0 58 18 109.5t51 89.5t78.5 60.5t100.5 22.5h16v-39q-62 -4 -98 -29t-53 -57q-15 -27 -22 -68t-7 -81q0 -73 18.5 -118t63.5 -45q40 0 54 29t14 72
q0 45 -16.5 68t-58.5 23h-39l6 41q23 5 35.5 6.5t25.5 1.5q28 0 51.5 -10.5t40.5 -27.5t26.5 -40.5t9.5 -48.5z" />
    <glyph glyph-name="uni2077" unicode="&#x2077;" horiz-adv-x="360" 
d="M262 416q-17 -37 -37.5 -77t-41 -75t-38.5 -61.5t-28 -36.5l-52 30q14 14 34 40.5t41.5 59t41.5 69.5t35 72l66 160h-184v-42h-44v125h44v-20h263v-17z" />
    <glyph glyph-name="uni2078" unicode="&#x2078;" horiz-adv-x="360" 
d="M343 317q0 -25 -12.5 -48t-34 -40t-51.5 -27.5t-64 -10.5q-75 0 -115 31.5t-40 84.5q0 20 8.5 36.5t22 31t31 28t35.5 26.5l-17 12q-35 26 -52 56.5t-17 57.5q0 28 14 49t36 35.5t49 21.5t54 7q24 0 47.5 -7.5t42 -21.5t29.5 -34t11 -46q0 -16 -8 -30.5t-21 -28.5
t-28.5 -26.5t-30.5 -24.5l56 -39q8 -6 17.5 -14t18 -19.5t14 -26.5t5.5 -33zM259 557q0 14 -6.5 26.5t-16.5 22t-22 15t-24 5.5q-30 0 -50.5 -17t-20.5 -47q0 -23 9 -36t36 -34l28 -21l34 27q17 14 25 26t8 33zM259 309q0 14 -8 25.5t-30 27.5l-61 42l-40 -31
q-15 -11 -24 -24.5t-9 -36.5q0 -35 23.5 -56.5t71.5 -21.5q23 0 38 8t23.5 20t12 25t3.5 22z" />
    <glyph glyph-name="uni2079" unicode="&#x2079;" horiz-adv-x="360" 
d="M329 473q0 -59 -18 -110t-51 -89.5t-78.5 -60.5t-100.5 -22h-16l1 38q62 5 96.5 30.5t53.5 56.5q16 26 22.5 67.5t6.5 80.5q0 74 -18.5 119t-63.5 45q-20 0 -33.5 -8t-21 -21.5t-10.5 -32t-3 -39.5q0 -45 16.5 -70t58.5 -25h39l-6 -37q-23 -5 -35.5 -6.5t-25.5 -1.5
q-28 0 -51.5 10.5t-40.5 27.5t-26.5 40t-9.5 49q0 34 11 62.5t31 48.5t48.5 31.5t63.5 11.5q36 0 65.5 -13.5t51 -39t33 -61.5t11.5 -81z" />
    <glyph glyph-name="uni2080" unicode="&#x2080;" horiz-adv-x="360" 
d="M345 -7q0 -50 -13.5 -93.5t-36 -75.5t-52.5 -50.5t-63 -18.5t-63 18.5t-52.5 51t-36 75.5t-13.5 92q0 50 13.5 93.5t36 76t52.5 51.5t63 19t63 -19t52.5 -51t36 -76t13.5 -93zM262 -9q0 91 -20 146t-62 55q-21 0 -36 -14.5t-25.5 -40.5t-15.5 -62.5t-5 -81.5t5 -81.5
t15.5 -62.5t26 -40t35.5 -14q41 0 61.5 54t20.5 142z" />
    <glyph glyph-name="uni2081" unicode="&#x2081;" horiz-adv-x="360" 
d="M80 -237v40h75v349l-86 -35l-14 44l176 76v-434h75v-40h-226z" />
    <glyph glyph-name="uni2082" unicode="&#x2082;" horiz-adv-x="360" 
d="M28 -237v34q19 21 43 47t48 54.5t45 58t35 57.5q7 14 13.5 35t6.5 59q0 35 -14 52.5t-35 17.5q-26 0 -52.5 -12.5t-55.5 -43.5l-35 30q42 44 77 60t77 16q55 0 89 -30.5t34 -80.5q0 -61 -24.5 -105t-62.5 -86l-94 -107h157v40h42v-96h-294z" />
    <glyph glyph-name="uni2083" unicode="&#x2083;" horiz-adv-x="360" 
d="M306 -96q0 -31 -14.5 -58t-38.5 -47t-55.5 -31.5t-65.5 -11.5q-25 0 -46 6.5t-57 25.5l24 40q18 -10 30.5 -15t22 -7.5t17.5 -3t16 -0.5q17 0 32.5 8t27 20.5t18 29t6.5 33.5q0 48 -21 67t-56 19h-39v35q53 29 72 54.5t20 51.5v6q0 55 -46 55q-17 0 -32.5 -7.5
t-43.5 -31.5l-34 29q36 33 64 46t60 13q57 0 85.5 -30.5t28.5 -73.5q0 -29 -15.5 -52t-50.5 -43q42 -11 66.5 -45.5t24.5 -81.5z" />
    <glyph glyph-name="uni2084" unicode="&#x2084;" horiz-adv-x="360" 
d="M265 -109v-128h-67v128h-189v27l228 310h28v-283h87v-54h-87zM198 95l-109 -150h109v150z" />
    <glyph glyph-name="uni2085" unicode="&#x2085;" horiz-adv-x="360" 
d="M316 -87q0 -36 -15.5 -65.5t-40 -50t-54 -32t-57.5 -11.5h-8q-15 0 -44.5 4t-61.5 24l23 43q19 -13 37 -18.5t40 -5.5h12q15 0 30 5t27 16.5t19.5 30.5t7.5 48q0 42 -18 64.5t-52 33.5q-20 7 -38.5 9t-54.5 2v214h185v19h45v-81h-180v-107q104 0 151 -36t47 -106z" />
    <glyph glyph-name="uni2086" unicode="&#x2086;" horiz-adv-x="360" 
d="M346 -91q0 -34 -11 -62.5t-31 -48.5t-48.5 -31.5t-63.5 -11.5q-36 0 -65.5 13.5t-51 39t-33 61.5t-11.5 81q0 58 18 109.5t51 89.5t78.5 60.5t100.5 22.5h16v-39q-62 -4 -98 -29t-53 -57q-15 -27 -22 -68t-7 -81q0 -73 18.5 -118t63.5 -45q40 0 54 29t14 72
q0 45 -16.5 68t-58.5 23h-39l6 41q23 5 35.5 6.5t25.5 1.5q28 0 51.5 -10.5t40.5 -27.5t26.5 -40.5t9.5 -48.5z" />
    <glyph glyph-name="uni2087" unicode="&#x2087;" horiz-adv-x="360" 
d="M262 -20q-17 -37 -37.5 -77t-41 -75t-38.5 -61.5t-28 -36.5l-52 30q14 14 34 40.5t41.5 59t41.5 69.5t35 72l66 160h-184v-42h-44v125h44v-20h263v-17z" />
    <glyph glyph-name="uni2088" unicode="&#x2088;" horiz-adv-x="360" 
d="M343 -119q0 -25 -12.5 -48t-34 -40t-51.5 -27.5t-64 -10.5q-75 0 -115 31.5t-40 84.5q0 20 8.5 36.5t22 31t31 28t35.5 26.5l-17 12q-35 26 -52 56.5t-17 57.5q0 28 14 49t36 35.5t49 21.5t54 7q24 0 47.5 -7.5t42 -21.5t29.5 -34t11 -46q0 -16 -8 -30.5t-21 -28.5
t-28.5 -26.5t-30.5 -24.5l56 -39q8 -6 17.5 -14t18 -19.5t14 -26.5t5.5 -33zM259 121q0 14 -6.5 26.5t-16.5 22t-22 15t-24 5.5q-30 0 -50.5 -17t-20.5 -47q0 -23 9 -36t36 -34l28 -21l34 27q17 14 25 26t8 33zM259 -127q0 14 -8 25.5t-30 27.5l-61 42l-40 -31
q-15 -11 -24 -24.5t-9 -36.5q0 -35 23.5 -56.5t71.5 -21.5q23 0 38 8t23.5 20t12 25t3.5 22z" />
    <glyph glyph-name="uni2089" unicode="&#x2089;" horiz-adv-x="360" 
d="M329 37q0 -59 -18 -110t-51 -89.5t-78.5 -60.5t-100.5 -22h-16l1 38q62 5 96.5 30.5t53.5 56.5q16 26 22.5 67.5t6.5 80.5q0 74 -18.5 119t-63.5 45q-20 0 -33.5 -8t-21 -21.5t-10.5 -32t-3 -39.5q0 -45 16.5 -70t58.5 -25h39l-6 -37q-23 -5 -35.5 -6.5t-25.5 -1.5
q-28 0 -51.5 10.5t-40.5 27.5t-26.5 40t-9.5 49q0 34 11 62.5t31 48.5t48.5 31.5t63.5 11.5q36 0 65.5 -13.5t51 -39t33 -61.5t11.5 -81z" />
    <glyph glyph-name="Euro" unicode="&#x20ac;" 
d="M182 381q-1 -11 -1.5 -23t-0.5 -24v-19q0 -9 1 -18h261v-50h-255q7 -45 21.5 -83.5t35.5 -66t48 -43.5t59 -16q25 0 48 7t56 35v82h48v-131q-26 -12 -46 -20.5t-38 -14t-36 -7.5t-38 -2q-51 0 -94.5 19t-76.5 53.5t-55.5 82.5t-31.5 105h-69v38l64 10q-1 8 -1 16v17
q0 27 3 53h-66v38l74 12q11 52 33 96.5t53.5 76.5t71.5 50t87 18q64 0 118 -34v42h47v-170h-47v54q-30 30 -56.5 44t-59.5 14q-31 0 -56 -14t-44 -39t-32 -60t-20 -78h255v-50h-260z" />
    <glyph glyph-name="afii61289" unicode="&#x2113;" horiz-adv-x="381" 
d="M365 95q-27 -51 -65 -78.5t-89 -27.5q-33 0 -56.5 7.5t-39.5 27t-23.5 53.5t-7.5 87v78l-53 -40l-12 23l65 53v124q0 57 2 96.5t7.5 67.5t14.5 47.5t24 37.5q36 49 84 49q21 0 37 -10t26.5 -27.5t16 -40.5t5.5 -49q0 -84 -38 -151t-96 -127v-89q0 -47 5 -78t15 -49.5
t25 -26t35 -7.5q32 0 56 19.5t43 47.5zM167 341q37 44 60.5 106t23.5 125q0 45 -10 71.5t-31 26.5q-12 0 -20 -10.5t-13.5 -35.5t-7.5 -66t-2 -101v-116z" />
    <glyph glyph-name="trademark" unicode="&#x2122;" horiz-adv-x="1000" 
d="M713 337v28h63v241l-123 -269l-122 264v-236h59v-28h-151v28h58v266h-58v29h127l98 -204l95 204h147v-29h-63v-266h63v-28h-193zM371 564v62h-93v-261h63v-28h-192v28h62v261h-92v-62h-33v110h33v-14h252v14h33v-110h-33z" />
    <glyph glyph-name="Omega" unicode="&#x2126;" horiz-adv-x="654" 
d="M601 0h-215l-6 17q14 31 33.5 70.5t37 84t29.5 92.5t12 97q0 76 -14 128.5t-37 85.5t-53 47.5t-62 14.5q-34 0 -64 -14t-52.5 -46.5t-35.5 -85.5t-13 -131q0 -45 8.5 -86.5t23.5 -83t35.5 -84t43.5 -88.5l-8 -18h-213l-21 138l24 1q7 -23 14 -36.5t15 -21t17.5 -10
t23.5 -2.5h92q-21 19 -48 47t-50 64.5t-39 83t-16 103.5q0 69 20.5 124.5t56 94.5t84 60t104.5 21q57 0 105 -20t83 -58t54.5 -92t19.5 -123q0 -52 -15 -96.5t-38.5 -82.5t-51 -69.5t-52.5 -56.5h97q14 0 24 2t17.5 9.5t13.5 21t13 37.5l25 -1z" />
    <glyph glyph-name="estimated" unicode="&#x212e;" horiz-adv-x="821" 
d="M176 318q-5 0 -5 -4v-185q0 -12 8 -22q45 -46 104 -73t128 -27q73 0 135.5 30.5t107.5 81.5h55q-51 -60 -129.5 -95.5t-169.5 -35.5q-78 0 -147 26.5t-120.5 72.5t-81 108t-29.5 132t29.5 132t81 108.5t120.5 73t147 26.5q81 0 150 -27.5t120 -75t79.5 -111t28.5 -135.5
h-612zM649 528q0 14 -9 23q-45 44 -103.5 70t-125.5 26q-68 0 -127 -27t-104 -72q-9 -9 -9 -24v-182q0 -2 1.5 -4t3.5 -2h469q2 0 3 2t1 4v186z" />
    <glyph glyph-name="uni2150" unicode="&#x2150;" horiz-adv-x="890" 
d="M80 199v40h75v349l-86 -35l-14 44l176 76v-434h75v-40h-226zM309 -46h-61l313 733h61zM792 217q-17 -37 -37.5 -77t-41 -75t-38.5 -61.5t-28 -36.5l-52 30q14 14 34 40.5t41.5 59t41.5 69.5t35 72l66 160h-184v-42h-44v125h44v-20h263v-17z" />
    <glyph glyph-name="uni2151" unicode="&#x2151;" horiz-adv-x="870" 
d="M80 199v40h75v349l-86 -35l-14 44l176 76v-434h75v-40h-226zM309 -46h-61l313 733h61zM839 274q0 -59 -18 -110t-51 -89.5t-78.5 -60.5t-100.5 -22h-16l1 38q62 5 96.5 30.5t53.5 56.5q16 26 22.5 67.5t6.5 80.5q0 74 -18.5 119t-63.5 45q-20 0 -33.5 -8t-21 -21.5
t-10.5 -32t-3 -39.5q0 -45 16.5 -70t58.5 -25h39l-6 -37q-23 -5 -35.5 -6.5t-25.5 -1.5q-28 0 -51.5 10.5t-40.5 27.5t-26.5 40t-9.5 49q0 34 11 62.5t31 48.5t48.5 31.5t63.5 11.5q36 0 65.5 -13.5t51 -39t33 -61.5t11.5 -81z" />
    <glyph glyph-name="uni2152" unicode="&#x2152;" horiz-adv-x="1230" 
d="M80 199v40h75v349l-86 -35l-14 44l176 76v-434h75v-40h-226zM309 -46h-61l313 733h61zM578 0v40h75v349l-86 -35l-14 44l176 76v-434h75v-40h-226zM1215 230q0 -50 -13.5 -93.5t-36 -75.5t-52.5 -50.5t-63 -18.5t-63 18.5t-52.5 51t-36 75.5t-13.5 92q0 50 13.5 93.5
t36 76t52.5 51.5t63 19t63 -19t52.5 -51t36 -76t13.5 -93zM1132 228q0 91 -20 146t-62 55q-21 0 -36 -14.5t-25.5 -40.5t-15.5 -62.5t-5 -81.5t5 -81.5t15.5 -62.5t26 -40t35.5 -14q41 0 61.5 54t20.5 142z" />
    <glyph glyph-name="onethird" unicode="&#x2153;" horiz-adv-x="870" 
d="M80 199v40h75v349l-86 -35l-14 44l176 76v-434h75v-40h-226zM309 -46h-61l313 733h61zM816 141q0 -31 -14.5 -58t-38.5 -47t-55.5 -31.5t-65.5 -11.5q-25 0 -46 6.5t-57 25.5l24 40q18 -10 30.5 -15t22 -7.5t17.5 -3t16 -0.5q17 0 32.5 8t27 20.5t18 29t6.5 33.5
q0 48 -21 67t-56 19h-39v35q53 29 72 54.5t20 51.5v6q0 55 -46 55q-17 0 -32.5 -7.5t-43.5 -31.5l-34 29q36 33 64 46t60 13q57 0 85.5 -30.5t28.5 -73.5q0 -29 -15.5 -52t-50.5 -43q42 -11 66.5 -45.5t24.5 -81.5z" />
    <glyph glyph-name="twothirds" unicode="&#x2154;" horiz-adv-x="890" 
d="M28 199v34q19 21 43 47t48 54.5t45 58t35 57.5q7 14 13.5 35t6.5 59q0 35 -14 52.5t-35 17.5q-26 0 -52.5 -12.5t-55.5 -43.5l-35 30q42 44 77 60t77 16q55 0 89 -30.5t34 -80.5q0 -61 -24.5 -105t-62.5 -86l-94 -107h157v40h42v-96h-294zM329 -46h-61l313 733h61z
M836 141q0 -31 -14.5 -58t-38.5 -47t-55.5 -31.5t-65.5 -11.5q-25 0 -46 6.5t-57 25.5l24 40q18 -10 30.5 -15t22 -7.5t17.5 -3t16 -0.5q17 0 32.5 8t27 20.5t18 29t6.5 33.5q0 48 -21 67t-56 19h-39v35q53 29 72 54.5t20 51.5v6q0 55 -46 55q-17 0 -32.5 -7.5t-43.5 -31.5
l-34 29q36 33 64 46t60 13q57 0 85.5 -30.5t28.5 -73.5q0 -29 -15.5 -52t-50.5 -43q42 -11 66.5 -45.5t24.5 -81.5z" />
    <glyph glyph-name="uni2155" unicode="&#x2155;" horiz-adv-x="870" 
d="M80 199v40h75v349l-86 -35l-14 44l176 76v-434h75v-40h-226zM309 -46h-61l313 733h61zM826 150q0 -36 -15.5 -65.5t-40 -50t-54 -32t-57.5 -11.5h-8q-15 0 -44.5 4t-61.5 24l23 43q19 -13 37 -18.5t40 -5.5h12q15 0 30 5t27 16.5t19.5 30.5t7.5 48q0 42 -18 64.5
t-52 33.5q-20 7 -38.5 9t-54.5 2v214h185v19h45v-81h-180v-107q104 0 151 -36t47 -106z" />
    <glyph glyph-name="uni2156" unicode="&#x2156;" horiz-adv-x="890" 
d="M28 199v34q19 21 43 47t48 54.5t45 58t35 57.5q7 14 13.5 35t6.5 59q0 35 -14 52.5t-35 17.5q-26 0 -52.5 -12.5t-55.5 -43.5l-35 30q42 44 77 60t77 16q55 0 89 -30.5t34 -80.5q0 -61 -24.5 -105t-62.5 -86l-94 -107h157v40h42v-96h-294zM329 -46h-61l313 733h61z
M846 150q0 -36 -15.5 -65.5t-40 -50t-54 -32t-57.5 -11.5h-8q-15 0 -44.5 4t-61.5 24l23 43q19 -13 37 -18.5t40 -5.5h12q15 0 30 5t27 16.5t19.5 30.5t7.5 48q0 42 -18 64.5t-52 33.5q-20 7 -38.5 9t-54.5 2v214h185v19h45v-81h-180v-107q104 0 151 -36t47 -106z" />
    <glyph glyph-name="uni2157" unicode="&#x2157;" horiz-adv-x="870" 
d="M306 340q0 -31 -14.5 -58t-38.5 -47t-55.5 -31.5t-65.5 -11.5q-25 0 -46 6.5t-57 25.5l24 40q18 -10 30.5 -15t22 -7.5t17.5 -3t16 -0.5q17 0 32.5 8t27 20.5t18 29t6.5 33.5q0 48 -21 67t-56 19h-39v35q53 29 72 54.5t20 51.5v6q0 55 -46 55q-17 0 -32.5 -7.5
t-43.5 -31.5l-34 29q36 33 64 46t60 13q57 0 85.5 -30.5t28.5 -73.5q0 -29 -15.5 -52t-50.5 -43q42 -11 66.5 -45.5t24.5 -81.5zM309 -46h-61l313 733h61zM826 150q0 -36 -15.5 -65.5t-40 -50t-54 -32t-57.5 -11.5h-8q-15 0 -44.5 4t-61.5 24l23 43q19 -13 37 -18.5t40 -5.5
h12q15 0 30 5t27 16.5t19.5 30.5t7.5 48q0 42 -18 64.5t-52 33.5q-20 7 -38.5 9t-54.5 2v214h185v19h45v-81h-180v-107q104 0 151 -36t47 -106z" />
    <glyph glyph-name="uni2158" unicode="&#x2158;" horiz-adv-x="870" 
d="M265 327v-128h-67v128h-189v27l228 310h28v-283h87v-54h-87zM198 531l-109 -150h109v150zM309 -46h-61l313 733h61zM826 150q0 -36 -15.5 -65.5t-40 -50t-54 -32t-57.5 -11.5h-8q-15 0 -44.5 4t-61.5 24l23 43q19 -13 37 -18.5t40 -5.5h12q15 0 30 5t27 16.5t19.5 30.5
t7.5 48q0 42 -18 64.5t-52 33.5q-20 7 -38.5 9t-54.5 2v214h185v19h45v-81h-180v-107q104 0 151 -36t47 -106z" />
    <glyph glyph-name="uni2159" unicode="&#x2159;" horiz-adv-x="870" 
d="M80 199v40h75v349l-86 -35l-14 44l176 76v-434h75v-40h-226zM309 -46h-61l313 733h61zM856 146q0 -34 -11 -62.5t-31 -48.5t-48.5 -31.5t-63.5 -11.5q-36 0 -65.5 13.5t-51 39t-33 61.5t-11.5 81q0 58 18 109.5t51 89.5t78.5 60.5t100.5 22.5h16v-39q-62 -4 -98 -29
t-53 -57q-15 -27 -22 -68t-7 -81q0 -73 18.5 -118t63.5 -45q40 0 54 29t14 72q0 45 -16.5 68t-58.5 23h-39l6 41q23 5 35.5 6.5t25.5 1.5q28 0 51.5 -10.5t40.5 -27.5t26.5 -40.5t9.5 -48.5z" />
    <glyph glyph-name="uni215A" unicode="&#x215a;" horiz-adv-x="870" 
d="M316 349q0 -36 -15.5 -65.5t-40 -50t-54 -32t-57.5 -11.5h-8q-15 0 -44.5 4t-61.5 24l23 43q19 -13 37 -18.5t40 -5.5h12q15 0 30 5t27 16.5t19.5 30.5t7.5 48q0 42 -18 64.5t-52 33.5q-20 7 -38.5 9t-54.5 2v214h185v19h45v-81h-180v-107q104 0 151 -36t47 -106z
M309 -46h-61l313 733h61zM856 146q0 -34 -11 -62.5t-31 -48.5t-48.5 -31.5t-63.5 -11.5q-36 0 -65.5 13.5t-51 39t-33 61.5t-11.5 81q0 58 18 109.5t51 89.5t78.5 60.5t100.5 22.5h16v-39q-62 -4 -98 -29t-53 -57q-15 -27 -22 -68t-7 -81q0 -73 18.5 -118t63.5 -45
q40 0 54 29t14 72q0 45 -16.5 68t-58.5 23h-39l6 41q23 5 35.5 6.5t25.5 1.5q28 0 51.5 -10.5t40.5 -27.5t26.5 -40.5t9.5 -48.5z" />
    <glyph glyph-name="oneeighth" unicode="&#x215b;" horiz-adv-x="870" 
d="M80 199v40h75v349l-86 -35l-14 44l176 76v-434h75v-40h-226zM309 -46h-61l313 733h61zM853 118q0 -25 -12.5 -48t-34 -40t-51.5 -27.5t-64 -10.5q-75 0 -115 31.5t-40 84.5q0 20 8.5 36.5t22 31t31 28t35.5 26.5l-17 12q-35 26 -52 56.5t-17 57.5q0 28 14 49t36 35.5
t49 21.5t54 7q24 0 47.5 -7.5t42 -21.5t29.5 -34t11 -46q0 -16 -8 -30.5t-21 -28.5t-28.5 -26.5t-30.5 -24.5l56 -39q8 -6 17.5 -14t18 -19.5t14 -26.5t5.5 -33zM769 358q0 14 -6.5 26.5t-16.5 22t-22 15t-24 5.5q-30 0 -50.5 -17t-20.5 -47q0 -23 9 -36t36 -34l28 -21
l34 27q17 14 25 26t8 33zM769 110q0 14 -8 25.5t-30 27.5l-61 42l-40 -31q-15 -11 -24 -24.5t-9 -36.5q0 -35 23.5 -56.5t71.5 -21.5q23 0 38 8t23.5 20t12 25t3.5 22z" />
    <glyph glyph-name="threeeighths" unicode="&#x215c;" horiz-adv-x="870" 
d="M306 340q0 -31 -14.5 -58t-38.5 -47t-55.5 -31.5t-65.5 -11.5q-25 0 -46 6.5t-57 25.5l24 40q18 -10 30.5 -15t22 -7.5t17.5 -3t16 -0.5q17 0 32.5 8t27 20.5t18 29t6.5 33.5q0 48 -21 67t-56 19h-39v35q53 29 72 54.5t20 51.5v6q0 55 -46 55q-17 0 -32.5 -7.5
t-43.5 -31.5l-34 29q36 33 64 46t60 13q57 0 85.5 -30.5t28.5 -73.5q0 -29 -15.5 -52t-50.5 -43q42 -11 66.5 -45.5t24.5 -81.5zM309 -46h-61l313 733h61zM853 118q0 -25 -12.5 -48t-34 -40t-51.5 -27.5t-64 -10.5q-75 0 -115 31.5t-40 84.5q0 20 8.5 36.5t22 31t31 28
t35.5 26.5l-17 12q-35 26 -52 56.5t-17 57.5q0 28 14 49t36 35.5t49 21.5t54 7q24 0 47.5 -7.5t42 -21.5t29.5 -34t11 -46q0 -16 -8 -30.5t-21 -28.5t-28.5 -26.5t-30.5 -24.5l56 -39q8 -6 17.5 -14t18 -19.5t14 -26.5t5.5 -33zM769 358q0 14 -6.5 26.5t-16.5 22t-22 15
t-24 5.5q-30 0 -50.5 -17t-20.5 -47q0 -23 9 -36t36 -34l28 -21l34 27q17 14 25 26t8 33zM769 110q0 14 -8 25.5t-30 27.5l-61 42l-40 -31q-15 -11 -24 -24.5t-9 -36.5q0 -35 23.5 -56.5t71.5 -21.5q23 0 38 8t23.5 20t12 25t3.5 22z" />
    <glyph glyph-name="fiveeighths" unicode="&#x215d;" horiz-adv-x="870" 
d="M316 349q0 -36 -15.5 -65.5t-40 -50t-54 -32t-57.5 -11.5h-8q-15 0 -44.5 4t-61.5 24l23 43q19 -13 37 -18.5t40 -5.5h12q15 0 30 5t27 16.5t19.5 30.5t7.5 48q0 42 -18 64.5t-52 33.5q-20 7 -38.5 9t-54.5 2v214h185v19h45v-81h-180v-107q104 0 151 -36t47 -106z
M309 -46h-61l313 733h61zM853 118q0 -25 -12.5 -48t-34 -40t-51.5 -27.5t-64 -10.5q-75 0 -115 31.5t-40 84.5q0 20 8.5 36.5t22 31t31 28t35.5 26.5l-17 12q-35 26 -52 56.5t-17 57.5q0 28 14 49t36 35.5t49 21.5t54 7q24 0 47.5 -7.5t42 -21.5t29.5 -34t11 -46
q0 -16 -8 -30.5t-21 -28.5t-28.5 -26.5t-30.5 -24.5l56 -39q8 -6 17.5 -14t18 -19.5t14 -26.5t5.5 -33zM769 358q0 14 -6.5 26.5t-16.5 22t-22 15t-24 5.5q-30 0 -50.5 -17t-20.5 -47q0 -23 9 -36t36 -34l28 -21l34 27q17 14 25 26t8 33zM769 110q0 14 -8 25.5t-30 27.5
l-61 42l-40 -31q-15 -11 -24 -24.5t-9 -36.5q0 -35 23.5 -56.5t71.5 -21.5q23 0 38 8t23.5 20t12 25t3.5 22z" />
    <glyph glyph-name="seveneighths" unicode="&#x215e;" horiz-adv-x="820" 
d="M262 416q-17 -37 -37.5 -77t-41 -75t-38.5 -61.5t-28 -36.5l-52 30q14 14 34 40.5t41.5 59t41.5 69.5t35 72l66 160h-184v-42h-44v125h44v-20h263v-17zM259 -46h-61l313 733h61zM803 118q0 -25 -12.5 -48t-34 -40t-51.5 -27.5t-64 -10.5q-75 0 -115 31.5t-40 84.5
q0 20 8.5 36.5t22 31t31 28t35.5 26.5l-17 12q-35 26 -52 56.5t-17 57.5q0 28 14 49t36 35.5t49 21.5t54 7q24 0 47.5 -7.5t42 -21.5t29.5 -34t11 -46q0 -16 -8 -30.5t-21 -28.5t-28.5 -26.5t-30.5 -24.5l56 -39q8 -6 17.5 -14t18 -19.5t14 -26.5t5.5 -33zM719 358
q0 14 -6.5 26.5t-16.5 22t-22 15t-24 5.5q-30 0 -50.5 -17t-20.5 -47q0 -23 9 -36t36 -34l28 -21l34 27q17 14 25 26t8 33zM719 110q0 14 -8 25.5t-30 27.5l-61 42l-40 -31q-15 -11 -24 -24.5t-9 -36.5q0 -35 23.5 -56.5t71.5 -21.5q23 0 38 8t23.5 20t12 25t3.5 22z" />
    <glyph glyph-name="uni215F" unicode="&#x215f;" horiz-adv-x="510" 
d="M80 199v40h75v349l-86 -35l-14 44l176 76v-434h75v-40h-226zM309 -46h-61l313 733h61z" />
    <glyph glyph-name="uni2189" unicode="&#x2189;" horiz-adv-x="870" 
d="M345 429q0 -50 -13.5 -93.5t-36 -75.5t-52.5 -50.5t-63 -18.5t-63 18.5t-52.5 51t-36 75.5t-13.5 92q0 50 13.5 93.5t36 76t52.5 51.5t63 19t63 -19t52.5 -51t36 -76t13.5 -93zM262 427q0 91 -20 146t-62 55q-21 0 -36 -14.5t-25.5 -40.5t-15.5 -62.5t-5 -81.5t5 -81.5
t15.5 -62.5t26 -40t35.5 -14q41 0 61.5 54t20.5 142zM309 -46h-61l313 733h61zM816 141q0 -31 -14.5 -58t-38.5 -47t-55.5 -31.5t-65.5 -11.5q-25 0 -46 6.5t-57 25.5l24 40q18 -10 30.5 -15t22 -7.5t17.5 -3t16 -0.5q17 0 32.5 8t27 20.5t18 29t6.5 33.5q0 48 -21 67
t-56 19h-39v35q53 29 72 54.5t20 51.5v6q0 55 -46 55q-17 0 -32.5 -7.5t-43.5 -31.5l-34 29q36 33 64 46t60 13q57 0 85.5 -30.5t28.5 -73.5q0 -29 -15.5 -52t-50.5 -43q42 -11 66.5 -45.5t24.5 -81.5z" />
    <glyph glyph-name="partialdiff" unicode="&#x2202;" horiz-adv-x="620" 
d="M304 430q22 0 46 -5t47 -15.5t43.5 -26t34.5 -36.5q3 24 5 48.5t2 50.5q0 39 -7 79.5t-26 80.5q-9 18 -24.5 36.5t-36 33.5t-44 24t-48.5 9q-47 0 -90 -20.5t-75 -46.5q-12 0 -25.5 15t-13.5 34q0 12 17.5 22.5t44 18.5t56.5 12.5t55 4.5q85 0 141 -36.5t98 -100.5
q18 -27 29 -57.5t17 -60t8.5 -56.5t2.5 -47q0 -40 -6.5 -85.5t-20.5 -90t-37 -85.5t-55.5 -72.5t-76 -50t-98.5 -18.5q-49 0 -89 15t-68.5 42.5t-44 65.5t-15.5 84q0 53 20.5 96.5t55 74t80.5 47t97 16.5h1zM329 389q-38 0 -73 -11.5t-64 -45.5q-28 -32 -39 -72.5t-11 -89.5
q0 -31 8.5 -58t24.5 -47t39.5 -31.5t53.5 -11.5q51 0 85.5 26.5t57.5 68t36 92t21 98.5q-6 11 -19 25t-31 27t-40.5 21.5t-47.5 8.5h-1z" />
    <glyph glyph-name="emptyset" unicode="&#x2205;" horiz-adv-x="646" 
d="M521 383q28 -38 40 -73t12 -78q0 -50 -19.5 -94.5t-52.5 -77.5t-77 -52.5t-94 -19.5q-42 0 -77 12t-73 41l-102 -102l-40 42l101 103q-26 35 -37.5 69t-11.5 78q0 51 18.5 96t51 78t76.5 52t95 19q42 0 76 -11.5t72 -39.5l90 92l42 -42zM507 231q0 29 -7.5 52t-25.5 52
l-246 -247q29 -19 51.5 -26t51.5 -7q37 0 69 13.5t56 37.5t37.5 56t13.5 69zM431 378q-26 17 -48 24t-51 7q-37 0 -69 -13.5t-56 -37.5t-38 -56.5t-14 -69.5q0 -29 7 -51.5t24 -49.5z" />
    <glyph glyph-name="Delta" unicode="&#x2206;" horiz-adv-x="747" 
d="M41 0v22l306 635l44 12l313 -647v-22h-663zM344 577l-244 -532h493z" />
    <glyph glyph-name="product" unicode="&#x220f;" horiz-adv-x="798" 
d="M764 643q-38 -3 -58.5 -6t-30.5 -9t-12 -16.5t-2 -28.5v-565q0 -23 2.5 -36t12.5 -20.5t30 -11t56 -5.5v-25h-291v25q36 2 57 4.5t31 9.5t12.5 21t2.5 38v584q0 23 -8 27.5t-31 4.5h-275q-23 0 -29.5 -5t-6.5 -22v-589q0 -23 1.5 -36t10.5 -20.5t27.5 -10.5t53.5 -6v-25
h-281v25q34 2 54 5t30.5 10.5t13 21t2.5 36.5v565q0 18 -2.5 29t-12.5 17t-31 8.5t-58 5.5v25h732v-25z" />
    <glyph glyph-name="summation" unicode="&#x2211;" horiz-adv-x="651" 
d="M573 -84h-542v25l259 342l-251 360v25h531q0 -6 2 -24.5t4 -42.5t4.5 -51.5t4.5 -52.5l-26 -6q-8 42 -19 72.5t-22 44.5q-5 7 -11.5 12.5t-19 9t-32.5 5t-53 1.5h-250l215 -310l-255 -340h323q37 0 60 2.5t38.5 15.5t29 40t32.5 76l27 -8z" />
    <glyph glyph-name="minus" unicode="&#x2212;" horiz-adv-x="550" 
d="M25 204v56h500v-56h-500z" />
    <glyph glyph-name="uni2219" unicode="&#x2219;" horiz-adv-x="550" 
d="M392 231q0 -24 -9 -45.5t-25 -37.5t-37.5 -25t-45.5 -9t-45.5 9t-37.5 25t-25 37.5t-9 45.5t9 45.5t25 37.5t37.5 25t45.5 9t45.5 -9t37.5 -25t25 -37.5t9 -45.5z" />
    <glyph glyph-name="radical" unicode="&#x221a;" horiz-adv-x="621" 
d="M419 -129l-22 -13l-254 539l-98 -51l-12 32l167 86l207 -455h2l155 862l39 -11z" />
    <glyph glyph-name="infinity" unicode="&#x221e;" horiz-adv-x="829" 
d="M774 272q0 -39 -14 -70t-36.5 -53t-52.5 -34t-61 -12q-49 0 -94 31.5t-102 95.5q-21 -24 -43 -47t-46 -40.5t-51.5 -28.5t-59.5 -11t-61 12.5t-51 35t-35 52.5t-13 66t12.5 67t35 53.5t53.5 35t67 12.5q30 0 57 -10.5t51 -28t46.5 -40t43.5 -47.5q20 22 40.5 44.5
t44 40.5t51 29.5t60.5 11.5q35 0 64 -12t50 -33.5t32.5 -51.5t11.5 -67v-1zM222 155q25 0 48 11.5t43 28t38 36t34 36.5q-17 21 -35 42.5t-38.5 39t-44.5 28t-52 10.5q-24 0 -44 -9.5t-33.5 -26t-21 -38t-7.5 -45.5q0 -23 8 -43.5t23 -36t35.5 -24.5t45.5 -9h1zM611 387
q-27 0 -50.5 -12.5t-44 -30.5t-38 -38t-31.5 -34q52 -59 89 -88t78 -29q25 0 44.5 10t32.5 26.5t20 36.5t7 41q0 56 -30.5 87t-75.5 31h-1z" />
    <glyph glyph-name="integral" unicode="&#x222b;" horiz-adv-x="403" 
d="M158 419q-2 23 -2 43v40q0 96 12.5 158.5t34.5 99.5t50 52t60 15q9 0 19.5 -2.5t20 -8t15.5 -14t6 -19.5q0 -20 -12 -30.5t-28 -10.5q-12 0 -19 7.5t-12 16t-11 16t-15 7.5q-8 0 -16.5 -6t-15.5 -21.5t-12 -42.5t-5 -69v-18q0 -9 1 -19l19 -384q2 -25 2 -48v-43
q0 -105 -13.5 -171t-35.5 -103t-50.5 -50.5t-58.5 -13.5q-28 0 -45 14t-17 33q0 17 14 30t35 13q10 0 15.5 -7.5t10.5 -17t10 -17t14 -7.5q24 0 37 41t13 108v16q0 9 -1 18z" />
    <glyph glyph-name="approxequal" unicode="&#x2248;" horiz-adv-x="550" 
d="M536 164q-44 -32 -83.5 -46.5t-83.5 -14.5q-15 0 -28.5 1.5t-28 6t-32 11.5t-41.5 18t-39 15.5t-32 4.5q-30 0 -62.5 -12.5t-62.5 -35.5l-29 42q39 32 80.5 49.5t76.5 17.5t82 -21l50 -22q23 -10 38.5 -14t32.5 -4q35 0 63.5 11t65.5 37zM536 302q-44 -32 -83.5 -46.5
t-83.5 -14.5q-15 0 -28.5 1.5t-28 5.5t-32 11.5t-41.5 18.5t-39 15.5t-32 4.5q-30 0 -62.5 -12.5t-62.5 -35.5l-29 41q40 32 80.5 49.5t77.5 17.5q17 0 37.5 -5.5t43.5 -15.5l50 -21q23 -10 38.5 -14t32.5 -4q35 0 63.5 11t65.5 37z" />
    <glyph glyph-name="notequal" unicode="&#x2260;" horiz-adv-x="550" 
d="M260 134l-53 -124l-44 18l45 106h-183v57h207l35 82h-242v56h266l52 121l44 -18l-44 -103h182v-56h-206l-35 -82h241v-57h-265z" />
    <glyph glyph-name="lessequal" unicode="&#x2264;" horiz-adv-x="550" 
d="M511 101l-472 159v54l472 160v-63l-396 -124l396 -124v-62zM511 0h-472v57h472v-57z" />
    <glyph glyph-name="greaterequal" unicode="&#x2265;" horiz-adv-x="550" 
d="M39 101v62l396 124l-396 124v63l472 -160v-54zM39 0v57h472v-57h-472z" />
    <glyph glyph-name="dotmath" unicode="&#x22c5;" horiz-adv-x="550" 
d="M334 240q0 -25 -17.5 -42t-41.5 -17q-25 0 -42 17t-17 42q0 24 17 41.5t42 17.5q24 0 41.5 -17.5t17.5 -41.5z" />
    <glyph glyph-name="filledbox" unicode="&#x25a0;" horiz-adv-x="1000" 
d="M169 0v660h660v-660h-660z" />
    <glyph glyph-name="H22073" unicode="&#x25a1;" horiz-adv-x="1000" 
d="M169 0v660h660v-660h-660zM211 42h576v576h-576v-576z" />
    <glyph glyph-name="H18543" unicode="&#x25aa;" horiz-adv-x="620" 
d="M84 0v453h452v-453h-452z" />
    <glyph glyph-name="H18551" unicode="&#x25ab;" horiz-adv-x="620" 
d="M84 0v453h452v-453h-452zM513 425h-398v-398h398v398z" />
    <glyph glyph-name="triagup" unicode="&#x25b2;" horiz-adv-x="1000" 
d="M899 -20h-730l365 695z" />
    <glyph glyph-name="uni25B4" unicode="&#x25b4;" horiz-adv-x="620" 
d="M575 -14h-503l252 480z" />
    <glyph glyph-name="uni25B5" unicode="&#x25b5;" horiz-adv-x="620" 
d="M575 -14h-503l252 480zM538 10l-214 408l-214 -408h428z" />
    <glyph glyph-name="uni25B6" unicode="&#x25b6;" horiz-adv-x="1000" 
d="M187 -38v730l695 -365z" />
    <glyph glyph-name="uni25B8" unicode="&#x25b8;" horiz-adv-x="620" 
d="M84 -25v503l480 -252z" />
    <glyph glyph-name="uni25B9" unicode="&#x25b9;" horiz-adv-x="620" 
d="M84 -25v503l480 -252zM108 12l408 214l-408 214v-428z" />
    <glyph glyph-name="triagdn" unicode="&#x25bc;" horiz-adv-x="1000" 
d="M146 674h729l-365 -696z" />
    <glyph glyph-name="uni25BE" unicode="&#x25be;" horiz-adv-x="620" 
d="M303 -13l-252 479h503z" />
    <glyph glyph-name="uni25BF" unicode="&#x25bf;" horiz-adv-x="620" 
d="M73 466h503l-252 -480zM110 442l214 -408l214 408h-428z" />
    <glyph glyph-name="uni25C0" unicode="&#x25c0;" horiz-adv-x="1000" 
d="M859 691v-729l-696 365z" />
    <glyph glyph-name="uni25C2" unicode="&#x25c2;" horiz-adv-x="620" 
d="M64 226l479 252v-503z" />
    <glyph glyph-name="uni25C3" unicode="&#x25c3;" horiz-adv-x="620" 
d="M543 478v-503l-479 251zM519 441l-408 -215l408 -213v428z" />
    <glyph glyph-name="uni25C6" unicode="&#x25c6;" horiz-adv-x="620" 
d="M62 226l248 248l248 -248l-248 -248z" />
    <glyph glyph-name="uni25C7" unicode="&#x25c7;" horiz-adv-x="620" 
d="M62 226l248 248l248 -248l-248 -248zM103 226l207 -207l207 207l-207 207z" />
    <glyph glyph-name="lozenge" unicode="&#x25ca;" horiz-adv-x="511" 
d="M289 -64h-68l-176 382l178 385h66l177 -385zM258 641h-3l-147 -322l147 -324h3l145 323z" />
    <glyph glyph-name="circle" unicode="&#x25cb;" horiz-adv-x="620" 
d="M548 226q0 -50 -19 -93.5t-51 -75.5t-76 -51t-93 -19q-50 0 -93 19t-75.5 51t-51 75.5t-18.5 93.5q0 49 18.5 93t51 76t75.5 51t93 19q49 0 93 -19t76 -51t51 -76t19 -93zM519 225q0 43 -16.5 81t-45 66.5t-66.5 45t-81 16.5q-44 0 -82 -16.5t-66 -45t-44.5 -66.5
t-16.5 -81q0 -44 16.5 -82t44.5 -66t66 -44.5t82 -16.5q43 0 81 16.5t66.5 44.5t45 66t16.5 82z" />
    <glyph glyph-name="H18533" unicode="&#x25cf;" horiz-adv-x="620" 
d="M549 226q0 -50 -19 -93.5t-51 -75.5t-76 -51t-93 -19q-50 0 -93.5 19t-75.5 51t-51 75.5t-19 93.5q0 49 19 93t51 76t75.5 51t93.5 19q49 0 93 -19t76 -51t51 -76t19 -93z" />
    <glyph glyph-name="uni25EF" unicode="&#x25ef;" horiz-adv-x="1000" 
d="M841 331q0 -71 -27 -133t-73.5 -108.5t-109 -73.5t-133.5 -27t-133 27t-108 73.5t-72.5 108.5t-26.5 133t26.5 133t72.5 108.5t108 73.5t133 27t133.5 -27t109 -73.5t73.5 -108.5t27 -133zM784 329q0 59 -22.5 111t-61 90.5t-90.5 61t-110 22.5q-59 0 -111 -22.5
t-90.5 -61t-60.5 -90.5t-22 -111t22 -110.5t60.5 -90t90.5 -61t111 -22.5q58 0 110 22.5t90.5 61t61 90t22.5 110.5z" />
    <glyph glyph-name="uni2605" unicode="&#x2605;" horiz-adv-x="920" 
d="M624 253l102 -312l-266 193l-266 -193l102 312l-266 193h329l101 312l101 -312h329z" />
    <glyph glyph-name="uni2606" unicode="&#x2606;" horiz-adv-x="920" 
d="M624 253l102 -312l-266 193l-266 -193l102 312l-266 193h329l101 312l101 -312h329zM516 383l-56 250l-56 -250l-254 25l220 -130l-102 -235l192 169l192 -169l-102 235l220 130z" />
    <glyph glyph-name="uni261A" unicode="&#x261a;" horiz-adv-x="1000" 
d="M933 259q0 -14 -14 -24.5t-28 -21.5q-6 -5 -10 -8t-8 -5.5t-9 -5.5t-13 -7q-7 -4 -12 -11t-5 -14q0 -3 4.5 -10.5t9.5 -14.5t10 -13l5 -6q14 -19 22.5 -33.5t13.5 -28.5t7 -29t2 -33q0 -14 -2 -18.5t-9 -4.5q-10 0 -15 9l-4 7q-6 10 -10 16.5t-8.5 12t-11 11t-16.5 13.5
q-23 17 -37.5 26.5t-29 15t-32.5 9.5t-47 11q-11 2 -15.5 3.5t-18.5 2.5q-10 0 -33 -13q-8 -5 -73 -35l-57 -26q-8 -4 -15 -6.5t-13 -2.5h-4q-3 1 -6.5 4t-4.5 5l16 15l24 22q12 11 23 25q6 8 10.5 18t4.5 19q0 5 -2 11q-3 5 -7.5 7.5t-9.5 3.5t-8.5 1t-3.5 2q0 3 4.5 5
t9.5 7q5 8 8.5 13.5t3.5 17.5q0 11 -9 14.5t-14 4.5h-13q-7 0 -7 3t8.5 11t8.5 19v4q-2 11 -13.5 13t-19.5 4q-12 4 -33 4l-20 -1q-8 0 -23 -1.5t-26 -3.5q-8 -2 -18.5 -5t-20.5 -6.5t-17.5 -6t-8.5 -2.5q-11 0 -18.5 1t-12.5 1q-28 0 -44.5 1.5t-39.5 6.5q-8 2 -20.5 5
t-16.5 3l-31 2q-20 2 -31.5 11.5t-11.5 24.5q0 28 34 35q16 4 35.5 7t38.5 5t36.5 3.5t30.5 1.5h15q9 0 17.5 0.5t14.5 0.5h10q4 -2 15 -9.5t18 -8.5q4 0 8 -2t10 -4t14.5 -4t21.5 -3q9 0 20.5 3t15.5 4q11 -5 19.5 -10.5t19.5 -7.5q12 -8 24.5 -19.5t24.5 -19.5q6 1 6 4
q0 4 -4 7.5t-9.5 6.5t-9.5 6.5t-4 9.5q14 5 27 14.5t13 14.5q0 2 -4 3q-8 0 -21 -9.5t-23 -9.5q-13 1 -27 10t-28 14q-3 1 -8 1q-7 0 -13.5 -1.5t-11.5 -3.5q-6 -2 -10 -2q-11 0 -23 3.5t-15 5.5q-12 4 -20 7t-20 14q-14 13 -16 33t-2 30q0 6 4.5 18.5t12.5 12.5q5 0 11 -6
t17 -8l30 -4q11 3 18 5t16 2l11 -1q23 -2 49 -12t40 -14q11 -3 20.5 -4t19 -3t20 -6.5t23.5 -13.5q14 -11 23.5 -17t16.5 -9.5t13 -4.5t12 -1q8 0 22.5 2t29.5 5t28.5 6t20.5 5q13 4 31 14.5t36 24t33.5 28t23.5 26.5q2 3 9 14t14 11t11.5 -6.5t4.5 -17.5q0 -17 -5 -38
t-12 -32q-8 -13 -19 -28.5t-19 -31.5q-5 -5 -9 -10t-4 -11q0 -8 8 -14t34 -19q29 -14 40 -22t11 -19zM716 224q1 25 -2 49t-5 49q-1 20 -4.5 27.5t-12.5 7.5q-8 0 -15.5 -1.5t-15.5 -3.5q-1 -5 -1 -8v-5q0 -3 -0.5 -9t-0.5 -15q0 -33 3.5 -66.5t4.5 -66.5q0 -3 -0.5 -12
t-0.5 -18q0 -8 0.5 -14t2.5 -8q1 0 13 -2.5t18 -2.5q8 0 10.5 5.5t2.5 20.5zM502 201q2 -4 2 -7q0 -5 -3 -9.5t-7 -9.5l-12 -11l-22 -18q-11 -9 -21 -19q-11 -8 -26.5 -18t-29.5 -10q-6 0 -9 1q-9 3 -16 10.5t-12.5 16.5t-9 18.5t-5.5 16.5q14 3 24 6t25 8q12 4 17.5 6.5
t9.5 4.5l24 9q6 2 19 5.5t18 5.5q4 2 13 2q6 0 12.5 -1.5t8.5 -6.5zM473 256q4 -3 4 -6q0 -5 -6 -12t-8 -9q-1 -1 -6.5 -3.5t-12 -5.5t-13 -6.5t-9.5 -4.5l-15 -6l-19 -7q-9 -3 -17.5 -6t-11.5 -4q-1 0 -8 -2.5t-15 -2.5q-10 0 -16 5t-9 11q-2 4 -3 8t-3 8q-2 6 -4 13t-3 15
q6 2 13 3t12 3q23 10 47.5 14t55.5 4q15 0 28 -2t19 -7zM509 134q1 -1 1 -5q0 -5 -2.5 -9.5t-4.5 -9.5q-3 -6 -10 -14t-15 -16t-15 -14.5t-12 -10.5q-9 -9 -18 -9q-8 0 -14 6q-5 5 -8 13t-7 14l-3 5q8 5 14.5 8t17.5 11l3 2l29 25q4 3 7 6.5t6 5.5l8 6q5 -1 13 -5t10 -9z
" />
    <glyph glyph-name="uni261B" unicode="&#x261b;" horiz-adv-x="1000" 
d="M933 308q0 -15 -11.5 -24.5t-31.5 -11.5l-31 -2q-4 0 -16.5 -3t-20.5 -5q-23 -5 -39.5 -6.5t-44.5 -1.5q-5 0 -12.5 -1t-18.5 -1q-1 0 -8.5 2.5t-17.5 6t-21 6.5t-18 5q-11 2 -26 3.5t-23 1.5l-20 1q-21 0 -33 -4q-8 -2 -19.5 -4t-13.5 -13v-4q0 -11 8.5 -19t8.5 -12
q0 -2 -5 -2h-15q-5 -1 -14 -4.5t-9 -14.5q0 -12 3.5 -17.5t8.5 -13.5q5 -5 9.5 -7t4.5 -6q0 -1 -3.5 -1.5t-8.5 -1t-9.5 -3t-7.5 -7.5q-2 -6 -2 -11q0 -9 4.5 -19t10.5 -18q11 -14 23 -25l24 -22l16 -15q-1 -2 -4.5 -5t-6.5 -4h-4q-6 0 -13 2.5t-15 6.5l-57 26
q-65 30 -73 35q-23 13 -35 13q-12 -1 -16.5 -2.5t-15.5 -3.5q-29 -7 -47 -11t-32.5 -9.5t-29 -15t-37.5 -26.5q-11 -8 -17 -13.5t-10.5 -11t-8.5 -12t-10 -16.5l-4 -7q-5 -9 -15 -9q-7 0 -9 4.5t-2 18.5q0 18 2 33t7 29t13.5 28.5t22.5 33.5l5 6q5 6 10 13t9.5 14.5
t4.5 10.5q0 7 -5 14t-12 11q-11 5 -22 11.5t-20 15.5q-5 5 -12 9.5t-13 10t-10.5 11.5t-4.5 14q0 11 11 19t40 22q26 13 34 19t8 14q0 6 -4.5 11.5t-10.5 11.5q-7 14 -17.5 29.5t-18.5 28.5q-7 11 -12 32t-5 38q0 11 4.5 17.5t11.5 6.5t14 -11t9 -14q8 -12 23.5 -26.5
t33.5 -28t36 -24t31 -14.5q7 -2 20.5 -5t28.5 -6t29.5 -5t22.5 -2q6 0 12 1t13 4.5t16.5 9.5t23.5 17q13 9 23.5 13.5t20 6.5t19 3t20.5 4q14 4 40 14t49 12l11 1q9 0 16 -2t18 -5l30 4q11 2 17 8t11 6q8 0 12.5 -12.5t4.5 -19.5q0 -9 -2 -29t-16 -33q-12 -11 -20 -14
t-20 -7q-3 -2 -15 -5.5t-23 -3.5q-4 0 -10 2q-5 2 -11.5 3.5t-13.5 1.5q-6 0 -8 -1q-14 -5 -28 -14t-27 -10q-10 0 -23.5 9.5t-22.5 9.5q-2 -2 -2 -3q0 -5 13.5 -14.5t27.5 -16.5q0 -3 -4.5 -6.5t-9.5 -7.5t-9.5 -7.5t-4.5 -6.5t6 -4q12 8 24.5 19.5t24.5 19.5
q11 2 19.5 7.5t19.5 10.5l16 -4q12 -3 22 -3q24 2 34 7t18 6q7 1 18 8.5t15 9.5h9q7 0 15.5 -0.5t16.5 -0.5h16q13 0 30.5 -1.5t36.5 -3.5t38.5 -5t35.5 -7q34 -7 34 -35zM341 315q0 6 -0.5 11.5t-0.5 12.5q0 2 -0.5 5t-0.5 8q-8 2 -15.5 3.5t-15.5 1.5q-9 0 -12.5 -7.5
t-4.5 -27.5q-2 -21 -5 -45t-2 -45l3 -81q0 -15 2.5 -20.5t10.5 -5.5q6 0 18 2.5t13 2.5q2 2 2.5 8t0.5 14q0 9 -0.5 18t-0.5 12q1 33 4.5 66.5t3.5 66.5zM669 162q-2 -7 -5.5 -16.5t-9 -18.5t-12.5 -16.5t-16 -10.5q-3 -1 -9 -1q-14 0 -29.5 10t-26.5 18q-10 10 -21 19
l-22 18l-13 12q-4 5 -6.5 9t-2.5 9q0 3 2 7q2 5 8.5 6.5t12.5 1.5q9 0 13 -2q5 -2 18 -5.5t19 -5.5l24 -9q4 -2 9.5 -4.5t17.5 -6.5q15 -5 25 -8t24 -6zM699 228q-1 -7 -4 -15q-2 -4 -3 -8t-3 -8q-3 -6 -9 -11t-16 -5q-8 0 -15 2.5t-8 2.5q-26 9 -38 14t-26 10
q-11 4 -22.5 8.5t-18.5 11.5q-3 3 -8 9t-5 11q0 3 4 6q6 5 19 7t28 2q31 0 55.5 -4t47.5 -14q5 -2 12 -3t13 -3zM596 79q-4 -6 -7 -14t-8 -13q-6 -6 -14 -6q-9 0 -18 9q-5 4 -12 10.5t-15 14.5t-15 16t-10 14q-2 5 -4.5 9.5t-2.5 9.5q0 4 1 5q2 5 10 9t13 5l50 -43l3 -2
q11 -8 17.5 -11t14.5 -8z" />
    <glyph glyph-name="uni261C" unicode="&#x261c;" horiz-adv-x="1000" 
d="M934 259q0 -7 -4.5 -14t-11 -13.5t-13.5 -11.5t-13 -7q-6 -5 -10 -8t-8 -5.5t-9 -5.5t-13 -7q-7 -4 -12 -11t-5 -14q0 -3 4.5 -10.5t9.5 -14.5t10 -13l5 -6q14 -19 22.5 -33.5t13.5 -28.5t7 -29t2 -33q0 -14 -2 -18.5t-9 -4.5q-10 0 -15 9l-4 7q-6 10 -10 16.5t-8.5 12
t-11 11t-16.5 13.5q-23 17 -37.5 26.5t-29 15t-32.5 9.5t-47 11q-24 6 -32 6q-11 0 -37 -13q-29 -15 -56 -28t-48.5 -22t-36.5 -14.5t-21 -5.5q-26 0 -42 30l-9 16q-3 6 -7 10t-10 7t-17 10q-15 9 -23.5 18.5t-14.5 26.5q-4 11 -6.5 17.5t-3.5 8.5q-8 13 -12 18t-6.5 9
t-4.5 9.5t-7 19.5l-3 9q-1 3 -2 10t-4 9q-10 5 -34 6t-51 3l-78 7q-55 5 -55 40q0 10 9 22t27 17q23 6 58 10t80 4q6 0 13 -0.5t16 -0.5h27q6 0 14 -2q0 2 -7.5 11t-9.5 14q0 1 -0.5 2t-0.5 2q-2 11 -4 19.5t-2 20.5q0 7 4 18.5t13 11.5q5 0 7.5 -2.5t7.5 -5.5q10 -7 37 -7
l57 7q20 0 43.5 -6t46.5 -14q1 0 2 -0.5t2 -0.5q10 -3 20 -4t19 -1.5t17.5 -2.5t15.5 -7q29 -21 40.5 -31.5t24.5 -10.5q5 0 14.5 0.5t17.5 2.5l71 15q13 4 31 14.5t36 24t33.5 28t23.5 26.5q2 3 9 14t14 11t11.5 -6.5t4.5 -17.5q0 -17 -5 -38t-12 -32q-8 -13 -19 -28.5
t-19 -31.5q-5 -5 -9 -10t-4 -11q0 -8 8 -14t34 -19q29 -14 40 -22t11 -19zM635 170q0 2 -0.5 5.5t-1 15t-1.5 35t-3 65.5q-2 26 -7 41t-12 20l-58 43q-8 5 -20.5 4.5t-29.5 4.5q-22 8 -44 14.5t-35 6.5q-5 0 -10 -2.5t-23 -4.5l-13 -10q-2 -4 -4 -12t-9 -8q-2 0 -5 5.5
t-7 12.5t-10 12.5t-14 5.5h-10q-5 0 -7 -3.5t-2 -18.5q0 -5 5 -11.5t10 -14.5q16 -13 32 -15.5t39 -5.5q5 0 12.5 3.5t15.5 3.5q4 0 6 -1q14 -6 26.5 -17.5t25.5 -12.5q9 0 21.5 5t20.5 5q3 0 4 -1q3 -2 3 -4q0 -5 -9 -10.5t-23 -11.5q0 -6 9.5 -15t9.5 -14q0 -4 -7 -5
q-12 8 -24.5 16.5t-24.5 16.5q-11 2 -19.5 10.5t-19.5 13.5l-16 -4q-12 -3 -22 -3q-24 2 -34 7.5t-18 5.5h-19q-17 0 -36.5 -1t-51.5 -3q-27 -2 -45.5 -1.5t-31.5 -1.5q-17 -2 -33.5 -10.5t-16.5 -19.5q0 -7 9.5 -11.5t14.5 -5.5t9 -1h9q9 0 12.5 1t5 2.5t2 2.5t3.5 1
t4.5 -1.5t4.5 -3.5t9 -4t18 -2h6q10 0 14.5 1t7 2t4.5 2t5 1t5 -2t7.5 -4.5t16.5 -4.5t31 -2q7 0 12 4t8.5 9t6 9t5.5 4h1q1 1 3 1t3 -1q2 -1 2 -4l-1 -9q0 -4 2 -6q3 -3 5 -3t3.5 0.5t4.5 0.5h7q14 2 30 3.5t32 1.5q11 0 21.5 -1t18.5 -4q1 -1 6 -1.5t10.5 -3t10 -7
t6.5 -13.5v-5q0 -10 -5 -17t-5 -11q0 -2 3 -2l11 1q4 -2 12.5 -3.5t9.5 -18.5v-6q0 -5 -1.5 -12.5t-7.5 -13.5q-2 -2 -6 -3.5t-4 -5.5q0 -2 9.5 -5t12.5 -11q1 -2 1 -8q0 -9 -3.5 -20.5t-10.5 -19.5l-21 -21q-6 -6 -10.5 -12t-4.5 -9q3 0 14 5t24 11.5t26 13.5t20 10
q28 12 43.5 20t23 15.5t9.5 16.5t2 24zM714 224q1 18 -2 45.5t-5 52.5q-1 20 -4.5 27.5t-12.5 7.5q-8 0 -15.5 -1.5t-15.5 -3.5q-1 -5 -1 -8v-5q0 -3 -0.5 -9t-0.5 -15q0 -33 3.5 -66.5t4.5 -66.5q0 -3 -0.5 -12t-0.5 -18q0 -8 0.5 -14t2.5 -8q1 0 13 -2.5t18 -2.5
q8 0 10.5 5.5t2.5 20.5zM456 232q4 4 4 10t-3.5 11.5t-8.5 7.5q-9 4 -21 5.5t-24 1.5q-11 0 -20 -1t-17 -4q-14 -2 -22 -2t-18 -10t-10 -22q0 -15 15 -25.5t29 -10.5q6 0 14 3t17 7.5t17.5 9t14.5 6.5q8 4 17.5 5.5t15.5 7.5zM485 198q-10 10 -22 10l-5 -1q-3 -1 -12.5 -3.5
t-15.5 -4.5q1 0 -3 -1t-10.5 -3.5t-13.5 -5t-11 -4.5q-3 -2 -13 -6q-12 -5 -18 -5q-2 -2 -5 -6.5t-3 -9.5q0 -16 13 -27q7 -6 16.5 -10.5t23.5 -4.5q11 1 19 10t16 14q12 12 20.5 17t17.5 19q2 3 4.5 8t2.5 10q0 3 -1 4zM486 104q3 4 4.5 9t1.5 10q0 8 -3.5 13.5t-11.5 6.5
q-4 -2 -12.5 -8.5t-17.5 -14.5t-16 -15t-7 -10q0 -4 0.5 -10.5t3.5 -11.5q4 -5 9.5 -8t9.5 -4q4 0 14.5 12.5t24.5 30.5z" />
    <glyph glyph-name="uni261D" unicode="&#x261d;" horiz-adv-x="700" 
d="M370 -195q-7 0 -14 4.5t-13.5 11t-11.5 13.5t-7 13q-5 6 -8 10t-5.5 8t-5.5 9t-7 13q-4 7 -11 12t-14 5q-3 0 -10.5 -4.5t-14.5 -9.5t-13 -10l-6 -5q-19 -14 -33.5 -22.5t-28.5 -13.5t-29 -7t-33 -2q-14 0 -18.5 2t-4.5 9q0 10 9 15l7 4q10 6 16.5 10t12 8.5t11 10.5
t13.5 17q17 23 26.5 37.5t15 29t9.5 32.5t11 47q6 24 6 32q0 11 -13 37q-15 29 -28 56t-22 48.5t-14.5 36.5t-5.5 21q0 26 30 42l16 9q6 3 10 7t7 10t10 17q9 15 18.5 23.5t26.5 14.5q11 4 17.5 6.5t8.5 3.5q13 8 18 12t9 6.5t9.5 4.5t19.5 7l9 3q3 1 10 2t9 4q5 10 6 34
t3 51l7 78q5 55 40 55q10 0 22 -9t17 -27q6 -23 10 -58t4 -80q0 -6 -0.5 -13t-0.5 -16v-28q0 -5 -2 -13q2 0 11 7.5t14 9.5q1 0 2 0.5t2 0.5q11 2 19.5 4t20.5 2q7 0 18.5 -4t11.5 -13q0 -5 -2.5 -7.5t-5.5 -7.5q-7 -11 -7 -37l7 -57q0 -20 -6 -43.5t-14 -46.5q0 -1 -0.5 -2
t-0.5 -2q-3 -10 -4 -20t-1.5 -19t-2.5 -17.5t-7 -15.5q-21 -29 -31.5 -40.5t-10.5 -24.5q0 -5 0.5 -14.5t2.5 -17.5l15 -71q4 -13 14.5 -31t24 -36t28 -33.5t26.5 -23.5q3 -2 14 -9t11 -14t-6.5 -11.5t-17.5 -4.5q-17 0 -38 5t-32 12q-13 8 -28.5 19t-31.5 19q-5 5 -10 9
t-11 4q-8 0 -14 -8t-19 -34q-14 -29 -22 -40t-19 -11zM281 104q2 0 5.5 0.5t15 1t35 1.5t65.5 3q26 2 41 7t20 12l43 58q5 8 4.5 20.5t4.5 29.5q8 22 14.5 44t6.5 35q0 5 -2.5 10t-4.5 23l-10 13q-4 2 -12 4t-8 9q0 2 5.5 5t12.5 7t12.5 10t5.5 14v10q0 5 -3.5 7t-18.5 2
q-5 0 -11.5 -5t-14.5 -10q-13 -16 -15.5 -32t-5.5 -39q0 -5 3.5 -12.5t3.5 -15.5q0 -4 -1 -6q-6 -14 -17.5 -26.5t-12.5 -25.5q0 -9 5 -21.5t5 -20.5q0 -3 -1 -4q-2 -3 -4 -3q-5 0 -10.5 9t-11.5 23q-6 0 -15 -9.5t-14 -9.5q-4 0 -5 7q8 12 16.5 24.5t16.5 24.5
q2 11 10.5 19.5t13.5 19.5l-4 16q-3 12 -3 22q2 24 7.5 34t5.5 18v19q0 17 -1 36.5t-3 51.5q-2 27 -1.5 45.5t-1.5 31.5q-2 17 -10.5 33.5t-19.5 16.5q-7 0 -11.5 -9.5t-5.5 -14.5t-1 -10v-8q0 -9 1 -12.5t2.5 -5t2.5 -2t1 -3.5t-1.5 -4.5t-3.5 -4.5t-4 -9t-2 -18v-6
q0 -10 1 -14.5t2 -7t2 -4.5t1 -5t-2 -5t-4.5 -7.5t-4.5 -16.5t-2 -31q0 -7 4 -12t9 -8.5t9 -6t4 -5.5v-2q1 0 1 -2t-1 -3q-1 -2 -4 -2l-9 1q-4 0 -6 -2q-3 -3 -3 -5t0.5 -3.5t0.5 -4.5v-7q2 -14 3.5 -30t1.5 -32q0 -11 -1 -21.5t-4 -18.5q-1 -2 -1.5 -6.5t-3 -10t-7 -10.5
t-13.5 -6h-5q-10 0 -17 5t-11 5q-2 0 -2 -3l1 -11q-2 -4 -3.5 -12.5t-18.5 -9.5h-6q-5 0 -12.5 1.5t-13.5 7.5q-2 2 -3.5 6t-5.5 4q-2 0 -5 -9.5t-11 -12.5q-2 -1 -8 -1q-9 0 -20.5 3.5t-19.5 10.5l-21 21q-6 6 -12 10.5t-9 4.5q0 -3 5 -14t11.5 -24t13.5 -26t10 -20
q12 -28 20 -43.5t15.5 -23t16.5 -9.5t24 -2zM335 25q18 -1 45.5 2t52.5 5q20 1 27.5 4.5t7.5 12.5q0 8 -1.5 15.5t-3.5 15.5q-5 1 -8 1h-5q-3 0 -9 0.5t-15 0.5q-33 0 -66.5 -3.5t-66.5 -4.5q-3 0 -12 0.5t-18 0.5q-8 0 -14 -0.5t-8 -2.5q0 -1 -2.5 -13t-2.5 -18
q0 -8 5.5 -10.5t20.5 -2.5zM343 283q4 -4 10 -4t11.5 3.5t7.5 8.5q4 9 5.5 21t1.5 24q0 11 -1 20t-4 17q-2 14 -2 22t-10 18t-22 10q-15 0 -25.5 -15t-10.5 -29q0 -6 3 -14t7.5 -17t9 -17.5t6.5 -14.5q4 -8 5.5 -17.5t7.5 -15.5zM309 254q10 10 10 22l-1 5l-4 12q-2 9 -4 15
q0 1 -1 4q-1 4 -3.5 10.5t-5 13.5t-4.5 11q-2 3 -6 13q-5 12 -5 18q-2 2 -6.5 5t-9.5 3q-16 0 -27 -13q-6 -7 -10.5 -16.5t-4.5 -23.5q1 -11 10 -19t14 -16q12 -12 17 -20.5t19 -17.5q3 -2 8 -4.5t10 -2.5q3 0 4 1zM215 253q4 -3 9 -4.5t10 -1.5q8 0 13.5 3.5t6.5 11.5
q-2 4 -8.5 12.5t-14.5 17.5t-15 16t-10 7q-4 0 -10.5 -0.5t-11.5 -3.5q-5 -4 -8 -9.5t-4 -9.5q0 -4 12.5 -14.5t30.5 -24.5z" />
    <glyph glyph-name="uni261E" unicode="&#x261e;" horiz-adv-x="1000" 
d="M934 309q0 -35 -55 -40l-78 -7q-27 -2 -51 -3t-34 -6q-3 -2 -4 -9t-2 -10l-8 -21q-2 -7 -4 -11.5t-3.5 -7t-4.5 -6.5q-2 -3 -5 -7t-8 -12q-1 -2 -3.5 -8.5t-6.5 -17.5q-6 -17 -14.5 -26.5t-23.5 -18.5q-11 -7 -17 -10t-10 -7t-7 -10l-9 -16q-16 -30 -42 -30q-6 0 -21 5.5
t-36.5 14.5t-48.5 22t-56 28q-26 13 -37 13q-8 0 -32 -6q-29 -7 -47 -11t-32.5 -9.5t-29 -15t-37.5 -26.5q-11 -8 -17 -13.5t-10.5 -11t-8.5 -12t-10 -16.5l-4 -7q-5 -9 -15 -9q-7 0 -9 4.5t-2 18.5q0 18 2 33t7 29t13.5 28.5t22.5 33.5l5 6q5 6 10 13t9.5 14.5t4.5 10.5
q0 7 -5 14t-12 11q-11 5 -22 11.5t-20 15.5q-5 5 -12 9.5t-13 10t-10.5 11.5t-4.5 14q0 11 11 19t40 22q26 13 34 19t8 14q0 6 -4.5 11.5t-10.5 11.5q-7 14 -17.5 29.5t-18.5 28.5q-7 11 -12 32t-5 38q0 11 4.5 17.5t11.5 6.5t14 -11t9 -14q8 -12 23.5 -26.5t33.5 -28
t36 -24t31 -14.5l71 -15q8 -2 17.5 -2.5t14.5 -0.5q13 0 24.5 10.5t40.5 31.5q7 5 15.5 7t17.5 2.5t19 1.5t20 4q1 0 2 0.5t2 0.5q23 8 46.5 14t43.5 6l57 -7q26 0 37 7q5 3 7.5 5.5t7.5 2.5q9 0 13 -11.5t4 -18.5q0 -12 -2 -20.5t-4 -19.5q0 -1 -0.5 -2t-0.5 -2
q-2 -5 -9.5 -14t-6.5 -11q7 2 12 2h28q9 0 16 0.5t13 0.5q45 0 80 -4t58 -10q18 -5 27 -17t9 -22zM902 306q0 11 -16.5 19.5t-33.5 10.5q-13 2 -31.5 1.5t-45.5 1.5q-29 2 -48 3t-40 1h-19q-8 0 -18.5 -5.5t-35.5 -7.5q-9 0 -20.5 3t-15.5 4q-11 -5 -19.5 -13.5t-19.5 -10.5
q-12 -8 -24.5 -16.5t-24.5 -16.5q-7 1 -7 5l18 31q-13 5 -22 10t-9 10q0 2 3 4q1 1 4 1q8 0 20.5 -5t21.5 -5q13 1 25.5 12.5t26.5 17.5q2 1 6 1q7 0 15 -3.5t15 -3.5q22 3 37.5 5.5t31.5 15.5q5 8 10 14.5t5 11.5q0 15 -2 18.5t-7 3.5h-10q-8 0 -14 -5.5t-10 -12.5
t-7 -12.5t-5 -5.5q-7 0 -9 8t-4 12l-13 10q-18 2 -23 4.5t-10 2.5q-13 0 -35 -6.5t-44 -14.5q-17 -5 -29.5 -4.5t-20.5 -4.5l-58 -43q-7 -5 -12 -20t-7 -41q-2 -42 -3 -65.5t-1.5 -35t-1 -15t-0.5 -5.5q0 -15 2 -24t9.5 -16.5t23 -15.5t43.5 -20q7 -3 20 -10t26 -13.5
t24 -11.5t15 -5q1 3 -12 14.5t-25 27.5q-7 8 -10.5 19.5t-3.5 20.5q0 6 1 8q3 8 12.5 11t9.5 6t-4 4.5t-6 3.5q-6 6 -7.5 13.5t-1.5 12.5v6q1 17 9.5 18.5t12.5 3.5h10q4 0 4 2q0 3 -5 10.5t-5 17.5v4q1 9 6 13.5t10.5 7t10 3t6.5 1.5q8 3 18.5 4t21.5 1q16 0 32 -1.5
t30 -3.5h7q2 0 4 -0.5t4 -0.5t5 3q2 2 2 6l-1 9q0 2 2 4q1 1 3 1t2 -1h2q3 0 5.5 -4t6 -9t8.5 -9t13 -4q20 0 30.5 2t16 4.5t8 4.5t6.5 2q3 0 4 -1t3.5 -2t7 -2t14.5 -1h6q12 0 18 2t9 4t5 3.5t5 1.5q5 0 5 -3.5t17 -3.5h8q5 0 10 1t14.5 5.5t9.5 11.5zM343 329q0 4 -1 10
q0 2 -0.5 5t-0.5 8q-8 2 -15.5 3.5t-15.5 1.5q-9 0 -12.5 -7.5t-5.5 -27.5q0 -8 -1 -19t-2 -23.5t-2 -24t-1 -18.5q0 -14 0.5 -24t1 -19t1 -19t0.5 -24q0 -15 2.5 -20.5t10.5 -5.5q6 0 18 2.5t13 2.5q2 2 2.5 8t0.5 14q0 9 -0.5 18t-0.5 12q1 33 4.5 66.5t3.5 66.5v14z
M684 229q0 12 -10 22t-18 10t-22 2q-8 3 -17 4t-20 1q-12 0 -24 -1.5t-21 -5.5q-5 -2 -8.5 -7.5t-3.5 -11.5t4 -10q6 -6 15.5 -7.5t17.5 -5.5q6 -2 14.5 -6.5t17.5 -9t17 -7.5t14 -3q14 0 29 10.5t15 25.5zM647 158q0 5 -3 9.5t-5 6.5q-6 0 -18 5q-10 4 -13 6
q-9 4 -22.5 8.5t-15.5 5.5q-6 2 -15.5 4.5t-12.5 3.5l-5 1q-12 0 -22 -10q-1 -1 -1 -4q0 -5 2.5 -10t4.5 -8q9 -14 17.5 -19t20.5 -17q8 -5 16 -14t22 -10q11 0 20.5 4.5t16.5 10.5q13 11 13 27zM576 95q0 3 -7 10t-16 15t-17.5 14.5t-12.5 8.5q-8 -1 -11.5 -6.5t-3.5 -13.5
q0 -5 1.5 -10t4.5 -9q14 -18 24.5 -30.5t15.5 -12.5q3 1 8.5 4t9.5 8q3 5 3.5 11.5t0.5 10.5z" />
    <glyph glyph-name="uni261F" unicode="&#x261f;" horiz-adv-x="700" 
d="M419 -195q-35 0 -40 55l-7 78q-2 27 -3 51t-6 34q-2 3 -9 4t-10 2l-21 7q-7 3 -11.5 5t-7 3.5t-6.5 4.5q-3 2 -7 5t-12 8q-2 1 -8.5 3.5t-17.5 6.5q-17 6 -26.5 14.5t-18.5 23.5q-7 11 -10 17t-7 10t-10 7l-16 9q-30 16 -30 42q0 6 5.5 21t14.5 36.5t22 48.5t28 56
q13 26 13 37q0 8 -6 32q-7 29 -11 47t-9.5 32.5t-15 29t-26.5 37.5q-8 10 -13.5 16.5t-11 11t-12 8.5t-16.5 10l-7 4q-9 5 -9 15q0 7 4.5 9t18.5 2q18 0 33 -2t29 -7t28.5 -13.5t33.5 -22.5l6 -5q6 -5 13 -10t14.5 -9.5t10.5 -4.5q7 0 14 5t11 12q5 11 11.5 22t15.5 20
q5 5 9.5 12t10 13t11.5 10.5t14 4.5q11 0 19 -11t22 -40q13 -26 19 -34t14 -8q6 0 11.5 4.5t11.5 10.5q14 7 29.5 17.5t28.5 18.5q11 7 32 12t38 5q11 0 17.5 -4.5t6.5 -11.5t-11 -14t-14 -9q-12 -8 -26.5 -23.5t-28 -33.5t-24 -36t-14.5 -31l-15 -71q-2 -8 -2.5 -17.5
t-0.5 -14.5q0 -13 10.5 -24.5t31.5 -40.5q5 -7 7 -15.5t2.5 -17.5t1.5 -19t4 -20q0 -1 0.5 -2t0.5 -2q8 -23 14 -46.5t6 -43.5l-7 -57q0 -27 7 -37q3 -5 5.5 -7.5t2.5 -7.5q0 -9 -11.5 -13t-18.5 -4q-12 0 -20.5 2t-19.5 4q-1 0 -2 0.5t-2 0.5q-5 2 -14 9.5t-11 6.5
q2 -7 2 -13v-27q0 -9 0.5 -16t0.5 -13q0 -45 -4 -80t-10 -58q-5 -18 -17 -27t-22 -9zM416 -163q11 0 19.5 16.5t10.5 33.5q2 13 1.5 31.5t1.5 45.5q2 29 3 48t1 40v19q0 4 -1.5 8t-4 10t-4.5 14.5t-3 21.5q0 9 3 20.5t4 15.5q-5 11 -13.5 19.5t-10.5 19.5q-8 12 -16.5 24.5
t-16.5 24.5q1 7 5 7l31 -18q5 13 10 22t10 9q2 0 4 -3q1 -1 1 -4q0 -8 -5 -20.5t-5 -21.5q1 -13 12.5 -25.5t17.5 -26.5q1 -2 1 -6q0 -7 -3.5 -15t-3.5 -15q3 -22 5.5 -37.5t15.5 -31.5q8 -5 14.5 -10t11.5 -5q15 0 18.5 2t3.5 7v10q0 8 -5.5 14t-12.5 10t-12.5 7t-5.5 5
q0 7 8 9t12 4l10 13q2 18 4.5 23t2.5 10q0 13 -6.5 35t-14.5 44q-5 17 -4.5 29.5t-4.5 20.5l-43 58q-5 7 -20 12t-41 7q-42 2 -65.5 3t-35 1.5t-15 1t-5.5 0.5q-15 0 -24 -2t-16.5 -9.5t-15.5 -23t-20 -43.5q-3 -7 -10 -20t-13.5 -26t-11.5 -24t-5 -15q3 -1 14.5 12t27.5 25
q8 7 19.5 10.5t20.5 3.5q6 0 8 -1q8 -3 11 -12.5t6 -9.5t4.5 4t3.5 6q6 6 13.5 7.5t12.5 1.5h6q17 -1 18.5 -9.5t3.5 -12.5v-10q0 -4 2 -4q3 0 10.5 5t17.5 5h4q9 -2 13.5 -6.5t7 -10t3 -10.5t1.5 -6q3 -8 4 -18.5t1 -21.5q0 -16 -1.5 -32t-3.5 -30v-7q0 -2 -0.5 -4t-0.5 -4
t3 -5q2 -2 6 -2l9 1q2 0 4 -2q1 -1 1 -3t-1 -3v-1q0 -3 -4 -5.5t-9 -6t-9 -9t-4 -12.5q0 -20 2 -30.5t4.5 -16t4.5 -8t2 -6.5q0 -5 -3 -7.5t-3 -21.5v-6q0 -12 2 -18t4 -9t3.5 -5t1.5 -5q0 -5 -3.5 -5t-3.5 -17v-8q0 -5 1 -10t5.5 -14.5t11.5 -9.5zM439 396q4 0 10 1
q2 0 5 0.5t8 0.5q2 8 3.5 15.5t1.5 15.5q0 9 -7.5 12.5t-27.5 5.5q-8 0 -19 1t-23.5 2t-24 2t-18.5 1q-14 0 -24 -0.5t-19 -1t-19 -1t-24 -0.5q-15 0 -20.5 -2.5t-5.5 -10.5q0 -6 2.5 -18t2.5 -13q2 -2 8 -2.5t14 -0.5q9 0 18 0.5t12 0.5q33 -1 66.5 -4.5t66.5 -3.5h14z
M339 55q12 0 22 10t10 18t2 22q3 8 4 17t1 20q0 12 -1.5 24t-5.5 21q-2 5 -7.5 8.5t-11.5 3.5t-10 -4q-6 -6 -7.5 -15.5t-5.5 -17.5q-2 -6 -6.5 -14.5t-9 -17.5t-7.5 -17t-3 -14q0 -14 10.5 -29t25.5 -15zM268 92q5 0 9.5 3t6.5 5q0 6 5 18q4 10 6 13q4 9 8.5 22.5t5.5 15.5
q2 6 4.5 15.5t3.5 12.5l1 5q0 12 -10 22q-1 1 -4 1q-5 0 -10 -2.5t-8 -4.5q-14 -9 -19 -17.5t-17 -20.5q-5 -8 -14 -16t-10 -22q0 -11 4.5 -20.5t10.5 -16.5q11 -13 27 -13zM205 163q3 0 10 7t15 16t14.5 17.5t8.5 12.5q-1 8 -6.5 11.5t-13.5 3.5q-5 0 -10 -1.5t-9 -4.5
q-18 -14 -30.5 -24.5t-12.5 -15.5q1 -3 4 -8.5t8 -9.5q5 -3 11.5 -3.5t10.5 -0.5z" />
    <glyph glyph-name="uni2662" unicode="&#x2662;" horiz-adv-x="377" 
d="M218 464l173 -237l-173 -239l-171 239zM218 411l-127 -184l127 -184l129 184z" />
    <glyph glyph-name="diamond" unicode="&#x2666;" horiz-adv-x="620" 
d="M310 -22l-248 248l248 248l248 -248z" />
    <glyph glyph-name="uni2726" unicode="&#x2726;" horiz-adv-x="920" 
d="M555 235l-95 -313l-95 313l-313 95l313 95l95 313l95 -313l313 -95z" />
    <glyph glyph-name="uni2727" unicode="&#x2727;" horiz-adv-x="920" 
d="M555 235l-95 -313l-95 313l-313 95l313 95l95 313l95 -313l313 -95zM509 379l-49 244l-49 -244l-244 -49l244 -49l49 -244l49 244l244 49z" />
    <glyph glyph-name="uni2729" unicode="&#x2729;" horiz-adv-x="620" 
d="M423 196l70 -214l-183 132l-182 -132l69 214l-182 133h225l70 214l70 -214h225zM345 285l-35 156l-35 -156l-159 15l138 -81l-64 -146l120 105l120 -105l-64 146l138 81z" />
    </font>
</defs>
</svg>
